<svg width="40" height="40" viewBox="0 0 40 40" fill="none" xmlns="http://www.w3.org/2000/svg">
<g clip-path="url(#clip0_5612_17669)">
<rect width="40" height="40" rx="20" fill="#005430"/>
<g clip-path="url(#clip1_5612_17669)">
<path d="M-13 44H54V-1H-13V44Z" fill="#005430"/>
<path d="M37.2506 16.875C37.2459 16.0845 36.9415 13.9552 36.8642 13.2409C36.7871 12.5265 36.7094 11.8785 36.7282 11.7267C36.7465 11.5803 36.9702 11.9303 37.0885 11.9586C37.1497 11.9463 37.1223 11.7252 37.0112 11.5364C36.936 11.4082 36.6795 10.9288 36.5239 10.6479C36.4507 10.515 36.4344 10.4379 36.3991 10.4215C36.364 10.4052 36.0808 10.9809 36.1118 11.0447C36.1891 11.1617 36.2421 11.2175 36.2541 11.4242C36.2663 11.6308 36.3724 13.1062 36.5076 14.2245C36.6093 15.0682 36.8326 16.8858 36.8405 18.0159C36.8428 18.3846 36.8022 18.7359 36.7535 18.8828C36.6285 19.1133 36.4331 19.3213 35.7056 19.7502C34.8877 20.2324 33.7966 20.6337 33.3276 20.9023C33.036 21.0698 33.1327 21.0922 33.3865 21.0189C33.6398 20.9456 34.9493 20.7107 35.5855 20.4398C36.1827 20.1849 36.5704 19.7585 36.8646 19.1365C37.228 18.3675 37.2557 17.7149 37.2506 16.875Z" fill="white"/>
<path d="M34.7155 10.8723C34.7787 10.8476 35.3021 10.8204 35.443 10.8496C35.3505 10.983 34.7228 11.2781 34.7202 11.3323C34.7373 11.3687 35.1537 11.2648 35.285 11.2071C35.3709 11.1551 35.4282 11.0745 35.4918 11.0077C35.6418 10.8337 35.8199 10.511 35.775 10.4705C35.7022 10.4052 34.9887 10.4459 34.8947 10.4593C34.8317 10.4685 34.6719 10.7572 34.6425 10.8312C34.6137 10.9053 34.6523 10.8969 34.7155 10.8723Z" fill="white"/>
<path d="M35.7877 15.557C35.8968 15.1847 35.9237 14.7331 35.7752 14.2577C35.6227 13.7682 35.2438 13.4699 34.9706 13.317L34.9219 13.7882C34.9219 13.7882 35.305 13.98 35.567 14.463C35.733 14.7694 35.8021 15.2026 35.671 15.6856C35.6492 15.8054 35.7342 15.7393 35.7877 15.557Z" fill="white"/>
<path d="M31.7329 17.9158C31.8312 17.5806 31.8552 17.1739 31.7219 16.7458C31.5844 16.305 31.2433 16.0363 30.9972 15.8991L30.9531 16.3232C30.9531 16.3232 31.2981 16.4961 31.5341 16.9306C31.6837 17.2062 31.7457 17.5969 31.6281 18.0317C31.6085 18.1392 31.685 18.0799 31.7329 17.9158Z" fill="white"/>
<path d="M17.6596 11.5078C17.8174 11.7986 17.8829 12.2104 17.7587 12.6691C17.7379 12.7828 17.8183 12.7203 17.8694 12.5471C17.9726 12.1939 17.9983 11.7646 17.8572 11.3128C17.7122 10.8476 17.3523 10.5644 17.0928 10.4195L17.0469 10.867C17.0469 10.867 17.4109 11.0491 17.6596 11.5078Z" fill="white"/>
<path d="M8.16246 11.6547C8.295 11.9677 8.30398 12.3903 8.08987 12.8355C8.04827 12.9473 8.14962 12.8943 8.23465 12.727C8.40838 12.3849 8.50585 11.9568 8.41776 11.4839C8.32743 10.9977 7.96488 10.6663 7.69347 10.4868L7.57031 10.931C7.57031 10.931 7.95346 11.1612 8.16246 11.6547Z" fill="white"/>
<path d="M10.787 18.6508C10.9555 18.3359 11.0256 18.1239 11.1005 17.7509C11.1659 17.4227 11.1702 17.0436 11.1465 16.6576C11.6506 16.4506 12.2513 16.107 12.4532 16.0818C12.3151 16.5593 12.6447 17.0745 13.3102 17.0073C13.3612 17.5473 13.4048 18.0215 13.4313 18.3028C13.4856 18.8795 13.4774 19.6061 13.4758 19.7324C13.4735 19.8593 13.5647 19.8354 13.6583 19.5528C13.7831 19.1744 13.8216 18.1864 13.7763 17.533C13.7655 17.3697 13.7472 17.1492 13.725 16.8979C14.1564 16.6968 14.2282 16.3086 14.3895 16.1431C14.5351 16.6569 15.3365 16.7266 15.5838 16.6166C15.8905 16.4801 15.991 16.2345 16.0699 15.6645C16.149 15.0947 15.9186 14.8653 15.8362 14.8032C15.8281 14.8721 15.6274 15.5418 15.6274 15.5418C15.6274 15.5418 15.8177 15.7443 15.8273 15.8438C15.6723 15.9851 15.3454 15.9938 15.071 15.9038C14.7963 15.8138 14.7121 15.6482 14.7284 15.5371C14.7443 15.4256 14.8477 15.3241 14.8512 15.1883C14.8542 15.0525 14.7896 15.0919 14.6797 15.2121C14.5698 15.3325 14.4988 15.4408 14.3467 15.6993C14.2223 15.9106 14.0204 16.1686 13.6644 16.2423C13.6057 15.6216 13.5386 14.9612 13.4937 14.5464C13.4703 14.3274 13.236 12.4349 13.2193 12.2231C13.2048 12.0387 13.1777 11.8212 13.1822 11.7191C13.1866 11.6378 13.2372 11.6701 13.3155 11.7551C13.394 11.84 13.5312 11.9882 13.5549 11.9766C13.6348 11.9371 13.5531 11.6911 13.4485 11.4708C13.3441 11.2499 12.9876 10.3785 12.9128 10.3426C12.8743 10.3244 12.6336 10.8608 12.6194 10.9664C12.6567 11.0325 12.7542 11.1364 12.7576 11.4319C12.7588 11.5143 12.8114 12.2915 12.8844 13.0264C12.9483 13.6753 13.0329 14.2911 13.0411 14.3627C13.0992 14.858 13.1697 15.5562 13.2368 16.2426C12.8504 16.1686 12.7476 15.9118 12.7562 15.7653C12.766 15.6001 12.84 15.4136 12.8045 15.3714C12.7301 15.3264 12.2872 15.5758 11.6696 15.8438C11.4958 15.919 11.3001 15.9997 11.0935 16.0763C11.0397 15.6085 10.9687 15.1636 10.9402 14.8235L10.9367 14.7857C11.3429 14.7593 11.6755 14.5526 11.8268 14.3559C12.0158 14.1099 12.1479 13.6037 12.1608 13.2159C12.1736 12.8277 11.8627 12.1179 11.7886 11.8923C11.714 11.6664 11.6755 11.5099 11.6689 11.4319C11.6622 11.3538 11.837 11.5223 11.9469 11.5553C12.0213 11.5703 11.9956 11.408 11.9047 11.2965C11.8143 11.1854 11.3258 10.4384 11.2915 10.4908C11.2705 10.5215 11.0748 11.071 11.0619 11.1552C11.139 11.2064 11.2291 11.3477 11.2354 11.4832C11.242 11.6186 11.3496 12.214 11.4689 12.5449C11.5886 12.8757 11.8435 13.5105 11.8596 13.685C11.6775 13.8144 11.263 14.0334 10.8529 14.0203C10.7828 13.4414 10.6939 12.769 10.6463 12.2928C10.628 12.1088 10.6268 11.9124 10.6296 11.8098C10.6319 11.7286 10.69 11.7398 10.7699 11.8233C10.8503 11.9069 10.9734 12.0285 10.9987 12.0197C11.0538 12.0013 11.006 11.8169 10.8969 11.5979C10.7879 11.3789 10.3543 10.4526 10.2783 10.418C10.2398 10.4004 10.0456 10.9206 10.0334 11.0268C10.0721 11.0925 10.1714 11.1941 10.1812 11.4896C10.189 11.7249 10.3028 12.8782 10.4002 13.894C9.99445 13.6826 9.85599 13.3804 9.80583 12.8731C9.77076 12.5194 9.76729 11.868 9.64209 11.3231C9.57154 11.015 9.42289 10.702 9.24671 10.5358C9.20471 10.6382 9.01711 11.2666 9.01711 11.2666C9.07829 11.4471 9.26853 12.0547 9.26201 12.5812C9.25569 13.1076 9.2145 13.6224 8.62887 13.977C8.04365 14.3317 7.16582 14.1906 6.94907 13.6372C6.73231 13.0833 7.21415 11.6947 7.20783 11.3669C7.2013 11.0391 7.14319 10.9939 7.00718 11.048C6.87138 11.1022 6.59345 11.4182 6.35406 11.9324C6.11467 12.4469 6.00823 13.0841 5.87223 13.5173C5.73663 13.9506 5.51946 14.3895 5.18342 14.3652C4.84738 14.3412 4.66651 14.0315 4.56313 13.5834C4.45955 13.135 4.52296 12.5445 4.5511 12.3931C4.62125 12.014 4.45873 12.0917 4.35922 12.6869C4.29764 13.0541 4.23647 13.6404 4.45322 14.2541C4.66957 14.8677 5.03844 15.0966 5.36164 15.0182C5.68504 14.9401 5.96929 14.176 6.06961 13.8328C6.16973 13.4902 6.61772 11.9682 6.87138 11.8934C6.90686 12.0649 6.6742 12.6178 6.59977 13.2645C6.52555 13.9112 6.69867 14.78 7.51349 14.9302C8.32831 15.0806 8.88111 14.5483 9.08155 14.1787C9.28219 13.8085 9.37579 13.4205 9.39842 13.225C9.42452 13.7211 9.76057 14.4958 10.4133 14.7167L10.4806 14.7363C10.5207 15.1424 10.5862 15.6725 10.6463 16.2292C10.5193 16.2687 10.3911 16.3044 10.2634 16.3351C10.2471 16.2818 10.2291 16.2295 10.2073 16.1815C10.0081 15.7498 9.67839 15.3519 9.22143 15.3794C8.75468 15.4073 8.24573 16.0349 8.26795 16.4932C8.28263 16.8014 8.45106 17.0544 9.0636 17.1192C9.34337 17.149 9.64046 17.1177 9.94735 17.0502C9.99057 17.1777 10.0179 17.3044 10.021 17.4198C9.82684 17.6485 8.22065 18.869 7.01799 18.9864C5.81534 19.1036 5.4485 18.4684 5.43647 17.8308C5.4275 17.3458 5.71705 16.8616 5.92055 16.5266C6.21174 16.312 6.45072 16.0436 6.60161 15.8366C6.64259 15.862 6.68154 15.8856 6.71865 15.9074C6.86241 15.9916 6.91971 16.1173 6.91971 16.1173C6.94621 16.0763 7.06978 15.8521 7.02146 15.7426C6.99923 15.7156 6.89055 15.6482 6.75984 15.5682C6.89707 15.2237 6.89524 14.8797 6.71743 14.8032C6.51862 14.7179 6.25904 14.9549 6.1471 15.0995C6.08898 15.1747 6.06676 15.2599 6.06635 15.3315C6.06553 15.4237 6.10856 15.5069 6.215 15.5809C6.32103 15.6539 6.41952 15.72 6.51209 15.7796C6.24925 16.0577 5.62815 16.4651 5.24806 16.7044C5.23399 16.6692 5.17832 16.7063 5.10349 16.7952L5.00052 16.8592C4.6973 17.0461 3.97016 17.4565 3.82722 17.557C3.68408 17.6576 3.7738 17.6394 3.82722 17.617C3.92816 17.5621 4.0607 17.4956 4.20955 17.4223C4.4204 17.3184 4.6657 17.2008 4.90549 17.0829C4.83453 17.2041 4.76113 17.3458 4.69608 17.5004C4.41 18.1809 3.94753 19.5913 4.94791 20.4399C5.90506 21.2523 7.55019 20.9432 8.91455 20.099C10.2791 19.2546 10.5738 18.9577 10.787 18.6508ZM6.33857 15.2958C6.29126 15.2607 6.28473 15.2138 6.32327 15.1811C6.37242 15.139 6.43522 15.0991 6.50659 15.0856C6.65789 15.0573 6.71824 15.2324 6.65748 15.5051C6.54248 15.4343 6.42421 15.3598 6.33857 15.2958ZM9.46816 16.4463C8.77344 16.4495 8.74143 16.3224 8.75448 16.2411C8.76732 16.1602 8.98367 15.9382 9.25813 16.0846C9.37416 16.1467 9.50486 16.2766 9.62578 16.4398C9.57236 16.4438 9.51975 16.4459 9.46816 16.4463ZM7.34037 20.1269C6.02781 20.4878 4.74747 19.9286 4.66998 18.8215C4.61064 17.9761 4.91671 17.3391 5.11409 16.9801C5.3023 16.8863 5.48011 16.7952 5.62713 16.7135C5.28354 17.2709 5.08249 18.0175 5.21686 18.65C5.36898 19.3664 5.98764 19.8008 7.03512 19.6606C8.0722 19.5222 9.47448 18.5285 9.8721 18.1537C9.99323 18.0185 10.0732 17.8966 10.182 17.6481C10.2269 17.5461 10.2899 17.4115 10.3134 17.2593C10.3287 17.1602 10.3368 17.0542 10.3386 16.9463C10.4604 16.9097 10.5827 16.8687 10.7059 16.8246C10.7477 17.2781 10.7785 17.7252 10.7803 18.1119C10.1341 18.8755 8.65293 19.7659 7.34037 20.1269Z" fill="white"/>
<path d="M30.3034 17.2177C30.259 16.477 30.1517 15.1363 30.0917 14.4561C30.0387 13.8508 29.9345 13.0212 29.8583 12.2909C29.8391 12.1071 29.8371 11.931 29.8391 11.8286C29.8413 11.7477 29.9217 11.7789 30.002 11.8621C30.0824 11.9453 30.208 12.0497 30.2316 12.037C30.3101 11.996 30.2161 11.7931 30.1058 11.5749C29.9955 11.3563 29.5581 10.452 29.4821 10.4176C29.4433 10.4002 29.2384 10.9419 29.2266 11.048C29.2657 11.1134 29.3658 11.2146 29.3766 11.5101C29.3877 11.8059 29.5359 13.1654 29.6429 14.2649C29.7172 15.0292 29.813 16.2763 29.8827 17.2166C29.8793 17.2181 29.9486 18.1106 29.9561 18.2109C29.999 18.7883 29.9767 19.5148 29.9725 19.6409C29.9678 19.7676 30.0597 19.7455 30.1584 19.4644C30.259 19.1775 30.3163 18.5366 30.324 17.9581L30.3034 17.2177Z" fill="white"/>
<path d="M26.573 14.6299C26.4385 14.6714 26.2272 14.528 26.2433 14.2273C26.258 13.9557 26.3734 13.7014 26.4179 13.5409C26.479 13.3194 26.4794 13.1059 26.4276 13.2269C26.311 13.4974 26.0939 14.0203 26.049 14.3751C26.0039 14.7299 26.1181 14.9585 26.2733 15.0366C26.4666 15.1344 26.6059 14.9792 26.7001 14.7506C26.7906 14.5316 26.7735 14.2759 26.7107 14.3361C26.6581 14.399 26.6385 14.6096 26.573 14.6299Z" fill="white"/>
<path d="M24.6333 15.7222C24.7047 15.5312 24.7214 15.3439 24.6665 15.4466C24.5428 15.6768 24.3109 16.1217 24.243 16.4307C24.1753 16.7397 24.2575 16.9488 24.388 17.028C24.5507 17.1272 24.6847 17.0001 24.786 16.8054C24.8829 16.6191 24.8878 16.3929 24.8282 16.4419C24.7768 16.4935 24.7428 16.6772 24.6841 16.6907C24.5619 16.7179 24.3878 16.5773 24.4255 16.3137C24.4598 16.0763 24.5815 15.8603 24.6333 15.7222Z" fill="white"/>
<path d="M19.0104 19.7566C19.1297 19.5615 19.189 19.3592 19.1062 19.4614C18.9215 19.6897 18.5718 20.1328 18.4307 20.4578C18.29 20.7828 18.3348 21.0268 18.4602 21.1379C18.6166 21.2766 18.791 21.1626 18.9433 20.9691C19.0895 20.7835 19.1441 20.5374 19.0677 20.5794C19.0006 20.6266 18.9239 20.8209 18.8564 20.8246C18.7176 20.8314 18.5573 20.6451 18.6556 20.3644C18.7445 20.111 18.9241 19.8979 19.0104 19.7566Z" fill="white"/>
<path d="M28.8803 14.058C28.7435 14.0926 28.5412 13.9381 28.5751 13.6386C28.6059 13.3684 28.7366 13.1205 28.7902 12.9629C28.8648 12.7446 28.8777 12.5317 28.8187 12.6495C28.6866 12.9139 28.4387 13.4244 28.3724 13.7765C28.3061 14.1285 28.4062 14.3626 28.5567 14.4487C28.7443 14.5558 28.8919 14.4084 29 14.1847C29.1034 13.9708 29.1018 13.7148 29.0351 13.7718C28.979 13.8322 28.947 14.0413 28.8803 14.058Z" fill="white"/>
<path d="M28.838 17.7338C29.0252 17.841 29.1736 17.6936 29.2813 17.4698C29.3844 17.256 29.383 16.9999 29.3167 17.0569C29.2603 17.1169 29.2283 17.3264 29.1616 17.3432C29.0248 17.3775 28.8221 17.2233 28.8563 16.9238C28.8871 16.6535 29.0176 16.4055 29.0714 16.248C29.1459 16.0298 29.1587 15.8165 29.1 15.9346C28.9675 16.199 28.7199 16.7095 28.6536 17.0613C28.5874 17.4136 28.6875 17.6478 28.838 17.7338Z" fill="white"/>
<path d="M31.2343 13.0414C31.3244 12.7774 31.3399 12.5197 31.2685 12.6623C31.1083 12.9821 30.8085 13.5998 30.7282 14.0262C30.6482 14.4522 30.7696 14.7354 30.9517 14.8397C31.1782 14.9692 31.3574 14.7909 31.4881 14.5204C31.6127 14.2615 31.6109 13.9514 31.5305 14.0207C31.4626 14.0934 31.4237 14.3464 31.343 14.3667C31.1778 14.4085 30.9325 14.2218 30.9739 13.8594C31.0112 13.5324 31.1692 13.2325 31.2343 13.0414Z" fill="white"/>
<path d="M12.1097 17.6085C12.2571 17.2867 12.3105 16.9646 12.202 17.1361C11.9592 17.5199 11.5018 18.2631 11.3456 18.7896C11.1892 19.3163 11.305 19.6863 11.5202 19.8381C11.7885 20.0265 12.0371 19.8221 12.2363 19.4971C12.4269 19.1854 12.4649 18.7951 12.355 18.8732C12.2602 18.9568 12.1782 19.2709 12.0742 19.2874C11.8605 19.3212 11.5766 19.0588 11.6757 18.6077C11.7655 18.2007 12.0032 17.8413 12.1097 17.6085Z" fill="white"/>
<path d="M32.7532 20.8008C32.8661 20.7075 33.8486 20.1744 34.0294 20.0661C34.0294 20.0661 34.2144 19.7622 34.1589 19.73C34.1032 19.6977 33.7446 20.0262 33.5215 20.0354C33.2982 20.0445 32.9925 19.8792 32.9828 19.7438C33.0117 19.6416 33.2803 19.4882 33.3773 19.4819C33.4744 19.4762 33.4587 19.6988 33.4911 19.726C33.5235 19.7527 33.6526 19.5723 33.6689 19.4971C33.6848 19.4221 33.6716 19.1079 33.494 19.1529C33.2128 19.2245 32.7886 19.7499 32.7403 19.9151C32.6916 20.0808 32.9536 20.2249 33.1449 20.3034C33.1285 20.3094 32.9858 20.3786 32.8955 20.4686C32.8955 20.4686 32.7984 20.5782 32.7532 20.8008Z" fill="white"/>
<path d="M29.4016 21.457C29.5146 21.3638 30.497 20.831 30.6779 20.7224C30.6779 20.7224 30.8632 20.4185 30.8073 20.3862C30.7517 20.3539 30.393 20.6825 30.1699 20.6916C29.9466 20.7007 29.641 20.5355 29.6312 20.4001C29.6601 20.2979 29.9287 20.1444 30.0258 20.1385C30.1228 20.1325 30.1071 20.3549 30.1395 20.3818C30.172 20.409 30.301 20.2286 30.3173 20.1533C30.3332 20.0783 30.3196 19.7642 30.1424 19.8092C29.8612 19.8812 29.4371 20.4061 29.3887 20.5718C29.34 20.737 29.602 20.8812 29.7929 20.9596C29.777 20.9657 29.6342 21.0346 29.5439 21.1248C29.5439 21.1248 29.4469 21.2344 29.4016 21.457Z" fill="white"/>
<path d="M21.8631 11.9034C21.9512 12.0066 22.5283 12.7452 22.9804 13.2096C23.4322 13.6743 24.2069 14.4265 24.776 14.9419C24.8861 15.0418 25.0029 15.1501 25.1218 15.2627C25.2654 16.3731 25.4313 17.786 25.5011 18.3702C25.5698 18.9455 25.58 19.672 25.5814 19.7985C25.5826 19.9252 25.6732 19.8993 25.7592 19.615C25.8746 19.2334 25.8879 18.2454 25.8267 17.5928C25.7888 17.1898 25.6993 16.4348 25.6126 15.7387C25.9487 16.0732 26.2661 16.405 26.48 16.6534C26.8734 17.1094 27.2043 17.4534 27.406 17.9436C27.5487 18.2904 27.5343 18.5664 27.5928 18.6209C27.6433 18.668 27.6992 18.253 27.6368 17.8505C27.5357 17.197 27.397 16.9199 26.5643 15.9868C26.2466 15.6301 25.8726 15.2572 25.507 14.9087C25.4929 14.8012 25.4801 14.7017 25.4685 14.6134C25.4395 14.3951 25.1573 12.5084 25.1351 12.297C25.1161 12.1129 25.0829 11.8962 25.0855 11.7938C25.0876 11.7124 25.1389 11.7441 25.2197 11.8273C25.3 11.9103 25.4407 12.0556 25.4646 12.0428C25.5433 12.0018 25.4556 11.7581 25.3453 11.5395C25.2354 11.3213 24.8567 10.4579 24.7807 10.4237C24.7421 10.4062 24.5152 10.9477 24.5036 11.0537C24.5429 11.119 24.6428 11.2208 24.6536 11.516C24.6567 11.5984 24.7293 12.3745 24.8204 13.1072C24.9012 13.7547 25.0011 14.3687 25.0115 14.4398L25.0119 14.4453C24.6349 14.0988 24.3027 13.8046 24.1012 13.6198C23.6302 13.1885 22.5899 12.165 22.5481 12.0117C22.5387 11.9633 22.6194 11.9931 22.7679 12.017C22.9169 12.0411 23.0495 12.0922 23.0256 12.0185C23.0148 11.9838 22.9577 11.8979 22.8156 11.8094C22.6733 11.7207 22.3087 11.4909 22.0375 11.3283C21.7657 11.1659 21.6311 11.0297 21.575 11.0687C21.5473 11.0879 21.572 11.6442 21.5883 11.7135C21.6562 11.7194 21.7755 11.7999 21.8631 11.9034Z" fill="white"/>
<path d="M22.6062 10.9014C22.7177 10.8767 23.2462 10.8902 23.4381 10.9309C23.3578 10.9871 22.817 11.2623 22.7102 11.3278C22.6039 11.3935 22.577 11.4315 22.6304 11.4251C22.7854 11.3818 23.1347 11.3278 23.3021 11.2399C23.4599 11.1654 23.7289 10.8023 23.8335 10.6669C23.9375 10.5314 23.9375 10.4638 23.911 10.4276C23.8041 10.3691 23.1153 10.3104 22.7832 10.3934C22.6912 10.4562 22.5113 10.7911 22.4848 10.8608C22.4583 10.9309 22.4946 10.9261 22.6062 10.9014Z" fill="white"/>
<path d="M25.5418 10.8547C25.632 10.8348 26.0579 10.8456 26.2123 10.8783C26.1476 10.9237 25.7121 11.1455 25.626 11.1987C25.5398 11.2513 25.5184 11.2821 25.5614 11.2768C25.6864 11.2422 25.968 11.1987 26.1028 11.1275C26.2298 11.0674 26.4466 10.7748 26.5308 10.6659C26.6146 10.5565 26.6146 10.5022 26.5932 10.4732C26.5075 10.4255 25.9523 10.3784 25.6846 10.4454C25.6103 10.4959 25.4658 10.7658 25.4444 10.8221C25.4225 10.8783 25.4521 10.8747 25.5418 10.8547Z" fill="white"/>
<path d="M27.9327 10.8274C28.0224 10.8074 28.4484 10.8183 28.6027 10.8509C28.5385 10.8963 28.1028 11.1182 28.0165 11.171C27.9307 11.224 27.9093 11.2547 27.9523 11.2494C28.0773 11.2148 28.3807 11.171 28.5155 11.1001C28.6427 11.0401 28.7934 10.7474 28.8776 10.6382C28.9618 10.5292 28.9618 10.4745 28.94 10.4458C28.8544 10.3981 28.3428 10.351 28.0754 10.4177C28.0012 10.4686 27.8562 10.7385 27.8348 10.7947C27.8134 10.8509 27.8426 10.8473 27.9327 10.8274Z" fill="white"/>
<path d="M26.437 12.0015C26.2955 12.226 26.4729 12.4072 26.5375 12.5886C26.4503 12.6689 26.3161 12.5956 26.2712 12.5251C26.1758 12.3806 26.2078 12.086 26.0955 12.0406C26.0667 12.1202 26.048 12.2085 26.048 12.2085C26.048 12.2085 26.1334 12.41 26.112 12.5434C26.0983 12.6239 26.0278 12.7179 25.9346 12.7198C25.6862 12.7259 25.8086 12.3555 25.7127 12.1457C25.6932 12.1969 25.6791 12.252 25.6562 12.3001C25.6738 12.3548 25.6834 12.4315 25.6862 12.4758C25.6919 12.5637 25.685 12.6585 25.6999 12.7335C25.7205 12.8397 25.779 12.9101 25.8683 12.917C26.0539 12.9318 26.1385 12.7804 26.1664 12.6562C26.1984 12.7829 26.4437 12.9225 26.5645 12.7669C26.7243 12.5618 26.5965 12.3861 26.5145 12.1931C26.4554 12.0505 26.4725 11.9569 26.437 12.0015Z" fill="white"/>
<path d="M19.4707 11.4072C19.4835 11.4995 19.5306 11.5626 19.6075 11.5721C19.7661 11.5924 19.8465 11.4653 19.8764 11.3597C19.8974 11.4701 20.1026 11.6 20.2141 11.4712C20.3615 11.3008 20.2594 11.1443 20.1978 10.9747C20.1538 10.849 20.1727 10.7692 20.1401 10.8063C20.0076 10.9935 20.1521 11.1574 20.1992 11.3164C20.1201 11.3817 20.0082 11.3132 19.9727 11.2511C19.8972 11.1225 19.9384 10.8701 19.8442 10.8262C19.8157 10.8938 19.7955 10.9688 19.7955 10.9688C19.7955 10.9688 19.8593 11.146 19.8344 11.2598C19.8191 11.3288 19.7541 11.4068 19.6733 11.4047C19.4594 11.4 19.5822 11.0858 19.5092 10.9014C19.4902 10.9445 19.4754 10.9918 19.4531 11.0317C19.466 11.0799 19.4707 11.146 19.4707 11.1846C19.4723 11.2606 19.4617 11.3415 19.4707 11.4072Z" fill="white"/>
<path d="M24.5314 20.1021C24.5553 20.0639 24.6079 19.9591 24.5946 19.8875C24.5814 19.8158 24.4943 19.5171 24.3253 19.4423C24.1572 19.3674 24.03 19.5243 23.9494 19.7425L23.8936 19.7412C23.8803 19.7735 23.8636 19.8217 23.8504 19.9089C23.8316 20.0348 23.7961 20.1159 23.5818 20.3119C23.4015 20.476 22.8176 20.8702 22.4391 21.0553C22.0602 21.2409 21.7876 21.401 21.6871 21.4496C21.587 21.4975 21.6161 21.5153 21.7162 21.4851C21.8162 21.4551 22.319 21.292 22.5194 21.2088C22.7195 21.125 22.9642 20.9873 23.259 20.7946C23.5869 20.5803 23.7829 20.3661 23.8487 20.1761C23.8956 20.0407 23.9076 19.9866 23.9076 19.9866C23.9076 19.9866 24.0308 20.0599 24.2398 20.108C24.448 20.1562 24.5071 20.1406 24.5314 20.1021ZM24.2488 19.6776C24.3416 19.7131 24.398 19.8149 24.4148 19.8766C24.3083 19.8791 24.1124 19.8246 24.029 19.7866C24.0791 19.6888 24.1664 19.6464 24.2488 19.6776Z" fill="white"/>
<path d="M22.3091 20.314C22.0183 20.2734 21.2856 20.1611 21.1064 19.7326C21.2569 19.5115 21.95 19.2316 22.8182 18.9697C23.6865 18.7083 24.5936 18.3691 24.8375 18.2054C24.8909 18.1872 24.9943 18.1927 24.9943 18.1927C25.038 18.066 25.2559 17.6212 25.2696 17.5281C25.027 17.542 23.5313 17.6527 22.8669 17.6886C22.2022 17.7247 20.9221 17.7159 20.4955 17.7112C20.7571 17.5216 21.378 17.1516 22.2654 16.836C22.3804 16.795 22.4869 16.7579 22.5862 16.7245C22.66 16.8571 22.7148 16.9881 22.7263 17.1023C22.7827 17.0438 22.8251 16.8498 22.8109 16.6508C23.3282 16.4844 23.5947 16.4293 23.7097 16.398C23.7823 16.3032 23.911 15.9199 23.9301 15.6413C23.8528 15.4994 23.6108 15.3228 23.3955 15.171C23.0988 14.9623 22.7789 14.7804 22.4595 14.8599C22.023 14.9678 21.9355 15.7758 22.0372 15.9471C22.0697 16.0012 22.1465 16.0972 22.2373 16.2155C21.9184 16.3418 21.5848 16.4903 21.2907 16.6464C20.6358 16.994 19.9046 17.3742 19.6913 17.7399L19.6301 17.7699C19.613 17.8044 19.478 18.3702 19.4584 18.4312C19.5946 18.4265 20.6117 18.4284 21.3201 18.4061C22.0281 18.3834 22.6471 18.3607 22.8896 18.3607C22.5305 18.4464 21.5895 18.7987 21.3189 19.0059C21.0483 19.2137 20.8782 19.5296 20.8737 20.0711C20.6215 19.9716 20.1527 19.7442 19.7533 19.1999C19.3079 18.5932 19.4001 17.9693 19.2219 17.1505C18.9629 15.9623 18.4099 14.9591 18.0655 14.6522C17.9495 15.0715 17.9346 15.3876 17.9346 15.3876C17.9346 15.3876 18.3661 16.3486 18.5845 16.9621C18.8028 17.5758 18.9894 18.1803 18.9802 18.3157C18.8004 18.7131 17.7358 19.5453 16.8486 20.0325C16.0072 20.4944 15.266 20.5442 15.0034 20.2152C14.9518 20.151 14.9167 20.0751 14.897 19.989C15.0112 19.9353 15.1258 19.8811 15.2432 19.827C15.9997 19.4798 17.3433 18.749 17.6581 18.3655C17.9978 17.9007 17.9931 17.2464 17.7939 16.8719C17.5955 16.4975 17.2843 16.0641 17.2601 15.9108C17.2411 15.8385 17.4621 15.9403 17.5926 15.9471C17.6559 15.9424 17.6242 15.8567 17.4886 15.7213C17.3802 15.6134 16.9607 15.2634 16.8005 15.1268C16.7603 15.092 16.7303 15.1061 16.7222 15.1428C16.691 15.2825 16.6271 15.5819 16.6025 15.7296L16.6196 15.8041C16.6657 15.8316 16.7187 15.8626 16.7444 15.9399C16.7807 16.0495 16.9077 16.3553 17.1159 16.7412C17.3245 17.127 17.6259 17.5528 17.6554 17.7678C17.4103 18.0827 16.1745 18.7533 14.9706 19.306C15.045 19.0736 15.1625 18.8107 15.3182 18.5188C15.3625 18.4694 15.4029 18.4084 15.4404 18.3397C15.5605 18.1186 15.5721 17.8483 15.4993 17.9055C15.4369 17.9661 15.3921 18.1854 15.3207 18.2003C15.1745 18.2305 14.9694 18.0586 15.0209 17.7442C15.0676 17.4607 15.2181 17.2046 15.2832 17.0407C15.3733 16.814 15.398 16.5898 15.3297 16.7118C15.1761 16.9841 14.888 17.5118 14.7995 17.8804C14.7114 18.2485 14.805 18.5002 14.9594 18.5976C15.0171 18.6346 15.0723 18.6462 15.1249 18.639C15.0193 18.8415 14.8888 19.0899 14.7936 19.3862C14.3095 19.6044 13.8385 19.7995 13.4486 19.94C12.0471 20.4454 11.0484 20.7432 10.3498 20.9643L10.3225 20.9767C10.3739 20.8093 10.3669 20.6665 10.3119 20.7094C10.2495 20.7704 10.2048 20.9898 10.1334 21.0042C9.98725 21.0344 9.78211 20.8627 9.8335 20.5482C9.8804 20.2646 10.0309 20.009 10.0959 19.8449C10.1856 19.6183 10.2105 19.3938 10.1424 19.5159C9.98867 19.7883 9.70075 20.3159 9.61226 20.6844C9.52396 21.0526 9.61756 21.3043 9.77171 21.4019C9.9638 21.5235 10.1275 21.3744 10.2531 21.1438L10.2972 21.049C10.3408 21.049 10.4144 21.0388 10.5243 21.0141C10.8445 20.9415 11.6448 20.8245 12.7453 20.68C13.5601 20.5733 14.1227 20.3478 14.6665 20.0969C14.6641 20.1575 14.6635 20.2192 14.6661 20.2829C14.6957 21.0352 15.1851 21.2475 15.8543 21.1068C16.4999 20.9702 17.4002 20.3738 17.9397 19.9716C18.5023 19.5522 18.8269 19.1775 18.9097 19.0468C19.0598 18.7264 19.101 18.3723 19.1112 18.2054C19.1603 18.6654 19.2001 19.302 19.6319 19.8481C20.0296 20.3507 20.8444 21.0519 22.377 21.0711C22.3821 20.8874 22.3091 20.314 22.3091 20.314ZM22.2077 15.6523C22.4271 15.4043 22.8953 15.5665 23.2466 15.881C23.0666 15.9236 22.8221 15.9993 22.5523 16.0964C22.392 15.9017 22.2132 15.7141 22.2077 15.6523Z" fill="white"/>
<path d="M13.5946 12.256C13.6941 12.2102 13.9985 12.0723 14.3266 11.8797C14.6541 11.6884 14.9618 11.4567 15.1123 11.3027C15.17 11.2436 15.2214 11.1975 15.2542 11.1426C15.3525 11.1836 15.4202 11.2262 15.4624 11.2429C15.5258 11.2676 15.6104 11.3031 15.6655 11.1211C15.7203 10.9394 15.6476 10.822 15.5403 10.6818C15.4496 10.5642 15.3056 10.3876 15.1888 10.3437C15.0897 10.3063 15.0426 10.5293 15.0576 10.5238H15.1239L15.1368 10.5301C15.0003 10.5994 14.8947 10.8151 14.8841 10.8909C14.8733 10.9734 14.8888 11.0341 15.0846 11.0848L15.1633 11.1082C14.9999 11.3031 14.6955 11.5046 14.4881 11.6474C14.1939 11.8506 13.7763 12.1046 13.6574 12.1779C13.5385 12.2508 13.5485 12.2738 13.5946 12.256ZM15.3629 10.8243L15.3735 10.7268C15.5111 10.8848 15.6133 11.0729 15.6031 11.0995C15.5399 11.1046 15.4612 11.0457 15.3235 10.9865C15.3388 10.9394 15.3517 10.8873 15.3629 10.8243ZM14.9677 10.8244C14.9669 10.7948 15.0199 10.7124 15.1321 10.6674C15.244 10.622 15.2936 10.7487 15.3034 10.9029L15.2701 10.9646L15.1692 10.9295C15.0623 10.898 14.9901 10.8801 14.9677 10.8244Z" fill="white"/>
<path d="M20.9352 15.2241C21.0967 15.1166 21.5406 14.7938 21.7924 14.5822C21.9676 14.4352 22.1733 14.2186 22.313 14.0355C22.4007 14.0927 22.4825 14.1434 22.5569 14.1875C22.7005 14.272 22.7582 14.3974 22.7582 14.3974C22.7847 14.3563 22.9082 14.1318 22.8599 14.0226C22.831 13.9869 22.6544 13.883 22.4739 13.7717C22.5655 13.5647 22.6915 13.2067 22.511 13.0813C22.3567 12.975 22.0963 13.151 21.9758 13.3795C21.8763 13.5687 21.8634 13.7292 22.0532 13.8606C22.1067 13.8977 22.1578 13.9326 22.208 13.9658C22.0165 14.1769 21.6638 14.4891 21.4128 14.7016C21.101 14.9645 20.8061 15.2222 20.7548 15.2838L20.7399 15.3077C20.6718 15.1166 20.6903 14.9987 20.6397 15.0621C20.4214 15.4072 20.695 15.6868 20.7945 15.966C20.6599 16.0891 20.4538 15.9761 20.3847 15.8684C20.2374 15.6454 20.2866 15.1926 20.1143 15.1225C20.0698 15.2448 20.0409 15.381 20.0409 15.381C20.0409 15.381 20.172 15.6912 20.1387 15.8959C20.1181 16.0198 20.0093 16.1647 19.8663 16.1671C19.4838 16.177 19.6724 15.6068 19.5248 15.284C19.4948 15.3632 19.4734 15.4479 19.4375 15.5212C19.4646 15.6061 19.4795 15.7238 19.4834 15.792C19.4932 15.9275 19.4822 16.0727 19.5048 16.189C19.5364 16.3523 19.6265 16.461 19.7642 16.471C20.0494 16.4944 20.1797 16.2608 20.223 16.0703C20.2721 16.2651 20.6499 16.4794 20.8357 16.2405C21.0818 15.9246 20.8848 15.6541 20.759 15.3571L20.7441 15.3185C20.7617 15.3248 20.8275 15.2957 20.9352 15.2241ZM22.051 13.4456C22.1456 13.2688 22.3448 13.2538 22.4046 13.3465C22.4521 13.4202 22.456 13.564 22.3846 13.7157C22.2088 13.6046 22.052 13.4958 22.051 13.4456Z" fill="white"/>
<path d="M14.7099 14.1021C14.3739 14.0781 14.193 13.768 14.0896 13.3199C13.986 12.8719 14.0494 12.281 14.0776 12.1296C14.1057 11.9785 13.9473 12.0565 13.8857 12.4236C13.8245 12.7904 13.763 13.3769 13.9797 13.991C14.1961 14.6042 14.5649 14.8331 14.8881 14.7547C15.2113 14.6766 15.4958 13.9125 15.5961 13.5697C15.6962 13.2267 16.1442 11.8278 16.3979 11.7526C16.4333 11.9241 16.2007 12.3543 16.1263 13.001C16.0522 13.6478 16.1811 14.496 16.9959 14.6464C17.8108 14.797 18.3635 14.2645 18.564 13.8943C18.7646 13.5247 18.8582 13.1361 18.8809 12.9408C18.907 13.4371 19.243 14.212 19.8957 14.4329C20.5264 14.6464 21.0082 14.451 21.2211 14.1742C21.4102 13.9285 21.5641 13.4223 21.5774 13.0341C21.5902 12.6462 21.2574 11.9365 21.183 11.7105C21.1084 11.485 21.0698 11.3285 21.0633 11.2504C21.057 11.1724 21.2317 11.3409 21.3416 11.3739C21.4161 11.3889 21.39 11.2265 21.2994 11.115C21.2091 11.0039 20.7201 10.2569 20.6859 10.309C20.6649 10.3401 20.4691 10.8896 20.4563 10.9737C20.5338 11.025 20.6235 11.1663 20.6302 11.3017C20.6363 11.4371 20.7658 12.0326 20.8855 12.3634C21.0052 12.6943 21.2378 13.329 21.2542 13.5036C21.0215 13.6688 20.4975 13.8791 19.9997 13.666C19.502 13.4521 19.3431 13.1423 19.2883 12.5889C19.2532 12.2352 19.2497 11.5838 19.1245 11.0391C19.054 10.7312 18.9053 10.4182 18.7287 10.252C18.6872 10.354 18.4996 10.9828 18.4996 10.9828C18.5607 11.1633 18.751 11.7709 18.7449 12.2973C18.7381 12.8235 18.6969 13.3384 18.1113 13.6931C17.5261 14.0479 16.6923 13.9066 16.4756 13.353C16.2588 12.7995 16.7406 11.5543 16.7343 11.2265C16.7278 10.8987 16.6693 10.8533 16.5337 10.9076C16.3979 10.9617 16.1195 11.2778 15.8805 11.7919C15.6412 12.3065 15.5349 12.8206 15.3987 13.2538C15.2631 13.6871 15.046 14.126 14.7099 14.1021Z" fill="white"/>
<path d="M4.94104 12.1842C5.35456 12.154 5.70406 11.8381 5.79439 11.7542C5.88493 11.6696 5.93366 11.5437 5.86882 11.5916C5.39045 12.0218 4.75038 12.0339 4.71449 11.9616C4.73081 11.8894 4.89923 11.772 5.14494 11.6068C5.29421 11.5063 5.42715 11.4121 5.52666 11.2786L5.55378 11.2833C5.73587 11.3236 5.9461 11.4037 6.01033 11.3395C6.11494 11.2356 6.12881 11.0655 6.01543 10.882C5.91959 10.7263 5.69611 10.5813 5.50199 10.4767C5.30828 10.3726 5.27076 10.5388 5.24588 10.598C5.22202 10.6533 5.23181 10.7004 5.2728 10.7016C5.2104 10.7872 5.16595 10.8976 5.14963 10.9887C5.13903 11.0476 5.1476 11.0959 5.17145 11.1356C5.17839 11.1468 5.21427 11.191 5.28218 11.2172L5.36639 11.2436C5.22141 11.3785 5.05441 11.4841 4.96673 11.5374C4.80849 11.6337 4.6209 11.8022 4.56278 11.9764C4.50447 12.1511 4.5271 12.2144 4.94104 12.1842ZM5.67205 10.9553L5.68795 10.8664V10.8094C5.81907 10.9055 6.02869 11.0875 6.01584 11.1965C5.93285 11.1775 5.77462 11.1439 5.62433 11.105C5.6435 11.0596 5.6592 11.0098 5.67205 10.9553ZM5.2834 10.983C5.18695 10.9055 5.28095 10.8282 5.36639 10.7785C5.4767 10.7143 5.54134 10.7673 5.59783 10.9357C5.57805 10.984 5.55032 11.0309 5.51769 11.0759C5.43184 11.0491 5.31093 11.0062 5.2834 10.983Z" fill="white"/>
<path d="M6.18602 16.8871C6.06715 16.991 6.02106 17.329 6.04533 17.3494C6.06939 17.3697 6.44091 17.496 6.49902 17.5233L6.52553 17.4215C6.70253 17.5816 6.89869 18.3805 6.94232 18.3828C6.98596 18.3849 7.04917 18.2924 7.09056 18.0802C7.1287 17.8834 7.16683 17.5891 7.20659 17.3494C7.2437 17.13 7.30141 17.0044 7.43232 16.9794C7.56343 16.9547 7.66049 17.1239 7.69434 17.239C7.69434 17.239 7.7863 17.0177 7.80588 16.8802C7.78406 16.8079 7.58015 16.5351 7.41294 16.6253C7.24554 16.7158 7.14073 17.0985 7.10688 17.3378C7.07282 17.5767 7.04672 17.873 7.00553 17.9205C6.96231 17.7165 6.82385 17.3515 6.65665 17.1463C6.46864 16.9165 6.24883 16.8322 6.18602 16.8871Z" fill="white"/>
<path d="M4.59914 16.4836C4.75431 16.4407 5.10361 16.3867 5.27081 16.2988C5.42844 16.2243 5.69739 15.8612 5.80179 15.7258C5.90599 15.5903 5.90619 15.5224 5.87969 15.4865C5.77304 15.4276 5.08403 15.3693 4.75166 15.4523C4.6599 15.5148 4.48026 15.8496 4.45375 15.9197C4.42684 15.9894 4.46354 15.985 4.57487 15.9603C4.68641 15.9353 5.21515 15.9487 5.40641 15.9894C5.32669 16.046 4.78592 16.3212 4.67907 16.3867C4.57263 16.4521 4.54571 16.4904 4.59914 16.4836Z" fill="white"/>
<path d="M36.6437 18.4222C36.6278 18.0163 36.4304 17.3931 35.68 16.437C35.4211 16.1069 35.0567 15.6773 34.6723 15.2372C34.6617 15.0872 34.6511 14.95 34.6415 14.8323C34.5911 14.2266 34.4205 12.9909 34.3471 12.2604C34.3291 12.0762 34.3277 11.8802 34.3303 11.7778C34.333 11.6965 34.3911 11.7073 34.471 11.7909C34.551 11.8743 34.6741 11.996 34.6998 11.9877C34.7545 11.9687 34.707 11.7843 34.5979 11.5657C34.489 11.3467 34.0773 10.461 34.0016 10.4266C33.9627 10.4092 33.7686 10.9292 33.7565 11.0356C33.7951 11.1009 33.8946 11.2025 33.9042 11.4982C33.9144 11.7938 34.0914 13.5392 34.1931 14.6391L34.1986 14.7005C33.624 14.0541 33.0828 13.4648 32.8602 13.2258C32.8216 13.1844 32.7792 13.1373 32.7335 13.0868C32.6972 12.7926 32.6638 12.5123 32.6408 12.2807C32.622 12.0969 32.6208 11.9005 32.624 11.7981C32.6259 11.717 32.6844 11.728 32.7643 11.8116C32.8447 11.895 32.9674 12.0167 32.9931 12.008C33.0478 11.9894 33.0002 11.805 32.8909 11.586C32.7823 11.367 32.353 10.461 32.277 10.4266C32.2384 10.4092 32.0353 10.9706 32.0233 11.0762C32.0623 11.1419 32.1616 11.2435 32.1714 11.5393C32.1752 11.6648 32.2077 12.0454 32.2509 12.5258C31.87 12.0697 31.497 11.5922 31.4705 11.4952C31.4611 11.4473 31.5417 11.4768 31.6907 11.5011C31.8392 11.525 31.9785 11.57 31.9546 11.4959C31.9434 11.4616 31.8867 11.3757 31.7446 11.2868C31.6022 11.1981 31.2377 10.9683 30.9665 10.8061C30.6946 10.6437 30.5601 10.5072 30.504 10.5461C30.4763 10.5653 30.5009 11.122 30.5168 11.1909C30.5851 11.1972 30.7114 11.2483 30.7917 11.3565C30.8729 11.4648 31.3924 12.1987 31.8033 12.695C31.9216 12.8378 32.1067 13.0593 32.3235 13.3149C32.3659 13.7721 32.4103 14.2444 32.447 14.6391C32.5304 15.5394 32.8302 17.9137 32.833 18.6854C32.6118 18.8945 32.1593 19.1863 31.6938 19.1923C31.2283 19.1982 30.973 19.0748 30.7854 18.726C30.7275 18.618 30.6736 18.5093 30.6202 18.411C30.4934 18.1771 30.2104 18.0459 29.9375 18.1103L29.8959 18.1215L29.8217 18.1574C29.637 18.2548 29.4459 18.4182 29.2591 18.6715C28.9361 19.111 28.7298 19.5878 28.4908 20.0007C28.2418 20.4307 28.0508 20.7192 27.614 20.6502C27.3065 20.6016 27.073 20.3359 26.9291 20.009C27.3334 19.7272 27.627 19.3595 27.8418 18.8499C28.1213 18.1876 28.221 17.441 28.1962 16.6015C28.1723 15.8114 27.8148 13.9525 27.7204 13.2401C27.6262 12.5273 27.4908 11.9423 27.5065 11.7902C27.5212 11.6433 27.7533 11.989 27.8721 12.0148C27.9329 12.0012 27.9003 11.7807 27.7849 11.5943C27.7066 11.4676 27.4586 10.8914 27.2963 10.6135C27.22 10.4821 27.2017 10.4059 27.1662 10.3904C27.1311 10.3742 26.861 10.9556 26.8936 11.0188C26.9735 11.1339 27.0282 11.1888 27.0449 11.3951C27.062 11.6014 27.2472 13.1155 27.4091 14.2306C27.531 15.072 27.8004 16.6003 27.835 17.7301C27.8464 18.0987 27.7942 18.3633 27.749 18.511C27.6328 18.7374 27.4433 18.9889 26.7778 19.4662C26.675 18.7918 26.7867 18.2438 26.6893 18.1931C26.5794 18.2051 26.5618 18.5194 26.5494 18.9072C26.5433 19.0863 26.551 19.3344 26.5845 19.6009C25.767 20.1513 24.6871 20.6525 24.18 20.9201C23.8825 21.0774 23.9897 21.1141 24.2415 21.0356C24.4934 20.9568 25.8773 20.5912 26.6161 20.1997L26.6956 20.1553C26.7331 20.2865 26.7786 20.4136 26.8344 20.5308C27.083 21.0512 27.4382 21.3602 27.823 21.33C28.1466 21.3049 28.3813 20.956 28.586 20.5399C28.793 20.1186 29.1427 19.3186 29.4857 19.021C29.6174 18.9063 29.7536 18.8155 29.8861 18.761C29.8861 18.761 30.1204 18.6822 30.336 18.8241C30.4133 18.8753 30.471 18.9483 30.5075 19.0299C30.5925 19.2174 30.693 19.456 30.8986 19.6558C31.2607 20.0071 31.8431 19.9346 32.2798 19.7302C32.716 19.5257 32.9387 19.2066 33.0357 18.8275C33.2013 18.1789 33.1748 17.5143 33.1432 16.924C33.1067 16.2503 32.9998 15.5618 32.9391 14.8323C32.9195 14.5977 32.8814 14.2714 32.8375 13.9176C33.2629 14.4121 33.7045 14.9141 33.9725 15.1886C34.0649 15.2834 34.1623 15.3886 34.2624 15.4997C34.3424 16.604 34.4192 17.9857 34.4598 18.5656C34.5 19.1433 34.4741 19.8696 34.4694 19.9959C34.4645 20.1222 34.5343 20.1006 34.6344 19.8202C34.7685 19.444 34.8528 18.4573 34.8234 17.803C34.8059 17.4142 34.7673 16.7054 34.7257 16.0349C35.0559 16.4302 35.3693 16.8292 35.5732 17.0985C35.9357 17.5768 36.2687 18.1454 36.3851 18.5002C36.5014 18.8554 36.5142 18.9606 36.5368 19.0239C36.5595 19.0871 36.6596 18.828 36.6437 18.4222Z" fill="white"/>
<path d="M30.5175 31.9293C30.4848 31.835 30.3845 31.7657 30.2646 31.7657C30.1446 31.7657 30.0446 31.835 30.0116 31.9293H28.876C28.8646 31.8024 28.8757 31.6749 28.9114 31.5506L31.2559 31.5492L31.3212 31.66C31.3801 31.76 31.4546 31.8502 31.541 31.9293L30.5175 31.9293ZM32.0696 30.8317H29.2522C29.4687 30.6743 29.5823 30.4445 29.5518 30.2122C29.5324 30.0657 29.3883 29.9562 29.2127 29.9414H29.1245C28.9109 29.9624 28.7559 30.1176 28.7785 30.288L28.7871 30.3535L28.7975 30.4542C28.809 30.5808 28.7979 30.7079 28.7625 30.8317H7.9375C8.24673 31.285 8.81054 31.563 9.41937 31.5625L28.4225 31.5508C28.2052 31.7084 28.0912 31.9386 28.1219 32.1714C28.1444 32.3418 28.3355 32.4632 28.5492 32.4421C28.7627 32.4211 28.9176 32.266 28.8953 32.0953L28.8867 32.03H30.0034C30.0231 32.1399 30.132 32.2241 30.2646 32.2241C30.3972 32.2241 30.5061 32.1399 30.5259 32.03H31.6619V32.0274C31.8991 32.1969 32.2006 32.2944 32.5194 32.2944C32.8194 32.2944 33.0626 32.0844 33.0626 31.8252V31.6897C33.0626 31.216 32.6181 30.8317 32.0696 30.8317" fill="white"/>
</g>
</g>
<defs>
<clipPath id="clip0_5612_17669">
<rect width="40" height="40" rx="20" fill="white"/>
</clipPath>
<clipPath id="clip1_5612_17669">
<rect width="67" height="45" fill="white" transform="translate(-13 -1)"/>
</clipPath>
</defs>
</svg>
