<svg width="18" height="10" viewBox="0 0 18 10" fill="none" xmlns="http://www.w3.org/2000/svg">
<path d="M9.00067 6.61523C12.59 6.61523 15.6891 4.16427 16.5489 0.729816C16.5865 0.579688 16.563 0.42075 16.4835 0.287964C16.4039 0.155178 16.2749 0.0594217 16.1248 0.0217609C15.9747 -0.0158998 15.8157 0.00761953 15.6829 0.0871453C15.5502 0.166671 15.4544 0.295688 15.4167 0.445816C15.0565 1.87479 14.2295 3.1426 13.0669 4.04824C11.9044 4.95387 10.4727 5.44548 8.99907 5.44512C7.52538 5.44477 6.094 4.95246 4.93186 4.04626C3.76973 3.14007 2.94338 1.87185 2.58382 0.442703C2.56528 0.368317 2.53226 0.298312 2.48666 0.236685C2.44106 0.175057 2.38377 0.123016 2.31805 0.0835304C2.25234 0.0440448 2.17949 0.0178886 2.10367 0.00655591C2.02785 -0.00477673 1.95054 -0.00106421 1.87615 0.0174813C1.80177 0.0360269 1.73176 0.0690423 1.67014 0.114643C1.60851 0.160243 1.55647 0.217535 1.51698 0.283248C1.4775 0.348961 1.45134 0.421807 1.44001 0.497628C1.42867 0.573449 1.43239 0.650761 1.45093 0.725147C1.87253 2.40811 2.84452 3.90189 4.21243 4.9691C5.58034 6.0363 7.2657 6.61571 9.00067 6.61523Z" fill="#E5223A"/>
<path d="M4.05469 4.41113L2.26755 6.79398" stroke="#E5223A" stroke-width="0.893568" stroke-linecap="round"/>
<path d="M6.31592 5.52734L5.28742 8.3227" stroke="#E5223A" stroke-width="0.893568" stroke-linecap="round"/>
<path d="M8.89941 6.02148L8.87996 8.99998" stroke="#E5223A" stroke-width="0.893568" stroke-linecap="round"/>
<path d="M12.2056 5.39551L12.713 8.33053" stroke="#E5223A" stroke-width="0.893568" stroke-linecap="round"/>
<path d="M14.2202 4.12207L15.4116 7.10063" stroke="#E5223A" stroke-width="0.893568" stroke-linecap="round"/>
</svg>
