<svg width="175" height="92" viewBox="0 0 175 92" fill="none" xmlns="http://www.w3.org/2000/svg">
<rect width="174.433" height="91.2264" rx="16.0398" fill="white"/>
<rect x="0.751866" y="0.751866" width="172.929" height="89.7226" rx="15.2879" stroke="#CDC9C9" stroke-opacity="0.3" stroke-width="1.50373"/>
<g clip-path="url(#clip0_2092_1656)">
<path d="M28.8909 58.3869C27.0312 58.3869 25.1714 58.3869 23.3133 58.3836C22.1726 58.3803 21.9198 58.0553 22.0938 56.9505C22.9391 51.5893 23.7697 46.2248 24.6084 40.8619C25.1058 37.6822 25.6031 34.5042 26.1136 31.3262C26.2679 30.3659 26.7472 29.9703 27.7468 29.9703C31.3563 29.9703 34.9658 29.9671 38.5736 29.995C39.8884 30.0048 41.1785 30.2264 42.4293 30.6631C45.287 31.6628 46.8661 34.1546 46.5394 37.1668C46.5066 37.4656 46.4803 37.7627 46.4508 38.0614C46.3983 38.2305 46.3457 38.3996 46.2932 38.5687C46.3145 38.1534 46.0847 37.94 45.7269 37.7709C44.6682 37.2702 43.5192 37.1208 42.3932 37.0913C39.4452 37.0158 36.4923 37.0585 33.5427 37.0683C32.7187 37.0716 32.2952 37.4557 32.1573 38.2716C31.8307 40.1954 31.4252 42.1111 31.2184 44.0481C31.069 45.4516 30.6144 46.8141 30.6932 48.2422L30.7047 48.2307C30.68 48.2389 30.6357 48.2439 30.6357 48.2537C30.6341 48.2915 30.6439 48.3309 30.6505 48.3702C30.2336 49.8411 30.1449 51.3693 29.861 52.8631C29.513 54.7 29.3899 56.5763 28.8892 58.3869H28.8909Z" fill="#263D80"/>
<path d="M119.873 37.0732C121.229 37.1553 122.866 36.9715 124.501 37.216C126.933 37.5805 129.405 39.0053 129.009 42.8859C128.753 45.3909 128.005 47.6414 125.827 49.1582C124.486 50.0922 122.946 50.4337 121.342 50.5042C120.443 50.5436 119.539 50.5338 118.639 50.5108C117.869 50.4928 117.467 50.8769 117.352 51.5975C117.112 53.1044 116.865 54.6097 116.669 56.1216C116.568 56.9079 116.247 57.2953 115.402 57.246C114.476 57.1935 113.546 57.2378 112.617 57.2329C111.638 57.228 111.463 57.0408 111.61 56.051C111.885 54.219 112.192 52.3904 112.479 50.5617C113.119 46.4989 113.761 42.4361 114.389 38.37C114.544 37.372 114.864 37.0765 115.908 37.0732C117.137 37.07 118.367 37.0732 119.875 37.0732H119.873ZM119.79 46.4497C122.831 46.5941 123.642 45.0708 123.59 42.9762C123.568 42.1029 123.107 41.5727 122.283 41.315C121.536 41.0819 120.768 41.2132 120.015 41.1344C119.184 41.0474 118.907 41.4545 118.824 42.1948C118.726 43.0845 118.582 43.9709 118.429 44.8541C118.153 46.4579 118.143 46.4562 119.791 46.4497H119.79Z" fill="#1D9CD7"/>
<path d="M68.1015 37.0796C69.4787 37.1355 71.1168 36.9926 72.7533 37.2208C75.8293 37.6493 77.4182 39.4746 77.2984 42.5624C77.2458 43.9084 76.9438 45.2085 76.3644 46.4314C74.9758 49.3583 72.4463 50.3613 69.4245 50.5008C68.5512 50.5418 67.6764 50.5156 66.8015 50.5074C66.1137 50.5008 65.7379 50.834 65.6344 51.5071C65.4161 52.9352 65.1831 54.3617 64.968 55.7915C64.7842 57.0095 64.5544 57.2179 63.3283 57.2196C62.5092 57.2196 61.6885 57.2229 60.8694 57.2196C59.901 57.2147 59.7467 57.0571 59.8928 56.1099C60.3409 53.1995 60.807 50.2923 61.2666 47.3835C61.7394 44.3927 62.2187 41.4051 62.6799 38.4126C62.8408 37.3702 63.1247 37.0846 64.1555 37.0813C65.385 37.0764 66.6144 37.0813 68.1031 37.0813L68.1015 37.0796ZM68.0079 46.484C70.841 46.4676 72.0196 45.3907 71.8784 42.958C71.8308 42.129 71.427 41.5824 70.6326 41.3263C69.7823 41.0522 68.9025 41.1506 68.0326 41.1145C67.4466 41.0899 67.2036 41.3887 67.1265 41.932C66.9837 42.9301 66.8081 43.9232 66.6521 44.9196C66.4891 45.9702 66.941 46.4922 68.0079 46.4856V46.484Z" fill="#273E81"/>
<path d="M46.2953 38.5702C46.3478 38.4011 46.4003 38.2321 46.4529 38.063C48.2043 39.0545 49.0299 40.5778 49.0857 42.5673C49.1399 44.4863 48.7689 46.3182 47.9498 48.0451C46.4397 51.2313 43.7511 52.6463 40.3747 52.9697C39.6689 53.037 38.9532 52.9911 38.2441 53.0255C37.3266 53.0699 36.9064 53.4474 36.7586 54.347C36.4238 56.3907 36.0972 58.436 35.7738 60.4814C35.6064 61.5385 35.2108 61.9391 34.1701 61.9555C32.6666 61.9784 31.163 61.9752 29.6595 61.9555C28.7173 61.9423 28.4465 61.5779 28.6041 60.6537C28.7321 59.9036 28.9373 59.1616 28.893 58.3884C29.3936 56.5778 29.5167 54.7015 29.8647 52.8647C30.147 51.3709 30.2356 49.8426 30.6542 48.3718C30.6903 48.3324 30.7084 48.2864 30.7084 48.2339L30.6969 48.2454C31.1696 47.8219 31.7211 47.707 32.3514 47.7103C33.9305 47.7152 35.5062 47.7365 37.0886 47.5888C41.9734 47.1324 45.7635 43.4571 46.2969 38.5719L46.2953 38.5702Z" fill="#1D9CD7"/>
<path d="M140.139 45.0655C140.392 44.2141 140.959 43.7884 141.837 43.7884C142.63 43.7884 143.423 43.7818 144.216 43.7917C144.841 43.7999 145.084 44.0937 144.981 44.7405C144.383 48.4553 143.812 52.175 143.223 55.8914C143.047 57.0011 142.771 57.2276 141.663 57.2325C141.007 57.2358 140.35 57.2325 139.695 57.2325C138.423 57.2325 138.34 57.139 138.477 55.7437C138.161 55.9735 137.918 56.1541 137.668 56.3264C134.955 58.2125 131.171 57.9466 129.308 55.678C127.808 53.851 127.711 51.7186 128.273 49.5403C129.39 45.205 133.341 42.7674 137.742 43.6374C138.702 43.8278 139.231 44.1364 140.139 45.0606V45.0655ZM135.603 53.8362C137.783 53.8461 139.41 52.3835 139.623 50.2199C139.753 48.9165 138.935 47.6558 137.731 47.2964C135.341 46.5823 132.847 48.3683 132.747 50.8683C132.67 52.7774 133.68 53.8264 135.603 53.8346V53.8362Z" fill="#1D9CD7"/>
<path d="M88.3683 45.1164C88.5571 44.9424 88.5719 44.7454 88.5817 44.5599C88.6145 43.9542 88.9724 43.7819 89.5157 43.7901C90.4185 43.8032 91.3212 43.7901 92.2224 43.795C93.1695 43.8016 93.3353 43.9838 93.1875 44.9293C92.7394 47.8151 92.2782 50.6993 91.8219 53.5834C91.6856 54.4452 91.533 55.3054 91.4132 56.1705C91.313 56.8878 90.9224 57.2293 90.2018 57.2227C89.4911 57.2161 88.7803 57.2227 88.0696 57.2227C87.1197 57.2227 86.6837 56.7505 86.7614 55.8061C86.4987 55.7388 86.3953 55.9768 86.241 56.0933C84.447 57.441 82.4362 57.8695 80.2761 57.3475C77.9322 56.7795 76.6683 55.1232 76.3499 52.8234C75.6752 47.9579 79.2962 43.2812 84.5307 43.4782C85.9981 43.534 87.4245 43.795 88.3683 45.1164ZM83.9266 53.8855C85.7043 53.8674 87.1734 52.7988 87.697 51.1408C88.2583 49.3631 87.5246 47.7084 85.9784 47.2701C83.9217 46.689 81.7419 47.9037 81.1313 49.9721C80.478 52.1832 81.7091 53.9068 83.9266 53.8838V53.8855Z" fill="#273E81"/>
<path d="M102.03 51.3331C102.969 49.9575 103.811 48.728 104.651 47.4969C105.359 46.4594 106.073 45.4269 106.764 44.3796C107.031 43.9758 107.376 43.787 107.855 43.7903C108.866 43.7985 109.877 43.7969 110.889 43.7903C111.204 43.7887 111.499 43.8199 111.678 44.1137C111.867 44.4239 111.704 44.6849 111.529 44.9394C107.734 50.4106 103.939 55.8818 100.149 61.3563C99.8927 61.7257 99.5644 61.9095 99.1196 61.9079C98.0806 61.9046 97.0432 61.9128 96.0042 61.9079C95.7054 61.9079 95.387 61.9161 95.2245 61.5812C95.0669 61.2562 95.2442 61.0067 95.4198 60.7572C96.4309 59.3323 97.4207 57.8927 98.4647 56.4925C98.8028 56.0378 98.8192 55.6619 98.6403 55.1481C97.4683 51.778 96.3242 48.3981 95.1785 45.0198C94.847 44.0431 95.0341 43.8002 96.083 43.7952C96.902 43.792 97.7244 43.8297 98.5418 43.7854C99.4232 43.7378 99.8878 44.0989 100.127 44.9574C100.704 47.0274 101.35 49.0777 102.03 51.3348V51.3331Z" fill="#273E81"/>
<path d="M150.824 37.0729C151.289 37.0729 151.753 37.0762 152.218 37.0729C152.848 37.0664 153.125 37.3684 153.027 37.9955C152.2 43.1844 151.372 48.3749 150.545 53.5637C150.412 54.3976 150.282 55.2315 150.158 56.0654C150.023 56.9617 149.729 57.2227 148.807 57.2326C148.096 57.2408 147.387 57.2359 146.676 57.2326C145.598 57.2293 145.429 57.0438 145.591 55.9719C145.862 54.1957 146.154 52.4229 146.433 50.6467C147.08 46.5314 147.728 42.4161 148.364 38.2992C148.534 37.1977 148.654 37.0729 149.76 37.0713C150.115 37.0713 150.471 37.0713 150.826 37.0713L150.824 37.0729Z" fill="#1D9CD7"/>
<path d="M46.2952 38.5701C45.7617 43.4553 41.9717 47.1307 37.0868 47.587C35.5061 47.7348 33.9287 47.7134 32.3497 47.7085C31.7194 47.7069 31.1679 47.8201 30.6951 48.2436C30.6163 46.8155 31.071 45.4514 31.2204 44.0495C31.4272 42.1125 31.8326 40.1969 32.1593 38.273C32.2972 37.4571 32.7206 37.073 33.5446 37.0697C36.4959 37.0599 39.4472 37.0172 42.3952 37.0927C43.5195 37.1223 44.6702 37.2717 45.7289 37.7723C46.0867 37.9414 46.3165 38.1548 46.2952 38.5701Z" fill="#252F65"/>
<path d="M30.7068 48.2321C30.7068 48.2846 30.6871 48.3306 30.6526 48.37C30.6461 48.3306 30.6362 48.2928 30.6379 48.2535C30.6379 48.2452 30.6838 48.2387 30.7068 48.2305V48.2321Z" fill="#252F65"/>
</g>
<defs>
<clipPath id="clip0_2092_1656">
<rect width="131" height="32" fill="white" transform="translate(22.0449 29.9702)"/>
</clipPath>
</defs>
</svg>
