<svg width="88" height="36" viewBox="0 0 88 36" fill="none" xmlns="http://www.w3.org/2000/svg">
<g id="Layer_1" clip-path="url(#clip0_2092_1691)">
<path id="Vector" d="M22.8612 9.76095C18.1867 12.9982 19.0934 19.0966 23.6197 21.2698C23.5107 21.5877 23.4119 21.9245 23.2841 22.2482C22.4863 24.2704 21.3384 26.0748 19.8417 27.6499C18.6066 28.9506 17.0867 29.315 15.4781 28.563C13.3741 27.5788 11.3688 27.5788 9.27927 28.5732C7.7143 29.3179 6.26413 29.0058 5.0479 27.7399C2.31466 24.8961 0.713363 21.5064 0.155381 17.6145C-0.155579 15.4442 -0.0451445 13.3074 0.919701 11.307C2.15918 8.73897 4.18041 7.14504 7.09384 7.10584C8.2069 7.09132 9.365 7.49344 10.4345 7.89265C11.5257 8.29911 12.5109 8.34121 13.576 7.86506C15.4461 7.0318 17.3744 6.59195 19.4145 7.26117C20.8342 7.72716 22.0054 8.51687 22.8612 9.7595V9.76095Z" fill="black"/>
<path id="Vector_2" d="M35.557 19.58V28.6718H31.4434V2.03651C31.5683 2.01329 31.7006 1.96683 31.8342 1.96683C35.342 1.977 38.8526 1.92474 42.3589 2.02345C46.3258 2.13523 49.5981 5.20406 50.1489 9.12503C50.4511 11.2691 50.2215 13.3276 49.1666 15.2293C47.5348 18.1689 44.8844 19.4406 41.628 19.564C39.864 19.6308 38.0956 19.5771 36.3286 19.5785C36.0918 19.5785 35.8549 19.5785 35.557 19.5785V19.58ZM35.5817 16.0524C37.5318 16.0524 39.4542 16.2135 41.3388 16.0161C44.3147 15.7025 45.7954 14.1347 46.0018 11.2329C46.2067 8.35999 44.9396 6.00393 41.8154 5.62795C39.7739 5.38262 37.6771 5.5815 35.5832 5.5815V16.0524H35.5817Z" fill="black"/>
<path id="Vector_3" d="M63.94 17.1559C63.94 16.4837 63.9735 15.9263 63.9342 15.3747C63.8311 13.9143 63.0435 12.9518 61.6514 12.5279C59.7218 11.94 57.5785 12.4626 56.5991 13.7633C56.5264 13.8591 56.4131 13.952 56.3956 14.0595C56.2242 15.1453 55.4511 15.1148 54.6229 15.0698C53.8804 15.0292 53.132 15.0611 52.3256 15.0611C52.2965 13.7735 52.7441 12.7297 53.4953 11.821C55.3015 9.63476 57.7572 9.03086 60.4497 9.07877C62.0641 9.1078 63.6189 9.40539 65.0269 10.2575C66.9189 11.4029 67.9055 13.081 67.9142 15.289C67.9317 19.6411 67.92 23.9932 67.9186 28.3454C67.9186 28.4397 67.8924 28.5355 67.8721 28.6778H64.1188V25.683C63.2789 26.6832 62.4288 27.5774 61.278 28.1291C59.0286 29.2062 56.7386 29.2381 54.4834 28.2191C52.2384 27.2043 51.0788 25.0239 51.3244 22.5343C51.538 20.3583 53.0797 18.5335 55.5354 18.0428C57.7281 17.6044 59.9877 17.5043 62.2196 17.2662C62.7703 17.2081 63.3254 17.1936 63.9415 17.1559H63.94ZM63.8732 19.9286C61.9144 20.0882 59.9906 20.2291 58.0696 20.412C57.6715 20.4497 57.2675 20.5992 56.8999 20.772C55.9263 21.2264 55.3422 21.958 55.3611 23.0903C55.3785 24.2168 55.9655 24.947 56.9522 25.3767C58.0798 25.8673 59.2669 25.8775 60.4352 25.5857C63.0566 24.931 64.2263 23.0395 63.8732 19.9286Z" fill="black"/>
<path id="Vector_4" d="M88 9.30393C87.4929 10.7527 87.0337 12.0897 86.5571 13.4223C84.5446 19.0534 82.5568 24.6931 80.489 30.3038C80.0517 31.4898 79.4109 32.6279 78.7018 33.6775C77.6701 35.2061 76.0528 35.8071 74.2786 35.961C73.3937 36.0379 72.4986 35.974 71.5526 35.974V32.792C72.2399 32.7528 72.9098 32.7354 73.5753 32.67C74.575 32.5742 75.2928 32.0153 75.7171 31.14C76.0513 30.449 76.3797 29.7246 76.512 28.9799C76.5904 28.5357 76.3202 28.0131 76.1516 27.5456C74.033 21.6707 71.9028 15.8002 69.7784 9.9267C69.7145 9.75105 69.6781 9.56669 69.6069 9.30393C70.9656 9.30393 72.2661 9.2778 73.5622 9.33297C73.7511 9.34022 74.0141 9.70314 74.0911 9.94993C75.2783 13.7214 76.4393 17.5001 77.609 21.2773C77.9985 22.5345 78.3923 23.7902 78.8471 25.2505C79.4457 23.3242 79.9819 21.6025 80.5152 19.8779C81.5483 16.5391 82.5844 13.2002 83.6059 9.85702C83.7294 9.452 83.9082 9.27635 84.3615 9.29087C85.5211 9.32571 86.6835 9.30248 88 9.30248V9.30393Z" fill="black"/>
<path id="Vector_5" d="M11.8514 6.60524C11.2223 3.66561 14.467 -0.0884156 17.5097 0.00158806C18.0648 2.47959 15.6512 6.69234 11.85 6.60524H11.8514Z" fill="black"/>
</g>
<defs>
<clipPath id="clip0_2092_1691">
<rect width="88" height="36" fill="white"/>
</clipPath>
</defs>
</svg>
