<svg width="132" height="33" viewBox="0 0 132 33" fill="none" xmlns="http://www.w3.org/2000/svg">
<g id="Layer_1" clip-path="url(#clip0_2092_1670)">
<path id="Vector" d="M6.89089 29.3869C5.03116 29.3869 3.17143 29.3869 1.31335 29.3836C0.172559 29.3803 -0.0802192 29.0553 0.0937712 27.9505C0.939102 22.5893 1.76966 17.2248 2.60842 11.8619C3.10577 8.68224 3.60312 5.50424 4.11361 2.32624C4.2679 1.36594 4.74719 0.970334 5.74682 0.970334C9.3563 0.970334 12.9658 0.967051 16.5736 0.994957C17.8884 1.00481 19.1785 1.22641 20.4293 1.66306C23.287 2.66275 24.8661 5.1546 24.5394 8.1668C24.5066 8.46556 24.4803 8.76268 24.4508 9.06144C24.3983 9.23052 24.3457 9.39959 24.2932 9.56867C24.3145 9.15336 24.0847 8.93996 23.7269 8.77089C22.6682 8.27022 21.5192 8.12084 20.3932 8.09129C17.4452 8.01578 14.4923 8.05846 11.5427 8.06831C10.7187 8.0716 10.2952 8.45571 10.1573 9.27155C9.83067 11.1954 9.42524 13.1111 9.21842 15.0481C9.06905 16.4516 8.61438 17.8141 8.69316 19.2422L8.70465 19.2307C8.68003 19.2389 8.63571 19.2439 8.63571 19.2537C8.63407 19.2915 8.64392 19.3309 8.65049 19.3702C8.23357 20.8411 8.14493 22.3693 7.86096 23.8631C7.51298 25.7 7.38988 27.5763 6.88925 29.3869H6.89089Z" fill="#263D80"/>
<path id="Vector_2" d="M97.8734 8.07324C99.2292 8.15531 100.866 7.97146 102.501 8.21605C104.933 8.58047 107.405 10.0053 107.009 13.8859C106.753 16.3909 106.005 18.6414 103.827 20.1582C102.486 21.0922 100.946 21.4337 99.3424 21.5042C98.4429 21.5436 97.5385 21.5338 96.639 21.5108C95.8692 21.4928 95.467 21.8769 95.3521 22.5975C95.1125 24.1044 94.8646 25.6097 94.6693 27.1216C94.5675 27.9079 94.2475 28.2953 93.4021 28.246C92.4764 28.1935 91.5457 28.2378 90.6166 28.2329C89.6384 28.228 89.4627 28.0408 89.6105 27.051C89.8846 25.219 90.1915 23.3904 90.4788 21.5617C91.1189 17.4989 91.7607 13.4361 92.3894 9.37005C92.5437 8.37199 92.8638 8.07652 93.9077 8.07324C95.1371 8.06995 96.3665 8.07324 97.875 8.07324H97.8734ZM97.7896 17.4497C100.831 17.5941 101.642 16.0708 101.59 13.9762C101.568 13.1029 101.107 12.5727 100.283 12.315C99.5361 12.0819 98.7679 12.2132 98.0145 12.1344C97.184 12.0474 96.9066 12.4545 96.8245 13.1948C96.726 14.0845 96.5816 14.9709 96.4289 15.8541C96.1532 17.4579 96.1433 17.4562 97.7913 17.4497H97.7896Z" fill="#1D9CD7"/>
<path id="Vector_3" d="M46.1015 8.07965C47.4787 8.13546 49.1168 7.99265 50.7533 8.22082C53.8293 8.64926 55.4182 10.4746 55.2984 13.5624C55.2458 14.9084 54.9438 16.2085 54.3644 17.4314C52.9758 20.3583 50.4463 21.3613 47.4245 21.5008C46.5512 21.5418 45.6764 21.5156 44.8015 21.5074C44.1137 21.5008 43.7379 21.834 43.6344 22.5071C43.4161 23.9352 43.1831 25.3617 42.968 26.7915C42.7842 28.0095 42.5544 28.2179 41.3283 28.2196C40.5092 28.2196 39.6885 28.2229 38.8694 28.2196C37.901 28.2147 37.7467 28.0571 37.8928 27.1099C38.3409 24.1995 38.807 21.2923 39.2666 18.3835C39.7394 15.3927 40.2187 12.4051 40.6799 9.41257C40.8408 8.3702 41.1247 8.08457 42.1555 8.08129C43.385 8.07637 44.6144 8.08129 46.1031 8.08129L46.1015 8.07965ZM46.0079 17.484C48.841 17.4676 50.0196 16.3907 49.8784 13.958C49.8308 13.129 49.427 12.5824 48.6326 12.3263C47.7823 12.0522 46.9025 12.1506 46.0326 12.1145C45.4466 12.0899 45.2036 12.3887 45.1265 12.932C44.9837 13.9301 44.8081 14.9232 44.6521 15.9196C44.4891 16.9702 44.941 17.4922 46.0079 17.4856V17.484Z" fill="#273E81"/>
<path id="Vector_4" d="M24.2953 9.57022C24.3478 9.40114 24.4003 9.23207 24.4529 9.06299C26.2043 10.0545 27.0299 11.5778 27.0857 13.5673C27.1399 15.4863 26.7689 17.3182 25.9498 19.0451C24.4397 22.2313 21.7511 23.6463 18.3747 23.9697C17.6689 24.037 16.9532 23.9911 16.2441 24.0255C15.3266 24.0699 14.9064 24.4474 14.7586 25.347C14.4238 27.3907 14.0972 29.436 13.7738 31.4814C13.6064 32.5385 13.2108 32.9391 12.1701 32.9555C10.6666 32.9784 9.16305 32.9752 7.65951 32.9555C6.71734 32.9423 6.4465 32.5779 6.60408 31.6537C6.73211 30.9036 6.93729 30.1616 6.89297 29.3884C7.3936 27.5778 7.51671 25.7015 7.86469 23.8647C8.14701 22.3709 8.23565 20.8426 8.65421 19.3718C8.69032 19.3324 8.70838 19.2864 8.70838 19.2339L8.69689 19.2454C9.16961 18.8219 9.72113 18.707 10.3514 18.7103C11.9305 18.7152 13.5062 18.7365 15.0886 18.5888C19.9734 18.1324 23.7635 14.4571 24.2969 9.57186L24.2953 9.57022Z" fill="#1D9CD7"/>
<path id="Vector_5" d="M118.139 16.0655C118.392 15.2141 118.959 14.7884 119.837 14.7884C120.63 14.7884 121.423 14.7818 122.216 14.7917C122.841 14.7999 123.084 15.0937 122.981 15.7405C122.383 19.4553 121.812 23.175 121.223 26.8914C121.047 28.0011 120.771 28.2276 119.663 28.2325C119.007 28.2358 118.35 28.2325 117.695 28.2325C116.423 28.2325 116.34 28.139 116.477 26.7437C116.161 26.9735 115.918 27.1541 115.668 27.3264C112.955 29.2125 109.171 28.9466 107.308 26.678C105.808 24.851 105.711 22.7186 106.273 20.5403C107.39 16.205 111.341 13.7674 115.742 14.6374C116.702 14.8278 117.231 15.1364 118.139 16.0606V16.0655ZM113.603 24.8362C115.783 24.8461 117.41 23.3835 117.623 21.2199C117.753 19.9165 116.935 18.6558 115.731 18.2964C113.341 17.5823 110.847 19.3683 110.747 21.8683C110.67 23.7774 111.68 24.8264 113.603 24.8346V24.8362Z" fill="#1D9CD7"/>
<path id="Vector_6" d="M66.3683 16.1164C66.5571 15.9424 66.5719 15.7454 66.5817 15.5599C66.6145 14.9542 66.9724 14.7819 67.5157 14.7901C68.4185 14.8032 69.3212 14.7901 70.2224 14.795C71.1695 14.8016 71.3353 14.9838 71.1875 15.9293C70.7394 18.8151 70.2782 21.6993 69.8219 24.5834C69.6856 25.4452 69.533 26.3054 69.4132 27.1705C69.313 27.8878 68.9224 28.2293 68.2018 28.2227C67.4911 28.2161 66.7803 28.2227 66.0696 28.2227C65.1197 28.2227 64.6837 27.7505 64.7614 26.8061C64.4987 26.7388 64.3953 26.9768 64.241 27.0933C62.447 28.441 60.4362 28.8695 58.2761 28.3475C55.9322 27.7795 54.6683 26.1232 54.3499 23.8234C53.6752 18.9579 57.2962 14.2812 62.5307 14.4782C63.9981 14.534 65.4245 14.795 66.3683 16.1164ZM61.9266 24.8855C63.7043 24.8674 65.1734 23.7988 65.697 22.1408C66.2583 20.3631 65.5246 18.7084 63.9784 18.2701C61.9217 17.689 59.7419 18.9037 59.1313 20.9721C58.478 23.1832 59.7091 24.9068 61.9266 24.8838V24.8855Z" fill="#273E81"/>
<path id="Vector_7" d="M80.0298 22.3331C80.9687 20.9575 81.8108 19.728 82.6512 18.4969C83.3586 17.4594 84.0726 16.4269 84.7637 15.3796C85.0312 14.9758 85.3759 14.787 85.8552 14.7903C86.8663 14.7985 87.8774 14.7969 88.8886 14.7903C89.2037 14.7887 89.4992 14.8199 89.6781 15.1137C89.8668 15.4239 89.7043 15.6849 89.5287 15.9394C85.7337 21.4106 81.9388 26.8818 78.1487 32.3563C77.8927 32.7257 77.5644 32.9095 77.1196 32.9079C76.0806 32.9046 75.0432 32.9128 74.0042 32.9079C73.7054 32.9079 73.387 32.9161 73.2245 32.5812C73.0669 32.2562 73.2442 32.0067 73.4198 31.7572C74.4309 30.3323 75.4207 28.8927 76.4647 27.4925C76.8028 27.0378 76.8192 26.6619 76.6403 26.1481C75.4683 22.778 74.3242 19.3981 73.1785 16.0198C72.847 15.0431 73.0341 14.8002 74.083 14.7952C74.902 14.792 75.7244 14.8297 76.5418 14.7854C77.4232 14.7378 77.8878 15.0989 78.1274 15.9574C78.7036 18.0274 79.3503 20.0777 80.0298 22.3348V22.3331Z" fill="#273E81"/>
<path id="Vector_8" d="M128.824 8.07293C129.289 8.07293 129.753 8.07621 130.218 8.07293C130.848 8.06636 131.125 8.36841 131.027 8.99547C130.2 14.1844 129.372 19.3749 128.545 24.5637C128.412 25.3976 128.282 26.2315 128.158 27.0654C128.023 27.9617 127.729 28.2227 126.807 28.2326C126.096 28.2408 125.387 28.2359 124.676 28.2326C123.598 28.2293 123.429 28.0438 123.591 26.9719C123.862 25.1957 124.154 23.4229 124.433 21.6467C125.08 17.5314 125.728 13.4161 126.364 9.29915C126.534 8.19769 126.654 8.07293 127.76 8.07129C128.115 8.07129 128.471 8.07129 128.826 8.07129L128.824 8.07293Z" fill="#1D9CD7"/>
<path id="Vector_9" d="M24.2952 9.57011C23.7617 14.4553 19.9717 18.1307 15.0868 18.587C13.5061 18.7348 11.9287 18.7134 10.3497 18.7085C9.71938 18.7069 9.16786 18.8201 8.69513 19.2436C8.61635 17.8155 9.07102 16.4514 9.22039 15.0495C9.42721 13.1125 9.83264 11.1969 10.1593 9.27299C10.2972 8.45715 10.7206 8.07303 11.5446 8.06975C14.4959 8.0599 17.4472 8.01722 20.3952 8.09273C21.5195 8.12228 22.6702 8.27166 23.7289 8.77232C24.0867 8.9414 24.3165 9.1548 24.2952 9.57011Z" fill="#252F65"/>
<path id="Vector_10" d="M8.70682 19.2321C8.70682 19.2846 8.68712 19.3306 8.65265 19.37C8.64608 19.3306 8.63624 19.2928 8.63788 19.2535C8.63788 19.2452 8.68384 19.2387 8.70682 19.2305V19.2321Z" fill="#252F65"/>
</g>
<defs>
<clipPath id="clip0_2092_1670">
<rect width="131" height="32" fill="white" transform="translate(0.0449219 0.970215)"/>
</clipPath>
</defs>
</svg>
