<svg width="47" height="37" viewBox="0 0 47 37" fill="none" xmlns="http://www.w3.org/2000/svg">
<g id="Layer_1" clip-path="url(#clip0_2092_1727)">
<path id="Vector" d="M23.4603 25.9727C21.9153 27.2032 20.1807 28.0581 18.2777 28.5721C16.635 29.0158 14.9645 29.1542 13.2696 29.0003C9.56076 28.663 6.42939 27.1272 3.88793 24.4169C1.9746 22.3759 0.757588 19.9641 0.258594 17.2073C-0.421196 13.4529 0.236898 9.93415 2.29125 6.72271C4.3926 3.43844 7.36952 1.29111 11.1735 0.412964C15.6541 -0.621701 19.755 0.299838 23.4334 3.06859C23.4463 3.0784 23.4536 3.09545 23.4634 3.10888C23.4799 3.26591 23.3554 3.33668 23.2614 3.41468C21.423 4.93594 20.0655 6.81414 19.1408 9.0059C18.6165 10.2482 18.2916 11.5463 18.1408 12.8889C18.0669 13.5475 18.0282 14.2066 18.0447 14.8683C18.0762 16.1375 18.2709 17.3819 18.6227 18.602C19.0923 20.2297 19.8361 21.7246 20.8274 23.0945C21.5366 24.0739 22.3843 24.9257 23.3022 25.7093C23.3828 25.778 23.5026 25.8291 23.4598 25.9738L23.4603 25.9727Z" fill="#EA1F25"/>
<path id="Vector_2" d="M23.5411 3.10704C24.2131 2.52333 24.9719 2.07031 25.754 1.65603C27.2566 0.860532 28.8549 0.343458 30.5394 0.134252C34.0835 -0.305855 37.3874 0.405444 40.3788 2.37043C43.5427 4.44906 45.6549 7.33454 46.5413 11.0186C47.6751 15.7296 46.7092 20.0295 43.6424 23.7946C41.3835 26.568 38.4432 28.266 34.9136 28.8476C30.7109 29.5403 26.8987 28.564 23.5137 25.9632C23.5059 25.85 23.5912 25.7973 23.663 25.7384C25.3444 24.3592 26.658 22.6902 27.5857 20.7237C28.2665 19.281 28.6978 17.7669 28.8647 16.1775C28.9329 15.5271 28.9814 14.8768 28.9608 14.2234C28.9112 12.6489 28.6467 11.1152 28.1038 9.63168C27.5165 8.02518 26.6864 6.55971 25.5866 5.24765C25.022 4.57406 24.4037 3.95471 23.7337 3.38546C23.6459 3.31056 23.5214 3.25736 23.5405 3.10652L23.5411 3.10704Z" fill="#F69E1F"/>
<path id="Vector_3" d="M23.5413 3.10696C23.7763 3.36989 24.0666 3.57135 24.3223 3.81155C25.7604 5.16079 26.9139 6.71873 27.7259 8.5179C28.2993 9.78863 28.6996 11.1115 28.8809 12.5006C28.9889 13.3276 29.0571 14.1551 29.0266 14.9883C28.9589 16.8112 28.5927 18.5706 27.8736 20.2515C27.2713 21.6596 26.4707 22.9453 25.4634 24.0968C24.921 24.7171 24.3342 25.2967 23.6813 25.805C23.6208 25.852 23.5692 25.9104 23.5134 25.9636C23.4953 25.9667 23.4772 25.9698 23.4597 25.9729C23.423 25.819 23.2716 25.7792 23.1714 25.6914C22.6822 25.2616 22.2153 24.8091 21.7674 24.3364C21.0324 23.5606 20.4331 22.6866 19.8923 21.7691C19.4026 20.939 19.0229 20.0568 18.7192 19.145C18.4439 18.318 18.2476 17.4698 18.1247 16.6031C18.0017 15.7347 17.9428 14.8643 17.9805 13.9903C18.0487 12.4257 18.3401 10.9028 18.8985 9.43531C19.3763 8.17904 20.0039 7.00284 20.8082 5.92323C21.5117 4.97845 22.2907 4.10495 23.2174 3.36989C23.3104 3.29602 23.3822 3.19581 23.4638 3.10748C23.4896 3.10748 23.5154 3.10645 23.5418 3.10645L23.5413 3.10696Z" fill="#F05C23"/>
<path id="Vector_4" d="M3.21831 32.9689C3.848 32.2127 5.10168 32.3248 5.61307 33.1301C5.91113 32.7448 6.29441 32.519 6.78049 32.471C7.69118 32.3811 8.48203 32.8367 8.51819 33.9013C8.54454 34.6829 8.52129 35.4665 8.52749 36.2491C8.52852 36.3839 8.49081 36.4319 8.35341 36.4237C8.16487 36.4128 7.97426 36.4087 7.78623 36.4237C7.62403 36.4371 7.58322 36.3829 7.58529 36.2248C7.59407 35.6142 7.59045 35.0037 7.58787 34.3926C7.58787 34.2727 7.57961 34.1519 7.56101 34.0336C7.47681 33.4927 7.21543 33.2613 6.70972 33.2711C6.20866 33.2809 5.85482 33.5831 5.83003 34.0914C5.79852 34.735 5.81401 35.3807 5.81091 36.0259C5.80885 36.4206 5.81091 36.4206 5.4235 36.4206C5.11666 36.4206 4.96307 36.2708 4.96273 35.9712C4.96273 35.3694 4.96841 34.7671 4.96066 34.1653C4.95291 33.5532 4.62283 33.2463 4.01949 33.2722C3.54323 33.2923 3.2178 33.6224 3.2085 34.1281C3.1961 34.8156 3.19713 35.5042 3.20592 36.1917C3.20798 36.3663 3.16976 36.4273 2.98225 36.4257C2.33603 36.4201 2.33758 36.4278 2.33862 35.7878C2.34017 34.7821 2.34327 33.7758 2.335 32.7701C2.33345 32.5934 2.37736 32.5144 2.56177 32.5423C2.62892 32.5526 2.69917 32.5438 2.76788 32.5438C3.04544 32.5438 3.19576 32.6855 3.21883 32.9689H3.21831Z" fill="#020202"/>
<path id="Vector_5" d="M44.6854 31.039C44.5547 30.9325 44.2758 31.0162 44.0635 30.9992C43.9054 30.9863 43.8837 31.0545 43.8853 31.1913C43.892 31.774 43.8879 32.3567 43.8879 32.99C43.018 32.1206 41.8366 32.4724 41.3092 33.0055C40.601 33.7214 40.5323 34.9984 41.1703 35.7882C41.4683 36.1575 41.8537 36.3988 42.3186 36.4633C42.8945 36.5434 43.4483 36.4835 43.8708 35.9607C43.8925 36.2675 44.0465 36.421 44.3326 36.421C44.3925 36.421 44.454 36.4127 44.5129 36.4225C44.7025 36.4535 44.7345 36.3652 44.7335 36.1932C44.7262 34.6797 44.7293 33.1661 44.7257 31.6526C44.7257 31.4408 44.8239 31.1521 44.6854 31.039ZM42.799 35.7246C42.1145 35.719 41.6253 35.1926 41.6284 34.4653C41.6315 33.7276 42.1192 33.2142 42.8077 33.223C43.4855 33.2312 43.9617 33.7622 43.9561 34.502C43.9504 35.1905 43.44 35.7303 42.799 35.7246Z" fill="#020202"/>
<path id="Vector_6" d="M36.933 32.9233C36.933 32.6701 36.8092 32.5436 36.5616 32.5436C36.2672 32.5436 36.1021 32.6882 36.0662 32.9775C35.6933 32.5787 35.2418 32.4186 34.7206 32.464C34.204 32.509 33.7608 32.7141 33.4225 33.1128C32.7623 33.8908 32.7809 35.1486 33.4571 35.878C34.1576 36.6332 35.1209 36.6838 36.074 36.0149C36.1026 36.2859 36.2641 36.4212 36.5585 36.4209C36.6102 36.4209 36.6629 36.4126 36.713 36.4209C36.8963 36.4519 36.9387 36.377 36.9372 36.1977C36.9284 35.1062 36.933 34.0147 36.933 32.9233ZM35.0342 35.724C34.3683 35.7354 33.8388 35.2023 33.8326 34.5153C33.8254 33.7565 34.3017 33.2249 34.9908 33.2223C35.6659 33.2203 36.1556 33.7332 36.1633 34.4502C36.1706 35.1661 35.6855 35.7132 35.0342 35.724Z" fill="#020202"/>
<path id="Vector_7" d="M13.28 33.0149C13.28 32.7005 13.1266 32.5434 12.8197 32.5438C12.5742 32.5441 12.448 32.6686 12.4411 32.9173C12.4411 32.9291 12.4235 32.941 12.4142 32.9529C11.4999 32.2731 10.4586 32.3217 9.80201 33.0748C9.09742 33.8837 9.12428 35.156 9.83558 35.9195C10.364 36.4862 11.6348 36.8193 12.4385 35.9825C12.4468 36.2732 12.5894 36.4194 12.8662 36.4211C12.9349 36.4216 13.0052 36.4123 13.0723 36.4226C13.2433 36.4484 13.2846 36.3787 13.2836 36.2119C13.2764 35.1462 13.28 34.0806 13.28 33.0149ZM12.4736 34.5093C12.4519 35.2113 11.9437 35.7418 11.3088 35.7237C10.6156 35.7041 10.1068 35.1447 10.1326 34.4297C10.1584 33.706 10.676 33.1967 11.3594 33.2231C12.0242 33.2489 12.4953 33.7923 12.4736 34.5093Z" fill="#020202"/>
<path id="Vector_8" d="M22.8261 34.824C23.23 34.8375 23.634 34.8277 24.0379 34.8282H24.8375C25.5111 34.8292 25.5251 34.8282 25.4615 34.1448C25.3985 33.465 25.1175 32.8983 24.4579 32.6132C23.2693 32.0997 21.6736 32.8043 21.7676 34.6081C21.8059 35.3427 22.1029 35.945 22.7894 36.2725C23.5286 36.6248 24.2719 36.5493 24.9894 36.181C25.3412 36.0002 25.3376 35.9935 25.1113 35.6588C25.0731 35.602 25.0313 35.5462 25.0013 35.4852C24.9434 35.368 24.8773 35.3757 24.7802 35.4439C24.5751 35.5891 24.3411 35.6712 24.0973 35.728C23.4707 35.8737 22.8839 35.5927 22.6727 35.058C22.6039 34.885 22.6143 34.8168 22.8261 34.824ZM22.6881 33.9299C22.8018 33.4991 23.2094 33.1891 23.6799 33.1824C24.1459 33.1757 24.5054 33.449 24.6247 33.8963C24.6614 34.0337 24.664 34.1195 24.4734 34.1091C24.1996 34.0936 23.9248 34.105 23.65 34.105V34.1076C23.3757 34.1076 23.1009 34.0998 22.8266 34.1107C22.6752 34.1164 22.6541 34.0595 22.6881 33.9299Z" fill="#020202"/>
<path id="Vector_9" d="M15.7177 36.4802C15.1541 36.4942 14.6629 36.3666 14.2037 36.1098C14.09 36.0463 14.0254 35.9802 14.1391 35.8614C14.1504 35.8495 14.1561 35.8314 14.1654 35.8169C14.2532 35.6801 14.3116 35.4895 14.4371 35.4202C14.5828 35.3396 14.7125 35.5401 14.8617 35.5922C15.2988 35.7462 15.7399 35.8226 16.1981 35.7028C16.2719 35.6837 16.3463 35.6563 16.4114 35.6181C16.5431 35.5411 16.6408 35.4331 16.6325 35.2678C16.6248 35.1144 16.5023 35.0493 16.3861 34.9977C16.1159 34.8773 15.822 34.8577 15.5328 34.8277C15.3091 34.8045 15.0973 34.7451 14.8917 34.6578C14.4764 34.4816 14.2161 34.1877 14.2124 33.7197C14.2088 33.2254 14.4408 32.8493 14.8865 32.6546C15.6831 32.3064 16.4755 32.4077 17.2493 32.76C17.3769 32.8178 17.4068 32.8876 17.3247 33.0151C17.224 33.1732 17.1821 33.4067 17.0437 33.4914C16.9109 33.573 16.726 33.3891 16.5566 33.3437C16.1898 33.2445 15.8236 33.1536 15.4439 33.2745C15.2579 33.3333 15.1133 33.4418 15.1097 33.6505C15.1061 33.8685 15.2838 33.9356 15.4537 33.9682C15.7394 34.0229 16.0297 34.0524 16.3174 34.0973C16.4874 34.1237 16.6496 34.1784 16.8061 34.2497C17.2023 34.4315 17.4585 34.7156 17.4786 35.1713C17.4993 35.6382 17.2916 35.9822 16.8954 36.2116C16.5209 36.4286 16.1103 36.5004 15.7177 36.4787V36.4802Z" fill="#020202"/>
<path id="Vector_10" d="M18.8546 34.3823C18.8546 34.0812 18.8484 33.78 18.8577 33.4794C18.8618 33.3445 18.8231 33.2862 18.6852 33.3125C18.6686 33.3156 18.6511 33.313 18.6335 33.313C18.0136 33.312 18.0126 33.3068 18.0798 32.6673C18.0906 32.5625 18.1263 32.5382 18.2203 32.5418C18.3747 32.5475 18.5307 32.5341 18.6841 32.5459C18.8221 32.5563 18.8618 32.5072 18.8577 32.3724C18.8484 32.0888 18.8603 31.8047 18.8525 31.5211C18.8489 31.3997 18.883 31.3651 19.0085 31.3594C19.7018 31.3305 19.7018 31.3264 19.7018 32.017C19.7018 32.3676 19.8751 32.5428 20.2219 32.5428C20.3165 32.5428 20.411 32.5428 20.5055 32.5428C21.1006 32.5428 21.0934 32.5428 21.0804 33.1369C21.0768 33.2955 21.0169 33.3187 20.8821 33.3156C20.5727 33.3079 20.2617 33.3301 19.9538 33.3079C19.725 33.2913 19.6842 33.3776 19.6914 33.5827C19.7069 34.0207 19.6956 34.4598 19.6961 34.8978C19.6971 35.6127 20.0169 35.8571 20.6992 35.6014C20.988 35.4934 21.0438 35.5885 21.112 35.822C21.237 36.2497 21.2447 36.2414 20.8175 36.3886C20.4828 36.5043 20.1398 36.5136 19.7999 36.4594C19.2136 36.3659 18.8877 35.9428 18.8582 35.2589C18.8458 34.9671 18.8561 34.6742 18.8561 34.3818H18.8541L18.8546 34.3823Z" fill="#080808"/>
<path id="Vector_11" d="M31.324 36.4876C30.372 36.4943 29.6854 36.2035 29.3233 35.4277C28.9571 34.643 29.0036 33.8491 29.5589 33.1527C30.0284 32.5644 30.6922 32.4156 31.4118 32.4662C31.7398 32.4895 32.0539 32.5732 32.3349 32.7545C32.3855 32.787 32.4712 32.819 32.4759 32.8588C32.509 33.1243 32.2822 33.2808 32.1861 33.4937C32.1226 33.6347 32.0482 33.5236 31.9841 33.4864C31.3689 33.1279 30.7919 33.1393 30.3565 33.521C29.9019 33.9198 29.8141 34.7153 30.1664 35.2438C30.4815 35.7169 31.1736 35.8636 31.7651 35.5914C31.8953 35.5315 32.0182 35.3589 32.1396 35.4142C32.2491 35.4638 32.2992 35.6462 32.3741 35.7706C32.4964 35.9745 32.4525 36.1341 32.2424 36.2495C31.9175 36.4272 31.5704 36.5036 31.3229 36.4871L31.324 36.4876Z" fill="#020202"/>
<path id="Vector_12" d="M27.2742 32.9728C27.644 32.4676 28.1327 32.4123 28.658 32.4609C28.781 32.4723 28.8522 32.4955 28.7825 32.6494C28.7159 32.7961 28.6725 32.9573 28.642 33.1164C28.611 33.2812 28.5237 33.29 28.3863 33.2626C27.6512 33.1179 27.2835 33.4 27.2618 34.1526C27.2427 34.8231 27.2473 35.4941 27.2602 36.1646C27.2638 36.3707 27.2049 36.4249 27.0019 36.4208C26.396 36.4095 26.3965 36.4182 26.397 35.8247C26.3976 34.8267 26.4074 33.8287 26.3903 32.8313C26.3857 32.574 26.4632 32.4934 26.7028 32.5353C26.7447 32.5425 26.7886 32.5363 26.8315 32.5363C27.1015 32.5367 27.2492 32.6818 27.2747 32.9718L27.2742 32.9728Z" fill="#030303"/>
<path id="Vector_13" d="M38.9123 32.9911C39.3426 32.4337 39.8793 32.3831 40.4915 32.5029C40.4238 32.7147 40.3422 32.91 40.3024 33.113C40.2693 33.2834 40.1841 33.3036 40.0508 33.2602C39.8824 33.2054 39.7094 33.2044 39.541 33.2313C39.2202 33.2824 38.994 33.5371 38.9449 33.9167C38.8555 34.6089 38.9201 35.3058 38.9061 36.0005C38.8974 36.4163 38.9046 36.4163 38.4872 36.4163C38.2062 36.4163 38.0657 36.2798 38.0657 36.0067C38.0657 34.9245 38.0698 33.8423 38.0616 32.7602C38.06 32.583 38.1003 32.507 38.2852 32.536C38.3607 32.5479 38.4397 32.538 38.5167 32.538C38.7711 32.538 38.9032 32.689 38.9129 32.9911H38.9123Z" fill="#020202"/>
</g>
<defs>
<clipPath id="clip0_2092_1727">
<rect width="47" height="36.5005" fill="white"/>
</clipPath>
</defs>
</svg>
