<svg width="87" height="35" viewBox="0 0 87 35" fill="none" xmlns="http://www.w3.org/2000/svg">
<g id="Layer_1" clip-path="url(#clip0_2092_1717)">
<path id="Vector" d="M37.992 14.4997C37.992 10.7486 38.0216 6.99445 37.9712 3.2433C37.9594 2.28549 38.2084 1.94448 39.2018 1.97117C41.669 2.03641 44.1391 1.95041 46.6063 2.00675C50.9357 2.11054 54.245 5.23897 54.3102 9.21845C54.3814 13.4559 51.4131 16.5814 46.9502 16.8779C45.3757 16.9817 43.7922 16.952 42.2116 16.9105C41.4229 16.8898 41.2034 17.1744 41.2123 17.9365C41.2509 20.6024 41.1589 23.2712 41.2538 25.9311C41.3072 27.4049 40.3524 27.0164 39.5933 27.0372C38.7985 27.0579 37.9297 27.3307 37.9623 25.8985C38.0513 22.0999 37.992 18.2983 37.992 14.4967V14.4997ZM44.6314 5.11146C43.8426 5.11146 43.0508 5.16483 42.268 5.09663C41.3962 5.0225 41.1916 5.3902 41.2094 6.19974C41.2568 8.36443 41.2538 10.5321 41.2094 12.6998C41.1945 13.4796 41.3458 13.8681 42.2443 13.8266C43.8159 13.7554 45.3964 13.8325 46.971 13.7821C48.7828 13.7258 50.0342 12.7472 50.7103 11.1222C51.416 9.42602 51.078 7.87515 49.8474 6.47551C48.3973 4.82679 46.4847 5.12332 44.6314 5.10849V5.11146Z" fill="#65686D"/>
<path id="Vector_2" d="M66.3936 25.0859C64.3623 27.0578 62.168 27.9534 59.4339 27.4433C56.3915 26.8769 54.2446 24.5047 54.2772 21.6669C54.3098 18.8439 56.3648 16.6465 59.4814 16.1276C61.5067 15.7896 63.5231 15.7925 65.4536 16.5843C66.3966 16.9698 66.4707 16.5279 66.358 15.8014C66.1089 14.1794 65.1393 13.0941 63.6536 12.5573C61.8685 11.9109 60.1723 12.157 58.6481 13.3876C58.2567 13.7049 58.0373 14.5056 57.4175 14.2446C56.6109 13.9036 55.8755 13.3669 55.1639 12.839C54.8436 12.6018 55.1817 12.326 55.3418 12.0977C56.949 9.79661 61.1301 8.72613 64.5788 9.73434C67.5619 10.6061 69.3382 12.8717 69.3975 16.0772C69.4597 19.3835 69.3767 22.6958 69.4449 26.0022C69.4657 27.0519 68.9378 27.1794 68.1817 27.0341C67.5145 26.9036 66.3254 27.6598 66.3936 26.0971C66.4084 25.762 66.3936 25.4269 66.3936 25.0918V25.0859ZM62.4319 18.5028C61.48 18.4524 60.5608 18.5888 59.689 18.9921C58.1855 19.689 57.379 20.9403 57.6103 22.2243C57.8327 23.4668 59.1078 24.5225 60.6023 24.7034C62.7373 24.9643 64.9643 23.7011 65.9251 21.6876C66.7524 19.9529 66.4825 19.3569 64.6233 18.7964C63.9086 18.5829 63.1792 18.4732 62.4319 18.4969V18.5028Z" fill="#63676C"/>
<path id="Vector_3" d="M73.1668 34.3792C74.2906 31.9328 75.3611 29.5101 76.5176 27.129C76.9179 26.3016 76.9239 25.6255 76.5413 24.7804C74.5516 20.3828 72.6301 15.9556 70.6878 11.5342C70.4743 11.0479 70.2934 10.5438 70.0977 10.0545C70.243 9.99524 70.2845 9.96262 70.329 9.95965C72.3671 9.8015 73.7776 10.6713 74.5605 12.5692C75.7081 15.3447 76.8527 18.1232 78.0121 20.8928C78.1545 21.2309 78.193 21.6579 78.7386 21.9159C79.7647 19.4043 80.7818 16.9193 81.7929 14.4343C82.0539 13.7968 82.2971 13.1533 82.558 12.5128C83.3211 10.6249 84.8018 9.79458 87.0001 10.0219C86.3536 11.5491 85.7428 13.0347 85.1023 14.5055C82.5313 20.4214 79.9544 26.3372 77.3716 32.2501C76.6342 33.9364 75.2326 34.6451 73.1668 34.3762V34.3792Z" fill="#64676C"/>
<path id="Vector_4" d="M1.56836 8.044C5.75838 -0.00985258 15.7575 -2.46515 22.8654 2.75681C23.8766 3.50111 24.0604 4.0408 22.9988 4.79992C22.8417 4.91261 22.7112 5.06977 22.5718 5.20914C21.8038 5.9742 21.1603 7.00613 20.2351 7.43907C19.1765 7.93725 18.45 6.61471 17.4952 6.23811C13.6017 4.70207 8.98467 6.42789 6.89707 10.3273C6.6895 10.7158 6.51157 11.1191 6.32179 11.5164C4.7383 10.357 3.15185 9.19752 1.56836 8.03807V8.044Z" fill="#EA4838"/>
<path id="Vector_5" d="M6.29238 17.2363C8.6261 21.7703 11.4521 23.4398 15.9238 22.9594C17.1811 22.823 18.2694 22.2537 19.3903 21.7466C20.864 22.9268 22.3408 24.107 23.8145 25.2872C19.8884 29.3616 12.0125 29.9458 6.73421 26.5327C4.50428 25.0915 2.73101 23.2233 1.58936 20.7977C3.15802 19.6116 4.72668 18.4254 6.29534 17.2393L6.29238 17.2363Z" fill="#3BA954"/>
<path id="Vector_6" d="M23.8144 25.2878C22.3406 24.1076 20.8639 22.9274 19.3901 21.7472C20.4161 20.8813 21.279 19.8968 21.8098 18.6366C22.1924 17.7262 22.0827 17.2725 20.944 17.3111C19.1707 17.3704 17.3945 17.2666 15.6242 17.3496C14.6041 17.4 14.3164 17.0086 14.3995 16.0805C14.521 14.7164 13.8272 12.9846 14.6812 12.0773C15.55 11.1521 17.2936 11.8074 18.6518 11.7778C21.3621 11.7184 24.0724 11.76 26.7827 11.76C27.3758 11.76 28.0311 11.6621 28.1053 12.531C28.5204 17.4 27.7168 21.8629 23.8203 25.2849L23.8144 25.2878Z" fill="#5880C0"/>
<path id="Vector_7" d="M6.29226 17.2365C4.7236 18.4227 3.15493 19.6088 1.58627 20.7949C-0.513188 16.5486 -0.539876 12.2963 1.56551 8.04102C3.149 9.20046 4.73546 10.3569 6.31895 11.5164C5.80594 13.4201 5.85635 15.3268 6.29226 17.2336V17.2365Z" fill="#F8BC1A"/>
</g>
<defs>
<clipPath id="clip0_2092_1717">
<rect width="87" height="34.5699" fill="white" transform="translate(0 0.00537109)"/>
</clipPath>
</defs>
</svg>
