<svg width="35" height="35" viewBox="0 0 35 35" fill="none" xmlns="http://www.w3.org/2000/svg">
<g id="notifications 1" clip-path="url(#clip0_690_1339)">
<g id="Group">
<path id="Vector" d="M17.9688 4.58622C23.5872 4.95637 28.0313 9.63184 28.0313 15.3445V21.019L30.2537 25.9575C30.7934 27.1578 30.0682 28.2812 28.75 28.2812H22.231C22.0579 29.4788 21.4591 30.574 20.5443 31.366C19.6296 32.1581 18.4601 32.5941 17.25 32.5941C16.04 32.5941 14.8705 32.1581 13.9557 31.366C13.0409 30.574 12.4422 29.4788 12.2691 28.2812H5.75003C4.43472 28.2812 3.70734 27.1557 4.2464 25.9575L6.46878 21.0197V15.3438C6.46878 9.62969 10.9114 4.95494 16.5313 4.5855V2.40625C16.5313 2.21563 16.607 2.03281 16.7418 1.89802C16.8766 1.76323 17.0594 1.6875 17.25 1.6875C17.4407 1.6875 17.6235 1.76323 17.7583 1.89802C17.8931 2.03281 17.9688 2.21563 17.9688 2.40625V4.58622ZM20.7719 28.2812H13.7282C13.8945 29.0925 14.3358 29.8214 14.9775 30.3448C15.6192 30.8682 16.4219 31.1541 17.25 31.1541C18.0781 31.1541 18.8808 30.8682 19.5225 30.3448C20.1642 29.8214 20.6055 29.0925 20.7719 28.2812ZM26.5938 21.1735V15.3445C26.5938 10.1846 22.4099 6 17.25 6C12.0894 6 7.90628 10.1831 7.90628 15.3438V21.1735C7.90626 21.2751 7.8847 21.3756 7.84303 21.4682L5.5574 26.5476C5.44671 26.7942 5.47834 26.8438 5.75003 26.8438H28.75C29.0246 26.8438 29.0548 26.797 28.9427 26.5476L26.657 21.4682C26.6154 21.3756 26.5938 21.2751 26.5938 21.1735Z" fill="#E5223A" stroke="#E5223A" stroke-width="0.69"/>
</g>
<circle id="Ellipse 2452" cx="24.25" cy="6.75" r="3.5" fill="#3BC258"/>
</g>
<defs>
<clipPath id="clip0_690_1339">
<rect width="34.5" height="34.5" fill="white" transform="translate(0 0.25)"/>
</clipPath>
</defs>
</svg>
