<svg width="26" height="16" viewBox="0 0 26 16" fill="none" xmlns="http://www.w3.org/2000/svg">
<path id="Vector" d="M13.1811 4.62197C14.5667 4.62197 15.8956 5.17241 16.8754 6.1522C17.8552 7.132 18.4057 8.46089 18.4057 9.84652C18.4057 11.2322 17.8552 12.5611 16.8754 13.5408C15.8956 14.5206 14.5667 15.0711 13.1811 15.0711C11.7955 15.0711 10.4666 14.5206 9.48678 13.5408C8.50698 12.5611 7.95654 11.2322 7.95654 9.84652C7.95654 8.46089 8.50698 7.132 9.48678 6.1522C10.4666 5.17241 11.7955 4.62197 13.1811 4.62197ZM13.1811 6.58118C12.3151 6.58118 11.4845 6.9252 10.8721 7.53757C10.2598 8.14995 9.91575 8.9805 9.91575 9.84652C9.91575 10.7125 10.2598 11.5431 10.8721 12.1555C11.4845 12.7678 12.3151 13.1119 13.1811 13.1119C14.0471 13.1119 14.8777 12.7678 15.49 12.1555C16.1024 11.5431 16.4464 10.7125 16.4464 9.84652C16.4464 8.9805 16.1024 8.14995 15.49 7.53757C14.8777 6.9252 14.0471 6.58118 13.1811 6.58118ZM13.1811 0.0439458C19.2063 0.0439458 24.4087 4.15829 25.852 9.92359C25.9152 10.1756 25.8757 10.4424 25.7422 10.6653C25.6087 10.8882 25.3921 11.049 25.1401 11.1122C24.8881 11.1754 24.6213 11.1359 24.3984 11.0024C24.1755 10.8689 24.0147 10.6523 23.9515 10.4003C23.3468 8.00156 21.9586 5.87332 20.007 4.35307C18.0554 2.83282 15.6522 2.00757 13.1784 2.00817C10.7046 2.00877 8.30177 2.83519 6.35094 4.35638C4.40011 5.87758 3.01293 8.00649 2.40936 10.4056C2.37823 10.5304 2.32281 10.6479 2.24626 10.7514C2.16971 10.8548 2.07354 10.9422 1.96323 11.0085C1.85292 11.0748 1.73063 11.1187 1.60335 11.1377C1.47608 11.1567 1.3463 11.1505 1.22143 11.1194C1.09656 11.0882 0.979042 11.0328 0.87559 10.9563C0.772139 10.8797 0.684778 10.7835 0.618495 10.6732C0.552212 10.5629 0.508306 10.4406 0.489282 10.3134C0.470258 10.1861 0.47649 10.0563 0.507622 9.93142C1.21534 7.10629 2.84698 4.59874 5.14325 2.80726C7.43952 1.01577 10.2687 0.0431487 13.1811 0.0439458Z" fill="#E5223A"/>
</svg>
