<svg width="104" height="104" viewBox="0 0 104 104" fill="none" xmlns="http://www.w3.org/2000/svg">
<rect x="8.50903" y="7.56348" width="86.9818" height="86.9818" rx="43.4909" fill="#FCD8DB"/>
<circle cx="52.4726" cy="51.0544" r="30.7273" fill="#E5223A"/>
<path d="M55.8233 55.9462H55.7676V53.5503C55.7676 51.6558 54.2632 50.1514 52.3687 50.1514C50.4742 50.1514 48.9698 51.6558 48.9698 53.5503V55.9462H48.9141C48.0783 55.9462 47.4097 56.6148 47.4097 57.4506V62.6325C47.4097 63.4683 48.0783 64.1369 48.9141 64.1369H55.879C56.7148 64.1369 57.3834 63.4683 57.3834 62.6325V57.4506C57.3834 56.6148 56.6591 55.9462 55.8233 55.9462ZM50.0842 53.5503C50.0842 52.2687 51.1429 51.2658 52.3687 51.2658C53.5945 51.2658 54.6532 52.3244 54.6532 53.5503V55.9462H50.0285V53.5503H50.0842ZM56.2691 62.6882C56.2691 62.9111 56.0462 63.134 55.8233 63.134H48.9141C48.6912 63.134 48.4683 62.9111 48.4683 62.6882V57.5063C48.4683 57.2835 48.6912 57.0606 48.9141 57.0606H55.879C56.1019 57.0606 56.3248 57.2835 56.3248 57.5063V62.6882H56.2691Z" fill="white"/>
<path d="M68.8615 62.5761V57.0599C68.8615 56.7813 68.6386 56.5027 68.3043 56.5027H64.2368C64.1253 53.8282 63.1224 51.4322 61.5622 49.482H66.2427C66.5213 49.482 66.7999 49.2592 66.7999 48.9249V43.2972C67.5799 43.0743 68.1371 42.35 68.1371 41.5142C68.1371 40.4555 67.3013 39.6197 66.2427 39.6197C65.184 39.6197 64.3482 40.4555 64.3482 41.5142C64.3482 42.35 64.9054 43.0743 65.6855 43.2972V48.4234H60.5593C59.8349 47.7547 59.0549 47.1418 58.1634 46.6961V38.2267L60.9493 36.4994C61.2836 36.8337 61.7294 37.0009 62.2309 37.0009C62.5652 37.0009 62.8995 36.8895 63.1781 36.7223C63.6239 36.4437 63.9025 36.0537 64.0139 35.5522C64.1253 35.0507 64.0696 34.605 63.791 34.1592V34.1035C63.2338 33.212 62.0637 32.9334 61.2279 33.4906C60.7822 33.7692 60.5036 34.1592 60.3921 34.6607C60.3364 34.995 60.3364 35.2736 60.3921 35.6079L57.3276 37.4467C57.1604 37.5581 57.049 37.7253 57.049 37.8924V46.1389C55.7674 45.5817 54.3744 45.2474 52.87 45.1917V37.9481C53.6501 37.7253 54.2073 37.0009 54.2073 36.1651C54.2073 35.1064 53.3715 34.2707 52.3128 34.2707C51.2542 34.2707 50.4184 35.1064 50.4184 36.1651C50.4184 37.0009 50.9756 37.7253 51.7556 37.9481V45.1917C50.3069 45.2474 48.9139 45.5817 47.6324 46.1389V37.9481C47.6324 37.781 47.521 37.5581 47.3538 37.5024L44.2892 35.6636C44.3449 35.385 44.4007 35.0507 44.2892 34.7164C44.1778 34.2149 43.8435 33.8249 43.4534 33.5463C42.5619 32.9891 41.3918 33.2677 40.8346 34.1592V34.2149C40.556 34.6607 40.5003 35.1064 40.6117 35.6079C40.7232 36.1094 41.0575 36.4994 41.4475 36.778C41.7261 36.9452 42.1162 37.0566 42.3948 37.0566C42.8405 37.0566 43.2863 36.8895 43.6763 36.5551L46.4623 38.2825V46.7518C45.5708 47.2533 44.7907 47.8105 44.0663 48.4791H39.1073V43.3529C39.8874 43.13 40.4446 42.4057 40.4446 41.5699C40.4446 40.5112 39.6088 39.6754 38.5501 39.6754C37.4915 39.6754 36.6557 40.5112 36.6557 41.5142C36.6557 42.35 37.2129 43.0743 37.9929 43.2972V48.9249C37.9929 49.2035 38.2158 49.482 38.5501 49.482H43.2306C41.6704 51.3765 40.6675 53.8282 40.556 56.5027H36.4328C36.1542 56.5027 35.8756 56.7256 35.8756 57.0599V62.5761C35.0955 62.8547 34.5383 63.5233 34.5383 64.4149C34.5383 65.4735 35.3741 66.3093 36.4328 66.3093C37.4915 66.3093 38.3272 65.4735 38.3272 64.4149C38.3272 63.5791 37.7701 62.8547 36.99 62.6318V57.6171H40.5003C40.7789 63.9134 46.0165 68.9281 52.3685 68.9281C58.7205 68.9281 63.9582 63.9134 64.2368 57.6171H67.7471V62.6318C66.967 62.8547 66.4098 63.5791 66.4098 64.4149C66.4098 65.4735 67.2456 66.3093 68.3043 66.3093C69.363 66.3093 70.1987 65.4735 70.1987 64.4149C70.1987 63.5233 69.6416 62.8547 68.8615 62.5761ZM65.4069 41.5142C65.4069 41.0684 65.7969 40.7341 66.2427 40.7341C66.6884 40.7341 67.0785 41.0684 67.0785 41.5142C67.0785 41.9599 66.6884 42.35 66.2427 42.35C65.7412 42.35 65.4069 41.9599 65.4069 41.5142ZM61.3951 34.9393C61.4508 34.7164 61.5622 34.5493 61.7851 34.4378C62.1752 34.2149 62.6209 34.3264 62.8995 34.6607C63.0109 34.9393 63.0109 35.1064 62.9552 35.3293C62.8995 35.5522 62.7881 35.7194 62.5652 35.8308C62.1752 36.0537 61.6737 35.9422 61.4508 35.5522V35.4965C61.3951 35.3293 61.3394 35.1622 61.3951 34.9393ZM43.2863 35.5522C43.2306 35.5522 43.2306 35.5522 43.2863 35.5522C43.0634 35.9422 42.5619 36.0537 42.1719 35.8308C42.0047 35.7194 41.8376 35.5522 41.7819 35.3293C41.7261 35.1064 41.7819 34.9393 41.8933 34.7164C42.1162 34.3821 42.6176 34.2149 43.0077 34.4935C43.1748 34.605 43.342 34.7721 43.342 34.995C43.3977 35.1622 43.342 35.3293 43.2863 35.5522ZM37.7143 41.5142C37.7143 41.0684 38.1044 40.7341 38.5501 40.7341C38.9959 40.7341 39.3859 41.0684 39.3859 41.5142C39.3859 41.9599 38.9959 42.35 38.5501 42.35C38.1044 42.35 37.7143 41.9599 37.7143 41.5142ZM37.2129 64.4149C37.2129 64.8606 36.8228 65.1949 36.3771 65.1949C35.9313 65.1949 35.5413 64.8049 35.5413 64.4149C35.5413 63.9691 35.9313 63.5791 36.3771 63.5791C36.8785 63.5791 37.2129 63.9691 37.2129 64.4149ZM51.5327 36.1651C51.5327 35.7194 51.9228 35.3293 52.3685 35.3293C52.8143 35.3293 53.2043 35.7194 53.2043 36.1651C53.2043 36.6109 52.8143 37.0009 52.3685 37.0009C51.9228 37.0009 51.5327 36.6109 51.5327 36.1651ZM52.3685 67.8695C46.4066 67.8695 41.559 63.0219 41.559 57.0599C41.559 51.0979 46.4066 46.2503 52.3685 46.2503C58.3305 46.2503 63.1781 51.0979 63.1781 57.0599C63.1781 63.0219 58.3305 67.8695 52.3685 67.8695ZM68.3043 65.1949C67.8585 65.1949 67.4685 64.8049 67.4685 64.3591C67.4685 63.9134 67.8585 63.5791 68.3043 63.5791C68.75 63.5791 69.1401 63.9134 69.1401 64.3591C69.1401 64.8606 68.75 65.1949 68.3043 65.1949Z" fill="white"/>
<path d="M52.369 58.7314C52.0904 58.7314 51.8118 58.9543 51.8118 59.2886V60.8488C51.8118 61.1274 52.0346 61.406 52.369 61.406C52.6476 61.406 52.9262 61.1831 52.9262 60.8488V59.2886C52.9262 58.9543 52.6476 58.7314 52.369 58.7314Z" fill="white"/>
<circle cx="52" cy="52" r="51.5273" stroke="#E5223A" strokeWidth="0.945455"/>
<circle cx="90.2908" cy="17.491" r="4.82857" fill="#FCD8DB" stroke="white" strokeWidth="0.742857"/>
<circle cx="20.327" cy="94.073" r="4.82857" fill="#FCD8DB" stroke="white" strokeWidth="0.742857"/>
</svg>
