<svg width="104" height="104" viewBox="0 0 104 104" fill="none" xmlns="http://www.w3.org/2000/svg">
<rect x="8.50903" y="7.56348" width="86.9818" height="86.9818" rx="43.4909" fill="#FCD8DB"/>
<circle cx="52.4726" cy="51.0544" r="30.7273" fill="#E5223A"/>
<path d="M70.8214 47.2272C70.7812 47.0446 70.671 46.8852 70.5144 46.7831C70.3579 46.6811 70.1675 46.6445 69.9843 46.6814C69.801 46.7183 69.6396 46.8256 69.5347 46.9803C69.4298 47.135 69.3898 47.3246 69.4234 47.5085C72.6176 63.5544 54.1692 74.8669 41.3266 65.0049L45.2423 65.5023C45.4281 65.5224 45.6144 65.4688 45.7611 65.353C45.9077 65.2372 46.0031 65.0685 46.0266 64.8831C46.0502 64.6977 46 64.5105 45.8869 64.3617C45.7738 64.2129 45.6068 64.1144 45.4219 64.0875L39.1734 63.2945C39.0659 63.2829 38.9571 63.2955 38.8551 63.3314C38.7531 63.3674 38.6604 63.4257 38.584 63.5022C38.5075 63.5787 38.4491 63.6714 38.4132 63.7734C38.3772 63.8754 38.3646 63.9842 38.3763 64.0917L39.17 70.3399C39.197 70.5247 39.2955 70.6916 39.4442 70.8046C39.593 70.9177 39.7802 70.9678 39.9655 70.9442C40.1509 70.9207 40.3196 70.8254 40.4354 70.6788C40.5511 70.5321 40.6048 70.3459 40.5847 70.1602L40.0336 65.8217C53.9776 77.0407 74.2463 64.8218 70.8214 47.2272ZM39.6013 38.5164C42.6333 35.4942 46.6586 33.6743 50.9304 33.3943C55.2023 33.1142 59.4307 34.3931 62.8313 36.9936L58.9281 36.498C58.7424 36.478 58.5562 36.5317 58.4097 36.6475C58.2631 36.7633 58.1679 36.932 58.1443 37.1173C58.1208 37.3026 58.1709 37.4897 58.2839 37.6385C58.3969 37.7872 58.5637 37.8857 58.7485 37.9128C58.7533 37.9131 64.9969 38.7064 65.0014 38.7061C65.1098 38.7232 65.2207 38.7142 65.325 38.6801C65.4293 38.646 65.524 38.5876 65.6013 38.5098C65.6787 38.4319 65.7364 38.3368 65.7699 38.2323C65.8034 38.1278 65.8115 38.0169 65.7938 37.9086L65.0004 31.6604C64.9731 31.4759 64.8745 31.3094 64.7258 31.1966C64.5771 31.0839 64.3902 31.0339 64.2051 31.0574C64.02 31.0809 63.8514 31.1761 63.7356 31.3224C63.6199 31.4687 63.566 31.6545 63.5857 31.8401L64.1373 36.1851C61.0923 33.7134 57.3602 32.239 53.448 31.9621C49.5359 31.6851 45.6333 32.6191 42.2704 34.6371C38.9075 36.6551 36.2472 39.6594 34.651 43.2418C33.0548 46.8242 32.5999 50.8111 33.3483 54.661C33.3843 54.8467 33.4926 55.0105 33.6493 55.1163C33.8061 55.2221 33.9985 55.2613 34.1841 55.2253C34.3698 55.1893 34.5336 55.081 34.6394 54.9243C34.7452 54.7675 34.7844 54.5752 34.7484 54.3895C34.1952 51.5486 34.3484 48.6153 35.1946 45.8475C36.0408 43.0797 37.554 40.5622 39.6013 38.5164Z" fill="white"/>
<path d="M48.2463 62.4445H55.951C56.5223 62.4439 57.07 62.2166 57.474 61.8127C57.8779 61.4087 58.1051 60.8609 58.1056 60.2896C58.0929 59.308 57.9816 58.0742 58.8566 57.3891C65.615 51.4727 61.7395 40.1325 52.7628 39.577C43.1105 38.9692 38.1302 50.9476 45.3285 57.3779C46.2156 58.0715 46.1048 59.3036 46.0917 60.2897C46.0923 60.8609 46.3195 61.4087 46.7234 61.8126C47.1274 62.2166 47.6751 62.4439 48.2463 62.4445ZM43.3284 49.7526C43.7091 38.5284 59.613 37.9324 60.845 49.0982C60.9493 50.4471 60.7386 51.8019 60.2295 53.0554C59.7203 54.3089 58.9267 55.4269 57.9113 56.321C56.6997 57.3251 56.6084 58.8426 56.6797 60.2896C56.6795 60.4828 56.6026 60.6681 56.466 60.8047C56.3294 60.9414 56.1442 61.0183 55.951 61.0186H54.8551V58.6513C54.8516 58.4646 54.7749 58.2867 54.6416 58.1559C54.5083 58.0251 54.3289 57.9518 54.1422 57.9518C53.9554 57.9518 53.7761 58.0251 53.6427 58.1559C53.5094 58.2867 53.4328 58.4646 53.4292 58.6513V61.0185H50.7681V58.6513C50.7645 58.4647 50.6878 58.2869 50.5545 58.1561C50.4212 58.0254 50.2419 57.9521 50.0552 57.9521C49.8685 57.9521 49.6892 58.0254 49.5559 58.1561C49.4226 58.2869 49.3459 58.4647 49.3422 58.6513V61.0185H48.2463C48.0531 61.0182 47.8679 60.9413 47.7313 60.8047C47.5947 60.668 47.5179 60.4828 47.5177 60.2896C47.5906 58.8334 47.494 57.3262 46.2748 56.3113C45.3484 55.4881 44.6069 54.478 44.099 53.3475C43.5912 52.2171 43.3286 50.9919 43.3284 49.7526Z" fill="white"/>
<path d="M48.2328 52.1302C51.8192 52.0363 51.8179 46.7841 48.2327 46.6904C44.6466 46.7847 44.6467 52.0367 48.2328 52.1302ZM48.2328 48.1163C48.5727 48.1214 48.8969 48.26 49.1354 48.5021C49.374 48.7442 49.5077 49.0705 49.5077 49.4103C49.5077 49.7502 49.374 50.0765 49.1354 50.3186C48.8969 50.5607 48.5726 50.6993 48.2328 50.7043C47.8927 50.6995 47.5683 50.5611 47.3295 50.3189C47.0907 50.0768 46.9569 49.7504 46.9569 49.4103C46.9569 49.0702 47.0908 48.7438 47.3295 48.5017C47.5683 48.2595 47.8928 48.1211 48.2328 48.1163ZM55.9633 52.1302C56.6793 52.1222 57.3634 51.8321 57.8669 51.3229C58.3704 50.8136 58.6528 50.1264 58.6528 49.4103C58.6528 48.6942 58.3704 48.0069 57.8668 47.4977C57.3633 46.9885 56.6793 46.6985 55.9632 46.6904C52.3775 46.7846 52.3776 52.0368 55.9633 52.1302ZM55.9633 48.1163C56.3032 48.1213 56.6276 48.2598 56.8662 48.5019C57.1049 48.7441 57.2386 49.0704 57.2386 49.4104C57.2386 49.7503 57.1048 50.0766 56.8662 50.3188C56.6275 50.5609 56.3032 50.6994 55.9632 50.7043C55.6231 50.6996 55.2985 50.5613 55.0596 50.3191C54.8207 50.0769 54.6868 49.7504 54.6868 49.4103C54.6868 49.0701 54.8208 48.7437 55.0597 48.5015C55.2985 48.2593 55.6232 48.121 55.9633 48.1163ZM50.8629 52.5437C50.469 53.3255 49.4518 54.4338 50.0654 55.3503C50.5663 56.348 52.0091 56.0112 52.8956 56.064C53.1449 56.0615 53.3893 55.994 53.6046 55.8683C53.8199 55.7425 53.9987 55.5628 54.1234 55.3469C54.248 55.131 54.3142 54.8863 54.3155 54.6369C54.3167 54.3876 54.2529 54.1422 54.1304 53.9251L53.3328 52.5437C53.206 52.329 53.0254 52.1511 52.8088 52.0275C52.5923 51.9039 52.3472 51.8389 52.0979 51.8389C51.8485 51.8389 51.6035 51.9039 51.3869 52.0275C51.1703 52.1511 50.9897 52.329 50.8629 52.5437ZM52.098 53.2567L52.8956 54.6381H51.3008L52.098 53.2567Z" fill="white"/>
<circle cx="52" cy="52" r="51.5273" stroke="#E5223A" stroke-width="0.945455"/>
<circle cx="90.2908" cy="17.491" r="4.82857" fill="#FCD8DB" stroke="white" stroke-width="0.742857"/>
<circle cx="20.327" cy="94.073" r="4.82857" fill="#FCD8DB" stroke="white" stroke-width="0.742857"/>
</svg>
