<svg width="104" height="104" viewBox="0 0 104 104" fill="none" xmlns="http://www.w3.org/2000/svg">
<rect x="8.50903" y="7.56348" width="86.9818" height="86.9818" rx="43.4909" fill="#FCD8DB"/>
<circle cx="52.4726" cy="51.0544" r="30.7273" fill="#E5223A"/>
<path d="M52.7777 53.1255H61.8343C61.9844 53.1255 62.1284 53.0658 62.2345 52.9597C62.3407 52.8535 62.4003 52.7095 62.4003 52.5594C62.4003 52.4093 62.3407 52.2653 62.2345 52.1592C62.1284 52.053 61.9844 51.9934 61.8343 51.9934H52.7777C52.6275 51.9934 52.4836 52.053 52.3774 52.1592C52.2713 52.2653 52.2116 52.4093 52.2116 52.5594C52.2116 52.7095 52.2713 52.8535 52.3774 52.9597C52.4836 53.0658 52.6275 53.1255 52.7777 53.1255ZM61.8343 56.5217C61.7313 56.5217 61.6282 56.5273 61.5275 56.5364C61.0654 55.8387 60.4385 55.2658 59.7021 54.8683C58.9658 54.4708 58.1428 54.261 57.306 54.2575C56.0443 54.2591 54.8279 54.7281 53.8919 55.574C52.9558 56.42 52.3665 57.5828 52.2377 58.8379C51.593 58.9636 51.0121 59.3095 50.5944 59.8163C50.1766 60.323 49.9479 60.9593 49.9475 61.616C49.9475 63.176 51.2177 64.4462 52.7777 64.4462H61.8343C64.0192 64.4462 65.7966 62.6689 65.7966 60.484C65.7966 58.299 64.0192 56.5217 61.8343 56.5217ZM61.8343 63.3141H52.7777C51.8414 63.3141 51.0796 62.5523 51.0796 61.616C51.0796 60.6798 51.8414 59.9179 52.7777 59.9179C52.9278 59.9179 53.0718 59.8583 53.1779 59.7521C53.2841 59.646 53.3437 59.502 53.3437 59.3519C53.3437 57.167 55.1211 55.3896 57.306 55.3896C58.0082 55.3937 58.6967 55.5843 59.301 55.942C59.9053 56.2996 60.4038 56.8115 60.7452 57.4251C60.8028 57.5275 60.8909 57.6094 60.9972 57.6596C61.1035 57.7097 61.2228 57.7254 61.3384 57.7047C61.5019 57.6733 61.6678 57.6563 61.8343 57.6538C63.3943 57.6538 64.6645 58.9239 64.6645 60.484C64.6645 62.044 63.3943 63.3141 61.8343 63.3141ZM65.7966 48.0311V45.767C65.7966 45.2202 65.6335 44.7141 65.3641 44.2805C65.3573 44.267 65.3562 44.2511 65.3482 44.2387L61.8479 38.6122C61.595 38.2026 61.2412 37.8647 60.8204 37.6308C60.3996 37.3969 59.9259 37.2749 59.4445 37.2764H44.9799C43.9939 37.2764 43.0961 37.7768 42.5765 38.6122L39.0761 44.2387C39.0694 44.25 39.0694 44.2624 39.0626 44.2749C38.7909 44.7085 38.6267 45.2179 38.6267 45.767V48.0311C38.6267 48.9594 39.0829 49.779 39.7769 50.2953C39.4214 50.5564 39.1322 50.8972 38.9324 51.2905C38.7326 51.6837 38.6279 52.1183 38.6267 52.5594V54.8236C38.6267 55.7519 39.0829 56.5715 39.7769 57.0877C39.4214 57.3488 39.1322 57.6897 38.9324 58.0829C38.7326 58.4762 38.6279 58.9108 38.6267 59.3519V61.616C38.6267 63.176 39.8969 64.4462 41.4569 64.4462H48.8788C49.0289 64.4462 49.1729 64.3866 49.279 64.2804C49.3852 64.1743 49.4448 64.0303 49.4448 63.8802C49.4448 63.7301 49.3852 63.5861 49.279 63.4799C49.1729 63.3738 49.0289 63.3141 48.8788 63.3141H41.4569C40.5207 63.3141 39.7588 62.5523 39.7588 61.616V59.3519C39.7588 58.4145 40.5207 57.6538 41.4569 57.6538H50.9256C51.0757 57.6538 51.2197 57.5941 51.3258 57.488C51.432 57.3818 51.4916 57.2378 51.4916 57.0877C51.4916 56.9376 51.432 56.7936 51.3258 56.6875C51.2197 56.5813 51.0757 56.5217 50.9256 56.5217H41.4569C40.5207 56.5217 39.7588 55.7598 39.7588 54.8236V52.5594C39.7588 51.6221 40.5207 50.8613 41.4569 50.8613H62.9664C63.9026 50.8613 64.6645 51.6232 64.6645 52.5594V54.8236C64.6645 55.0726 64.6033 55.3228 64.4856 55.5639C64.4196 55.6988 64.4098 55.8543 64.4584 55.9963C64.507 56.1383 64.61 56.2553 64.7449 56.3213C64.8797 56.3874 65.0352 56.3972 65.1772 56.3485C65.3193 56.2999 65.4362 56.1969 65.5022 56.0621C65.6946 55.6775 65.7954 55.2536 65.7966 54.8236V52.5594C65.7953 52.1183 65.6906 51.6837 65.4909 51.2905C65.2911 50.8972 65.0018 50.5564 64.6464 50.2953C65.0017 50.034 65.2909 49.6931 65.4906 49.2999C65.6904 48.9067 65.7952 48.4721 65.7966 48.0311ZM43.5377 39.21C43.6892 38.9642 43.9013 38.7614 44.1536 38.6211C44.4059 38.4808 44.6901 38.4075 44.9788 38.4085H59.4433C60.0343 38.4085 60.5731 38.7085 60.8856 39.21L63.2211 42.9628C63.1362 42.9537 63.0535 42.9368 62.9664 42.9368H41.4569C41.3697 42.9368 41.2871 42.9537 41.2022 42.9617L43.5377 39.21ZM64.6645 48.0311C64.6645 48.9673 63.9026 49.7292 62.9664 49.7292H41.4569C40.5207 49.7292 39.7588 48.9673 39.7588 48.0311V45.767C39.7588 44.8296 40.5207 44.0688 41.4569 44.0688H62.9664C63.9026 44.0688 64.6645 44.8296 64.6645 45.767V48.0311ZM40.8909 60.484C40.8909 61.4202 41.6528 62.1821 42.589 62.1821C43.5252 62.1821 44.2871 61.4202 44.2871 60.484C44.2871 59.5477 43.5252 58.7858 42.589 58.7858C41.6528 58.7858 40.8909 59.5466 40.8909 60.484ZM43.155 60.484C43.155 60.6341 43.0954 60.778 42.9892 60.8842C42.8831 60.9904 42.7391 61.05 42.589 61.05C42.4389 61.05 42.2949 60.9904 42.1887 60.8842C42.0826 60.778 42.0229 60.6341 42.0229 60.484C42.0229 60.3338 42.0826 60.1899 42.1887 60.0837C42.2949 59.9775 42.4389 59.9179 42.589 59.9179C42.7391 59.9179 42.8831 59.9775 42.9892 60.0837C43.0954 60.1899 43.155 60.3338 43.155 60.484ZM42.589 45.2009C42.1493 45.217 41.7331 45.4029 41.4277 45.7196C41.1224 46.0363 40.9517 46.4591 40.9517 46.899C40.9517 47.339 41.1224 47.7617 41.4277 48.0785C41.7331 48.3952 42.1493 48.5811 42.589 48.5971C43.5252 48.5971 44.2871 47.8353 44.2871 46.899C44.2871 45.9628 43.5252 45.2009 42.589 45.2009ZM42.589 47.4651C42.4389 47.4651 42.2949 47.4054 42.1887 47.2993C42.0826 47.1931 42.0229 47.0492 42.0229 46.899C42.0229 46.7489 42.0826 46.6049 42.1887 46.4988C42.2949 46.3926 42.4389 46.333 42.589 46.333C42.7391 46.333 42.8831 46.3926 42.9892 46.4988C43.0954 46.6049 43.155 46.7489 43.155 46.899C43.155 47.0492 43.0954 47.1931 42.9892 47.2993C42.8831 47.4054 42.7391 47.4651 42.589 47.4651ZM40.8909 53.6915C40.8909 54.6277 41.6528 55.3896 42.589 55.3896C43.5252 55.3896 44.2871 54.6277 44.2871 53.6915C44.2871 52.7553 43.5252 51.9934 42.589 51.9934C41.6528 51.9934 40.8909 52.7541 40.8909 53.6915ZM43.155 53.6915C43.155 53.8416 43.0954 53.9856 42.9892 54.0917C42.8831 54.1979 42.7391 54.2575 42.589 54.2575C42.4389 54.2575 42.2949 54.1979 42.1887 54.0917C42.0826 53.9856 42.0229 53.8416 42.0229 53.6915C42.0229 53.5414 42.0826 53.3974 42.1887 53.2912C42.2949 53.1851 42.4389 53.1255 42.589 53.1255C42.7391 53.1255 42.8831 53.1851 42.9892 53.2912C43.0954 53.3974 43.155 53.5414 43.155 53.6915ZM61.8343 45.2009H52.7777C52.6275 45.2009 52.4836 45.2606 52.3774 45.3667C52.2713 45.4729 52.2116 45.6168 52.2116 45.767C52.2116 45.9171 52.2713 46.0611 52.3774 46.1672C52.4836 46.2734 52.6275 46.333 52.7777 46.333H61.8343C61.9844 46.333 62.1284 46.2734 62.2345 46.1672C62.3407 46.0611 62.4003 45.9171 62.4003 45.767C62.4003 45.6168 62.3407 45.4729 62.2345 45.3667C62.1284 45.2606 61.9844 45.2009 61.8343 45.2009ZM61.8343 47.4651H52.7777C52.6275 47.4651 52.4836 47.5247 52.3774 47.6309C52.2713 47.737 52.2116 47.881 52.2116 48.0311C52.2116 48.1812 52.2713 48.3252 52.3774 48.4314C52.4836 48.5375 52.6275 48.5971 52.7777 48.5971H61.8343C61.9844 48.5971 62.1284 48.5375 62.2345 48.4314C62.3407 48.3252 62.4003 48.1812 62.4003 48.0311C62.4003 47.881 62.3407 47.737 62.2345 47.6309C62.1284 47.5247 61.9844 47.4651 61.8343 47.4651Z" fill="white"/>
<circle cx="52" cy="52" r="51.5273" stroke="#E5223A" strokeWidth="0.945455"/>
<circle cx="90.2908" cy="17.491" r="4.82857" fill="#FCD8DB" stroke="white" strokeWidth="0.742857"/>
<circle cx="20.3274" cy="94.073" r="4.82857" fill="#FCD8DB" stroke="white" strokeWidth="0.742857"/>
</svg>
