<svg width="104" height="104" viewBox="0 0 104 104" fill="none" xmlns="http://www.w3.org/2000/svg">
<rect x="8.50903" y="7.56348" width="86.9818" height="86.9818" rx="43.4909" fill="#FCD8DB"/>
<circle cx="52.4726" cy="51.0544" r="30.7273" fill="#E5223A"/>
<path d="M51.7711 65.3822C51.9214 65.419 52.0784 65.419 52.2287 65.3822C55.676 64.5248 58.7368 62.5377 60.923 59.7379C63.1092 56.938 64.2949 53.4867 64.2908 49.9344V42.3708C64.2908 42.12 64.1912 41.8795 64.0139 41.7022C63.8366 41.5249 63.5961 41.4253 63.3454 41.4253C59.3697 41.2621 55.5831 39.6838 52.6683 36.9751C52.491 36.7978 52.2506 36.6982 51.9999 36.6982C51.7492 36.6982 51.5088 36.7978 51.3315 36.9751C46.9512 41.3553 40.715 41.4253 40.6544 41.4253C40.4037 41.4253 40.1632 41.5249 39.9859 41.7022C39.8086 41.8795 39.709 42.12 39.709 42.3708V49.9344C39.7049 53.4867 40.8906 56.938 43.0768 59.7379C45.263 62.5377 48.3238 64.5248 51.7711 65.3822ZM41.5999 43.2652C45.4316 42.9405 49.0669 41.4296 51.9999 38.9425C54.9329 41.4296 58.5682 42.9405 62.3999 43.2652V49.9344C62.4032 53.0241 61.3853 56.0284 59.5044 58.4797C57.6235 60.931 54.9852 62.6919 51.9999 63.4884C49.0146 62.6919 46.3763 60.931 44.4954 58.4797C42.6145 56.0284 41.5966 53.0241 41.5999 49.9344V43.2652Z" fill="white"/>
<path d="M50.3862 54.3844C50.565 54.5587 50.8049 54.6562 51.0546 54.6562C51.3044 54.6562 51.5442 54.5587 51.7231 54.3844L57.3958 48.7116C57.568 48.5333 57.6633 48.2945 57.6612 48.0466C57.659 47.7987 57.5596 47.5616 57.3843 47.3863C57.209 47.211 56.9718 47.1116 56.7239 47.1094C56.4761 47.1073 56.2372 47.2026 56.0589 47.3748L51.0546 52.3791L48.8867 50.2111C48.7084 50.0389 48.4696 49.9436 48.2217 49.9458C47.9738 49.9479 47.7366 50.0474 47.5613 50.2227C47.386 50.398 47.2866 50.6351 47.2845 50.883C47.2823 51.1309 47.3776 51.3697 47.5498 51.548L50.3862 54.3844Z" fill="white"/>
<circle cx="52" cy="52" r="51.5273" stroke="#E5223A" stroke-width="0.945455"/>
<circle cx="90.2908" cy="17.491" r="4.82857" fill="#FCD8DB" stroke="white" stroke-width="0.742857"/>
<circle cx="20.3272" cy="94.073" r="4.82857" fill="#FCD8DB" stroke="white" stroke-width="0.742857"/>
</svg>
