<svg width="37" height="36" viewBox="0 0 37 36" fill="none" xmlns="http://www.w3.org/2000/svg">
<rect x="0.864105" y="0.132812" width="35.8432" height="35.8432" rx="17.9216" fill="#E5223A"/>
<path d="M12.3706 23.109C11.995 23.4846 11.995 24.0935 12.3706 24.4691C12.7462 24.8447 13.3552 24.8447 13.7308 24.4691L12.3706 23.109ZM25.4823 12.3192C25.4823 11.7881 25.0517 11.3575 24.5205 11.3575L15.8645 11.3575C15.3334 11.3575 14.9028 11.7881 14.9028 12.3192C14.9028 12.8504 15.3334 13.281 15.8645 13.281L23.5587 13.281L23.5587 20.9752C23.5587 21.5064 23.9893 21.937 24.5205 21.937C25.0517 21.937 25.4823 21.5064 25.4823 20.9752L25.4823 12.3192ZM13.7308 24.4691L25.2006 12.9993L23.8404 11.6392L12.3706 23.109L13.7308 24.4691Z" fill="white"/>
</svg>
