<svg width="12" height="12" viewBox="0 0 12 12" fill="none" xmlns="http://www.w3.org/2000/svg">
<path id="Arrow 1" d="M1.18404 9.86943C0.879475 10.174 0.879475 10.6678 1.18404 10.9724C1.48861 11.2769 1.9824 11.2769 2.28697 10.9724L1.18404 9.86943ZM11.8161 1.12019C11.8161 0.68947 11.4669 0.340302 11.0362 0.340302L4.01722 0.340302C3.5865 0.340302 3.23733 0.68947 3.23733 1.12019C3.23733 1.55091 3.5865 1.90008 4.01722 1.90008H10.2563V8.13918C10.2563 8.5699 10.6055 8.91907 11.0362 8.91907C11.4669 8.91907 11.8161 8.5699 11.8161 8.13918L11.8161 1.12019ZM2.28697 10.9724L11.5877 1.67165L10.4847 0.568726L1.18404 9.86943L2.28697 10.9724Z" fill="white"/>
</svg>
