<svg width="521" height="521" viewBox="0 0 521 521" fill="none" xmlns="http://www.w3.org/2000/svg">
<path d="M431.699 452.093C430.192 452.093 428.685 451.703 427.34 450.922L363.569 413.866C363.327 413.725 363.246 413.413 363.386 413.171C363.524 412.926 363.834 412.845 364.081 412.986L427.852 450.043C430.218 451.417 433.159 451.419 435.527 450.053L499.738 412.986C499.975 412.845 500.287 412.929 500.433 413.171C500.571 413.413 500.487 413.725 500.245 413.863L436.035 450.93C434.699 451.706 433.2 452.093 431.699 452.093Z" fill="#DBDEE4"/>
<path d="M129.541 515.568C128.503 515.568 127.47 515.3 126.546 514.763L70.2776 482.056C70.0355 481.915 69.9548 481.603 70.0954 481.361C70.2333 481.116 70.5456 481.035 70.7902 481.176L127.058 513.884C128.583 514.771 130.483 514.776 132.011 513.892L220.243 462.717C220.479 462.573 220.794 462.657 220.935 462.901C221.075 463.143 220.995 463.456 220.75 463.596L132.518 514.771C131.6 515.302 130.569 515.568 129.541 515.568Z" fill="#DBDEE4"/>
<path d="M80.9919 480.067C84.664 482.188 84.6849 485.626 81.0362 487.747C77.3875 489.868 71.4539 489.865 67.7818 487.747C64.1097 485.626 64.0941 482.188 67.7401 480.07C71.3862 477.951 77.3199 477.946 80.9919 480.067Z" fill="white"/>
<path d="M74.4206 489.834C71.9275 489.834 69.4317 489.282 67.5267 488.184C65.5826 487.062 64.5104 485.537 64.5078 483.895C64.5052 482.261 65.5618 480.746 67.4824 479.63C71.2638 477.433 77.4369 477.431 81.2443 479.63C83.191 480.754 84.2606 482.279 84.2632 483.924C84.2658 485.558 83.2092 487.073 81.2886 488.189C79.3992 489.282 76.9112 489.834 74.4206 489.834ZM74.3582 478.979C72.0498 478.979 69.7466 479.489 67.9951 480.507C66.3998 481.433 65.5228 482.636 65.5228 483.893C65.5254 485.16 66.418 486.37 68.0342 487.304C71.5579 489.34 77.2756 489.342 80.7785 487.304C82.3738 486.378 83.2508 485.176 83.2482 483.919C83.2482 482.651 82.3556 481.439 80.7369 480.504C78.975 479.487 76.664 478.979 74.3582 478.979Z" fill="#DBDEE4"/>
<path d="M74.4079 486.328C72.9765 486.328 71.592 486.003 70.6082 485.433C69.8171 484.978 69.3643 484.415 69.3643 483.895C69.3643 483.38 69.8093 482.825 70.5848 482.375C71.5607 481.808 72.9401 481.482 74.3688 481.482C75.7976 481.482 77.1821 481.808 78.1658 482.375C78.957 482.83 79.4098 483.393 79.4124 483.916C79.4124 484.431 78.97 484.985 78.1945 485.436C77.2159 486.003 75.8366 486.328 74.4079 486.328Z" fill="#1FB6FF"/>
<path d="M106.725 504.728C105.187 504.728 103.701 504.379 102.644 503.767C101.796 503.278 101.309 502.674 101.307 502.115C101.307 501.563 101.783 500.967 102.616 500.483C103.664 499.874 105.145 499.525 106.681 499.525C108.216 499.525 109.702 499.874 110.759 500.486C111.607 500.975 112.097 501.579 112.097 502.138C112.097 502.69 111.62 503.286 110.787 503.77C109.741 504.379 108.26 504.728 106.725 504.728Z" fill="#32353A"/>
<path d="M487.158 413.048C483.486 415.169 483.465 418.607 487.114 420.728C490.763 422.849 496.699 422.847 500.371 420.728C504.043 418.61 504.061 415.172 500.412 413.051C496.764 410.93 490.83 410.93 487.158 413.048Z" fill="white"/>
<path d="M493.732 422.818C491.239 422.818 488.748 422.269 486.856 421.168C484.936 420.052 483.879 418.537 483.882 416.903C483.887 415.258 484.959 413.733 486.906 412.611C490.713 410.412 496.886 410.415 500.67 412.611C502.594 413.728 503.65 415.245 503.648 416.877C503.645 418.521 502.573 420.044 500.626 421.166C498.721 422.266 496.225 422.818 493.732 422.818ZM493.795 411.963C491.489 411.963 489.178 412.471 487.413 413.488C485.792 414.423 484.899 415.635 484.899 416.903C484.897 418.16 485.776 419.362 487.372 420.289C490.869 422.324 496.592 422.324 500.121 420.289C501.74 419.354 502.633 418.142 502.635 416.877C502.638 415.62 501.758 414.417 500.163 413.491C498.409 412.471 496.103 411.963 493.795 411.963Z" fill="#DBDEE4"/>
<path d="M493.742 419.31C495.173 419.31 496.558 418.984 497.544 418.414C498.335 417.959 498.788 417.397 498.788 416.876C498.788 416.361 498.343 415.807 497.567 415.357C496.592 414.789 495.212 414.464 493.781 414.464C492.35 414.464 490.965 414.789 489.984 415.357C489.193 415.812 488.74 416.374 488.737 416.895C488.737 417.41 489.18 417.962 489.955 418.414C490.934 418.984 492.313 419.31 493.742 419.31Z" fill="#1FB6FF"/>
<path d="M461.414 437.708C462.952 437.708 464.438 437.359 465.497 436.748C466.345 436.259 466.832 435.655 466.834 435.095C466.834 434.544 466.358 433.948 465.523 433.464C464.474 432.855 462.993 432.506 461.458 432.506C459.922 432.506 458.434 432.855 457.38 433.466C456.531 433.955 456.042 434.559 456.042 435.119C456.042 435.67 456.518 436.266 457.351 436.75C458.397 437.359 459.878 437.708 461.414 437.708Z" fill="#32353A"/>
<path d="M415.17 500.952C415.082 500.952 414.996 500.931 414.915 500.884L287.855 427.073C287.613 426.932 287.532 426.62 287.673 426.378C287.81 426.133 288.12 426.052 288.367 426.193L415.428 500.004C415.67 500.145 415.751 500.457 415.61 500.699C415.517 500.863 415.345 500.952 415.17 500.952Z" fill="#DBDEE4"/>
<path d="M405.856 501.996C402.182 499.875 402.161 496.437 405.812 494.316C409.463 492.195 415.405 492.198 419.079 494.316C422.754 496.437 422.772 499.873 419.121 501.994C415.47 504.115 409.531 504.117 405.856 501.996Z" fill="white"/>
<path d="M412.498 504.083C410.005 504.083 407.509 503.534 405.604 502.436C403.658 501.314 402.583 499.786 402.58 498.144C402.575 496.51 403.634 494.995 405.555 493.879C409.339 491.682 415.52 491.68 419.332 493.879C421.279 495 422.351 496.523 422.354 498.168C422.356 499.802 421.3 501.317 419.376 502.433C417.484 503.534 414.991 504.083 412.498 504.083ZM412.436 493.231C410.125 493.231 407.819 493.741 406.067 494.756C404.47 495.682 403.595 496.885 403.595 498.142C403.598 499.409 404.49 500.622 406.109 501.556C409.635 503.589 415.361 503.591 418.864 501.556C420.462 500.63 421.339 499.425 421.336 498.17C421.334 496.905 420.441 495.693 418.822 494.758C417.06 493.738 414.747 493.231 412.436 493.231Z" fill="#DBDEE4"/>
<path d="M412.446 495.734C413.877 495.734 415.264 496.06 416.251 496.63C417.042 497.085 417.495 497.647 417.497 498.168C417.497 498.683 417.052 499.237 416.277 499.688C415.301 500.255 413.919 500.58 412.488 500.58C411.056 500.58 409.672 500.255 408.688 499.688C407.897 499.232 407.441 498.67 407.441 498.149C407.441 497.634 407.886 497.082 408.662 496.63C409.635 496.06 411.015 495.734 412.446 495.734Z" fill="#1FB6FF"/>
<path d="M380.097 477.337C381.635 477.337 383.123 477.686 384.183 478.297C385.031 478.787 385.52 479.39 385.52 479.95C385.52 480.502 385.044 481.098 384.209 481.582C383.16 482.191 381.676 482.539 380.141 482.539C378.603 482.539 377.117 482.191 376.06 481.579C375.209 481.09 374.723 480.486 374.723 479.926C374.723 479.375 375.199 478.779 376.032 478.295C377.078 477.686 378.561 477.337 380.097 477.337Z" fill="#32353A"/>
<path d="M447.144 308.109C447.056 308.109 446.97 308.088 446.889 308.041L384.198 271.838C382.986 271.138 382.259 269.883 382.257 268.481C382.254 267.081 382.978 265.821 384.188 265.118L446.447 228.928C446.692 228.788 447.001 228.868 447.142 229.113C447.282 229.355 447.202 229.667 446.96 229.808L384.701 265.998C383.805 266.518 383.272 267.445 383.274 268.481C383.277 269.514 383.813 270.443 384.708 270.961L447.399 307.164C447.641 307.304 447.725 307.614 447.587 307.856C447.491 308.018 447.321 308.109 447.144 308.109Z" fill="#DBDEE4"/>
<path d="M438.332 309.279C434.66 307.158 434.639 303.721 438.288 301.6C441.936 299.479 447.875 299.481 451.547 301.6C455.219 303.721 455.238 307.158 451.589 309.277C447.938 311.398 442.004 311.398 438.332 309.279Z" fill="white"/>
<path d="M444.968 311.367C442.478 311.367 439.982 310.818 438.08 309.72C436.133 308.598 435.061 307.071 435.056 305.428C435.053 303.794 436.11 302.279 438.03 301.163C441.814 298.967 447.99 298.964 451.797 301.163C453.744 302.285 454.816 303.81 454.819 305.454C454.821 307.089 453.765 308.603 451.842 309.72C449.95 310.818 447.459 311.367 444.968 311.367ZM444.906 300.51C442.598 300.51 440.292 301.017 438.543 302.037C436.948 302.964 436.071 304.166 436.071 305.423C436.073 306.691 436.969 307.903 438.585 308.838C442.108 310.87 447.823 310.873 451.329 308.838C452.927 307.911 453.804 306.706 453.801 305.452C453.799 304.187 452.906 302.974 451.287 302.04C449.528 301.02 447.214 300.51 444.906 300.51Z" fill="#DBDEE4"/>
<path d="M444.916 303.019C446.348 303.019 447.732 303.344 448.719 303.914C449.51 304.369 449.963 304.931 449.963 305.452C449.963 305.967 449.518 306.522 448.742 306.972C447.766 307.539 446.387 307.864 444.955 307.864C443.524 307.864 442.139 307.539 441.156 306.972C440.365 306.516 439.912 305.954 439.909 305.431C439.909 304.916 440.352 304.361 441.127 303.911C442.108 303.341 443.488 303.016 444.916 303.019Z" fill="#1FB6FF"/>
<path d="M412.589 284.616C414.127 284.616 415.616 284.965 416.673 285.577C417.521 286.066 418.008 286.67 418.01 287.229C418.01 287.781 417.534 288.377 416.699 288.861C415.65 289.47 414.169 289.819 412.634 289.819C411.098 289.819 409.609 289.47 408.555 288.858C407.707 288.369 407.218 287.765 407.218 287.206C407.218 286.654 407.694 286.058 408.527 285.574C409.573 284.965 411.054 284.616 412.589 284.616Z" fill="#32353A"/>
<path d="M281.599 420.618C281.51 420.618 281.424 420.597 281.344 420.55L166.653 353.88C166.411 353.74 166.33 353.427 166.47 353.185C166.608 352.941 166.918 352.86 167.165 353.001L281.854 419.671C282.096 419.811 282.176 420.124 282.036 420.366C281.945 420.527 281.773 420.618 281.599 420.618Z" fill="#DBDEE4"/>
<path d="M281.599 420.618C281.51 420.618 281.424 420.597 281.344 420.55L166.653 353.88C166.411 353.74 166.33 353.427 166.47 353.185C166.608 352.941 166.918 352.86 167.165 353.001L281.854 419.671C282.096 419.811 282.176 420.124 282.036 420.366C281.945 420.527 281.773 420.618 281.599 420.618Z" fill="#DBDEE4"/>
<path d="M214.067 377.561C215.605 377.561 217.091 377.912 218.148 378.521C218.996 379.01 219.483 379.614 219.485 380.173C219.485 380.725 219.009 381.321 218.176 381.805C217.127 382.414 215.647 382.763 214.111 382.763C212.576 382.763 211.09 382.414 210.033 381.803C209.185 381.313 208.695 380.71 208.695 380.15C208.695 379.598 209.172 379.002 210.004 378.518C211.051 377.909 212.531 377.561 214.067 377.561Z" fill="#32353A"/>
<path d="M152.695 349.829C152.52 349.829 152.349 349.738 152.257 349.577C152.117 349.335 152.198 349.022 152.44 348.882L418.733 194.086C418.977 193.946 419.287 194.027 419.428 194.271C419.568 194.513 419.488 194.826 419.246 194.966L152.952 349.761C152.869 349.806 152.781 349.829 152.695 349.829Z" fill="#DBDEE4"/>
<path d="M152.695 349.829C152.52 349.829 152.349 349.738 152.257 349.577C152.117 349.335 152.198 349.022 152.44 348.882L418.733 194.086C418.977 193.946 419.287 194.027 419.428 194.271C419.568 194.513 419.488 194.826 419.246 194.966L152.952 349.761C152.869 349.806 152.781 349.829 152.695 349.829Z" fill="#DBDEE4"/>
<path d="M296.027 262.708C294.489 262.708 293.003 263.059 291.946 263.668C291.098 264.158 290.611 264.761 290.608 265.321C290.608 265.873 291.085 266.469 291.917 266.953C292.966 267.562 294.447 267.91 295.983 267.91C297.518 267.91 299.004 267.562 300.061 266.95C300.909 266.461 301.398 265.857 301.398 265.297C301.398 264.746 300.922 264.15 300.089 263.666C299.043 263.057 297.562 262.708 296.027 262.708Z" fill="#32353A"/>
<path d="M193.791 90.5205L71.4854 161.597L71.6389 106.588" fill="white"/>
<path d="M71.4857 162.107C71.3972 162.107 71.3113 162.084 71.2306 162.039C71.0745 161.948 70.9756 161.782 70.9756 161.6L71.1317 106.588C71.1317 106.307 71.3607 106.081 71.6392 106.081C71.6392 106.081 71.6392 106.081 71.6418 106.081C71.9203 106.081 72.1467 106.31 72.1467 106.588L71.9931 160.715L193.534 90.0836C193.779 89.943 194.088 90.0237 194.229 90.2683C194.369 90.5104 194.289 90.8227 194.047 90.9632L71.7407 162.037C71.66 162.084 71.5715 162.107 71.4857 162.107Z" fill="#32353A"/>
<path d="M71.6393 106.588L71.4857 161.597L59.5586 154.713L59.7147 99.6914" fill="#F0F2F5"/>
<path d="M71.4854 162.107C71.3969 162.107 71.311 162.084 71.2304 162.04L59.3058 155.153C59.1497 155.062 59.0508 154.896 59.0508 154.714L59.2043 99.6921C59.2043 99.411 59.4333 99.1846 59.7118 99.1846C59.7118 99.1846 59.7118 99.1846 59.7144 99.1846C59.9929 99.1846 60.2193 99.4136 60.2193 99.6947L60.0657 154.422L70.9779 160.723L71.1315 106.589C71.1315 106.308 71.3605 106.081 71.639 106.081C71.639 106.081 71.639 106.081 71.6416 106.081C71.92 106.081 72.1464 106.31 72.1464 106.589L71.9903 161.6C71.9903 161.782 71.894 161.949 71.7352 162.04C71.6598 162.084 71.5713 162.107 71.4854 162.107Z" fill="#32353A"/>
<g opacity="0.1">
<path d="M97.1404 360.282C94.5639 361.771 94.5483 364.181 97.1092 365.669L141.45 391.473C144.011 392.961 148.172 392.961 150.749 391.473L221.06 350.879C223.636 349.391 223.652 346.981 221.091 345.492L176.75 319.689C174.189 318.2 170.028 318.2 167.451 319.689L97.1404 360.282Z" fill="black"/>
</g>
<path d="M223.004 338.453C223.004 340.101 222.426 341.259 221.479 341.803L152.328 381.988C153.275 381.444 153.835 380.288 153.853 378.656C153.853 375.344 151.521 371.291 148.646 369.644L110.522 347.619C110.137 347.39 109.804 347.112 109.541 346.813C108.963 346.146 108.664 345.392 108.508 344.902C108.297 344.254 108.104 343.167 108.752 342.604L178.025 302.331C177.255 302.875 177.463 304.015 177.674 304.715C177.814 305.189 178.095 305.943 178.691 306.607C178.954 306.922 179.287 307.203 179.691 307.432L217.796 329.441C220.69 331.088 223.022 335.156 223.004 338.453Z" fill="#F0F2F5"/>
<path d="M152.331 382.495C152.157 382.495 151.985 382.404 151.891 382.24C151.753 381.998 151.834 381.688 152.076 381.548L152.097 381.537C152.891 381.072 153.336 380.046 153.351 378.651C153.351 375.497 151.129 371.651 148.401 370.087L110.275 348.059C109.854 347.809 109.474 347.497 109.166 347.151C108.675 346.584 108.295 345.881 108.029 345.059C107.628 343.822 107.774 342.787 108.425 342.222L177.776 301.894C178.012 301.756 178.312 301.829 178.46 302.06C178.606 302.289 178.546 302.594 178.322 302.75C177.843 303.088 177.973 303.929 178.166 304.572C178.371 305.254 178.676 305.826 179.074 306.274C179.316 306.565 179.605 306.802 179.946 306.995L218.057 329.006C221.086 330.732 223.535 334.971 223.517 338.456C223.517 340.241 222.884 341.587 221.737 342.245L152.612 382.414C152.604 382.42 152.597 382.425 152.589 382.43C152.503 382.474 152.414 382.495 152.331 382.495ZM176.974 303.531L109.01 343.044C108.607 343.403 108.893 344.439 108.995 344.746C109.216 345.438 109.528 346.021 109.926 346.482C110.163 346.748 110.46 346.992 110.785 347.185L148.904 369.207C151.915 370.932 154.364 375.172 154.364 378.656C154.358 379.281 154.275 379.854 154.122 380.359L221.224 341.363C222.046 340.892 222.496 339.859 222.496 338.453V338.451C222.512 335.346 220.248 331.422 217.547 329.883L179.438 307.872C178.996 307.622 178.614 307.304 178.301 306.932C177.815 306.386 177.437 305.686 177.19 304.858C177.034 304.34 176.969 303.9 176.974 303.531Z" fill="#32353A"/>
<path d="M217.796 329.441C220.69 331.089 223.022 335.156 223.003 338.454C223.003 340.101 222.426 341.259 221.478 341.803L152.328 381.988C153.275 381.444 153.835 380.289 153.853 378.657C153.853 375.344 151.521 371.292 148.646 369.644" fill="#DBDEE4"/>
<path d="M152.331 382.495C152.157 382.495 151.985 382.404 151.891 382.24C151.753 381.998 151.834 381.689 152.076 381.548L152.097 381.538C152.89 381.072 153.335 380.046 153.351 378.652C153.351 375.497 151.129 371.651 148.401 370.087C148.157 369.949 148.073 369.637 148.214 369.395C148.352 369.15 148.659 369.064 148.906 369.207C151.92 370.933 154.369 375.175 154.369 378.659C154.363 379.284 154.28 379.857 154.127 380.361L221.229 341.366C222.051 340.895 222.501 339.862 222.501 338.456C222.517 335.349 220.253 331.424 217.552 329.886C217.307 329.748 217.224 329.436 217.364 329.194C217.502 328.949 217.812 328.864 218.056 329.004C221.088 330.73 223.54 334.972 223.519 338.459C223.519 340.239 222.887 341.587 221.739 342.246L152.615 382.415C152.607 382.42 152.599 382.425 152.591 382.43C152.503 382.475 152.414 382.495 152.331 382.495Z" fill="#32353A"/>
<path d="M113.847 293.54C116.738 295.211 119.059 299.242 119.052 302.553L118.981 327.341C118.963 333.389 116.902 337.905 113.162 340.026L108.993 342.415C108.082 342.935 108.288 344.182 108.514 344.903C108.722 345.611 109.261 346.896 110.536 347.633L148.65 369.637C151.52 371.294 153.862 375.352 153.855 378.649C153.844 381.972 151.489 383.292 148.616 381.634L110.502 359.63C105.376 356.671 100.79 350.503 98.8434 343.909C96.8967 337.327 98.0002 331.739 101.623 329.65L105.802 327.292C107.562 326.29 108.53 324.169 108.538 321.311L108.608 296.523C108.618 293.212 110.976 291.882 113.847 293.54Z" fill="#32353A"/>
<path d="M150.955 382.86C150.148 382.86 149.266 382.597 148.36 382.071L110.247 360.07C105.003 357.043 100.334 350.756 98.3535 344.052C96.3417 337.251 97.5233 331.427 101.37 329.21L105.552 326.849C107.142 325.944 108.024 323.976 108.032 321.311L108.102 296.523C108.108 294.74 108.743 293.394 109.89 292.733C111.046 292.067 112.545 292.197 114.101 293.098C117.12 294.841 119.569 299.081 119.558 302.553L119.488 327.341C119.47 333.595 117.313 338.256 113.411 340.465L109.245 342.852C108.599 343.221 108.857 344.299 108.998 344.747C109.185 345.384 109.661 346.537 110.788 347.19L148.901 369.192C151.92 370.935 154.369 375.175 154.359 378.646C154.354 380.432 153.721 381.777 152.573 382.436C152.089 382.719 151.543 382.86 150.955 382.86ZM111.514 293.332C111.1 293.332 110.726 293.426 110.395 293.616C109.573 294.089 109.12 295.123 109.115 296.528L109.044 321.316C109.037 324.361 107.972 326.641 106.052 327.737L101.869 330.097C98.4524 332.067 97.4504 337.436 99.3242 343.768C101.237 350.235 105.721 356.288 110.752 359.193L148.865 381.194C150.098 381.907 151.238 382.037 152.063 381.561C152.883 381.09 153.336 380.054 153.339 378.649C153.349 375.555 151.082 371.63 148.389 370.074L110.275 348.072C108.839 347.242 108.245 345.821 108.019 345.046C107.566 343.614 107.826 342.493 108.732 341.975L112.901 339.588C116.472 337.564 118.447 333.215 118.465 327.344L118.536 302.555C118.546 299.409 116.324 295.565 113.586 293.983C112.849 293.551 112.141 293.332 111.514 293.332Z" fill="#32353A"/>
<path d="M182.326 299.834C186.055 297.708 188.132 293.195 188.147 287.142L188.212 262.364C188.212 259.043 185.907 255.02 183.013 253.351C181.558 252.5 180.249 252.435 179.302 252.992L110.138 293.175C111.085 292.618 112.41 292.701 113.852 293.534C116.746 295.202 119.07 299.241 119.052 302.546L118.987 327.34C118.971 332.982 117.173 337.284 113.901 339.54C113.886 339.574 113.867 339.59 113.852 339.59L108.996 342.403C108.915 342.452 108.832 342.502 108.767 342.598L178.029 302.333L182.326 299.834Z" fill="white"/>
<path d="M108.761 343.112C108.623 343.112 108.49 343.057 108.392 342.953C108.23 342.781 108.207 342.518 108.337 342.323C108.467 342.128 108.631 342.032 108.727 341.972L113.537 339.187C113.557 339.166 113.583 339.145 113.607 339.13C116.73 336.975 118.458 332.79 118.474 327.346L118.539 302.552C118.554 299.406 116.334 295.562 113.591 293.982C112.379 293.277 111.213 293.147 110.403 293.612L110.39 293.62C110.146 293.758 109.836 293.678 109.695 293.436C109.555 293.193 109.635 292.884 109.878 292.741C109.883 292.738 109.891 292.735 109.893 292.733L179.041 252.558C180.204 251.879 181.706 252.007 183.265 252.92C186.323 254.682 188.717 258.833 188.717 262.37L188.652 287.148C188.634 293.391 186.474 298.052 182.575 300.28L109.016 343.047C108.938 343.088 108.85 343.112 108.761 343.112ZM112.438 292.428C112.98 292.551 113.542 292.774 114.101 293.1C117.125 294.841 119.572 299.083 119.556 302.552L119.491 327.343C119.478 331.421 118.541 334.854 116.792 337.344L182.068 299.395C182.07 299.395 182.073 299.395 182.073 299.393C185.646 297.355 187.624 293.003 187.64 287.14L187.705 262.365C187.705 259.213 185.485 255.366 182.757 253.795C181.524 253.071 180.384 252.944 179.556 253.433L112.438 292.428Z" fill="#32353A"/>
<path d="M279.061 17.5082C279.038 9.69038 273.507 6.53878 266.702 10.4659L27.0139 148.85C20.211 152.777 14.7146 162.3 14.7354 170.117L15.1934 331.869L279.519 179.26L279.061 17.5082Z" fill="#32353A"/>
<path d="M15.1938 332.379C15.1053 332.379 15.0194 332.355 14.9387 332.311C14.7826 332.22 14.6837 332.054 14.6837 331.871L14.2256 170.117C14.2048 162.148 19.8262 152.412 26.7566 148.41L266.445 10.0258C269.911 8.02451 273.193 7.71482 275.694 9.15398C278.179 10.5827 279.553 13.5496 279.566 17.5079L280.024 179.262C280.024 179.444 279.928 179.614 279.769 179.702L15.4436 332.311C15.3707 332.355 15.2822 332.379 15.1938 332.379ZM272.23 9.27891C270.624 9.27891 268.829 9.82543 266.957 10.9055L27.2693 149.289C20.6173 153.131 15.2224 162.471 15.2458 170.117L15.7013 330.994L279.015 178.968L278.557 17.5105C278.546 13.9295 277.352 11.275 275.194 10.0336C274.317 9.52874 273.318 9.27891 272.23 9.27891Z" fill="#32353A"/>
<path d="M20.2764 170.102C20.2608 164.27 24.7032 156.582 29.7833 153.649L269.474 15.2627C270.955 14.4065 271.894 14.3154 272.23 14.3154C273.419 14.3154 273.518 16.7696 273.521 17.5217L273.971 182.464L20.7084 328.697L20.2764 170.102Z" fill="white"/>
<path d="M20.7078 329.207C20.6193 329.207 20.5334 329.184 20.4527 329.14C20.2966 329.048 20.1977 328.882 20.1977 328.7L19.7657 170.105C19.7501 164.117 24.3096 156.223 29.5276 153.212L269.218 14.8255C270.748 13.9407 271.761 13.8105 272.229 13.8105C273.786 13.8105 274.022 16.1372 274.028 17.5243L274.478 182.467C274.478 182.649 274.382 182.818 274.223 182.906L20.9602 329.14C20.8821 329.184 20.7962 329.207 20.7078 329.207ZM20.7832 170.102L21.2126 327.82L273.463 182.173L273.013 17.5243C273.007 15.9862 272.674 14.8255 272.232 14.8255C272.003 14.8255 271.144 14.888 269.728 15.7051L30.0376 154.089C25.0929 156.944 20.7676 164.426 20.7832 170.102Z" fill="#32353A"/>
<path d="M15.1934 331.87L15.261 355.802C15.2844 363.62 20.8173 366.772 27.6202 362.845L267.311 224.461C274.114 220.531 279.61 211.011 279.589 203.193L279.522 179.261L15.1934 331.87Z" fill="#DBDEE4"/>
<path d="M22.0922 365.049C20.8274 365.049 19.6589 364.752 18.6231 364.156C16.1377 362.727 14.7662 359.76 14.7532 355.805L14.6855 331.872C14.6855 331.69 14.7818 331.521 14.9406 331.432L279.266 178.823C279.425 178.732 279.615 178.732 279.774 178.823C279.93 178.914 280.029 179.081 280.029 179.263L280.096 203.195C280.117 211.162 274.496 220.9 267.566 224.903L27.8775 363.287C25.845 364.458 23.8775 365.049 22.0922 365.049ZM15.7031 332.164L15.7708 355.802C15.7812 359.38 16.9757 362.035 19.1306 363.276C21.3062 364.525 24.2314 364.216 27.3674 362.407L267.055 224.023C273.707 220.182 279.102 210.839 279.079 203.195L279.014 180.14L15.7031 332.164Z" fill="#32353A"/>
<path d="M275.479 9.60141C273.236 8.29237 270.139 8.49015 266.707 10.4758L27.0107 148.852C25.025 150.002 23.1408 151.65 21.4934 153.576C20.3223 154.905 19.2891 156.355 18.3965 157.904C17.2852 159.809 16.3926 161.815 15.7758 163.84C15.1017 165.963 14.7244 168.087 14.7426 170.112L15.2579 355.811C15.2787 359.681 16.6476 362.422 18.8519 363.713L4.61895 355.434C2.41466 354.143 1.04576 351.405 1.02494 347.533L0.509646 161.833C0.488827 159.829 0.847972 157.724 1.50119 155.619C2.1362 153.594 3.02885 151.59 4.12189 149.703C5.03536 148.155 6.06593 146.666 7.23965 145.336C8.88702 143.392 10.7738 141.745 12.7777 140.592L252.471 2.19477C255.906 0.20908 259.001 0.0503249 261.244 1.34115L275.479 9.60141Z" fill="#DBDEE4"/>
<path d="M18.8549 364.221C18.7664 364.221 18.6805 364.2 18.5998 364.153L4.36688 355.875C1.90754 354.433 0.543844 351.471 0.523024 347.539L0.00773482 161.837C-0.013085 159.84 0.327838 157.699 1.0227 155.471C1.66811 153.42 2.56337 151.393 3.68764 149.451C4.69219 147.752 5.75921 146.256 6.86266 145.004C8.5829 142.974 10.5452 141.295 12.5309 140.155L252.221 1.75823C255.683 -0.24307 258.978 -0.547555 261.502 0.904626L275.711 9.14927C275.717 9.15448 275.724 9.15708 275.732 9.16228L275.737 9.16489C275.74 9.16489 275.74 9.16489 275.74 9.16489C275.982 9.30542 276.063 9.61511 275.922 9.85974C275.782 10.1018 275.467 10.1798 275.23 10.0445L275.199 10.0263C273.034 8.78492 270.114 9.09982 266.962 10.919L27.2661 149.293C25.3975 150.378 23.5341 151.973 21.8815 153.909C20.7443 155.198 19.7215 156.626 18.8393 158.159C17.7254 160.062 16.8614 162.021 16.2654 163.989C15.5757 166.157 15.2348 168.215 15.253 170.11L15.7683 355.815C15.7892 359.375 16.9759 362.027 19.1099 363.279C19.3519 363.419 19.4326 363.731 19.2921 363.973C19.1984 364.13 19.0292 364.221 18.8549 364.221ZM257.989 1.01653C256.383 1.01653 254.59 1.56045 252.729 2.63528L13.0331 141.035C11.1463 142.12 9.27515 143.721 7.62518 145.667C6.55817 146.88 5.52759 148.324 4.55947 149.964C3.47684 151.838 2.61021 153.795 1.98561 155.775C1.32459 157.899 0.999279 159.937 1.0175 161.831L1.53279 347.536C1.551 351.096 2.73773 353.748 4.87436 355L16.0546 361.501C15.214 359.992 14.7638 358.066 14.7508 355.82L14.2355 170.118C14.2147 168.119 14.5712 165.956 15.2921 163.69C15.9115 161.654 16.8067 159.622 17.957 157.652C18.8731 156.062 19.9349 154.578 21.1112 153.243C22.8341 151.229 24.7859 149.555 26.756 148.416L266.449 10.0367C268.453 8.87861 270.392 8.28265 272.151 8.25922L260.989 1.78426C260.099 1.27157 259.089 1.01653 257.989 1.01653Z" fill="#32353A"/>
<path d="M21.4945 153.576C20.3234 154.906 19.2902 156.355 18.3976 157.904C17.2863 159.809 16.3937 161.815 15.7769 163.84L1.50488 155.621C2.13989 153.597 3.03253 151.593 4.12557 149.706C5.03904 148.157 6.06963 146.669 7.24334 145.339L21.4945 153.576Z" fill="#F0F2F5"/>
<path d="M18.8526 364.223C18.7641 364.223 18.6782 364.202 18.5975 364.155C18.5949 364.155 18.5975 364.155 18.5949 364.155L4.35939 355.874C1.90005 354.433 0.536354 351.474 0.515534 347.539L0.000244577 161.836C-0.0205752 157.959 1.28847 153.561 3.68275 149.451C6.0432 145.384 9.18438 142.081 12.5208 140.155L252.217 1.76071C255.678 -0.240597 258.973 -0.545085 261.497 0.904494L275.699 9.14653C275.712 9.15434 275.725 9.16215 275.735 9.16735C275.977 9.30789 276.058 9.61758 275.917 9.86222C275.777 10.1042 275.462 10.1823 275.225 10.047L275.189 10.0262C273.023 8.78479 270.106 9.09969 266.96 10.9214L27.2664 149.295C24.0784 151.143 21.0829 154.292 18.8344 158.162C16.5052 162.164 15.2351 166.412 15.2534 170.112L15.7687 355.815C15.7869 359.375 16.9736 362.027 19.1102 363.278C19.3523 363.422 19.4329 363.731 19.2924 363.973C19.1961 364.132 19.0269 364.223 18.8526 364.223ZM257.984 1.0164C256.375 1.0164 254.585 1.56031 252.721 2.63774L13.0256 141.032C9.8376 142.872 6.83174 146.042 4.55457 149.959C2.25138 153.914 0.99439 158.128 1.01261 161.829L1.5279 347.531C1.54611 351.091 2.73285 353.743 4.86948 354.995L16.0523 361.498C15.2117 359.989 14.7641 358.06 14.7511 355.817L14.2358 170.115C14.215 166.237 15.537 161.808 17.9573 157.652C20.2943 153.631 23.4173 150.352 26.7589 148.415L266.452 10.0392C268.456 8.88108 270.392 8.28512 272.154 8.26169L260.99 1.78152C260.097 1.26884 259.082 1.0164 257.984 1.0164Z" fill="#32353A"/>
<path d="M133.71 282.653C133.71 284.949 132.107 287.731 130.108 288.881C128.117 290.026 126.498 289.115 126.493 286.82C126.485 284.524 128.096 281.742 130.087 280.592C132.078 279.439 133.702 280.358 133.71 282.653Z" fill="#32353A"/>
<path d="M150.771 272.803C150.771 275.098 149.168 277.88 147.17 279.03C145.179 280.175 143.56 279.265 143.555 276.969C143.549 274.674 145.158 271.892 147.149 270.741C149.14 269.589 150.764 270.507 150.771 272.803Z" fill="#32353A"/>
<path d="M167.832 262.95C167.832 265.246 166.229 268.028 164.23 269.178C162.239 270.323 160.62 269.412 160.615 267.117C160.607 264.822 162.218 262.04 164.209 260.889C166.203 259.739 167.827 260.658 167.832 262.95Z" fill="#32353A"/>
<path d="M71.641 107.095C71.4666 107.095 71.2949 107.004 71.2038 106.843C71.0632 106.601 71.1439 106.289 71.3859 106.148L205.843 28.0087C206.002 27.9177 206.194 27.9177 206.353 28.0087C206.509 28.0998 206.608 28.2664 206.608 28.4486L206.452 83.4597C206.452 83.7408 206.223 83.9672 205.944 83.9672C205.944 83.9672 205.944 83.9672 205.942 83.9672C205.663 83.9672 205.437 83.7382 205.437 83.4571L205.59 29.3308L71.896 107.025C71.8154 107.072 71.7269 107.095 71.641 107.095Z" fill="#32353A"/>
<path d="M74.1969 100.968L208.656 22.8291C207.082 23.7426 206.106 25.6866 206.098 28.4452L71.6387 106.587C71.6465 103.826 72.625 101.885 74.1969 100.968Z" fill="white"/>
<path d="M71.641 107.095C71.5525 107.095 71.4666 107.072 71.3859 107.027C71.2297 106.936 71.1309 106.77 71.1309 106.587C71.1387 103.733 72.1354 101.583 73.9389 100.532L208.398 22.3922C208.64 22.2516 208.953 22.3323 209.093 22.5769C209.234 22.819 209.153 23.1313 208.911 23.2718L208.906 23.2744C207.43 24.1358 206.616 25.9732 206.608 28.4507C206.608 28.6303 206.512 28.7969 206.356 28.8879L71.896 107.025C71.8179 107.072 71.7268 107.095 71.641 107.095ZM74.4542 101.409C73.1608 102.161 72.3722 103.66 72.1901 105.679L205.596 28.1514C205.632 26.8658 205.874 25.7285 206.301 24.7838L74.4542 101.409Z" fill="#32353A"/>
<path d="M235.578 45.4558L235.032 237.157L100.575 315.293L101.106 123.592C101.158 110.458 91.9088 94.463 80.4865 87.8605C74.7324 84.5423 69.5249 84.2248 65.7461 86.4135L200.221 8.27678C203.982 6.0881 209.189 6.38738 214.943 9.70554C226.363 16.3106 235.615 32.3237 235.578 45.4558Z" fill="white"/>
<path d="M100.576 315.801C100.487 315.801 100.401 315.778 100.321 315.734C100.165 315.642 100.066 315.476 100.066 315.294L100.597 123.593C100.651 110.656 91.5139 94.8249 80.2322 88.3031C74.8294 85.188 69.7806 84.6727 66.007 86.851L65.9992 86.8562H65.9966C65.7572 86.9941 65.4423 86.9134 65.3044 86.6714C65.1638 86.4293 65.2445 86.1171 65.4865 85.9765H65.4891L199.962 7.83978C204.061 5.45851 209.466 5.96339 215.197 9.27114C226.752 15.9517 236.123 32.1859 236.087 45.4586L235.54 237.16C235.54 237.339 235.444 237.506 235.288 237.597L100.831 315.734C100.753 315.778 100.662 315.801 100.576 315.801ZM71.1834 84.5061C74.1242 84.5061 77.3772 85.4846 80.7396 87.4235C92.305 94.1093 101.666 110.336 101.612 123.598L101.083 314.414L234.523 236.868L235.069 45.4586C235.106 32.5086 225.96 16.67 214.686 10.1508C209.289 7.03821 204.24 6.52552 200.472 8.71941L69.9368 84.566C70.3454 84.5243 70.7618 84.5061 71.1834 84.5061Z" fill="#32353A"/>
<path d="M59.7148 99.6906C59.7513 86.5533 69.0499 81.2573 80.48 87.8571C91.9127 94.457 101.149 110.454 101.112 123.592L100.579 315.29L88.6336 308.394L89.1671 116.706C89.1827 111.149 85.2764 104.375 80.4332 101.577C75.5978 98.7849 71.6576 101.031 71.642 106.587" fill="#F0F2F5"/>
<path d="M100.578 315.798C100.489 315.798 100.404 315.775 100.323 315.73L88.3749 308.834C88.2188 308.743 88.1199 308.576 88.1199 308.394L88.6534 116.706C88.669 111.316 84.8642 104.727 80.1745 102.018C77.9884 100.758 75.9611 100.539 74.4621 101.403C72.9735 102.26 72.1511 104.102 72.1459 106.59C72.1459 106.871 71.9169 107.098 71.6384 107.098C71.6384 107.098 71.6384 107.098 71.6358 107.098C71.3573 107.098 71.1309 106.869 71.1309 106.588C71.1387 103.722 72.1407 101.567 73.9546 100.524C75.7841 99.4724 78.1758 99.691 80.682 101.141C85.6553 104.011 89.6866 110.996 89.6684 116.709L89.1348 308.102L100.068 314.413L100.599 123.592C100.635 110.64 91.4927 94.8061 80.2188 88.2973C74.8342 85.19 69.8011 84.6695 66.0353 86.8347C62.3007 88.9844 60.2344 93.5517 60.2161 99.6936C60.2161 99.9746 59.9871 100.201 59.7087 100.201C59.7087 100.201 59.7087 100.201 59.7061 100.201C59.4276 100.201 59.2012 99.972 59.2012 99.691C59.2194 93.1692 61.4679 88.2921 65.5304 85.9525C69.6215 83.5998 75.019 84.1203 80.7289 87.4177C92.2812 94.0852 101.65 110.314 101.616 123.592L101.083 315.29C101.083 315.473 100.987 315.639 100.828 315.73C100.752 315.775 100.666 315.798 100.578 315.798Z" fill="#32353A"/>
<path d="M94.6293 86.9656C94.4549 86.9656 94.2831 86.8745 94.1921 86.7131C94.0515 86.4711 94.1322 86.1588 94.3742 86.0182L210.507 18.5386C210.752 18.3981 211.061 18.4788 211.202 18.7234C211.343 18.9654 211.262 19.2778 211.02 19.4183L94.8843 86.8953C94.8037 86.9421 94.7152 86.9656 94.6293 86.9656Z" fill="#32353A"/>
<path d="M104.133 96.4333C103.959 96.4333 103.787 96.3422 103.696 96.1809C103.555 95.9389 103.636 95.6266 103.878 95.486L220.014 28.0064C220.256 27.8659 220.568 27.9466 220.709 28.1912C220.849 28.4332 220.768 28.7455 220.526 28.8861L104.388 96.3657C104.308 96.4125 104.222 96.4333 104.133 96.4333Z" fill="#32353A"/>
<path d="M139.511 281.233C139.336 281.233 139.165 281.142 139.071 280.978C138.933 280.736 139.014 280.424 139.258 280.286L195.04 248.007C195.277 247.867 195.589 247.948 195.735 248.192C195.873 248.434 195.792 248.746 195.547 248.884L139.766 281.166C139.685 281.21 139.599 281.233 139.511 281.233Z" fill="#32353A"/>
<path d="M160.773 126.062C169.981 120.745 178.166 121.096 183.316 125.981C178.189 136.8 170.046 146.577 160.846 151.889C151.647 157.201 143.464 156.849 138.304 151.97C143.41 141.162 151.563 131.379 160.773 126.062Z" fill="#FF475E"/>
<path d="M148.261 156.273C145.487 156.273 142.919 155.625 140.652 154.321C135.179 151.172 132.152 144.587 132.126 135.783C132.077 117.769 144.787 95.7493 160.464 86.7005C168.181 82.2425 175.465 81.5372 180.972 84.707C186.44 87.8534 189.466 94.4377 189.493 103.247C189.545 121.259 176.834 143.278 161.154 152.33C156.618 154.948 152.23 156.273 148.261 156.273ZM160.717 87.1378L160.972 87.5776C145.578 96.465 133.094 118.089 133.144 135.781C133.167 144.207 136.017 150.479 141.162 153.441C146.343 156.423 153.263 155.716 160.649 151.453C176.046 142.563 188.53 120.939 188.478 103.25C188.454 94.8203 185.607 88.5457 180.465 85.5867C175.288 82.6094 168.366 83.3121 160.972 87.5802L160.717 87.1378Z" fill="#32353A"/>
<path d="M162.177 97.5598C167.155 94.684 171.199 97.0002 171.215 102.723C171.231 108.433 167.215 115.4 162.236 118.275C157.258 121.151 153.206 118.84 153.188 113.13C153.172 107.408 157.198 100.435 162.177 97.5598Z" fill="#BEC4CD"/>
<path d="M203.082 148.097C208.516 144.961 212.93 147.483 212.948 153.719C212.966 159.957 208.581 167.556 203.147 170.695L121.32 217.937C115.891 221.071 111.472 218.552 111.454 212.316C111.436 206.078 115.826 198.473 121.255 195.34L203.082 148.097Z" fill="#DBDEE4"/>
<path d="M203.082 189.138C208.516 186.002 212.93 188.524 212.948 194.76C212.966 200.998 208.581 208.597 203.147 211.736L121.32 258.978C115.891 262.112 111.472 259.593 111.454 253.357C111.436 247.119 115.826 239.514 121.255 236.381L203.082 189.138Z" fill="#DBDEE4"/>
<path d="M134.261 232.993C134.464 232.876 134.633 232.972 134.633 233.207L134.646 237.433L137.823 233.48C137.883 233.404 137.948 233.35 138.011 233.311C138.138 233.238 138.263 233.243 138.328 233.339L139.2 234.557C139.299 234.703 139.236 234.995 139.06 235.218L135.882 239.172L139.073 239.447C139.249 239.468 139.312 239.684 139.216 239.944L138.354 242.162C138.289 242.334 138.167 242.482 138.039 242.557C137.974 242.594 137.912 242.612 137.852 242.607L134.661 242.331L134.674 246.557C134.674 246.792 134.508 247.08 134.305 247.198L132.579 248.194C132.376 248.311 132.207 248.215 132.207 247.981L132.194 243.754L129.017 247.708C128.957 247.783 128.894 247.838 128.832 247.874C128.707 247.947 128.585 247.939 128.512 247.846L127.64 246.628C127.541 246.482 127.603 246.19 127.78 245.967L130.958 242.013L127.767 241.738C127.59 241.717 127.528 241.498 127.624 241.24L128.486 239.023C128.556 238.846 128.678 238.7 128.803 238.628C128.866 238.591 128.931 238.573 128.988 238.581L132.179 238.857L132.166 234.63C132.166 234.396 132.332 234.107 132.535 233.99L134.261 232.993Z" fill="#32353A"/>
<path d="M149.539 224.176C149.742 224.059 149.904 224.16 149.904 224.394L149.917 228.621L153.105 224.665C153.165 224.59 153.227 224.535 153.29 224.499C153.415 224.426 153.537 224.433 153.61 224.527L154.474 225.75C154.58 225.893 154.521 226.182 154.344 226.406L151.166 230.359L154.357 230.635C154.534 230.656 154.596 230.872 154.492 231.137L153.638 233.35C153.568 233.527 153.446 233.672 153.321 233.745C153.258 233.782 153.193 233.8 153.136 233.792L149.938 233.521L149.951 237.748C149.951 237.982 149.792 238.266 149.589 238.383L147.863 239.379C147.661 239.497 147.491 239.4 147.491 239.166L147.478 234.94L144.301 238.893C144.241 238.968 144.176 239.023 144.113 239.062C143.986 239.135 143.861 239.13 143.796 239.033L142.924 237.815C142.825 237.67 142.877 237.383 143.054 237.16L146.242 233.204L143.044 232.933C142.867 232.912 142.812 232.691 142.908 232.431L143.77 230.214C143.835 230.042 143.957 229.893 144.085 229.818C144.15 229.782 144.212 229.763 144.272 229.769L147.463 230.044L147.45 225.818C147.45 225.584 147.616 225.295 147.819 225.178L149.539 224.176Z" fill="#32353A"/>
<path d="M164.808 215.361C165.021 215.238 165.18 215.34 165.18 215.574L165.193 219.801L168.381 215.845C168.436 215.772 168.501 215.717 168.563 215.681C168.688 215.608 168.813 215.613 168.878 215.712L169.75 216.93C169.849 217.076 169.797 217.362 169.62 217.586L166.432 221.542L169.63 221.812C169.807 221.833 169.862 222.054 169.766 222.315L168.904 224.532C168.839 224.706 168.717 224.852 168.592 224.925C168.529 224.961 168.467 224.979 168.41 224.969L165.211 224.698L165.224 228.925C165.224 229.159 165.066 229.443 164.855 229.565L163.129 230.562C162.926 230.679 162.765 230.577 162.765 230.343L162.752 226.117L159.564 230.073C159.504 230.148 159.442 230.203 159.379 230.239C159.254 230.312 159.132 230.304 159.059 230.21L158.195 228.987C158.088 228.844 158.151 228.555 158.325 228.331L161.513 224.376L158.315 224.105C158.138 224.084 158.075 223.866 158.179 223.603L159.033 221.391C159.103 221.214 159.226 221.068 159.351 220.995C159.413 220.959 159.478 220.94 159.535 220.948L162.734 221.219L162.721 216.993C162.721 216.758 162.879 216.475 163.082 216.358L164.808 215.361Z" fill="#32353A"/>
<path d="M180.085 206.543C180.288 206.426 180.457 206.522 180.457 206.756L180.47 210.983L183.648 207.03C183.707 206.954 183.772 206.9 183.835 206.861C183.962 206.788 184.087 206.793 184.152 206.889L185.024 208.107C185.123 208.253 185.061 208.544 184.884 208.768L181.706 212.721L184.897 212.997C185.074 213.018 185.136 213.237 185.04 213.494L184.178 215.712C184.113 215.883 183.991 216.032 183.864 216.107C183.798 216.144 183.736 216.162 183.676 216.157L180.486 215.881L180.499 220.107C180.499 220.341 180.332 220.63 180.129 220.747L178.404 221.744C178.201 221.861 178.031 221.765 178.031 221.531L178.018 217.304L174.841 221.257C174.781 221.333 174.718 221.388 174.656 221.424C174.531 221.497 174.409 221.489 174.336 221.395L173.464 220.177C173.365 220.032 173.428 219.74 173.605 219.516L176.782 215.563L173.592 215.287C173.415 215.267 173.352 215.048 173.448 214.79L174.31 212.573C174.38 212.396 174.502 212.25 174.627 212.177C174.69 212.141 174.755 212.123 174.812 212.131L178.003 212.406L177.99 208.18C177.99 207.946 178.156 207.657 178.359 207.54L180.085 206.543Z" fill="#32353A"/>
<path d="M195.364 197.727C195.567 197.609 195.728 197.711 195.728 197.945L195.741 202.172L198.929 198.216C198.989 198.14 199.051 198.086 199.114 198.049C199.239 197.976 199.361 197.984 199.434 198.078L200.298 199.301C200.405 199.444 200.345 199.733 200.168 199.957L196.99 203.91L200.181 204.186C200.358 204.207 200.42 204.425 200.316 204.688L199.463 206.9C199.392 207.077 199.27 207.223 199.145 207.296C199.083 207.332 199.018 207.351 198.96 207.343L195.762 207.072L195.775 211.299C195.775 211.533 195.616 211.816 195.413 211.933L193.688 212.93C193.474 213.053 193.316 212.951 193.316 212.717L193.303 208.49L190.125 212.444C190.065 212.519 190 212.574 189.938 212.613C189.81 212.686 189.685 212.68 189.62 212.584L188.748 211.366C188.649 211.22 188.701 210.934 188.878 210.71L192.066 206.755L188.868 206.484C188.691 206.463 188.636 206.242 188.733 205.982L189.594 203.764C189.659 203.593 189.781 203.444 189.909 203.369C189.974 203.332 190.036 203.314 190.096 203.319L193.287 203.595L193.274 199.369C193.274 199.135 193.433 198.851 193.643 198.729L195.364 197.727Z" fill="#32353A"/>
<path d="M130.346 200.865C130.835 200.584 131.236 200.803 131.236 201.373C131.239 201.932 130.838 202.625 130.351 202.906L123.239 207.012C122.742 207.299 122.349 207.064 122.349 206.505C122.346 205.935 122.739 205.258 123.233 204.972L130.346 200.865Z" fill="#32353A"/>
<path d="M148.045 190.648C148.542 190.362 148.943 190.58 148.943 191.15C148.946 191.71 148.545 192.402 148.05 192.688L140.946 196.79C140.449 197.076 140.048 196.847 140.048 196.288C140.045 195.718 140.446 195.036 140.941 194.749L148.045 190.648Z" fill="#32353A"/>
<path d="M165.752 180.425C166.249 180.139 166.642 180.363 166.642 180.933C166.645 181.492 166.252 182.179 165.758 182.466L158.645 186.572C158.156 186.853 157.755 186.624 157.755 186.065C157.752 185.495 158.153 184.813 158.64 184.532L165.752 180.425Z" fill="#32353A"/>
<path d="M183.457 170.202C183.947 169.921 184.347 170.14 184.347 170.71C184.35 171.269 183.949 171.961 183.463 172.243L176.35 176.349C175.861 176.63 175.46 176.401 175.46 175.842C175.457 175.272 175.858 174.59 176.345 174.309L183.457 170.202Z" fill="#32353A"/>
<path d="M201.165 159.98C201.655 159.699 202.055 159.918 202.055 160.488C202.058 161.048 201.657 161.74 201.171 162.021L194.058 166.128C193.561 166.414 193.168 166.18 193.168 165.62C193.165 165.05 193.558 164.373 194.053 164.087L201.165 159.98Z" fill="#32353A"/>
<g opacity="0.1">
<path d="M146.247 472.838C141.625 475.505 141.601 479.838 146.192 482.506L208.131 518.49C212.722 521.158 220.207 521.158 224.829 518.49L400.303 417.215C404.938 414.539 404.949 410.214 400.358 407.547L338.419 371.562C333.828 368.895 326.354 368.887 321.721 371.562L146.247 472.838Z" fill="black"/>
</g>
<path d="M146.247 449.369C141.625 452.036 141.601 456.369 146.192 459.037L208.131 495.021C212.722 497.689 220.207 497.689 224.829 495.021L400.303 393.746C404.938 391.071 404.949 386.745 400.358 384.078L338.419 348.093C333.828 345.426 326.354 345.418 321.721 348.093L146.247 449.369Z" fill="white"/>
<path d="M216.469 497.519C213.354 497.519 210.241 496.832 207.875 495.458L145.934 459.476C143.56 458.094 142.251 456.228 142.254 454.217C142.259 452.194 143.584 450.315 145.991 448.928L321.466 347.653C326.226 344.905 333.945 344.905 338.673 347.653L400.615 383.635C402.993 385.017 404.3 386.885 404.297 388.894C404.292 390.914 402.965 392.793 400.557 394.183L225.083 495.458C222.702 496.832 219.584 497.519 216.469 497.519ZM146.501 449.808C144.422 451.008 143.277 452.574 143.271 454.219C143.269 455.851 144.396 457.407 146.447 458.599L208.388 494.581C212.836 497.165 220.097 497.165 224.575 494.581L400.05 393.306C402.132 392.103 403.28 390.537 403.282 388.894C403.285 387.263 402.155 385.709 400.102 384.514L338.161 348.533C333.713 345.948 326.452 345.948 321.973 348.533L146.501 449.808Z" fill="#32353A"/>
<path d="M403.864 402.902C403.882 404.656 402.706 406.425 400.374 407.763L224.889 509.041C223.931 509.601 222.828 510.053 221.654 510.361C219.918 510.85 218.021 511.048 216.121 511.011C214.513 510.993 212.92 510.777 211.439 510.361C210.265 510.053 209.162 509.601 208.204 509.041L146.268 473.077C143.973 471.722 142.833 469.988 142.833 468.252L142.76 454.246C142.778 455.982 143.918 457.715 146.195 459.034L208.113 495.016C209.107 495.594 210.229 496.029 211.439 496.354C212.923 496.77 214.513 496.968 216.121 497.005C218.018 497.041 219.918 496.807 221.654 496.299C222.812 495.992 223.879 495.558 224.837 495.016L400.324 393.72C402.62 392.401 403.796 390.613 403.796 388.877L403.864 402.902Z" fill="#BEC4CD"/>
<path d="M221.65 496.302V510.363C219.914 510.852 218.017 511.05 216.117 511.014C214.509 510.995 212.916 510.779 211.436 510.363V496.356C212.919 496.773 214.509 496.971 216.117 497.007C218.017 497.041 219.914 496.807 221.65 496.302Z" fill="#DBDEE4"/>
<path d="M216.599 511.531C216.438 511.531 216.274 511.531 216.11 511.526C213.008 511.469 210.109 510.743 207.949 509.483L146.004 473.509C143.631 472.114 142.327 470.246 142.327 468.247L142.257 454.259C142.257 454.259 142.257 454.259 142.257 454.256V454.253C142.254 453.972 142.481 453.743 142.762 453.743C142.764 453.743 142.764 453.743 142.767 453.743C143.045 453.743 143.272 453.967 143.274 454.246C143.29 455.867 144.42 457.413 146.447 458.6L208.373 494.574C210.41 495.76 213.164 496.442 216.133 496.497C219.334 496.551 222.314 495.867 224.576 494.574L400.074 393.285C402.111 392.104 403.28 390.501 403.28 388.884C403.28 388.606 403.506 388.377 403.785 388.377C403.787 388.377 403.787 388.377 403.787 388.377C404.066 388.377 404.292 388.603 404.295 388.882L404.365 402.894C404.386 404.926 403.059 406.81 400.633 408.195L225.154 509.481C222.861 510.81 219.839 511.531 216.599 511.531ZM143.287 457.189L143.342 468.244C143.342 469.871 144.469 471.43 146.517 472.632L208.459 508.606C210.47 509.782 213.193 510.456 216.128 510.511C219.295 510.568 222.424 509.887 224.641 508.606L400.123 407.318C402.221 406.121 403.363 404.554 403.348 402.904V402.901L403.293 391.799C402.661 392.684 401.742 393.493 400.579 394.165L225.081 495.453C222.663 496.838 219.496 497.579 216.115 497.514C212.977 497.457 210.046 496.726 207.863 495.453L145.934 459.479C144.799 458.813 143.907 458.037 143.287 457.189Z" fill="#32353A"/>
<path d="M273.08 389.666C271.987 390.295 271.992 391.316 273.067 391.94L283.571 398.043C284.656 398.673 286.405 398.673 287.498 398.043L299.823 390.928C300.916 390.298 300.921 389.286 299.836 388.653L289.333 382.55C288.258 381.926 286.499 381.921 285.406 382.55L273.08 389.666Z" fill="white"/>
<path d="M285.534 399.021C284.738 399.021 283.939 398.841 283.319 398.48L272.813 392.377C272.131 391.981 271.754 391.422 271.754 390.805C271.754 390.185 272.136 389.626 272.826 389.225L285.151 382.11C286.398 381.389 288.347 381.389 289.589 382.11L300.092 388.213C300.777 388.611 301.157 389.171 301.154 389.785C301.154 390.404 300.772 390.966 300.077 391.364L287.751 398.477C287.132 398.839 286.333 399.021 285.534 399.021ZM273.336 390.105C272.977 390.313 272.771 390.568 272.771 390.805C272.771 391.042 272.974 391.294 273.326 391.497L283.832 397.6C284.756 398.139 286.323 398.136 287.249 397.6L299.574 390.487C299.936 390.279 300.144 390.022 300.144 389.785C300.144 389.55 299.941 389.298 299.587 389.092L289.084 382.99C288.163 382.451 286.596 382.456 285.667 382.99L273.336 390.105Z" fill="#32353A"/>
<path d="M295.481 376.736C294.388 377.366 294.393 378.386 295.468 379.011L305.971 385.113C307.056 385.743 308.805 385.743 309.898 385.113L322.224 377.998C323.317 377.368 323.322 376.353 322.237 375.724L311.733 369.621C310.658 368.996 308.899 368.991 307.806 369.621L295.481 376.736Z" fill="white"/>
<path d="M307.933 386.091C307.135 386.091 306.336 385.912 305.716 385.55L295.21 379.447C294.539 379.054 294.151 378.482 294.153 377.873C294.153 377.253 294.536 376.691 295.226 376.293L307.551 369.18C308.797 368.459 310.744 368.459 311.986 369.18L322.489 375.283C323.174 375.681 323.554 376.241 323.551 376.855C323.551 377.474 323.171 378.034 322.476 378.435L310.151 385.547C309.531 385.912 308.732 386.091 307.933 386.091ZM309.773 369.659C309.151 369.659 308.527 369.792 308.061 370.063L295.736 377.178C295.377 377.383 295.171 377.641 295.171 377.878C295.168 378.115 295.371 378.367 295.725 378.57L306.231 384.673C307.155 385.212 308.722 385.206 309.648 384.673L321.974 377.56C322.336 377.352 322.541 377.094 322.541 376.858C322.541 376.623 322.338 376.371 321.984 376.165L311.481 370.063C311.017 369.792 310.393 369.659 309.773 369.659Z" fill="#32353A"/>
<path d="M338.305 375.674C337.212 376.304 337.217 377.324 338.292 377.949L348.795 384.052C349.881 384.682 351.629 384.682 352.723 384.052L365.048 376.937C366.141 376.307 366.146 375.294 365.061 374.662L354.557 368.559C353.482 367.935 351.723 367.929 350.63 368.559L338.305 375.674Z" fill="white"/>
<path d="M350.758 385.031C349.959 385.031 349.16 384.851 348.54 384.489L338.037 378.387C337.365 377.994 336.978 377.421 336.978 376.815C336.978 376.195 337.36 375.633 338.05 375.235L350.375 368.12C351.622 367.399 353.571 367.399 354.812 368.12L365.319 374.223C366.006 374.623 366.383 375.18 366.38 375.794C366.38 376.414 365.998 376.973 365.303 377.374L352.978 384.489C352.356 384.851 351.554 385.031 350.758 385.031ZM338.56 376.115C338.201 376.323 337.995 376.578 337.995 376.817C337.995 377.054 338.198 377.306 338.549 377.509L349.056 383.612C349.977 384.148 351.546 384.148 352.473 383.612L364.798 376.497C365.16 376.289 365.368 376.031 365.368 375.794C365.368 375.56 365.165 375.308 364.811 375.102L354.305 368.999C353.384 368.461 351.817 368.466 350.888 368.999L338.56 376.115Z" fill="#32353A"/>
<path d="M317.88 363.809C316.787 364.439 316.792 365.459 317.867 366.084L328.371 372.187C329.456 372.816 331.205 372.816 332.298 372.187L344.623 365.071C345.716 364.442 345.721 363.429 344.636 362.797L334.132 356.694C333.058 356.069 331.298 356.064 330.205 356.694L317.88 363.809Z" fill="white"/>
<path d="M330.333 373.165C329.534 373.165 328.735 372.986 328.116 372.624L317.609 366.521C316.938 366.128 316.55 365.556 316.553 364.947C316.553 364.327 316.935 363.765 317.625 363.367L329.95 356.255C331.197 355.534 333.149 355.534 334.385 356.255L344.889 362.357C345.576 362.756 345.953 363.315 345.953 363.932C345.95 364.549 345.568 365.111 344.875 365.512L332.55 372.624C331.928 372.983 331.129 373.165 330.333 373.165ZM332.17 356.733C331.548 356.733 330.924 356.866 330.458 357.134L318.132 364.249C317.773 364.455 317.568 364.713 317.568 364.949C317.565 365.186 317.768 365.439 318.122 365.642L328.628 371.744C329.552 372.286 331.119 372.278 332.045 371.744L344.371 364.629C344.732 364.421 344.941 364.166 344.941 363.929C344.941 363.695 344.735 363.443 344.381 363.237L333.877 357.134C333.417 356.866 332.795 356.733 332.17 356.733Z" fill="#32353A"/>
<path d="M315.904 388.602C314.811 389.232 314.817 390.252 315.891 390.877L326.395 396.98C327.48 397.609 329.229 397.609 330.322 396.98L342.647 389.864C343.741 389.235 343.746 388.222 342.66 387.59L332.157 381.487C331.082 380.862 329.323 380.857 328.23 381.487L315.904 388.602Z" fill="white"/>
<path d="M328.36 397.959C327.561 397.959 326.762 397.779 326.143 397.42L315.637 391.317C314.965 390.924 314.577 390.352 314.58 389.743C314.58 389.123 314.963 388.561 315.652 388.163L327.978 381.05C329.224 380.33 331.171 380.332 332.412 381.05L342.918 387.153C343.603 387.551 343.983 388.111 343.98 388.725C343.98 389.345 343.598 389.904 342.905 390.305L330.58 397.42C329.953 397.779 329.157 397.959 328.36 397.959ZM330.198 381.524C329.576 381.524 328.951 381.657 328.485 381.927L316.16 389.043C315.801 389.248 315.595 389.506 315.595 389.743C315.592 389.98 315.795 390.232 316.149 390.438L326.656 396.54C327.577 397.076 329.146 397.076 330.073 396.54L342.398 389.428C342.76 389.22 342.965 388.962 342.965 388.725C342.968 388.491 342.762 388.236 342.408 388.033L331.902 381.93C331.442 381.659 330.82 381.524 330.198 381.524Z" fill="#32353A"/>
<path d="M313.932 413.397C312.839 414.027 312.844 415.047 313.919 415.672L324.422 421.774C325.497 422.399 327.256 422.404 328.349 421.774L340.675 414.659C341.768 414.029 341.763 413.009 340.688 412.385L330.184 406.282C329.109 405.657 327.35 405.652 326.257 406.282L313.932 413.397Z" fill="white"/>
<path d="M326.382 422.75C325.586 422.75 324.787 422.571 324.167 422.212L313.661 416.109C312.99 415.716 312.602 415.143 312.605 414.534C312.605 413.915 312.984 413.353 313.677 412.955L326.002 405.839C327.249 405.119 329.195 405.119 330.437 405.839L340.943 411.942C341.614 412.335 342.002 412.908 342.002 413.517C341.999 414.136 341.62 414.698 340.93 415.097L328.605 422.212C327.98 422.571 327.181 422.75 326.382 422.75ZM328.225 406.318C327.603 406.318 326.978 406.454 326.512 406.722L314.187 413.837C313.828 414.045 313.622 414.3 313.622 414.54C313.619 414.776 313.822 415.029 314.176 415.232L324.683 421.335C325.604 421.871 327.168 421.871 328.1 421.335L340.425 414.222C340.784 414.014 340.987 413.759 340.99 413.519C340.99 413.283 340.787 413.03 340.435 412.827L329.929 406.724C329.469 406.454 328.847 406.318 328.225 406.318Z" fill="#32353A"/>
<path d="M293.507 401.53C292.414 402.16 292.419 403.18 293.494 403.804L303.998 409.907C305.083 410.537 306.832 410.537 307.925 409.907L320.25 402.792C321.343 402.162 321.348 401.147 320.263 400.518L309.759 394.415C308.685 393.79 306.925 393.785 305.832 394.415L293.507 401.53Z" fill="white"/>
<path d="M305.958 410.885C305.162 410.885 304.363 410.706 303.743 410.347L293.237 404.244C292.566 403.854 292.178 403.281 292.181 402.672C292.181 402.053 292.561 401.491 293.253 401.092L305.578 393.977C306.825 393.256 308.774 393.256 310.015 393.977L320.522 400.08C321.209 400.481 321.586 401.038 321.583 401.652C321.583 402.271 321.201 402.831 320.506 403.232L308.181 410.347C307.556 410.706 306.757 410.885 305.958 410.885ZM293.76 401.969C293.401 402.178 293.198 402.433 293.198 402.672C293.196 402.909 293.399 403.161 293.75 403.364L304.256 409.467C305.177 410.003 306.747 410.001 307.671 409.467L319.996 402.352C320.358 402.144 320.566 401.886 320.566 401.649C320.566 401.415 320.363 401.16 320.009 400.957L309.503 394.854C308.581 394.316 307.015 394.321 306.086 394.854L293.76 401.969Z" fill="#32353A"/>
<path d="M183.476 441.38C182.393 442.004 182.388 443.03 183.463 443.654L193.966 449.757C195.052 450.387 196.811 450.382 197.893 449.757L210.229 442.637C211.322 442.007 211.327 440.995 210.242 440.362L199.739 434.259C198.664 433.635 196.905 433.63 195.811 434.259L183.476 441.38Z" fill="white"/>
<path d="M195.928 450.736C195.132 450.736 194.333 450.557 193.714 450.195L183.207 444.092C182.536 443.702 182.153 443.129 182.153 442.52C182.156 441.906 182.546 441.331 183.226 440.941L195.561 433.823C196.808 433.099 198.755 433.102 199.996 433.823L210.502 439.926C211.187 440.324 211.567 440.883 211.564 441.498C211.564 442.117 211.181 442.677 210.489 443.077L198.153 450.195C197.524 450.557 196.727 450.736 195.928 450.736ZM197.779 434.297C197.157 434.297 196.532 434.429 196.066 434.7L183.73 441.818C183.374 442.023 183.168 442.281 183.168 442.52C183.168 442.757 183.369 443.01 183.72 443.213L194.226 449.315C195.147 449.854 196.714 449.852 197.643 449.315L209.979 442.198C210.341 441.989 210.546 441.732 210.546 441.495C210.549 441.261 210.343 441.006 209.989 440.803L199.483 434.7C199.023 434.432 198.398 434.297 197.779 434.297Z" fill="#32353A"/>
<path d="M161.076 454.308C159.994 454.932 159.988 455.958 161.063 456.582L171.567 462.685C172.652 463.315 174.411 463.31 175.494 462.685L187.83 455.565C188.923 454.935 188.928 453.922 187.843 453.29L177.339 447.187C176.264 446.563 174.505 446.557 173.412 447.187L161.076 454.308Z" fill="white"/>
<path d="M173.529 463.666C172.732 463.666 171.933 463.486 171.314 463.125L160.808 457.022C160.136 456.632 159.754 456.059 159.754 455.45C159.757 454.838 160.144 454.261 160.824 453.87L173.159 446.753C174.406 446.032 176.355 446.032 177.596 446.753L188.103 452.855C188.79 453.256 189.167 453.813 189.164 454.427C189.164 455.047 188.782 455.606 188.087 456.007L175.751 463.125C175.127 463.484 174.325 463.666 173.529 463.666ZM161.331 454.747C160.977 454.953 160.771 455.211 160.769 455.45C160.769 455.687 160.969 455.939 161.321 456.142L171.827 462.245C172.748 462.784 174.317 462.781 175.241 462.245L187.577 455.127C187.939 454.919 188.147 454.661 188.147 454.425C188.147 454.19 187.944 453.938 187.59 453.732L177.084 447.63C176.163 447.091 174.596 447.096 173.667 447.63L161.331 454.747Z" fill="#32353A"/>
<path d="M203.9 453.245C202.817 453.87 202.812 454.895 203.887 455.52L214.39 461.622C215.475 462.252 217.235 462.247 218.317 461.622L230.653 454.502C231.746 453.872 231.751 452.86 230.666 452.227L220.162 446.125C219.088 445.5 217.328 445.495 216.235 446.125L203.9 453.245Z" fill="white"/>
<path d="M216.352 462.601C215.556 462.601 214.757 462.422 214.138 462.06L203.634 455.957C202.963 455.567 202.58 454.994 202.58 454.385C202.583 453.774 202.973 453.199 203.652 452.806L215.988 445.685C217.235 444.964 219.181 444.964 220.423 445.685L230.929 451.788C231.616 452.189 231.993 452.746 231.993 453.363C231.991 453.982 231.608 454.541 230.916 454.942L218.58 462.06C217.948 462.422 217.151 462.601 216.352 462.601ZM218.203 446.164C217.581 446.164 216.956 446.297 216.49 446.565L204.155 453.685C203.798 453.891 203.592 454.148 203.592 454.388C203.592 454.625 203.793 454.877 204.144 455.08L214.648 461.183C215.569 461.722 217.136 461.719 218.065 461.183L230.401 454.065C230.762 453.857 230.971 453.602 230.971 453.365C230.971 453.131 230.765 452.876 230.411 452.67L219.905 446.567C219.447 446.299 218.825 446.164 218.203 446.164Z" fill="#32353A"/>
<path d="M181.502 466.174C180.419 466.798 180.414 467.824 181.489 468.448L191.993 474.551C193.078 475.181 194.837 475.176 195.92 474.551L208.256 467.431C209.349 466.801 209.354 465.786 208.269 465.156L197.765 459.053C196.69 458.429 194.931 458.424 193.838 459.053L181.502 466.174Z" fill="white"/>
<path d="M193.953 475.53C193.156 475.53 192.357 475.35 191.738 474.989L181.232 468.886C180.56 468.495 180.178 467.923 180.178 467.314C180.18 466.702 180.571 466.127 181.25 465.734L193.586 458.614C194.832 457.89 196.779 457.893 198.02 458.614L208.527 464.717C209.211 465.115 209.591 465.674 209.588 466.289C209.588 466.908 209.206 467.468 208.513 467.868L196.178 474.986C195.551 475.35 194.752 475.53 193.953 475.53ZM195.803 459.09C195.181 459.09 194.556 459.223 194.091 459.494L181.755 466.614C181.398 466.82 181.193 467.077 181.193 467.317C181.193 467.553 181.393 467.806 181.744 468.009L192.251 474.112C193.172 474.65 194.739 474.648 195.668 474.112L208.003 466.994C208.365 466.786 208.571 466.528 208.571 466.291C208.573 466.057 208.368 465.805 208.014 465.599L197.508 459.496C197.047 459.225 196.425 459.09 195.803 459.09Z" fill="#32353A"/>
<path d="M205.874 428.453C204.792 429.078 204.786 430.103 205.861 430.728L216.365 436.83C217.45 437.46 219.209 437.455 220.292 436.83L232.628 429.71C233.721 429.08 233.726 428.068 232.641 427.436L222.137 421.333C221.062 420.708 219.303 420.703 218.21 421.333L205.874 428.453Z" fill="white"/>
<path d="M218.328 437.809C217.529 437.809 216.73 437.629 216.113 437.27L205.607 431.167C204.935 430.777 204.55 430.205 204.553 429.596C204.553 428.981 204.943 428.406 205.622 428.016L217.958 420.898C219.205 420.177 221.154 420.177 222.395 420.898L232.899 427.001C233.586 427.399 233.963 427.956 233.963 428.573C233.963 429.192 233.581 429.754 232.886 430.152L220.55 437.27C219.923 437.629 219.124 437.809 218.328 437.809ZM220.178 421.372C219.553 421.372 218.931 421.507 218.463 421.775L206.127 428.893C205.771 429.098 205.565 429.356 205.565 429.596C205.563 429.832 205.766 430.085 206.114 430.288L216.62 436.391C217.542 436.927 219.111 436.927 220.037 436.391L232.373 429.273C232.735 429.065 232.943 428.807 232.943 428.57C232.943 428.336 232.74 428.084 232.386 427.878L221.88 421.775C221.422 421.504 220.8 421.372 220.178 421.372Z" fill="#32353A"/>
<path d="M201.928 478.04C200.845 478.665 200.84 479.69 201.915 480.315L212.418 486.417C213.493 487.042 215.263 487.042 216.346 486.417L228.681 479.297C229.774 478.667 229.769 477.647 228.694 477.022L218.191 470.92C217.116 470.295 215.357 470.29 214.264 470.92L201.928 478.04Z" fill="white"/>
<path d="M214.38 487.398C213.581 487.398 212.782 487.219 212.163 486.857L201.657 480.754C200.985 480.364 200.603 479.791 200.603 479.182C200.605 478.571 200.996 477.993 201.675 477.602L214.011 470.482C215.257 469.761 217.204 469.761 218.445 470.482L228.951 476.585C229.623 476.978 230.011 477.55 230.011 478.159C230.008 478.779 229.628 479.338 228.938 479.739L216.603 486.859C215.978 487.216 215.176 487.398 214.38 487.398ZM216.228 470.958C215.606 470.958 214.981 471.094 214.515 471.362L202.18 478.482C201.823 478.688 201.618 478.945 201.618 479.185C201.618 479.422 201.818 479.674 202.169 479.877L212.675 485.98C213.599 486.518 215.166 486.513 216.092 485.98L228.428 478.859C228.787 478.651 228.99 478.396 228.993 478.157C228.993 477.92 228.79 477.667 228.439 477.464L217.935 471.362C217.472 471.094 216.852 470.958 216.228 470.958Z" fill="#32353A"/>
<path d="M224.326 465.113C223.244 465.738 223.238 466.763 224.313 467.388L234.817 473.491C235.892 474.115 237.661 474.115 238.744 473.491L251.08 466.37C252.173 465.74 252.168 464.72 251.093 464.096L240.589 457.993C239.514 457.368 237.755 457.363 236.662 457.993L224.326 465.113Z" fill="white"/>
<path d="M236.779 474.469C235.98 474.469 235.184 474.29 234.564 473.931L224.061 467.828C223.389 467.438 223.007 466.862 223.007 466.253C223.007 465.642 223.397 465.064 224.076 464.674L236.412 457.553C237.661 456.832 239.608 456.832 240.849 457.553L251.356 463.656C252.027 464.049 252.415 464.622 252.412 465.231C252.412 465.85 252.032 466.412 251.34 466.81L239.004 473.931C238.372 474.29 237.576 474.469 236.779 474.469ZM238.63 458.032C238.005 458.032 237.383 458.165 236.914 458.436L224.579 465.553C224.222 465.759 224.017 466.014 224.017 466.253C224.017 466.49 224.217 466.745 224.568 466.948L235.075 473.051C235.996 473.587 237.557 473.587 238.489 473.051L250.825 465.933C251.184 465.725 251.389 465.47 251.389 465.231C251.392 464.994 251.189 464.741 250.835 464.538L240.329 458.436C239.873 458.165 239.251 458.032 238.63 458.032Z" fill="#32353A"/>
<path d="M246.726 452.185C245.643 452.809 245.638 453.835 246.713 454.459L257.216 460.562C258.291 461.187 260.061 461.187 261.143 460.562L318.278 427.586C319.371 426.956 319.366 425.936 318.291 425.312L307.788 419.209C306.713 418.584 304.954 418.579 303.86 419.209L246.726 452.185Z" fill="white"/>
<path d="M259.177 461.54C258.38 461.54 257.581 461.361 256.962 461.002L246.458 454.899C245.787 454.508 245.404 453.936 245.404 453.327C245.407 452.715 245.797 452.137 246.477 451.747L303.609 418.771C304.858 418.05 306.805 418.05 308.046 418.771L318.552 424.874C319.224 425.267 319.611 425.839 319.609 426.448C319.609 427.068 319.229 427.627 318.536 428.028L261.404 461.004C260.775 461.361 259.976 461.54 259.177 461.54ZM305.826 419.247C305.201 419.247 304.579 419.38 304.111 419.651L246.979 452.624C246.622 452.83 246.417 453.087 246.417 453.327C246.417 453.564 246.617 453.816 246.966 454.019L257.472 460.122C258.393 460.658 259.957 460.658 260.889 460.122L318.021 427.148C318.38 426.94 318.586 426.685 318.586 426.446C318.589 426.209 318.386 425.957 318.032 425.754L307.525 419.651C307.07 419.38 306.448 419.247 305.826 419.247Z" fill="#32353A"/>
<path d="M248.698 427.391C247.616 428.015 247.611 429.041 248.685 429.665L259.189 435.768C260.274 436.398 262.033 436.393 263.116 435.768L275.452 428.648C276.545 428.018 276.55 427.005 275.465 426.373L264.961 420.27C263.886 419.646 262.127 419.64 261.034 420.27L248.698 427.391Z" fill="white"/>
<path d="M261.151 436.747C260.355 436.747 259.556 436.567 258.936 436.205L248.43 430.103C247.759 429.712 247.376 429.14 247.376 428.531C247.379 427.919 247.769 427.344 248.448 426.951L260.784 419.831C262.031 419.107 263.977 419.11 265.219 419.831L275.722 425.934C276.407 426.332 276.787 426.891 276.784 427.505C276.784 428.125 276.401 428.684 275.709 429.085L263.373 436.203C262.746 436.567 261.95 436.747 261.151 436.747ZM263.001 420.31C262.379 420.31 261.755 420.442 261.289 420.713L248.953 427.833C248.597 428.039 248.391 428.297 248.391 428.536C248.391 428.773 248.591 429.025 248.943 429.228L259.449 435.331C260.37 435.87 261.937 435.867 262.866 435.331L275.202 428.213C275.563 428.005 275.769 427.747 275.769 427.511C275.772 427.276 275.566 427.021 275.212 426.818L264.708 420.716C264.245 420.442 263.621 420.31 263.001 420.31Z" fill="#32353A"/>
<path d="M226.298 440.32C225.215 440.945 225.21 441.97 226.285 442.595L236.789 448.698C237.874 449.327 239.633 449.322 240.716 448.698L253.051 441.577C254.144 440.947 254.15 439.933 253.064 439.303L242.561 433.2C241.486 432.575 239.727 432.57 238.634 433.2L226.298 440.32Z" fill="white"/>
<path d="M238.751 449.676C237.955 449.676 237.156 449.497 236.537 449.135L226.031 443.032C225.359 442.642 224.977 442.069 224.977 441.46C224.979 440.849 225.367 440.274 226.046 439.881L238.382 432.76C239.629 432.04 241.578 432.04 242.819 432.76L253.323 438.863C254.01 439.264 254.387 439.821 254.385 440.435C254.385 441.054 254.002 441.614 253.307 442.015L240.971 449.133C240.349 449.494 239.548 449.676 238.751 449.676ZM226.554 440.76C226.2 440.966 225.994 441.224 225.992 441.463C225.992 441.7 226.192 441.952 226.543 442.155L237.049 448.258C237.971 448.797 239.54 448.794 240.464 448.258L252.8 441.14C253.161 440.932 253.37 440.675 253.37 440.438C253.37 440.203 253.167 439.951 252.813 439.745L242.309 433.643C241.388 433.104 239.821 433.109 238.892 433.643L226.554 440.76Z" fill="#32353A"/>
<path d="M271.109 414.46C270.015 415.089 270.021 416.11 271.096 416.734L281.599 422.837C282.684 423.467 284.433 423.467 285.526 422.837L297.852 415.722C298.945 415.092 298.95 414.08 297.865 413.447L287.361 407.344C286.286 406.72 284.527 406.715 283.434 407.344L271.109 414.46Z" fill="white"/>
<path d="M283.561 423.815C282.762 423.815 281.963 423.636 281.344 423.276L270.84 417.174C270.166 416.783 269.781 416.211 269.781 415.602C269.781 414.982 270.161 414.42 270.853 414.022L283.179 406.907C284.425 406.186 286.377 406.186 287.613 406.907L298.117 413.01C298.804 413.408 299.181 413.967 299.181 414.582C299.181 415.201 298.799 415.763 298.104 416.161L285.779 423.276C285.154 423.636 284.358 423.815 283.561 423.815ZM271.361 414.899C271.002 415.107 270.796 415.362 270.796 415.602C270.796 415.836 270.999 416.091 271.351 416.294L281.857 422.397C282.778 422.936 284.347 422.933 285.274 422.397L297.599 415.284C297.961 415.076 298.169 414.818 298.169 414.582C298.169 414.347 297.966 414.095 297.612 413.889L287.106 407.787C286.185 407.25 284.615 407.25 283.689 407.787L271.361 414.899Z" fill="#32353A"/>
<path d="M250.682 402.59C249.589 403.22 249.594 404.24 250.669 404.865L261.172 410.968C262.258 411.598 264.006 411.598 265.099 410.968L277.425 403.853C278.518 403.223 278.523 402.21 277.438 401.578L266.934 395.475C265.859 394.851 264.1 394.845 263.007 395.475L250.682 402.59Z" fill="white"/>
<path d="M263.138 411.947C262.339 411.947 261.54 411.767 260.92 411.405L250.414 405.303C249.743 404.91 249.355 404.337 249.357 403.728C249.357 403.109 249.74 402.547 250.43 402.148L262.755 395.036C264.002 394.315 265.948 394.315 267.19 395.036L277.696 401.139C278.38 401.537 278.76 402.096 278.758 402.711C278.758 403.33 278.378 403.892 277.683 404.29L265.357 411.403C264.733 411.767 263.934 411.947 263.138 411.947ZM264.975 395.515C264.353 395.515 263.728 395.647 263.262 395.918L250.937 403.033C250.578 403.239 250.372 403.496 250.372 403.733C250.37 403.97 250.573 404.223 250.927 404.426L261.433 410.528C262.357 411.067 263.924 411.062 264.85 410.528L277.175 403.416C277.537 403.208 277.743 402.95 277.743 402.713C277.743 402.479 277.54 402.226 277.186 402.021L266.68 395.918C266.219 395.647 265.597 395.515 264.975 395.515Z" fill="#32353A"/>
<path d="M228.275 415.526C227.192 416.151 227.187 417.176 228.262 417.801L238.765 423.904C239.85 424.533 241.61 424.528 242.692 423.904L255.028 416.783C256.121 416.154 256.126 415.141 255.041 414.509L244.537 408.406C243.463 407.781 241.703 407.776 240.61 408.406L228.275 415.526Z" fill="white"/>
<path d="M240.724 424.882C239.928 424.882 239.129 424.702 238.509 424.341L228.003 418.238C227.332 417.847 226.949 417.275 226.949 416.666C226.952 416.052 227.342 415.477 228.021 415.086L240.355 407.968C241.601 407.248 243.55 407.248 244.792 407.968L255.298 414.071C255.982 414.469 256.362 415.029 256.36 415.643C256.36 416.262 255.977 416.825 255.282 417.223L242.949 424.341C242.322 424.702 241.526 424.882 240.724 424.882ZM242.577 408.442C241.953 408.442 241.331 408.577 240.862 408.845L228.529 415.963C228.172 416.169 227.967 416.426 227.967 416.666C227.967 416.903 228.167 417.155 228.519 417.358L239.025 423.461C239.946 424 241.513 423.997 242.442 423.461L254.775 416.343C255.137 416.135 255.345 415.877 255.345 415.64C255.345 415.406 255.142 415.154 254.788 414.948L244.282 408.845C243.818 408.577 243.196 408.442 242.577 408.442Z" fill="#32353A"/>
<path d="M358.729 387.541C357.636 388.17 357.641 389.191 358.716 389.815L369.219 395.918C370.294 396.543 372.053 396.548 373.146 395.918L385.472 388.803C386.565 388.173 386.56 387.153 385.485 386.528L374.981 380.425C373.906 379.801 372.147 379.796 371.054 380.425L358.729 387.541Z" fill="white"/>
<path d="M371.182 396.897C370.385 396.897 369.587 396.717 368.967 396.355L358.463 390.252C357.792 389.859 357.404 389.287 357.404 388.678C357.407 388.059 357.787 387.499 358.477 387.098L370.802 379.983C372.051 379.262 373.998 379.262 375.239 379.983L385.745 386.086C386.417 386.479 386.804 387.051 386.802 387.66C386.802 388.28 386.422 388.842 385.73 389.24L373.404 396.355C372.78 396.714 371.981 396.897 371.182 396.897ZM358.984 387.978C358.625 388.186 358.422 388.441 358.419 388.681C358.419 388.917 358.622 389.17 358.974 389.373L369.477 395.476C370.398 396.012 371.965 396.012 372.892 395.476L385.217 388.36C385.576 388.152 385.782 387.897 385.782 387.658C385.784 387.421 385.581 387.169 385.227 386.966L374.721 380.863C373.8 380.327 372.236 380.327 371.304 380.863L358.984 387.978Z" fill="#32353A"/>
<path d="M336.332 400.467C335.239 401.097 335.244 402.117 336.319 402.742L346.823 408.845C347.898 409.469 349.657 409.475 350.75 408.845L363.075 401.73C364.168 401.1 364.163 400.08 363.088 399.455L352.585 393.352C351.51 392.728 349.751 392.722 348.657 393.352L336.332 400.467Z" fill="white"/>
<path d="M348.782 409.824C347.986 409.824 347.187 409.644 346.568 409.285L336.064 403.182C335.39 402.789 335.002 402.217 335.005 401.608C335.005 400.988 335.385 400.426 336.077 400.028L348.402 392.913C349.649 392.192 351.601 392.192 352.837 392.913L363.343 399.016C364.017 399.409 364.405 399.981 364.402 400.59C364.402 401.209 364.023 401.769 363.33 402.17L351.005 409.285C350.378 409.644 349.579 409.824 348.782 409.824ZM350.625 393.392C350 393.392 349.376 393.524 348.91 393.795L336.585 400.908C336.225 401.116 336.02 401.371 336.02 401.61C336.02 401.847 336.223 402.099 336.574 402.302L347.08 408.405C348.002 408.941 349.566 408.941 350.497 408.405L362.823 401.293C363.182 401.084 363.387 400.829 363.387 400.59C363.387 400.353 363.184 400.101 362.833 399.898L352.327 393.795C351.869 393.524 351.247 393.392 350.625 393.392Z" fill="#32353A"/>
<g opacity="0.1">
<path d="M322.671 166.146C315.251 170.43 315.212 177.363 322.582 181.646L452.948 258.157C460.303 262.43 472.29 262.44 479.709 258.157L514.413 238.123C521.833 233.839 521.854 226.896 514.502 222.622L384.136 146.112C376.766 141.828 364.794 141.828 357.375 146.112L322.671 166.146Z" fill="black"/>
</g>
<path d="M317.483 152.551L317.564 166.045C317.564 168.827 319.394 171.588 323.05 173.735L453.434 250.227C455.501 251.44 457.926 252.293 460.51 252.811C464.307 253.605 468.461 253.647 472.297 252.97C475.178 252.473 477.903 251.559 480.188 250.227L514.892 230.201C518.629 228.054 520.477 225.212 520.477 222.409L520.417 208.975C520.417 211.757 518.548 214.581 514.832 216.707L480.128 236.754C477.861 238.066 475.178 238.979 472.297 239.476C468.44 240.153 464.307 240.111 460.51 239.336C457.887 238.818 455.441 237.964 453.374 236.751L322.99 160.238C319.352 158.117 317.525 155.333 317.483 152.551Z" fill="#BEC4CD"/>
<path d="M466.78 253.943C461.841 253.943 456.912 252.855 453.172 250.677L322.793 174.17C319.098 172.002 317.06 169.116 317.06 166.037L316.984 152.559V152.556C316.982 152.275 317.208 152.046 317.489 152.046C317.492 152.046 317.492 152.046 317.494 152.046C317.773 152.046 317.999 152.27 318.002 152.551C318.025 155.26 319.891 157.839 323.259 159.812L453.638 236.317C460.831 240.509 472.612 240.507 479.886 236.314L514.575 216.275C518.013 214.3 519.905 211.705 519.905 208.97C519.905 208.691 520.131 208.462 520.41 208.462C520.412 208.462 520.412 208.462 520.412 208.462C520.691 208.462 520.917 208.686 520.92 208.967L520.995 222.401C520.995 225.553 518.924 228.478 515.155 230.641L480.443 250.68C476.662 252.855 471.717 253.943 466.78 253.943ZM318.018 156.233L318.072 166.034C318.072 168.741 319.93 171.317 323.303 173.295L453.682 249.803C460.88 253.993 472.657 253.993 479.931 249.8L514.645 229.761C518.083 227.786 519.975 225.173 519.975 222.404L519.92 212.616C518.957 214.318 517.318 215.869 515.08 217.155L480.391 237.194C472.831 241.548 460.599 241.548 453.123 237.194L322.741 160.689C320.576 159.416 318.975 157.894 318.018 156.233Z" fill="#32353A"/>
<path d="M323.09 144.743C315.67 149.027 315.631 155.96 323.001 160.244L453.367 236.754C460.722 241.027 472.709 241.038 480.128 236.754L514.832 216.72C522.252 212.436 522.273 205.493 514.921 201.22L384.555 124.707C377.185 120.423 365.213 120.423 357.794 124.707L323.09 144.743Z" fill="white"/>
<path d="M466.728 240.457C461.788 240.457 456.857 239.369 453.109 237.191L322.741 160.681C319.027 158.521 316.984 155.621 316.989 152.519C316.994 149.394 319.069 146.476 322.832 144.303L357.536 124.269C365.08 119.913 377.312 119.915 384.807 124.269L515.173 200.782C518.882 202.937 520.924 205.836 520.919 208.946C520.914 212.072 518.843 214.989 515.082 217.16L480.378 237.193C476.61 239.369 471.667 240.457 466.728 240.457ZM371.191 122.003C366.436 122.003 361.679 123.051 358.046 125.146L323.342 145.18C319.904 147.166 318.009 149.771 318.007 152.517C318.002 155.244 319.868 157.831 323.256 159.801L453.624 236.311C460.836 240.504 472.612 240.501 479.873 236.311L514.577 216.277C518.01 214.294 519.902 211.689 519.907 208.941C519.912 206.211 518.049 203.624 514.663 201.657L384.297 125.144C380.693 123.051 375.943 122.003 371.191 122.003Z" fill="#32353A"/>
<path d="M489.824 210.183L468.981 222.289C472.096 220.476 473.083 215.19 470.402 208.744L418.777 68.9464C416.804 64.2333 413.572 60.5664 410.316 58.6926C407.732 57.2144 405.15 56.8397 403.198 57.9821L424.041 45.8572C425.993 44.7329 428.578 45.0869 431.159 46.5859C434.412 48.4597 437.647 52.1266 439.62 56.8397L491.245 196.637C493.926 203.086 492.939 208.369 489.824 210.183Z" fill="#4F4F4F"/>
<path d="M468.981 222.797C468.807 222.797 468.635 222.706 468.544 222.545C468.403 222.303 468.484 221.993 468.726 221.852H468.729C471.844 220.036 472.341 214.727 469.934 208.942L418.3 69.1261C416.492 64.8034 413.408 61.061 410.064 59.1378C407.524 57.683 405.187 57.4227 403.472 58.4169L403.459 58.4247C403.456 58.4247 403.453 58.4273 403.453 58.4273C403.206 58.5678 402.899 58.4872 402.758 58.2425C402.618 58.0005 402.699 57.6908 402.941 57.5477H402.946C402.951 57.5425 402.959 57.5399 402.967 57.5346L423.786 45.4201C425.85 44.2334 428.559 44.4936 431.414 46.1488C434.946 48.1813 438.191 52.1059 440.088 56.6446L491.722 196.463C494.321 202.714 493.653 208.543 490.082 210.623L469.246 222.724C469.241 222.727 469.241 222.727 469.239 222.729C469.155 222.776 469.067 222.797 468.981 222.797ZM406.212 56.8164C407.568 56.8996 409.043 57.3811 410.566 58.2555C414.097 60.2881 417.343 64.2126 419.243 68.7513L470.876 208.569C472.76 213.1 472.926 217.41 471.516 220.231L489.567 209.746C492.684 207.932 493.182 202.623 490.774 196.835L439.141 57.0168C437.332 52.6966 434.248 48.9543 430.904 47.0284C428.372 45.558 426.022 45.3004 424.294 46.2998L406.212 56.8164Z" fill="#4F4F4F"/>
<path d="M410.311 58.6975C407.06 56.8211 403.802 56.73 401.821 59.166L349.67 139.057C345.418 144.296 350.186 157.089 358.094 161.654L461.876 221.566C469.782 226.13 474.607 218.875 470.399 208.751L418.769 68.9461C416.806 64.2382 413.561 60.5739 410.311 58.6975Z" fill="#E5223A"/>
<path d="M466.4 223.466C464.932 223.466 463.305 222.979 461.622 222.006L357.84 162.094C353.067 159.338 348.96 153.23 347.852 147.237C347.196 143.692 347.703 140.676 349.275 138.737L401.395 58.8877C403.459 56.3477 406.879 56.1317 410.564 58.2579C414.113 60.3061 417.356 64.2306 419.235 68.7537L470.873 208.577C473.249 214.287 472.94 219.611 470.082 222.123C469.065 223.018 467.805 223.466 466.4 223.466ZM405.793 57.8077C404.354 57.8077 403.123 58.3672 402.215 59.4837L350.095 139.333C348.682 141.079 348.25 143.804 348.851 147.052C349.908 152.775 353.811 158.596 358.348 161.214L462.129 221.126C465.065 222.82 467.654 222.906 469.413 221.36C471.94 219.14 472.143 214.269 469.931 208.946L418.293 69.1232C416.503 64.8187 413.419 61.079 410.056 59.1349C408.521 58.2501 407.074 57.8077 405.793 57.8077Z" fill="#32353A"/>
<path d="M400.676 163.374C400.645 167.707 403.703 172.995 407.494 175.192C411.255 177.36 414.344 175.606 414.344 171.273C414.375 166.939 411.286 161.651 407.526 159.486C403.768 157.289 400.676 159.043 400.676 163.374Z" fill="white"/>
<path d="M414.123 149.485L416.99 104.249C417.373 98.2914 413.136 90.5829 407.752 87.4912C402.367 84.3682 398.065 87.1424 398.417 93.5445L400.998 141.901C401.253 146.01 404.09 150.757 407.562 152.764C411 154.742 413.868 153.308 414.123 149.485Z" fill="white"/>
</svg>
