<svg width="43" height="44" viewBox="0 0 43 44" fill="none" xmlns="http://www.w3.org/2000/svg">
<g id="CopySimple">
<path id="Vector" d="M30.7703 11.0989H6.68939C6.33458 11.0989 5.9943 11.2398 5.7434 11.4907C5.49251 11.7416 5.35156 12.0819 5.35156 12.4367V36.5176C5.35156 36.8724 5.49251 37.2127 5.7434 37.4636C5.9943 37.7145 6.33458 37.8554 6.68939 37.8554H30.7703C31.1251 37.8554 31.4654 37.7145 31.7163 37.4636C31.9672 37.2127 32.1081 36.8724 32.1081 36.5176V12.4367C32.1081 12.0819 31.9672 11.7416 31.7163 11.4907C31.4654 11.2398 31.1251 11.0989 30.7703 11.0989ZM29.4325 35.1798H8.02722V13.7745H29.4325V35.1798ZM37.4594 7.08539V31.1663C37.4594 31.5211 37.3185 31.8614 37.0676 32.1123C36.8167 32.3632 36.4764 32.5041 36.1216 32.5041C35.7668 32.5041 35.4265 32.3632 35.1756 32.1123C34.9247 31.8614 34.7838 31.5211 34.7838 31.1663V8.42321H12.0407C11.6859 8.42321 11.3456 8.28227 11.0947 8.03137C10.8438 7.78048 10.7029 7.4402 10.7029 7.08539C10.7029 6.73057 10.8438 6.39029 11.0947 6.1394C11.3456 5.88851 11.6859 5.74756 12.0407 5.74756H36.1216C36.4764 5.74756 36.8167 5.88851 37.0676 6.1394C37.3185 6.39029 37.4594 6.73057 37.4594 7.08539Z" fill="#31334E"/>
</g>
</svg>
