<svg width="119" height="118" viewBox="0 0 119 118" fill="none" xmlns="http://www.w3.org/2000/svg">
<rect x="0.974609" y="0.793457" width="117.189" height="117.189" rx="58.5943" fill="#54C0EB" fill-opacity="0.14"/>
<path d="M98.8107 29.0102L90.7648 27.6966L89.4512 19.979L88.3017 27.8608L80.7484 29.0102L88.3017 30.1596L89.4512 38.0413L90.7648 30.3238L98.8107 29.0102ZM33.7863 19.979L33.4579 23.0989L30.1738 23.5915L33.2937 24.0841L33.7863 27.2039L34.4431 24.0841L37.563 23.5915L34.2789 23.0989L33.7863 19.979Z" fill="#FFD15C"/>
<path d="M29.3561 29.9955L28.5351 24.4126L27.7141 29.9955L22.2954 30.8165L27.7141 31.8017L28.5351 37.3846L29.3561 31.8017L35.1033 30.8165L29.3561 29.9955Z" fill="#CDD6E0"/>
<path d="M71.8869 53.1491L61.8705 34.1016H57.7654L46.5996 53.1491H71.8869Z" fill="#84DBFF"/>
<path d="M84.6802 34.1016H61.856L71.8723 53.1491L84.6802 34.1016Z" fill="#54C0EB"/>
<path d="M98.495 53.1491L84.8661 34.1016H84.7019L71.894 53.1491H98.495Z" fill="#84DBFF"/>
<path d="M59.4075 98.7969L71.8869 53.1484H46.5996L59.4075 98.7969Z" fill="#F2F2F2"/>
<path d="M57.7571 34.1016H34.1118L46.5913 53.1491L57.7571 34.1016Z" fill="#54C0EB"/>
<path d="M34.1197 34.1016H33.9555L20.3267 53.1491H46.5992L34.1197 34.1016Z" fill="#84DBFF"/>
<path d="M98.4874 53.1484L59.407 98.7969L20.3267 53.1484H46.5992L59.407 98.7969L71.8864 53.1484H98.4874Z" fill="#54C0EB"/>
<path d="M71.8879 48.0575L71.2311 52.3268L66.7976 52.9836L71.2311 53.6404L71.8879 58.2381L72.5447 53.6404L76.9782 52.9836L72.5447 52.3268L71.8879 48.0575ZM39.7041 38.5337L39.0473 42.803L34.6138 43.4598L38.883 44.1166L39.7041 48.7143L40.3609 44.2808L44.7944 43.4598L40.3609 42.803L39.7041 38.5337Z" fill="#31334E"/>
</svg>
