<svg width="38" height="10" viewBox="0 0 38 10" fill="none" xmlns="http://www.w3.org/2000/svg">
<g id="Group">
<path id="Vector" d="M4.29031 9.44782C6.65979 9.44782 8.58063 7.52698 8.58063 5.1575C8.58063 2.78803 6.65979 0.867188 4.29031 0.867188C1.92084 0.867188 0 2.78803 0 5.1575C0 7.52698 1.92084 9.44782 4.29031 9.44782Z" fill="#1C1B35"/>
<path id="Vector_2" d="M18.9998 9.44782C21.3693 9.44782 23.2901 7.52698 23.2901 5.1575C23.2901 2.78803 21.3693 0.867188 18.9998 0.867188C16.6303 0.867188 14.7095 2.78803 14.7095 5.1575C14.7095 7.52698 16.6303 9.44782 18.9998 9.44782Z" fill="#1C1B35"/>
<path id="Vector_3" d="M33.7097 9.44782C36.0792 9.44782 38.0001 7.52698 38.0001 5.1575C38.0001 2.78803 36.0792 0.867188 33.7097 0.867188C31.3403 0.867188 29.4194 2.78803 29.4194 5.1575C29.4194 7.52698 31.3403 9.44782 33.7097 9.44782Z" fill="#1C1B35"/>
</g>
</svg>
