<svg width="80" height="80" viewBox="0 0 80 80" fill="none" xmlns="http://www.w3.org/2000/svg">
<rect width="80" height="80" rx="40" fill="#F9F9F9"/>
<path d="M40.1942 34.7755L40.1726 34.7794L40.0332 34.8482L39.9939 34.856L39.9664 34.8482L39.8269 34.7794C39.806 34.7729 39.7903 34.7761 39.7798 34.7892L39.7719 34.8089L39.7385 35.6496L39.7484 35.6889L39.768 35.7144L39.9723 35.8598L40.0017 35.8676L40.0253 35.8598L40.2296 35.7144L40.2532 35.683L40.261 35.6496L40.2276 34.8108C40.2224 34.7899 40.2113 34.7781 40.1942 34.7755ZM40.7148 34.5535L40.6892 34.5574L40.3259 34.7401L40.3062 34.7598L40.3003 34.7814L40.3357 35.626L40.3455 35.6496L40.3612 35.6633L40.756 35.846C40.7809 35.8526 40.7999 35.8473 40.813 35.8303L40.8209 35.8028L40.7541 34.5967C40.7475 34.5732 40.7344 34.5588 40.7148 34.5535ZM39.3103 34.5574C39.3017 34.5522 39.2913 34.5505 39.2814 34.5527C39.2716 34.5549 39.2629 34.5608 39.2573 34.5692L39.2455 34.5967L39.1787 35.8028C39.18 35.8264 39.1912 35.8421 39.2121 35.8499L39.2416 35.846L39.6364 35.6633L39.656 35.6476L39.6639 35.626L39.6973 34.7814L39.6914 34.7578L39.6717 34.7382L39.3103 34.5574Z" fill="#E5223A"/>
<path d="M25.2903 45.4478C27.6598 45.4478 29.5806 43.527 29.5806 41.1575C29.5806 38.788 27.6598 36.8672 25.2903 36.8672C22.9208 36.8672 21 38.788 21 41.1575C21 43.527 22.9208 45.4478 25.2903 45.4478Z" fill="#1C1B35"/>
<path d="M39.9998 45.4478C42.3693 45.4478 44.2901 43.527 44.2901 41.1575C44.2901 38.788 42.3693 36.8672 39.9998 36.8672C37.6303 36.8672 35.7095 38.788 35.7095 41.1575C35.7095 43.527 37.6303 45.4478 39.9998 45.4478Z" fill="#1C1B35"/>
<path d="M54.7097 45.4478C57.0792 45.4478 59.0001 43.527 59.0001 41.1575C59.0001 38.788 57.0792 36.8672 54.7097 36.8672C52.3403 36.8672 50.4194 38.788 50.4194 41.1575C50.4194 43.527 52.3403 45.4478 54.7097 45.4478Z" fill="#1C1B35"/>
</svg>
