<svg width="19" height="11" viewBox="0 0 19 11" fill="none" xmlns="http://www.w3.org/2000/svg">
<path fill-rule="evenodd" clip-rule="evenodd" d="M10.9319 10.3126C10.6784 10.557 10.3346 10.6943 9.97609 10.6943C9.61759 10.6943 9.27378 10.557 9.02025 10.3126L1.37221 2.93618C1.24308 2.8159 1.14009 2.67202 1.06923 2.51293C0.998379 2.35384 0.961084 2.18274 0.959524 2.0096C0.957964 1.83647 0.992171 1.66477 1.06015 1.50452C1.12813 1.34427 1.22851 1.19868 1.35545 1.07625C1.48239 0.95382 1.63334 0.856999 1.79949 0.791435C1.96564 0.725872 2.14367 0.692881 2.32318 0.694385C2.50269 0.69589 2.6801 0.73186 2.84504 0.800199C3.00999 0.868537 3.15917 0.967873 3.28388 1.09241L9.97609 7.54691L16.6683 1.09241C16.9233 0.85489 17.2648 0.72346 17.6193 0.726431C17.9737 0.729402 18.3128 0.866535 18.5635 1.1083C18.8142 1.35006 18.9563 1.6771 18.9594 2.01899C18.9625 2.36088 18.8262 2.69026 18.58 2.93618L10.9319 10.3126Z" fill="#E5223A"/>
</svg>
