<svg width="139" height="139" viewBox="0 0 139 139" fill="none" xmlns="http://www.w3.org/2000/svg">
<rect x="11.8809" y="10.2305" width="115.495" height="115.495" rx="57.7476" fill="#FBEBEA"/>
<circle cx="70.2569" cy="67.9776" r="40.7999" fill="#E5223A"/>
<path d="M90.0449 59.9857C90.0449 57.1233 88.4032 54.5555 85.8355 53.3348V50.7249C85.8355 46.6839 82.51 43.3584 78.469 43.3584H56.4115C52.3704 43.3584 49.0449 46.6839 49.0449 50.7249V82.5904C49.0449 86.6315 52.3704 89.957 56.4115 89.957H60.4104C60.4315 89.9991 60.4525 90.0306 60.4736 90.0622C60.4946 90.0938 60.5157 90.1253 60.5367 90.1674C61.9258 91.7249 63.9464 92.651 66.0511 92.651H82.6784C86.7195 92.651 90.0449 89.3255 90.0449 85.2845V59.9857ZM56.4115 87.8522C53.5069 87.8522 51.1496 85.4949 51.1496 82.5904V50.7249C51.1496 47.8204 53.5069 45.4631 56.4115 45.4631H78.469C81.3735 45.4631 83.7308 47.8204 83.7308 50.7249V82.5904C83.7308 85.4949 81.3735 87.8522 78.469 87.8522H56.4115ZM87.9402 85.2424C87.9402 88.1469 85.5829 90.5042 82.6784 90.5042H66.0511C65.2092 90.5042 64.4094 90.2937 63.6938 89.957H78.469C82.51 89.957 85.8355 86.6315 85.8355 82.5904V55.7763C87.1404 56.7444 87.9402 58.3019 87.9402 59.9857V85.2424Z" fill="white"/>
<path d="M90.0449 59.9857C90.0449 57.1233 88.4032 54.5555 85.8355 53.3348V50.7249C85.8355 46.6839 82.51 43.3584 78.469 43.3584H56.4115C52.3704 43.3584 49.0449 46.6839 49.0449 50.7249V82.5904C49.0449 86.6315 52.3704 89.957 56.4115 89.957H60.4104C60.4315 89.9991 60.4525 90.0306 60.4736 90.0622C60.4946 90.0938 60.5157 90.1253 60.5367 90.1674C61.9258 91.7249 63.9464 92.651 66.0511 92.651H82.6784C86.7195 92.651 90.0449 89.3255 90.0449 85.2845V59.9857ZM56.4115 87.8522C53.5069 87.8522 51.1496 85.4949 51.1496 82.5904V50.7249C51.1496 47.8204 53.5069 45.4631 56.4115 45.4631H78.469C81.3735 45.4631 83.7308 47.8204 83.7308 50.7249V82.5904C83.7308 85.4949 81.3735 87.8522 78.469 87.8522H56.4115ZM87.9402 85.2424C87.9402 88.1469 85.5829 90.5042 82.6784 90.5042H66.0511C65.2092 90.5042 64.4094 90.2937 63.6938 89.957H78.469C82.51 89.957 85.8355 86.6315 85.8355 82.5904V55.7763C87.1404 56.7444 87.9402 58.3019 87.9402 59.9857V85.2424Z" stroke="#E5223A"/>
<path d="M67.7764 64.4062H58.3473C57.758 64.4062 57.2949 64.8692 57.2949 65.4586C57.2949 66.0479 57.758 66.5109 58.3473 66.5109H67.7764C68.3658 66.5109 68.8288 66.0479 68.8288 65.4586C68.8288 64.8692 68.3658 64.4062 67.7764 64.4062ZM76.1953 60.1968H58.3473C57.758 60.1968 57.2949 60.6598 57.2949 61.2491C57.2949 61.8384 57.758 62.3015 58.3473 62.3015H76.1953C76.7847 62.3015 77.2477 61.8384 77.2477 61.2491C77.2477 60.6598 76.7847 60.1968 76.1953 60.1968ZM76.1953 55.9873H58.3473C57.758 55.9873 57.2949 56.4503 57.2949 57.0397C57.2949 57.629 57.758 58.092 58.3473 58.092H76.1953C76.7847 58.092 77.2477 57.629 77.2477 57.0397C77.2477 56.4503 76.7847 55.9873 76.1953 55.9873Z" fill="white"/>
<path d="M67.7764 64.4062H58.3473C57.758 64.4062 57.2949 64.8692 57.2949 65.4586C57.2949 66.0479 57.758 66.5109 58.3473 66.5109H67.7764C68.3658 66.5109 68.8288 66.0479 68.8288 65.4586C68.8288 64.8692 68.3658 64.4062 67.7764 64.4062ZM76.1953 60.1968H58.3473C57.758 60.1968 57.2949 60.6598 57.2949 61.2491C57.2949 61.8384 57.758 62.3015 58.3473 62.3015H76.1953C76.7847 62.3015 77.2477 61.8384 77.2477 61.2491C77.2477 60.6598 76.7847 60.1968 76.1953 60.1968ZM76.1953 55.9873H58.3473C57.758 55.9873 57.2949 56.4503 57.2949 57.0397C57.2949 57.629 57.758 58.092 58.3473 58.092H76.1953C76.7847 58.092 77.2477 57.629 77.2477 57.0397C77.2477 56.4503 76.7847 55.9873 76.1953 55.9873Z" stroke="#E5223A"/>
<circle cx="69.628" cy="69.2335" r="68.4183" stroke="#E5223A" stroke-width="1.25538"/>
<circle cx="120.471" cy="23.4114" r="6.41142" fill="#FBEBEA" stroke="white" stroke-width="0.986372"/>
<circle cx="27.5726" cy="125.098" r="6.41142" fill="#FBEBEA" stroke="white" stroke-width="0.986372"/>
</svg>
