<svg width="37" height="37" viewBox="0 0 37 37" fill="none" xmlns="http://www.w3.org/2000/svg">
<rect x="0.619629" y="0.310547" width="36.3803" height="36.3803" rx="6.92958" fill="#3E599C"/>
<path d="M21.0553 9.39355C19.8312 9.39355 18.6571 9.87986 17.7915 10.7455C16.9259 11.6111 16.4396 12.7851 16.4396 14.0093V16.5792H13.9695C13.8458 16.5792 13.745 16.679 13.745 16.8037V20.1969C13.745 20.3207 13.8448 20.4215 13.9695 20.4215H16.4396V27.3826C16.4396 27.5063 16.5394 27.6071 16.6641 27.6071H20.0573C20.1811 27.6071 20.2819 27.5073 20.2819 27.3826V20.4215H22.7739C22.8767 20.4215 22.9665 20.3516 22.9915 20.2518L23.8398 16.8586C23.8481 16.8255 23.8488 16.7909 23.8418 16.7575C23.8347 16.7241 23.8202 16.6927 23.7992 16.6658C23.7782 16.6388 23.7514 16.617 23.7207 16.602C23.69 16.587 23.6564 16.5792 23.6222 16.5792H20.2819V14.0093C20.2819 13.9077 20.3019 13.8072 20.3408 13.7133C20.3796 13.6195 20.4366 13.5342 20.5084 13.4624C20.5802 13.3906 20.6655 13.3336 20.7594 13.2947C20.8532 13.2559 20.9538 13.2359 21.0553 13.2359H23.6501C23.7739 13.2359 23.8747 13.1361 23.8747 13.0113V9.61811C23.8747 9.49435 23.7749 9.39355 23.6501 9.39355H21.0553Z" fill="white"/>
</svg>
