<svg width="79" height="89" viewBox="0 0 79 89" fill="none" xmlns="http://www.w3.org/2000/svg">
<path d="M78.4263 26.2092V63.3881C78.4263 65.8076 77.1379 68.0429 75.0438 69.2553L45.2568 86.4721L42.8826 87.8421C40.7885 89.0518 38.2089 89.0518 36.1148 87.8421L32.8736 85.9674L3.95094 69.2526C1.8595 68.0429 0.568359 65.805 0.568359 63.3855L0.568359 26.2092C0.568359 23.787 1.8595 21.5518 3.95094 20.3393L36.1148 1.75252C38.2062 0.542778 40.7858 0.542778 42.8826 1.75252L75.0438 20.3393C77.1379 21.5491 78.4263 23.787 78.4263 26.2092Z" fill="#37474F"/>
<path d="M57.6456 33.9245C55.8292 29.5924 50.7987 27.4875 46.3819 29.3335C45.4397 26.9923 43.8174 24.9873 41.7244 23.5772C39.6315 22.1672 37.1639 21.4168 34.6403 21.4229C27.6878 21.4229 22.0228 27.0504 21.9501 33.9948C19.7746 34.2998 17.7985 35.4263 16.4277 37.1428C15.0568 38.8594 14.3953 41.0357 14.5789 43.2247C14.9226 47.4489 18.6465 50.7581 23.0561 50.7581H23.0577C23.2696 50.7581 23.4729 50.6739 23.6228 50.5241C23.7726 50.3742 23.8568 50.1709 23.8568 49.959C23.8568 49.747 23.7726 49.5438 23.6228 49.3939C23.4729 49.2441 23.2696 49.1599 23.0577 49.1599H23.0561C19.4728 49.1599 16.4489 46.4956 16.1716 43.0953C16.0927 42.1594 16.203 41.2172 16.4959 40.3248C16.7889 39.4324 17.2585 38.6082 17.8768 37.9012C18.4951 37.1941 19.2493 36.6188 20.0947 36.2095C20.94 35.8002 21.8591 35.5653 22.7972 35.5187C23.0078 35.5082 23.2056 35.4148 23.3477 35.259C23.4898 35.1031 23.5645 34.8975 23.5556 34.6868C23.5476 34.5054 23.5476 34.3096 23.5476 34.129C23.5484 28.0037 28.5245 23.0203 34.6403 23.0203C36.9814 23.0147 39.2636 23.754 41.1568 25.1313C43.05 26.5086 44.4559 28.4524 45.1712 30.6816C45.2074 30.7937 45.268 30.8963 45.3485 30.9823C45.4291 31.0682 45.5276 31.1353 45.6371 31.1787C46.4338 31.4943 47.0052 30.2605 49.7039 30.2605C52.6982 30.2605 55.3617 32.1504 56.3326 34.9641C56.3867 35.1208 56.488 35.2568 56.6228 35.3533C56.7575 35.4498 56.9189 35.502 57.0846 35.5027C60.9508 35.5171 64.0962 38.6609 64.0962 42.5111C64.0962 42.7069 64.0882 42.9003 64.0722 43.0913C63.7949 46.4892 60.7718 49.1519 57.1909 49.1527C56.979 49.1527 56.7757 49.2369 56.6258 49.3867C56.476 49.5366 56.3918 49.7399 56.3918 49.9518C56.3918 50.1637 56.476 50.367 56.6258 50.5169C56.7757 50.6667 56.979 50.7509 57.1909 50.7509C61.5981 50.7501 65.3204 47.4425 65.6657 43.2207C65.6848 42.9866 65.6944 42.7492 65.6944 42.5111C65.6944 37.9689 62.1319 34.2265 57.6456 33.9245Z" fill="white"/>
<path d="M25.7137 62.2706C25.0278 62.2714 24.3702 62.5444 23.8853 63.0295C23.4003 63.5146 23.1276 64.1722 23.127 64.8582V69.9782C23.1274 70.6643 23.4 71.3221 23.885 71.8074C24.37 72.2927 25.0277 72.5657 25.7137 72.5666H54.5311C55.2171 72.5657 55.8748 72.2928 56.3599 71.8078C56.845 71.3227 57.1179 70.665 57.1187 69.979V64.859C57.1179 64.173 56.845 63.5153 56.3599 63.0302C55.8748 62.5451 55.2171 62.2722 54.5311 62.2714H52.3519V60.9448H54.5335C55.22 60.944 55.878 60.6709 56.3634 60.1855C56.8488 59.7002 57.1219 59.0421 57.1227 58.3557V53.2412C57.1221 52.5547 56.8491 51.8965 56.3636 51.4111C55.8782 50.9257 55.22 50.6527 54.5335 50.6521H52.3519V49.3151H54.5335C55.2194 49.3141 55.8769 49.0411 56.3618 48.556C56.8467 48.071 57.1195 47.4134 57.1203 46.7275V41.6115C57.1195 40.9255 56.8466 40.2678 56.3615 39.7827C55.8764 39.2977 55.2187 39.0248 54.5327 39.0239H25.7145C25.0285 39.0248 24.3709 39.2977 23.8858 39.7827C23.4007 40.2678 23.1278 40.9255 23.127 41.6115V46.7275C23.128 47.4134 23.401 48.0709 23.8861 48.5558C24.3711 49.0407 25.0287 49.3135 25.7145 49.3143H27.8978V50.6521H25.7161C25.0297 50.6529 24.3716 50.926 23.8862 51.4113C23.4009 51.8967 23.1278 52.5548 23.127 53.2412V58.3557C23.1278 59.0421 23.4009 59.7002 23.8862 60.1855C24.3716 60.6709 25.0297 60.944 25.7161 60.9448H27.8978V62.2714L25.7137 62.2706ZM24.7252 46.7267V41.6107C24.7256 41.3485 24.83 41.0971 25.0154 40.9116C25.2009 40.7262 25.4523 40.6218 25.7145 40.6214H54.5319C54.7943 40.6216 55.0459 40.7259 55.2315 40.9113C55.4171 41.0968 55.5216 41.3483 55.522 41.6107V46.7267C55.5216 46.9891 55.4171 47.2406 55.2315 47.4261C55.0459 47.6116 54.7943 47.7158 54.5319 47.7161H25.7145C25.4523 47.7156 25.2009 47.6113 25.0154 47.4258C24.83 47.2404 24.7256 46.989 24.7252 46.7267ZM55.5204 64.8582V69.9782C55.5202 70.2406 55.416 70.4922 55.2305 70.6778C55.045 70.8634 54.7935 70.9679 54.5311 70.9683H25.7137C25.4516 70.9679 25.2002 70.8635 25.0149 70.678C24.8296 70.4926 24.7254 70.2412 24.7252 69.979V64.859C24.7252 64.3132 25.1687 63.8696 25.7137 63.8696H54.5311C55.0769 63.8696 55.5204 64.3124 55.5204 64.8582ZM29.4968 49.3167H50.7536V50.6513H29.4968V49.3167ZM24.726 58.3549V53.2404C24.726 52.6938 25.1703 52.2495 25.7169 52.2495H54.5335C55.0793 52.2495 55.5244 52.6938 55.5244 53.2404V58.3549C55.5244 58.8919 55.0705 59.3458 54.5335 59.3458H25.7169C25.1703 59.3458 24.726 58.9015 24.726 58.3549ZM29.4968 60.944H50.7536V62.2706H29.4968V60.944Z" fill="white"/>
<path d="M29.7987 64.8076C28.3579 64.8076 27.1855 65.9799 27.1855 67.4208C27.1855 68.8616 28.3571 70.0339 29.7987 70.0339C31.2403 70.0339 32.4118 68.8616 32.4118 67.4208C32.4118 65.9799 31.2395 64.8076 29.7987 64.8076ZM29.7987 68.4357C29.2393 68.4357 28.7838 67.9802 28.7838 67.4208C28.7838 66.8614 29.2393 66.4059 29.7987 66.4059C30.3581 66.4059 30.8136 66.8614 30.8136 67.4208C30.8136 67.9802 30.3581 68.4357 29.7987 68.4357ZM51.2617 65.7985V69.0406C51.2617 69.2525 51.3459 69.4558 51.4958 69.6057C51.6456 69.7555 51.8489 69.8397 52.0608 69.8397C52.2728 69.8397 52.476 69.7555 52.6259 69.6057C52.7758 69.4558 52.86 69.2525 52.86 69.0406V65.7993C52.86 65.5874 52.7758 65.3841 52.6259 65.2343C52.476 65.0844 52.2728 65.0002 52.0608 65.0002C51.8489 65.0002 51.6456 65.0844 51.4958 65.2343C51.3459 65.3841 51.2617 65.5866 51.2617 65.7985ZM48.5487 64.9994C48.3367 64.9994 48.1335 65.0836 47.9836 65.2335C47.8337 65.3833 47.7495 65.5866 47.7495 65.7985V69.0406C47.7495 69.2525 47.8337 69.4558 47.9836 69.6057C48.1335 69.7555 48.3367 69.8397 48.5487 69.8397C48.7606 69.8397 48.9639 69.7555 49.1137 69.6057C49.2636 69.4558 49.3478 69.2525 49.3478 69.0406V65.7993C49.3478 65.5874 49.2636 65.3841 49.1137 65.2343C48.9639 65.0844 48.7606 64.9994 48.5487 64.9994ZM45.0325 65.001C44.8206 65.001 44.6173 65.0852 44.4674 65.2351C44.3176 65.3849 44.2334 65.5882 44.2334 65.8001V69.0414C44.2334 69.2533 44.3176 69.4566 44.4674 69.6065C44.6173 69.7563 44.8206 69.8405 45.0325 69.8405C45.2444 69.8405 45.4477 69.7563 45.5976 69.6065C45.7474 69.4566 45.8316 69.2533 45.8316 69.0414V65.7993C45.8316 65.5874 45.7474 65.3841 45.5976 65.2343C45.4477 65.0844 45.2444 65.001 45.0325 65.001ZM41.5187 65.001C41.3068 65.001 41.1035 65.0852 40.9537 65.2351C40.8038 65.3849 40.7196 65.5882 40.7196 65.8001V69.0414C40.7196 69.2533 40.8038 69.4566 40.9537 69.6065C41.1035 69.7563 41.3068 69.8405 41.5187 69.8405C41.7307 69.8405 41.9339 69.7563 42.0838 69.6065C42.2337 69.4566 42.3179 69.2533 42.3179 69.0414V65.7993C42.3179 65.5874 42.2337 65.3841 42.0838 65.2343C41.9339 65.0844 41.7307 65.001 41.5187 65.001ZM32.4118 55.7966C32.4118 52.3372 27.1855 52.342 27.1855 55.7966C27.1855 57.2375 28.3579 58.4098 29.7987 58.4098C31.2395 58.4098 32.4118 57.2375 32.4118 55.7966ZM28.7838 55.7966C28.7838 55.2372 29.2393 54.7817 29.7987 54.7817C30.3581 54.7817 30.8136 55.2372 30.8136 55.7966C30.8136 56.356 30.3581 56.8115 29.7987 56.8115C29.2393 56.8115 28.7838 56.356 28.7838 55.7966ZM52.0616 58.2164C52.2736 58.2164 52.4768 58.1322 52.6267 57.9823C52.7766 57.8325 52.8608 57.6292 52.8608 57.4173V54.176C52.8608 53.9641 52.7766 53.7608 52.6267 53.6109C52.4768 53.4611 52.2736 53.3769 52.0616 53.3769C51.8497 53.3769 51.6464 53.4611 51.4966 53.6109C51.3467 53.7608 51.2625 53.9641 51.2625 54.176V57.4173C51.2625 57.6292 51.3467 57.8325 51.4966 57.9823C51.6464 58.1322 51.8497 58.2164 52.0616 58.2164ZM48.5471 58.2164C48.759 58.2164 48.9623 58.1322 49.1121 57.9823C49.262 57.8325 49.3462 57.6292 49.3462 57.4173V54.176C49.3462 53.9641 49.262 53.7608 49.1121 53.6109C48.9623 53.4611 48.759 53.3769 48.5471 53.3769C48.3351 53.3769 48.1319 53.4611 47.982 53.6109C47.8321 53.7608 47.7479 53.9641 47.7479 54.176V57.4173C47.7479 57.6292 47.8321 57.8325 47.982 57.9823C48.1319 58.1322 48.3351 58.2164 48.5471 58.2164ZM45.0325 58.2164C45.2444 58.2164 45.4477 58.1322 45.5976 57.9823C45.7474 57.8325 45.8316 57.6292 45.8316 57.4173V54.176C45.8316 53.9641 45.7474 53.7608 45.5976 53.6109C45.4477 53.4611 45.2444 53.3769 45.0325 53.3769C44.8206 53.3769 44.6173 53.4611 44.4674 53.6109C44.3176 53.7608 44.2334 53.9641 44.2334 54.176V57.4173C44.2334 57.6292 44.3176 57.8325 44.4674 57.9823C44.6173 58.1322 44.8206 58.2164 45.0325 58.2164ZM41.5187 58.2164C41.7307 58.2164 41.9339 58.1322 42.0838 57.9823C42.2337 57.8325 42.3179 57.6292 42.3179 57.4173V54.176C42.3179 53.9641 42.2337 53.7608 42.0838 53.6109C41.9339 53.4611 41.7307 53.3769 41.5187 53.3769C41.3068 53.3769 41.1035 53.4611 40.9537 53.6109C40.8038 53.7608 40.7196 53.9641 40.7196 54.176V57.4173C40.7196 57.6292 40.8038 57.8325 40.9537 57.9823C41.1035 58.1322 41.3068 58.2164 41.5187 58.2164ZM29.7987 41.5562C28.3579 41.5562 27.1855 42.7293 27.1855 44.1693C27.1855 45.6093 28.3579 46.7825 29.7987 46.7825C31.2395 46.7825 32.4118 45.6109 32.4118 44.1693C32.4118 42.7277 31.2395 41.5562 29.7987 41.5562ZM29.7987 45.1842C29.2393 45.1842 28.7838 44.7295 28.7838 44.1693C28.7838 43.6099 29.2393 43.1544 29.7987 43.1544C30.3581 43.1544 30.8136 43.6099 30.8136 44.1693C30.8136 44.7295 30.3581 45.1842 29.7987 45.1842ZM52.0616 41.7503C51.8497 41.7503 51.6464 41.8345 51.4966 41.9844C51.3467 42.1343 51.2625 42.3375 51.2625 42.5495V45.7899C51.2625 46.0019 51.3467 46.2051 51.4966 46.355C51.6464 46.5049 51.8497 46.5891 52.0616 46.5891C52.2736 46.5891 52.4768 46.5049 52.6267 46.355C52.7766 46.2051 52.8608 46.0019 52.8608 45.7899V42.5495C52.8608 42.3375 52.7766 42.1343 52.6267 41.9844C52.4768 41.8345 52.2736 41.7503 52.0616 41.7503ZM48.5471 41.7503C48.3351 41.7503 48.1319 41.8345 47.982 41.9844C47.8321 42.1343 47.7479 42.3375 47.7479 42.5495V45.7899C47.7479 46.0019 47.8321 46.2051 47.982 46.355C48.1319 46.5049 48.3351 46.5891 48.5471 46.5891C48.759 46.5891 48.9623 46.5049 49.1121 46.355C49.262 46.2051 49.3462 46.0019 49.3462 45.7899V42.5495C49.3462 42.3375 49.262 42.1343 49.1121 41.9844C48.9623 41.8345 48.759 41.7503 48.5471 41.7503ZM45.0325 41.7503C44.8206 41.7503 44.6173 41.8345 44.4674 41.9844C44.3176 42.1343 44.2334 42.3375 44.2334 42.5495V45.7899C44.2334 46.0019 44.3176 46.2051 44.4674 46.355C44.6173 46.5049 44.8206 46.5891 45.0325 46.5891C45.2444 46.5891 45.4477 46.5049 45.5976 46.355C45.7474 46.2051 45.8316 46.0019 45.8316 45.7899V42.5495C45.8316 42.3375 45.7474 42.1343 45.5976 41.9844C45.4477 41.8345 45.2444 41.7503 45.0325 41.7503ZM41.5187 41.7503C41.3068 41.7503 41.1035 41.8345 40.9537 41.9844C40.8038 42.1343 40.7196 42.3375 40.7196 42.5495V45.7899C40.7196 46.0019 40.8038 46.2051 40.9537 46.355C41.1035 46.5049 41.3068 46.5891 41.5187 46.5891C41.7307 46.5891 41.9339 46.5049 42.0838 46.355C42.2337 46.2051 42.3179 46.0019 42.3179 45.7899V42.5495C42.3179 42.3375 42.2337 42.1343 42.0838 41.9844C41.9339 41.8345 41.7307 41.7503 41.5187 41.7503Z" fill="white"/>
</svg>
