<svg width="129" height="129" viewBox="0 0 129 129" fill="none" xmlns="http://www.w3.org/2000/svg">
<rect x="0.856934" y="0.612305" width="127.59" height="127.59" rx="63.795" fill="#1FED78" fill-opacity="0.13"/>
<path d="M64.6519 108.915C89.2331 108.915 109.16 88.9882 109.16 64.407C109.16 39.8259 89.2331 19.8989 64.6519 19.8989C40.0708 19.8989 20.1438 39.8259 20.1438 64.407C20.1438 88.9882 40.0708 108.915 64.6519 108.915Z" fill="#39BA77"/>
<path d="M109.139 65.4751L89.4445 45.7803L51.123 81.9654L76.4704 107.313C94.9858 102.239 108.672 85.4815 109.139 65.4751Z" fill="#1D9350"/>
<path d="M55.353 84.3239C54.2403 84.3239 53.1053 83.9011 52.2597 83.0554L39.8864 71.0382C38.1283 69.3247 38.0838 66.4984 39.7974 64.7403C41.5109 62.9823 44.3372 62.9378 46.0953 64.6513L55.3085 73.6197L83.1483 45.7799C84.8841 44.0441 87.7104 44.0441 89.4462 45.7799C91.182 47.5157 91.182 50.342 89.4462 52.0778L58.513 83.0332C57.6451 83.9011 56.5102 84.3239 55.353 84.3239Z" fill="white"/>
</svg>
