<svg width="114" height="58" viewBox="0 0 114 58" fill="none" xmlns="http://www.w3.org/2000/svg">
<mask id="mask0_2068_1656" style="mask-type:alpha" maskUnits="userSpaceOnUse" x="-1" y="-1" width="107" height="47">
<path d="M0 -0.3H-0.3V0V45V45.3H0H89C98.0022 45.3 105.3 38.0022 105.3 29V0V-0.3H105H0Z" fill="white" stroke="url(#paint0_linear_2068_1656)" strokeWidth="0.6"/>
</mask>
<g mask="url(#mask0_2068_1656)">
<g opacity="0.7">
<path d="M80.1808 1.67155L112.441 1.67155C112.485 1.86021 112.596 2.02628 112.754 2.1381C112.912 2.24992 113.106 2.29965 113.298 2.27781C113.491 2.25597 113.668 2.16408 113.797 2.01968C113.926 1.87528 113.997 1.68847 113.997 1.49488C113.997 1.30129 113.926 1.11448 113.797 0.970079C113.668 0.825676 113.491 0.733791 113.298 0.711949C113.106 0.690107 112.912 0.73984 112.754 0.851657C112.596 0.963474 112.485 1.12955 112.441 1.31821L80.036 1.31821L60.3369 21.0173L44.5918 21.0173L44.5918 21.3706L60.4924 21.3706L80.1808 1.67155Z" fill="#E5223A" fill-opacity="0.2"/>
<path d="M79.8872 41.3909C79.8438 41.2013 79.7321 41.0343 79.5734 40.9218C79.4147 40.8094 79.2201 40.7593 79.0268 40.7811C78.8335 40.803 78.6551 40.8952 78.5255 41.0403C78.3959 41.1854 78.3242 41.3731 78.3242 41.5676C78.3242 41.7621 78.3959 41.9498 78.5255 42.0949C78.6551 42.24 78.8335 42.3322 79.0268 42.3541C79.2201 42.3759 79.4147 42.3258 79.5734 42.2134C79.7321 42.1009 79.8438 41.9339 79.8872 41.7443L82.1805 41.7443L87.8057 47.3731L89.8092 47.3731C89.8526 47.5617 89.9639 47.7278 90.122 47.8396C90.28 47.9515 90.4737 48.0012 90.666 47.9793C90.8584 47.9575 91.0359 47.8656 91.1649 47.7212C91.2938 47.5768 91.3651 47.39 91.3651 47.1964C91.3651 47.0028 91.2938 46.816 91.1649 46.6716C91.0359 46.5272 90.8584 46.4353 90.666 46.4135C90.4737 46.3916 90.28 46.4414 90.122 46.5532C89.9639 46.665 89.8526 46.8311 89.8092 47.0197L87.9471 47.0197L82.3253 41.3909L79.8872 41.3909Z" fill="#E5223A" fill-opacity="0.2"/>
<path d="M74.478 45.631C74.36 45.6319 74.2438 45.6593 74.1379 45.7113C74.032 45.7633 73.9392 45.8385 73.8664 45.9313C73.7937 46.0241 73.7427 46.1321 73.7174 46.2473C73.6922 46.3625 73.6932 46.4819 73.7205 46.5967C73.7477 46.7115 73.8005 46.8186 73.8749 46.9101C73.9493 47.0017 74.0433 47.0752 74.1501 47.1254C74.2568 47.1755 74.3735 47.201 74.4915 47.1998C74.6094 47.1986 74.7256 47.1709 74.8313 47.1186L80.3753 52.6626L88.6295 52.6626L99.7175 41.5711L108.841 41.5711C108.884 41.7597 108.996 41.9258 109.154 42.0376C109.312 42.1494 109.505 42.1992 109.698 42.1773C109.89 42.1555 110.068 42.0636 110.197 41.9192C110.325 41.7748 110.397 41.588 110.397 41.3944C110.397 41.2008 110.325 41.014 110.197 40.8696C110.068 40.7252 109.89 40.6333 109.698 40.6115C109.505 40.5896 109.312 40.6393 109.154 40.7512C108.996 40.863 108.884 41.0291 108.841 41.2177L99.5691 41.2177L88.4811 52.3093L80.5166 52.3093L75.0998 46.8925C75.1874 46.776 75.241 46.6375 75.2546 46.4924C75.2681 46.3473 75.2412 46.2012 75.1768 46.0705C75.1123 45.9398 75.0129 45.8295 74.8895 45.7519C74.7662 45.6743 74.6237 45.6325 74.478 45.631Z" fill="#E5223A" fill-opacity="0.2"/>
<path d="M76.5083 43.5925C76.3596 43.5914 76.2137 43.6325 76.0874 43.7108C75.9611 43.7892 75.8595 43.9017 75.7944 44.0353C75.7293 44.169 75.7034 44.3183 75.7195 44.4661C75.7357 44.6138 75.7933 44.754 75.8857 44.8704C75.9782 44.9868 76.1017 45.0747 76.2419 45.1239C76.3822 45.1732 76.5335 45.1817 76.6784 45.1485C76.8234 45.1154 76.9559 45.042 77.0609 44.9367C77.1658 44.8314 77.2388 44.6986 77.2715 44.5536L79.3598 44.5536L84.1123 49.3061C84.0019 49.4452 83.942 49.6177 83.9423 49.7953C83.9427 49.9729 84.0033 50.1451 84.1143 50.2838C84.2252 50.4225 84.38 50.5194 84.5532 50.5587C84.7264 50.598 84.9078 50.5773 85.0678 50.5001C85.2277 50.4229 85.3567 50.2937 85.4337 50.1336C85.5107 49.9736 85.531 49.7921 85.4915 49.619C85.4519 49.4458 85.3547 49.2912 85.2159 49.1805C85.077 49.0697 84.9047 49.0093 84.7271 49.0093C84.6107 49.009 84.4958 49.0356 84.3914 49.087L79.5047 44.2179L77.2715 44.2179C77.2357 44.0417 77.1402 43.8833 77.0012 43.7694C76.8621 43.6554 76.688 43.5929 76.5083 43.5925Z" fill="#E5223A" fill-opacity="0.2"/>
<path d="M93.6989 44.8605C93.8066 44.8678 93.9146 44.8528 94.0162 44.8165C94.1179 44.7803 94.211 44.7236 94.2898 44.6499C94.3686 44.5761 94.4315 44.487 94.4744 44.388C94.5174 44.289 94.5396 44.1823 94.5396 44.0743C94.5396 43.9664 94.5174 43.8597 94.4744 43.7607C94.4315 43.6617 94.3686 43.5725 94.2898 43.4988C94.211 43.4251 94.1179 43.3684 94.0162 43.3321C93.9146 43.2959 93.8066 43.2809 93.6989 43.2881C93.5513 43.2878 93.4067 43.3295 93.2819 43.4083L91.0947 41.2175L86.8157 41.2175C86.7305 41.0452 86.5849 40.9102 86.4067 40.8381C86.2285 40.766 86.03 40.7619 85.849 40.8265C85.6679 40.8911 85.5169 41.0199 85.4245 41.1885C85.3322 41.3571 85.305 41.5538 85.3481 41.7411C85.3912 41.9285 85.5016 42.0935 85.6583 42.2048C85.815 42.3161 86.0072 42.366 86.1983 42.345C86.3893 42.324 86.5661 42.2336 86.6949 42.0909C86.8237 41.9482 86.8956 41.7631 86.897 41.5709L90.9498 41.5709L93.0346 43.6592C92.9568 43.7844 92.9152 43.9287 92.9144 44.0761C92.9154 44.2839 92.9983 44.4828 93.1452 44.6298C93.2921 44.7767 93.4911 44.8596 93.6989 44.8605Z" fill="#E5223A" fill-opacity="0.2"/>
<path d="M68.7736 38.5642L66.802 38.5642C66.7586 38.3755 66.6472 38.2094 66.4892 38.0976C66.3312 37.9858 66.1375 37.9361 65.9452 37.9579C65.7528 37.9798 65.5752 38.0716 65.4463 38.216C65.3174 38.3604 65.2461 38.5473 65.2461 38.7408C65.2461 38.9344 65.3174 39.1212 65.4463 39.2656C65.5752 39.41 65.7528 39.5019 65.9452 39.5238C66.1375 39.5456 66.3312 39.4959 66.4892 39.3841C66.6472 39.2723 66.7586 39.1062 66.802 38.9175L68.922 38.9175L74.5544 33.2887L78.5649 33.2887C78.6082 33.4764 78.7192 33.6416 78.8765 33.7527C79.0339 33.8639 79.2266 33.9132 79.418 33.8914C79.6094 33.8696 79.7861 33.7781 79.9144 33.6343C80.0427 33.4906 80.1136 33.3047 80.1136 33.112C80.1136 32.9194 80.0427 32.7335 79.9144 32.5897C79.7861 32.446 79.6094 32.3545 79.418 32.3327C79.2266 32.3108 79.0339 32.3602 78.8765 32.4713C78.7192 32.5825 78.6082 32.7477 78.5649 32.9354L74.406 32.9354L68.7736 38.5642Z" fill="#E5223A" fill-opacity="0.2"/>
<path d="M96.7032 27.1442L85.488 27.1442L83.3467 29.2891C83.221 29.2059 83.0735 29.1616 82.9227 29.1618C82.7669 29.1618 82.6145 29.2081 82.485 29.2946C82.3554 29.3812 82.2544 29.5043 82.1947 29.6483C82.1351 29.7923 82.1195 29.9507 82.1499 30.1035C82.1803 30.2564 82.2554 30.3968 82.3656 30.507C82.4757 30.6172 82.6161 30.6922 82.769 30.7226C82.9218 30.753 83.0803 30.7374 83.2243 30.6778C83.3682 30.6182 83.4913 30.5172 83.5779 30.3876C83.6645 30.258 83.7107 30.1057 83.7107 29.9498C83.7094 29.8041 83.6692 29.6613 83.5941 29.5364L85.6364 27.4941L96.5619 27.4941L99.6431 30.5752L112.445 30.5752C112.488 30.7639 112.6 30.93 112.758 31.0418C112.916 31.1536 113.109 31.2033 113.302 31.1815C113.494 31.1596 113.672 31.0678 113.8 30.9234C113.929 30.779 114.001 30.5921 114.001 30.3986C114.001 30.205 113.929 30.0182 113.8 29.8738C113.672 29.7294 113.494 29.6375 113.302 29.6156C113.109 29.5938 112.916 29.6435 112.758 29.7553C112.6 29.8672 112.488 30.0332 112.445 30.2219L99.7844 30.2219L96.7032 27.1442Z" fill="#E5223A" fill-opacity="0.2"/>
<path d="M74.2326 20.8477L66.1057 28.9746C65.9809 28.8958 65.8363 28.8541 65.6887 28.8545C65.5336 28.8545 65.3819 28.9005 65.2529 28.9867C65.1239 29.0729 65.0234 29.1954 64.964 29.3387C64.9046 29.4821 64.8891 29.6398 64.9194 29.7919C64.9496 29.9441 65.0243 30.0839 65.134 30.1936C65.2437 30.3033 65.3835 30.378 65.5357 30.4083C65.6879 30.4385 65.8456 30.423 65.9889 30.3636C66.1322 30.3043 66.2548 30.2037 66.341 30.0747C66.4271 29.9457 66.4732 29.7941 66.4732 29.6389C66.4724 29.4915 66.4308 29.3472 66.353 29.222L74.3704 21.201L82.9886 21.201L87.4018 16.7877C87.5369 16.8906 87.702 16.9465 87.8718 16.9467C88.0278 16.9474 88.1805 16.9018 88.3105 16.8156C88.4406 16.7295 88.5421 16.6067 88.6023 16.4628C88.6625 16.3188 88.6786 16.1603 88.6486 16.0072C88.6186 15.8541 88.5438 15.7134 88.4338 15.6028C88.3237 15.4923 88.1833 15.4169 88.0304 15.3862C87.8774 15.3555 87.7188 15.3709 87.5746 15.4304C87.4304 15.49 87.3072 15.591 87.2204 15.7206C87.1337 15.8503 87.0874 16.0028 87.0874 16.1587C87.088 16.2819 87.1183 16.4031 87.1757 16.5121L82.8508 20.8477L74.2326 20.8477Z" fill="#E5223A" fill-opacity="0.2"/>
<path d="M84.3217 9.78747L86.8128 7.29285C86.9761 7.39535 87.1714 7.43413 87.3615 7.40177C87.5516 7.36941 87.723 7.26817 87.8432 7.11741C87.9634 6.96664 88.0239 6.7769 88.013 6.5844C88.0022 6.3919 87.9208 6.21012 87.7845 6.07379C87.6482 5.93746 87.4664 5.85612 87.2739 5.84528C87.0814 5.83445 86.8917 5.89489 86.7409 6.01507C86.5901 6.13524 86.4889 6.30674 86.4565 6.49681C86.4242 6.68688 86.4629 6.8822 86.5654 7.0455L84.1945 9.43413L75.3926 9.43413L73.4104 11.4199C73.2859 11.3406 73.1411 11.2989 72.9934 11.2998C72.8383 11.2998 72.6866 11.3458 72.5576 11.432C72.4286 11.5182 72.3281 11.6407 72.2687 11.784C72.2093 11.9274 72.1938 12.0851 72.2241 12.2373C72.2543 12.3894 72.329 12.5292 72.4387 12.6389C72.5484 12.7486 72.6882 12.8233 72.8404 12.8536C72.9925 12.8838 73.1503 12.8683 73.2936 12.8089C73.4369 12.7496 73.5595 12.649 73.6456 12.52C73.7318 12.391 73.7778 12.2394 73.7778 12.0842C73.7788 11.9366 73.7371 11.7918 73.6577 11.6673L75.5375 9.78747L84.3217 9.78747Z" fill="#E5223A" fill-opacity="0.2"/>
<path d="M113.203 7.00351C113.025 7.00393 112.853 7.06463 112.715 7.17568C112.576 7.28673 112.479 7.44155 112.44 7.61481L99.7406 7.61481L94.1083 13.2295L77.1972 13.2295L60.3355 30.0841L46.1133 30.1159L46.1133 30.4692L60.4803 30.4339L77.342 13.5722L94.2532 13.5722L99.8678 7.95755L112.44 7.95755C112.473 8.10137 112.546 8.23289 112.651 8.33699C112.756 8.4411 112.887 8.51356 113.031 8.54606C113.175 8.57856 113.326 8.56977 113.465 8.52071C113.604 8.47164 113.727 8.3843 113.818 8.2687C113.91 8.15311 113.968 8.01395 113.984 7.86724C114 7.72053 113.975 7.57221 113.91 7.43933C113.846 7.30645 113.746 7.19439 113.621 7.11605C113.495 7.0377 113.351 6.99625 113.203 6.99645L113.203 7.00351Z" fill="#E5223A" fill-opacity="0.2"/>
<path d="M113.203 12.8687C113.026 12.8691 112.853 12.9298 112.715 13.0408C112.576 13.1519 112.479 13.3067 112.44 13.4799L107.734 13.4799L99.7409 21.4797L88.5539 21.4797C88.5105 21.291 88.3992 21.125 88.2411 21.0132C88.0831 20.9013 87.8895 20.8516 87.6971 20.8734C87.5048 20.8953 87.3272 20.9872 87.1982 21.1316C87.0693 21.276 86.998 21.4628 86.998 21.6564C86.998 21.85 87.0693 22.0368 87.1982 22.1812C87.3272 22.3256 87.5048 22.4175 87.6971 22.4393C87.8895 22.4611 88.0831 22.4114 88.2411 22.2996C88.3992 22.1878 88.5105 22.0217 88.5539 21.833L99.8822 21.833L107.868 13.8298L112.426 13.8298C112.459 13.9736 112.532 14.1051 112.637 14.2092C112.742 14.3133 112.874 14.3858 113.018 14.4183C113.162 14.4508 113.312 14.442 113.451 14.3929C113.59 14.3438 113.713 14.2565 113.805 14.1409C113.896 14.0253 113.954 13.8862 113.97 13.7394C113.986 13.5927 113.961 13.4444 113.896 13.3115C113.832 13.1787 113.732 13.0666 113.607 12.9883C113.481 12.9099 113.337 12.8685 113.189 12.8687L113.203 12.8687Z" fill="#E5223A" fill-opacity="0.2"/>
<path d="M113.204 23.3705C113.027 23.3708 112.855 23.431 112.717 23.5413C112.578 23.6517 112.481 23.8057 112.441 23.9783L76.8837 23.9783L68.103 32.759L45.6797 32.759L45.6797 33.1123L68.2656 33.1123L77.0462 24.3352L112.441 24.3352C112.475 24.4787 112.548 24.6097 112.653 24.7132C112.758 24.8168 112.89 24.8887 113.034 24.9207C113.178 24.9527 113.328 24.9435 113.467 24.8941C113.606 24.8448 113.728 24.7573 113.82 24.6417C113.911 24.5261 113.968 24.387 113.984 24.2405C114 24.094 113.975 23.9459 113.91 23.8132C113.846 23.6805 113.746 23.5686 113.621 23.4903C113.496 23.412 113.352 23.3705 113.204 23.3705Z" fill="#E5223A" fill-opacity="0.2"/>
<path d="M103.384 27.6672L108.836 27.6672C108.877 27.8568 108.987 28.0246 109.144 28.138C109.301 28.2514 109.495 28.3026 109.688 28.2815C109.881 28.2604 110.059 28.1686 110.188 28.0238C110.317 27.8791 110.388 27.6916 110.387 27.4976C110.391 27.3026 110.322 27.1132 110.194 26.9663C110.066 26.8194 109.887 26.7255 109.694 26.703C109.5 26.6805 109.305 26.731 109.146 26.8446C108.988 26.9582 108.877 27.1267 108.836 27.3174L103.384 27.3174C103.341 27.1287 103.229 26.9627 103.071 26.8508C102.913 26.739 102.72 26.6893 102.527 26.7111C102.335 26.733 102.157 26.8249 102.028 26.9693C101.899 27.1137 101.828 27.3005 101.828 27.4941C101.828 27.6876 101.899 27.8745 102.028 28.0189C102.157 28.1633 102.335 28.2551 102.527 28.277C102.72 28.2988 102.913 28.2491 103.071 28.1373C103.229 28.0255 103.341 27.8594 103.384 27.6707L103.384 27.6672Z" fill="#E5223A" fill-opacity="0.2"/>
<path d="M113.204 37.2853C113.025 37.2857 112.852 37.3468 112.713 37.4585C112.573 37.5702 112.476 37.7259 112.437 37.9001L77.2224 37.9001L71.901 43.2003C71.7532 43.1087 71.5793 43.0687 71.4063 43.0867C71.2334 43.1047 71.0714 43.1796 70.9457 43.2997C70.82 43.4198 70.7378 43.5782 70.7119 43.7501C70.686 43.922 70.7179 44.0977 70.8027 44.2494C70.8875 44.4012 71.0203 44.5205 71.1802 44.5886C71.3401 44.6568 71.5182 44.6698 71.6863 44.6258C71.8545 44.5817 72.0033 44.4831 72.1093 44.3453C72.2153 44.2075 72.2725 44.0384 72.272 43.8646C72.2706 43.7173 72.2291 43.5731 72.1518 43.4476L77.3672 38.2322L112.44 38.2322C112.474 38.3757 112.548 38.5067 112.653 38.6103C112.758 38.7139 112.89 38.7858 113.034 38.8178C113.177 38.8498 113.327 38.8406 113.466 38.7912C113.605 38.7419 113.728 38.6544 113.819 38.5388C113.91 38.4231 113.968 38.2841 113.984 38.1376C114 37.991 113.974 37.8429 113.91 37.7102C113.846 37.5775 113.745 37.4656 113.62 37.3873C113.495 37.3091 113.351 37.2676 113.204 37.2676L113.204 37.2853Z" fill="#E5223A" fill-opacity="0.2"/>
<path d="M113.203 49.0091C113.018 49.0098 112.838 49.0762 112.697 49.1964C112.555 49.3167 112.46 49.4831 112.43 49.6663L102.038 49.6663L94.1086 57.5954L80.1797 57.5954L60.5195 37.9458L60.4701 37.8963L45.043 37.8963L45.043 38.2497L60.3358 38.2497L79.9818 57.8993L80.0349 57.9487L94.2535 57.9487L102.183 50.0196L112.461 50.0196C112.503 50.1592 112.582 50.2845 112.69 50.3815C112.799 50.4786 112.932 50.5436 113.075 50.5692C113.219 50.5948 113.366 50.5801 113.502 50.5267C113.637 50.4732 113.755 50.3832 113.842 50.2666C113.929 50.1501 113.982 50.0116 113.995 49.8666C114.008 49.7216 113.98 49.576 113.915 49.4458C113.85 49.3157 113.75 49.2063 113.626 49.1298C113.502 49.0533 113.36 49.0127 113.214 49.0126L113.203 49.0091Z" fill="#E5223A" fill-opacity="0.2"/>
<path d="M77.4071 26.7094C77.2994 26.7022 77.1914 26.7172 77.0898 26.7534C76.9881 26.7896 76.895 26.8464 76.8162 26.9201C76.7373 26.9938 76.6745 27.0829 76.6315 27.1819C76.5886 27.2809 76.5664 27.3877 76.5664 27.4956C76.5664 27.6035 76.5886 27.7103 76.6315 27.8093C76.6745 27.9083 76.7373 27.9974 76.8162 28.0711C76.895 28.1448 76.9881 28.2016 77.0898 28.2378C77.1914 28.274 77.2994 28.289 77.4071 28.2818C77.5297 28.2833 77.6509 28.2555 77.7604 28.2005L82.7815 33.211L108.855 33.211C108.898 33.3996 109.01 33.5657 109.168 33.6775C109.326 33.7893 109.519 33.8391 109.712 33.8172C109.904 33.7954 110.082 33.7035 110.211 33.5591C110.34 33.4147 110.411 33.2279 110.411 33.0343C110.411 32.8407 110.34 32.6539 110.211 32.5095C110.082 32.3651 109.904 32.2732 109.712 32.2514C109.519 32.2295 109.326 32.2793 109.168 32.3911C109.01 32.5029 108.898 32.669 108.855 32.8576L82.9087 32.8576L78.0255 27.9638C78.1341 27.8273 78.1927 27.6577 78.1915 27.4832C78.1887 27.277 78.1049 27.0802 77.9581 26.9354C77.8113 26.7906 77.6133 26.7094 77.4071 26.7094Z" fill="#E5223A" fill-opacity="0.2"/>
<path d="M57.5974 16.9429C57.7007 16.9429 57.803 16.9225 57.8984 16.8828C57.9938 16.8432 58.0804 16.7851 58.1533 16.7119C58.2262 16.6387 58.2839 16.5518 58.3231 16.4562C58.3623 16.3606 58.3823 16.2582 58.3818 16.1549C58.3801 16.0314 58.3486 15.9102 58.2899 15.8016L69.2154 4.87964C69.3406 4.9574 69.485 4.99898 69.6324 4.99977C69.7885 5.00047 69.9413 4.95476 70.0715 4.86844C70.2016 4.78213 70.3031 4.6591 70.3632 4.51498C70.4233 4.37085 70.4392 4.21213 70.4089 4.05895C70.3786 3.90578 70.3035 3.76506 70.1931 3.65465C70.0826 3.54423 69.9419 3.46911 69.7887 3.43882C69.6356 3.40853 69.4768 3.42443 69.3327 3.48451C69.1886 3.54458 69.0656 3.64613 68.9793 3.77625C68.8929 3.90637 68.8472 4.0592 68.8479 4.21534C68.8476 4.36291 68.8893 4.50753 68.9681 4.63229L58.0461 15.5224C57.9464 15.4481 57.8303 15.3985 57.7076 15.3779C57.5849 15.3572 57.459 15.366 57.3404 15.4036C57.2218 15.4412 57.1138 15.5065 57.0254 15.5941C56.937 15.6816 56.8707 15.789 56.8319 15.9073C56.7932 16.0255 56.7832 16.1513 56.8026 16.2742C56.8221 16.3971 56.8706 16.5136 56.944 16.6141C57.0174 16.7146 57.1136 16.7962 57.2248 16.8521C57.3359 16.908 57.4588 16.9367 57.5833 16.9358L57.5974 16.9429Z" fill="#E5223A" fill-opacity="0.2"/>
<path d="M94.2187 15.95L91.8194 18.3492C91.7091 18.2966 91.5883 18.27 91.4661 18.2715C91.2886 18.2724 91.1167 18.3334 90.9784 18.4446C90.8401 18.5558 90.7436 18.7106 90.7047 18.8837C90.6657 19.0569 90.6866 19.2381 90.764 19.3978C90.8413 19.5575 90.9705 19.6863 91.1305 19.7631C91.2905 19.8399 91.4718 19.8602 91.6448 19.8206C91.8178 19.7811 91.9723 19.684 92.083 19.5453C92.1937 19.4067 92.2541 19.2345 92.2544 19.0571C92.2547 18.8796 92.1947 18.7073 92.0844 18.5683L94.3529 16.2998L99.8828 16.2998L104.656 11.5226C104.781 11.6019 104.926 11.6436 105.073 11.6427C105.229 11.6427 105.38 11.5967 105.509 11.5105C105.638 11.4243 105.739 11.3018 105.798 11.1585C105.858 11.0151 105.873 10.8574 105.843 10.7052C105.813 10.5531 105.738 10.4133 105.628 10.3036C105.518 10.1939 105.379 10.1192 105.226 10.0889C105.074 10.0587 104.917 10.0742 104.773 10.1336C104.63 10.1929 104.507 10.2935 104.421 10.4225C104.335 10.5515 104.289 10.7031 104.289 10.8583C104.288 11.0059 104.33 11.1507 104.409 11.2752L99.7415 15.95L94.2187 15.95Z" fill="#E5223A" fill-opacity="0.2"/>
<path d="M33.3122 53.7934L2.4863 53.7934C2.44505 53.6131 2.33883 53.4543 2.18792 53.3473C2.03702 53.2403 1.85199 53.1926 1.66817 53.2134C1.48435 53.2341 1.31462 53.3219 1.19137 53.4598C1.06813 53.5977 1 53.7763 1 53.9612C1 54.1462 1.06813 54.3247 1.19137 54.4627C1.31462 54.6006 1.48435 54.6884 1.66817 54.7091C1.85199 54.7299 2.03702 54.6822 2.18792 54.5752C2.33883 54.4682 2.44505 54.3094 2.4863 54.1291L33.4606 54.1291L52.2869 35.3028L67.3359 35.3028L67.3359 34.9494L52.142 34.9494L33.3122 53.7934Z" fill="#E5223A" fill-opacity="0.2"/>
<path d="M33.6021 15.8336C33.6434 16.0148 33.75 16.1746 33.9016 16.2822C34.0532 16.3899 34.2391 16.4379 34.4239 16.4171C34.6086 16.3964 34.7793 16.3083 34.9032 16.1697C35.0271 16.031 35.0956 15.8516 35.0956 15.6657C35.0956 15.4798 35.0271 15.3004 34.9032 15.1618C34.7793 15.0232 34.6086 14.935 34.4239 14.9143C34.2391 14.8935 34.0532 14.9415 33.9016 15.0492C33.75 15.1569 33.6434 15.3166 33.6021 15.4979L31.4114 15.4979L26.0334 10.1199L24.1254 10.1199C24.0845 9.93936 23.9785 9.78017 23.8277 9.67282C23.6769 9.56547 23.4917 9.51749 23.3077 9.53804C23.1237 9.5586 22.9538 9.64624 22.8303 9.78424C22.7069 9.92223 22.6387 10.1009 22.6387 10.286C22.6387 10.4712 22.7069 10.6498 22.8303 10.7878C22.9538 10.9258 23.1237 11.0134 23.3077 11.034C23.4917 11.0545 23.6769 11.0066 23.8277 10.8992C23.9785 10.7919 24.0845 10.6327 24.1254 10.4521L25.8921 10.4521L31.2736 15.8336L33.6021 15.8336Z" fill="#E5223A" fill-opacity="0.2"/>
<path d="M38.7751 11.784C38.8901 11.7851 39.0038 11.7598 39.1074 11.7101C39.2111 11.6604 39.302 11.5876 39.3732 11.4973C39.4443 11.4071 39.4939 11.3017 39.518 11.1893C39.5421 11.0769 39.5401 10.9604 39.5122 10.8489C39.4844 10.7374 39.4313 10.6337 39.3571 10.5459C39.283 10.458 39.1897 10.3884 39.0844 10.3422C38.9791 10.296 38.8646 10.2746 38.7498 10.2795C38.6349 10.2844 38.5227 10.3156 38.4218 10.3706L33.1216 5.07045L25.2526 5.07045L14.6522 15.6708L5.93161 15.6708C5.89036 15.4905 5.78414 15.3317 5.63324 15.2247C5.48233 15.1177 5.2973 15.07 5.11349 15.0908C4.92967 15.1116 4.75994 15.1993 4.63669 15.3372C4.51344 15.4752 4.44531 15.6537 4.44531 15.8387C4.44531 16.0237 4.51344 16.2022 4.63669 16.3401C4.75994 16.4781 4.92967 16.5658 5.11349 16.5866C5.2973 16.6073 5.48233 16.5596 5.63324 16.4527C5.78414 16.3457 5.89036 16.1868 5.93161 16.0065L14.79 16.0065L25.3904 5.40613L33.0015 5.40613L38.178 10.5827C38.0778 10.7149 38.0233 10.8761 38.0225 11.042C38.0253 11.2398 38.1058 11.4285 38.2467 11.5673C38.3875 11.7062 38.5774 11.784 38.7751 11.784Z" fill="#E5223A" fill-opacity="0.2"/>
<path d="M36.8454 13.7277C36.9484 13.7348 37.0516 13.7206 37.1489 13.6861C37.2461 13.6515 37.3352 13.5974 37.4106 13.527C37.486 13.4566 37.5462 13.3714 37.5873 13.2768C37.6284 13.1821 37.6496 13.08 37.6496 12.9769C37.6496 12.8737 37.6284 12.7716 37.5873 12.677C37.5462 12.5823 37.486 12.4972 37.4106 12.4268C37.3352 12.3563 37.2461 12.3022 37.1489 12.2676C37.0516 12.2331 36.9484 12.2189 36.8454 12.226C36.6753 12.2251 36.51 12.2825 36.3769 12.3886C36.2439 12.4946 36.1511 12.643 36.114 12.809L34.1176 12.809L29.5736 8.265C29.6828 8.13292 29.7416 7.96641 29.7396 7.79505C29.7396 7.64619 29.6955 7.50068 29.6128 7.37691C29.5301 7.25314 29.4125 7.15668 29.275 7.09971C29.1375 7.04275 28.9862 7.02784 28.8402 7.05688C28.6942 7.08592 28.5601 7.1576 28.4548 7.26285C28.3496 7.36811 28.2779 7.50222 28.2488 7.64821C28.2198 7.79421 28.2347 7.94554 28.2917 8.08306C28.3486 8.22059 28.4451 8.33814 28.5689 8.42084C28.6926 8.50354 28.8381 8.54767 28.987 8.54767C29.0995 8.54697 29.2104 8.52164 29.3121 8.47347L33.9657 13.1235L36.0857 13.1235C36.12 13.298 36.2153 13.4546 36.3545 13.5653C36.4937 13.676 36.6677 13.7336 36.8454 13.7277Z" fill="#E5223A" fill-opacity="0.2"/>
<path d="M20.3984 12.5155C20.2081 12.5286 20.0299 12.6134 19.8998 12.7527C19.7696 12.8921 19.6973 13.0757 19.6973 13.2664C19.6973 13.4571 19.7696 13.6406 19.8998 13.78C20.0299 13.9194 20.2081 14.0042 20.3984 14.0172C20.5399 14.0176 20.6785 13.9771 20.7976 13.9006L22.893 15.996L26.9812 15.996C27.06 16.1409 27.1842 16.256 27.3348 16.3234C27.4854 16.3909 27.654 16.4069 27.8146 16.3692C27.9752 16.3315 28.119 16.242 28.2238 16.1145C28.3286 15.9871 28.3886 15.8287 28.3946 15.6638C28.4016 15.5609 28.3875 15.4576 28.3529 15.3604C28.3184 15.2631 28.2642 15.1741 28.1938 15.0986C28.1234 15.0232 28.0382 14.9631 27.9436 14.922C27.849 14.8809 27.7469 14.8597 27.6437 14.8597C27.5405 14.8597 27.4385 14.8809 27.3438 14.922C27.2492 14.9631 27.164 15.0232 27.0936 15.0986C27.0232 15.1741 26.969 15.2631 26.9345 15.3604C26.9 15.4576 26.8858 15.5609 26.8929 15.6638L23.006 15.6638L21.0096 13.6674C21.087 13.55 21.1276 13.4123 21.1262 13.2717C21.1273 13.0757 21.0518 12.887 20.9159 12.7458C20.7799 12.6046 20.5943 12.5219 20.3984 12.5155Z" fill="#E5223A" fill-opacity="0.2"/>
<path d="M44.2241 18.5187L46.1075 18.5187C46.1507 18.6978 46.2581 18.8547 46.4093 18.9599C46.5606 19.0651 46.7451 19.1112 46.928 19.0894C47.1109 19.0676 47.2795 18.9795 47.4018 18.8418C47.5241 18.704 47.5917 18.5262 47.5917 18.342C47.5917 18.1578 47.5241 17.98 47.4018 17.8423C47.2795 17.7045 47.1109 17.6164 46.928 17.5947C46.7451 17.5729 46.5606 17.619 46.4093 17.7241C46.2581 17.8293 46.1507 17.9863 46.1075 18.1654L44.0828 18.1654L38.7013 23.5468L34.8711 23.5468C34.8298 23.3665 34.7236 23.2077 34.5727 23.1007C34.4218 22.9937 34.2368 22.946 34.0529 22.9668C33.8691 22.9875 33.6994 23.0753 33.5761 23.2132C33.4529 23.3512 33.3848 23.5297 33.3848 23.7147C33.3848 23.8996 33.4529 24.0781 33.5761 24.2161C33.6994 24.354 33.8691 24.4418 34.0529 24.4625C34.2368 24.4833 34.4218 24.4356 34.5727 24.3286C34.7236 24.2216 34.8298 24.0628 34.8711 23.8825L38.8427 23.8825L44.2241 18.5187Z" fill="#E5223A" fill-opacity="0.2"/>
<path d="M17.5281 29.4478L28.2486 29.4478L30.2945 27.3983C30.4356 27.4861 30.6018 27.5245 30.767 27.5075C30.9322 27.4905 31.0871 27.419 31.2073 27.3043C31.3275 27.1897 31.4062 27.0383 31.431 26.8741C31.4558 26.7098 31.4252 26.542 31.3442 26.397C31.2632 26.252 31.1363 26.138 30.9834 26.073C30.8306 26.008 30.6604 25.9956 30.4998 26.0378C30.3391 26.0801 30.1971 26.1745 30.096 26.3063C29.9948 26.4381 29.9404 26.5997 29.9412 26.7659C29.9413 26.9046 29.9805 27.0406 30.0542 27.1581L28.1002 29.1121L17.6659 29.1121L14.7226 26.1687L2.48618 26.1687C2.44294 25.9896 2.33553 25.8327 2.18431 25.7275C2.03308 25.6223 1.84853 25.5763 1.66562 25.598C1.48271 25.6198 1.31413 25.7079 1.19182 25.8456C1.06951 25.9834 1.00195 26.1612 1.00195 26.3454C1.00195 26.5296 1.06951 26.7074 1.19182 26.8451C1.31413 26.9829 1.48271 27.071 1.66562 27.0927C1.84853 27.1145 2.03308 27.0684 2.18431 26.9633C2.33553 26.8581 2.44294 26.7011 2.48618 26.522L14.5848 26.522L17.5281 29.4478Z" fill="#E5223A" fill-opacity="0.2"/>
<path d="M39.0044 35.4653L46.778 27.6917C46.8971 27.7682 47.0357 27.8087 47.1773 27.8083C47.3261 27.8083 47.4716 27.7641 47.5954 27.6814C47.7192 27.5987 47.8157 27.4812 47.8726 27.3437C47.9296 27.2061 47.9445 27.0548 47.9154 26.9088C47.8864 26.7628 47.8147 26.6287 47.7095 26.5235C47.6042 26.4182 47.4701 26.3465 47.3241 26.3175C47.1781 26.2884 47.0268 26.3033 46.8893 26.3603C46.7517 26.4173 46.6342 26.5137 46.5515 26.6375C46.4688 26.7613 46.4247 26.9068 46.4247 27.0556C46.4243 27.1972 46.4647 27.3358 46.5413 27.4549L38.8772 35.119L30.6301 35.119L26.4111 39.338C26.2811 39.242 26.1239 39.19 25.9624 39.1896C25.8001 39.1904 25.6424 39.2442 25.5135 39.3428C25.3845 39.4414 25.2913 39.5793 25.2479 39.7357C25.2044 39.8921 25.2133 40.0584 25.273 40.2094C25.3327 40.3603 25.4401 40.4876 25.5787 40.572C25.7174 40.6564 25.8798 40.6932 26.0413 40.6769C26.2028 40.6605 26.3546 40.5919 26.4735 40.4815C26.5925 40.3711 26.6721 40.2248 26.7004 40.065C26.7287 39.9051 26.704 39.7404 26.6302 39.5959L30.7679 35.4547L39.0044 35.4653Z" fill="#E5223A" fill-opacity="0.2"/>
<path d="M29.3616 46.0374L26.98 48.419C26.8602 48.3441 26.722 48.3037 26.5808 48.3024C26.4319 48.3024 26.2864 48.3465 26.1626 48.4292C26.0388 48.5119 25.9424 48.6294 25.8854 48.767C25.8284 48.9045 25.8135 49.0558 25.8426 49.2018C25.8716 49.3478 25.9433 49.4819 26.0486 49.5872C26.1538 49.6924 26.2879 49.7641 26.4339 49.7932C26.5799 49.8222 26.7312 49.8073 26.8688 49.7503C27.0063 49.6934 27.1238 49.5969 27.2065 49.4731C27.2892 49.3494 27.3334 49.2038 27.3334 49.055C27.3334 48.9135 27.2929 48.775 27.2168 48.6557L29.4994 46.3731L37.9055 46.3731L39.803 44.4756C39.9221 44.5521 40.0607 44.5926 40.2023 44.5922C40.3513 44.5922 40.4969 44.548 40.6208 44.4651C40.7446 44.3823 40.8411 44.2645 40.8979 44.1268C40.9548 43.9891 40.9695 43.8376 40.9401 43.6915C40.9108 43.5454 40.8388 43.4113 40.7332 43.3062C40.6276 43.201 40.4931 43.1296 40.3469 43.101C40.2007 43.0724 40.0492 43.0878 39.9118 43.1453C39.7743 43.2028 39.657 43.2998 39.5747 43.424C39.4925 43.5483 39.4489 43.6941 39.4496 43.8431C39.4483 43.9837 39.4889 44.1215 39.5662 44.2389L37.7677 46.0374L29.3616 46.0374Z" fill="#E5223A" fill-opacity="0.2"/>
<path d="M1.75503 48.6982C1.92501 48.6985 2.09001 48.6409 2.22292 48.5349C2.35584 48.429 2.44878 48.281 2.48646 48.1152L14.6416 48.1152L20.0089 42.7479L36.171 42.7479L52.2906 26.6318L65.8803 26.6L65.8803 26.2643L52.1493 26.2961L36.0331 42.4122L19.8852 42.4122L14.5179 47.7795L2.50412 47.7795C2.47224 47.6424 2.40236 47.517 2.30248 47.4178C2.2026 47.3185 2.07677 47.2494 1.93942 47.2184C1.80207 47.1874 1.65877 47.1958 1.52594 47.2425C1.39312 47.2892 1.27614 47.3724 1.18844 47.4826C1.10074 47.5927 1.04586 47.7254 1.0301 47.8653C1.01434 48.0052 1.03833 48.1467 1.09932 48.2736C1.16031 48.4005 1.25584 48.5077 1.37494 48.5828C1.49404 48.6579 1.6319 48.6979 1.7727 48.6982L1.75503 48.6982Z" fill="#E5223A" fill-opacity="0.2"/>
<path d="M1.75512 43.0903C1.9251 43.0906 2.09009 43.033 2.22301 42.927C2.35593 42.8211 2.44886 42.6731 2.48655 42.5073L6.98465 42.5073L14.6311 34.8609L25.3162 34.8609C25.3595 35.04 25.4669 35.1969 25.6181 35.3021C25.7693 35.4073 25.9539 35.4533 26.1368 35.4316C26.3197 35.4098 26.4883 35.3217 26.6106 35.184C26.7329 35.0462 26.8005 34.8684 26.8005 34.6842C26.8005 34.5 26.7329 34.3222 26.6106 34.1845C26.4883 34.0467 26.3197 33.9586 26.1368 33.9369C25.9539 33.9151 25.7693 33.9612 25.6181 34.0663C25.4669 34.1715 25.3595 34.3285 25.3162 34.5076L14.4897 34.5076L6.8433 42.154L2.48655 42.154C2.45467 42.0168 2.38478 41.8914 2.2849 41.7922C2.18502 41.6929 2.05919 41.6239 1.92184 41.5929C1.78449 41.5619 1.64119 41.5702 1.50836 41.6169C1.37553 41.6636 1.25856 41.7468 1.17086 41.857C1.08316 41.9671 1.02829 42.0998 1.01252 42.2397C0.996759 42.3796 1.02075 42.5212 1.08174 42.6481C1.14273 42.775 1.23826 42.8821 1.35736 42.9572C1.47646 43.0323 1.61432 43.0723 1.75512 43.0727L1.75512 43.0903Z" fill="#E5223A" fill-opacity="0.2"/>
<path d="M1.75512 33.0415C1.92526 33.0424 2.09059 32.985 2.22363 32.879C2.35668 32.7729 2.44946 32.6245 2.48655 32.4585L36.4926 32.4585L44.8634 24.0771L66.315 24.0771L66.315 23.7238L44.7256 23.7238L36.3336 32.1122L2.48655 32.1122C2.45467 31.9751 2.38478 31.8497 2.2849 31.7504C2.18502 31.6512 2.05919 31.5821 1.92184 31.5511C1.78449 31.5201 1.64119 31.5284 1.50836 31.5751C1.37553 31.6219 1.25856 31.7051 1.17086 31.8152C1.08316 31.9254 1.02829 32.058 1.01252 32.1979C0.996759 32.3379 1.02075 32.4794 1.08174 32.6063C1.14273 32.7332 1.23826 32.8403 1.35736 32.9154C1.47646 32.9905 1.61432 33.0306 1.75512 33.0309L1.75512 33.0415Z" fill="#E5223A" fill-opacity="0.2"/>
<path d="M11.1441 28.9462L5.93227 28.9462C5.89103 28.7669 5.7852 28.609 5.63498 28.5026C5.48475 28.3963 5.30064 28.349 5.11776 28.3697C4.93489 28.3905 4.76605 28.4779 4.64347 28.6151C4.52088 28.7524 4.45312 28.93 4.45312 29.1141C4.45312 29.2981 4.52088 29.4757 4.64347 29.613C4.76605 29.7503 4.93489 29.8376 5.11776 29.8584C5.30064 29.8791 5.48475 29.8318 5.63498 29.7255C5.7852 29.6192 5.89103 29.4613 5.93227 29.2819L11.1441 29.2819C11.1854 29.4622 11.2916 29.6211 11.4425 29.728C11.5934 29.835 11.7784 29.8827 11.9622 29.8619C12.1461 29.8412 12.3158 29.7535 12.4391 29.6155C12.5623 29.4776 12.6304 29.2991 12.6304 29.1141C12.6304 28.9291 12.5623 28.7506 12.4391 28.6126C12.3158 28.4747 12.1461 28.387 11.9622 28.3662C11.7784 28.3454 11.5934 28.3931 11.4425 28.5001C11.2916 28.6071 11.1854 28.7659 11.1441 28.9462Z" fill="#E5223A" fill-opacity="0.2"/>
<path d="M1.75429 19.7559C1.92519 19.7561 2.09107 19.6981 2.22465 19.5915C2.35822 19.4849 2.45154 19.336 2.48925 19.1693L36.1384 19.1693L41.2231 14.0846C41.3645 14.1732 41.5315 14.2122 41.6975 14.1955C41.8636 14.1788 42.0194 14.1074 42.1405 13.9925C42.2615 13.8776 42.341 13.7257 42.3663 13.5608C42.3916 13.3958 42.3613 13.2271 42.2803 13.0812C42.1992 12.9353 42.0719 12.8204 41.9185 12.7547C41.765 12.6891 41.5941 12.6763 41.4326 12.7183C41.2711 12.7604 41.1281 12.855 41.0262 12.9872C40.9243 13.1194 40.8693 13.2817 40.8697 13.4486C40.8697 13.5901 40.9102 13.7286 40.9863 13.8479L36.0006 18.8336L2.48572 18.8336C2.45322 18.6968 2.38287 18.5719 2.28271 18.4732C2.18256 18.3745 2.05665 18.306 1.91938 18.2755C1.78212 18.245 1.63904 18.2538 1.50652 18.3008C1.37399 18.3478 1.25737 18.4311 1.16999 18.5413C1.08262 18.6515 1.02801 18.784 1.01243 18.9237C0.996843 19.0635 1.02091 19.2048 1.08186 19.3315C1.14282 19.4582 1.23821 19.5652 1.35713 19.6403C1.47604 19.7153 1.61368 19.7554 1.75429 19.7559Z" fill="#E5223A" fill-opacity="0.2"/>
<path d="M1.75452 8.52983C1.93211 8.52989 2.104 8.46714 2.23979 8.35269C2.37559 8.23823 2.46653 8.07945 2.49655 7.90441L12.4291 7.90441L20.0084 0.325133L33.3119 0.325133L52.0993 19.1302L52.1488 19.1797L66.9045 19.1797L66.9045 18.8263L52.2866 18.8263L33.5097 0.0495231L33.4603 4.94504e-05L19.8847 5.00438e-05L12.3054 7.57933L2.47535 7.57933C2.43585 7.44553 2.35976 7.32542 2.25567 7.23253C2.15158 7.13964 2.02362 7.07766 1.88621 7.05358C1.74879 7.0295 1.60738 7.04427 1.4779 7.09623C1.34843 7.14819 1.23604 7.23528 1.1534 7.34767C1.07075 7.46007 1.02114 7.59331 1.01014 7.73239C0.999147 7.87147 1.02721 8.01085 1.09116 8.13484C1.15512 8.25883 1.25243 8.36249 1.37213 8.43415C1.49183 8.50581 1.62916 8.54262 1.76865 8.54043L1.75452 8.52983Z" fill="#E5223A" fill-opacity="0.2"/>
<path d="M35.9735 29.861C36.0764 29.8681 36.1797 29.8539 36.277 29.8194C36.3742 29.7848 36.4633 29.7307 36.5387 29.6603C36.6141 29.5899 36.6742 29.5047 36.7153 29.4101C36.7565 29.3154 36.7777 29.2133 36.7777 29.1102C36.7777 29.007 36.7565 28.9049 36.7153 28.8103C36.6742 28.7156 36.6141 28.6305 36.5387 28.5601C36.4633 28.4896 36.3742 28.4355 36.277 28.4009C36.1797 28.3664 36.0764 28.3522 35.9735 28.3593C35.8594 28.3595 35.747 28.3861 35.6449 28.437L30.8394 23.6492L5.93201 23.6492C5.89116 23.4686 5.78518 23.3094 5.63434 23.2021C5.4835 23.0947 5.29838 23.0467 5.11439 23.0673C4.93039 23.0879 4.76042 23.1755 4.63698 23.3135C4.51355 23.4515 4.44531 23.6301 4.44531 23.8153C4.44531 24.0004 4.51355 24.1791 4.63698 24.3171C4.76042 24.455 4.93039 24.5427 5.11439 24.5632C5.29838 24.5838 5.4835 24.5358 5.63434 24.4285C5.78518 24.3211 5.89116 24.1619 5.93201 23.9813L30.7157 23.9813L35.3834 28.649C35.2776 28.78 35.2202 28.9435 35.2209 29.1119C35.2218 29.3109 35.3015 29.5015 35.4426 29.6418C35.5836 29.7822 35.7745 29.861 35.9735 29.861Z" fill="#E5223A" fill-opacity="0.2"/>
<path d="M54.906 39.2002C54.7073 39.2002 54.5168 39.2792 54.3763 39.4196C54.2358 39.5601 54.1569 39.7507 54.1569 39.9493C54.1563 40.0722 54.1854 40.1934 54.2417 40.3027L43.8003 50.7476C43.683 50.6702 43.5452 50.6296 43.4046 50.631C43.2554 50.6303 43.1094 50.6739 42.9851 50.7564C42.8608 50.8388 42.7638 50.9563 42.7064 51.094C42.649 51.2316 42.6338 51.3832 42.6627 51.5296C42.6917 51.6759 42.7634 51.8103 42.8689 51.9158C42.9743 52.0213 43.1088 52.093 43.2551 52.1219C43.4014 52.1509 43.553 52.1357 43.6907 52.0783C43.8284 52.0209 43.9459 51.9238 44.0283 51.7995C44.1107 51.6752 44.1544 51.5292 44.1537 51.3801C44.153 51.2392 44.114 51.1011 44.0406 50.9808L54.4643 40.5571C54.5917 40.6529 54.7466 40.705 54.906 40.7055C55.0089 40.7126 55.1122 40.6984 55.2095 40.6638C55.3067 40.6293 55.3958 40.5751 55.4712 40.5047C55.5466 40.4343 55.6067 40.3491 55.6479 40.2545C55.689 40.1599 55.7102 40.0578 55.7102 39.9546C55.7102 39.8514 55.689 39.7494 55.6479 39.6547C55.6067 39.5601 55.5466 39.4749 55.4712 39.4045C55.3958 39.3341 55.3067 39.2799 55.2095 39.2454C55.1122 39.2109 55.0089 39.1967 54.906 39.2038L54.906 39.2002Z" fill="#E5223A" fill-opacity="0.2"/>
<path d="M19.9038 40.1507L22.2006 37.8575C22.3022 37.9057 22.4132 37.931 22.5257 37.9317C22.6745 37.9317 22.82 37.8876 22.9438 37.8049C23.0676 37.7222 23.164 37.6046 23.221 37.4671C23.278 37.3296 23.2929 37.1783 23.2638 37.0323C23.2348 36.8863 23.1631 36.7522 23.0579 36.6469C22.9526 36.5416 22.8185 36.47 22.6725 36.4409C22.5265 36.4119 22.3752 36.4268 22.2376 36.4838C22.1001 36.5407 21.9826 36.6372 21.8999 36.761C21.8172 36.8847 21.773 37.0302 21.773 37.1791C21.7724 37.3486 21.8297 37.5132 21.9356 37.6455L19.766 39.815L14.4906 39.815L9.92887 44.3803C9.80856 44.3069 9.6705 44.2678 9.52959 44.2672C9.38044 44.2665 9.23443 44.3102 9.11013 44.3926C8.98582 44.475 8.88881 44.5925 8.83141 44.7302C8.774 44.8679 8.7588 45.0195 8.78773 45.1658C8.81666 45.3121 8.88841 45.4466 8.99388 45.552C9.09935 45.6575 9.23377 45.7292 9.3801 45.7582C9.52642 45.7871 9.67804 45.7719 9.81571 45.7145C9.95338 45.6571 10.0709 45.5601 10.1533 45.4358C10.2357 45.3115 10.2794 45.1655 10.2787 45.0163C10.278 44.8754 10.239 44.7373 10.1656 44.617L14.6319 40.1507L19.9038 40.1507Z" fill="#E5223A" fill-opacity="0.2"/>
</g>
</g>
<defs>
<linearGradient id="paint0_linear_2068_1656" x1="0" y1="0" x2="83.4836" y2="69.6484" gradientUnits="userSpaceOnUse">
<stop stop-color="#CDC9C9" stop-opacity="0.2"/>
<stop offset="1" stop-color="#CCC8C8" stop-opacity="0.2"/>
</linearGradient>
</defs>
</svg>
