<svg width="78" height="88" viewBox="0 0 78 88" fill="none" xmlns="http://www.w3.org/2000/svg">
<path d="M77.7692 25.335V62.4716C77.7692 64.8883 76.4822 67.121 74.3905 68.332L44.6375 85.5292L42.266 86.8977C40.1743 88.106 37.5976 88.106 35.5059 86.8977L32.2684 85.0251L3.37872 68.3294C1.28967 67.121 0 64.8857 0 62.4689L0 25.335C0 22.9156 1.28967 20.6829 3.37872 19.4719L35.5059 0.906275C37.5949 -0.302092 40.1716 -0.302092 42.266 0.906275L74.3905 19.4719C76.4822 20.6803 77.7692 22.9156 77.7692 25.335Z" fill="#E5223A"/>
<g clip-path="url(#clip0_2393_828)">
<path d="M39.2309 72.859C38.9891 72.7718 33.2386 70.648 27.5387 64.0035C22.3149 57.9146 16.1725 46.7036 16.5755 27.8733C16.5785 27.7292 16.6182 27.5882 16.6907 27.4637C16.7632 27.3391 16.8662 27.235 16.99 27.1612C17.4669 26.8768 28.7957 20.1953 39.5238 20.1953C50.2524 20.1953 61.5773 26.867 62.0479 27.1612C62.4654 27.4222 62.4675 29.7573 62.4654 29.833C62.2958 46.4795 56.1908 57.2723 51.0992 63.3922C45.5608 70.049 40.1169 72.7149 39.8873 72.825C39.7717 72.8811 39.324 72.8926 39.2309 72.859ZM18.2666 28.3898C17.9885 46.3333 23.8062 57.0078 28.7613 62.817C33.412 68.2699 38.189 70.5714 39.4741 71.1232C40.7103 70.4503 45.293 67.7355 49.8485 62.2376C54.7382 56.3362 60.6013 45.918 60.7658 29.7994C60.7667 29.7369 60.7701 28.9892 60.7671 28.3876C58.6445 27.1969 48.6727 21.8958 39.5238 21.8958C30.3682 21.8958 20.3806 27.205 18.2666 28.3898Z" fill="white"/>
<path d="M39.5139 53.7792C34.1226 53.7792 29.7363 49.3929 29.7363 44.0017C29.7363 38.6104 34.1226 34.2241 39.5139 34.2241C44.9052 34.2241 49.2915 38.6104 49.2915 44.0017C49.2915 49.3929 44.9052 53.7792 39.5139 53.7792ZM39.5139 35.9246C35.06 35.9246 31.4368 39.5478 31.4368 44.0017C31.4368 48.4556 35.06 52.0788 39.5139 52.0788C43.9678 52.0788 47.591 48.4556 47.591 44.0017C47.591 39.5478 43.9674 35.9246 39.5139 35.9246Z" fill="white"/>
<path d="M37.496 47.6177L35.0843 45.8977C34.9074 45.7642 34.7896 45.5669 34.756 45.3479C34.7223 45.1288 34.7755 44.9052 34.9042 44.7248C35.0329 44.5444 35.2269 44.4213 35.445 44.3817C35.6631 44.3422 35.888 44.3893 36.0719 44.5131L37.8773 45.8008L42.8341 40.4971C42.9881 40.3324 43.2013 40.2356 43.4266 40.228C43.652 40.2204 43.8712 40.3027 44.0359 40.4567C44.2006 40.6107 44.2974 40.8239 44.305 41.0493C44.3126 41.2746 44.2303 41.4938 44.0763 41.6585L38.6106 47.5063C38.3279 47.761 37.8577 47.8311 37.496 47.6177Z" fill="white"/>
</g>
<defs>
<clipPath id="clip0_2393_828">
<rect width="52.6824" height="52.6824" fill="white" transform="translate(13.1699 20.1953)"/>
</clipPath>
</defs>
</svg>
