<svg width="249" height="128" viewBox="0 0 249 128" fill="none" xmlns="http://www.w3.org/2000/svg">
<g opacity="0.7">
<path d="M174.453 4.14726L245.349 4.14725C245.444 4.56185 245.689 4.92681 246.036 5.17254C246.383 5.41827 246.809 5.52757 247.232 5.47957C247.654 5.43157 248.045 5.22964 248.328 4.9123C248.611 4.59496 248.768 4.18442 248.768 3.759C248.768 3.33357 248.611 2.92303 248.328 2.60569C248.045 2.28835 247.654 2.08642 247.232 2.03842C246.809 1.99042 246.383 2.09972 246.036 2.34545C245.689 2.59118 245.444 2.95614 245.349 3.37074L174.134 3.37074L130.844 46.6615L96.2422 46.6615L96.2422 47.438L131.185 47.438L174.453 4.14726Z" fill="#E5223A" fill-opacity="0.2"/>
<path d="M173.81 91.4345C173.714 91.0178 173.469 90.6509 173.12 90.4037C172.771 90.1565 172.344 90.0464 171.919 90.0944C171.494 90.1424 171.102 90.3452 170.817 90.664C170.532 90.9828 170.375 91.3953 170.375 91.8228C170.375 92.2503 170.532 92.6628 170.817 92.9816C171.102 93.3004 171.494 93.5032 171.919 93.5512C172.344 93.5992 172.771 93.4891 173.12 93.2419C173.469 92.9947 173.714 92.6277 173.81 92.211L178.849 92.211L191.212 104.581L195.614 104.581C195.71 104.996 195.955 105.361 196.302 105.606C196.649 105.852 197.075 105.961 197.497 105.913C197.92 105.865 198.31 105.663 198.594 105.346C198.877 105.029 199.034 104.618 199.034 104.193C199.034 103.767 198.877 103.357 198.594 103.039C198.31 102.722 197.92 102.52 197.497 102.472C197.075 102.424 196.649 102.533 196.302 102.779C195.955 103.025 195.71 103.39 195.614 103.804L191.522 103.804L179.168 91.4345L173.81 91.4345Z" fill="#E5223A" fill-opacity="0.2"/>
<path d="M161.922 100.753C161.663 100.755 161.408 100.815 161.175 100.929C160.942 101.044 160.738 101.209 160.578 101.413C160.418 101.617 160.307 101.854 160.251 102.107C160.195 102.36 160.198 102.623 160.258 102.875C160.318 103.127 160.434 103.363 160.597 103.564C160.76 103.765 160.967 103.927 161.202 104.037C161.436 104.147 161.693 104.203 161.952 104.201C162.211 104.198 162.466 104.137 162.699 104.022L174.882 116.206L193.022 116.206L217.389 91.8307L237.438 91.8307C237.534 92.2453 237.778 92.6103 238.126 92.8561C238.473 93.1018 238.899 93.2111 239.321 93.1631C239.744 93.1151 240.134 92.9131 240.418 92.5958C240.701 92.2785 240.858 91.8679 240.858 91.4425C240.858 91.0171 240.701 90.6065 240.418 90.2892C240.134 89.9718 239.744 89.7699 239.321 89.7219C238.899 89.6739 238.473 89.7832 238.126 90.0289C237.778 90.2747 237.534 90.6396 237.438 91.0542L217.063 91.0542L192.696 115.429L175.193 115.429L163.289 103.525C163.481 103.269 163.599 102.965 163.629 102.646C163.659 102.327 163.6 102.006 163.458 101.719C163.316 101.431 163.098 101.189 162.827 101.019C162.556 100.848 162.243 100.756 161.922 100.753Z" fill="#E5223A" fill-opacity="0.2"/>
<path d="M166.384 96.2723C166.058 96.27 165.737 96.3602 165.459 96.5324C165.182 96.7046 164.959 96.9519 164.816 97.2456C164.672 97.5392 164.615 97.8674 164.651 98.1921C164.686 98.5169 164.813 98.8249 165.016 99.0808C165.219 99.3366 165.491 99.5297 165.799 99.6379C166.107 99.746 166.44 99.7648 166.758 99.692C167.077 99.6191 167.368 99.4577 167.599 99.2264C167.829 98.995 167.99 98.7031 168.062 98.3844L172.651 98.3844L183.095 108.829C182.852 109.134 182.721 109.513 182.721 109.904C182.722 110.294 182.855 110.672 183.099 110.977C183.343 111.282 183.683 111.495 184.064 111.581C184.444 111.668 184.843 111.622 185.195 111.453C185.546 111.283 185.83 110.999 185.999 110.647C186.168 110.295 186.213 109.897 186.126 109.516C186.039 109.136 185.825 108.796 185.52 108.552C185.215 108.309 184.836 108.176 184.446 108.176C184.19 108.176 183.938 108.234 183.708 108.347L172.969 97.6467L168.062 97.6467C167.983 97.2596 167.773 96.9114 167.468 96.661C167.162 96.4106 166.779 96.2733 166.384 96.2723Z" fill="#E5223A" fill-opacity="0.2"/>
<path d="M204.161 99.0591C204.398 99.075 204.635 99.0421 204.859 98.9624C205.082 98.8828 205.287 98.7581 205.46 98.5961C205.633 98.4341 205.771 98.2383 205.866 98.0207C205.96 97.8032 206.009 97.5685 206.009 97.3314C206.009 97.0942 205.96 96.8596 205.866 96.642C205.771 96.4244 205.633 96.2286 205.46 96.0666C205.287 95.9046 205.082 95.7799 204.859 95.7003C204.635 95.6206 204.398 95.5877 204.161 95.6036C203.837 95.6029 203.519 95.6944 203.245 95.8676L198.438 91.0532L189.035 91.0532C188.847 90.6745 188.528 90.3778 188.136 90.2194C187.744 90.0609 187.308 90.0518 186.91 90.1938C186.512 90.3357 186.18 90.6189 185.978 90.9894C185.775 91.3599 185.715 91.7921 185.809 92.2038C185.904 92.6155 186.147 92.9782 186.491 93.2228C186.836 93.4675 187.258 93.5771 187.678 93.531C188.098 93.4848 188.486 93.2861 188.769 92.9724C189.052 92.6588 189.21 92.2522 189.213 91.8297L198.12 91.8297L202.701 96.4189C202.53 96.6942 202.439 97.0113 202.437 97.3352C202.439 97.7918 202.622 98.2291 202.945 98.5519C203.267 98.8748 203.705 99.0571 204.161 99.0591Z" fill="#E5223A" fill-opacity="0.2"/>
<path d="M149.389 85.2224L145.056 85.2224C144.961 84.8078 144.716 84.4428 144.369 84.1971C144.021 83.9514 143.596 83.8421 143.173 83.8901C142.75 83.9381 142.36 84.14 142.077 84.4573C141.793 84.7747 141.637 85.1852 141.637 85.6107C141.637 86.0361 141.793 86.4466 142.077 86.764C142.36 87.0813 142.75 87.2832 143.173 87.3312C143.596 87.3792 144.021 87.2699 144.369 87.0242C144.716 86.7785 144.961 86.4135 145.056 85.9989L149.715 85.9989L162.093 73.629L170.906 73.629C171.001 74.0415 171.245 74.4045 171.591 74.6487C171.937 74.893 172.36 75.0015 172.781 74.9535C173.202 74.9055 173.59 74.7044 173.872 74.3886C174.154 74.0727 174.31 73.6641 174.31 73.2408C174.31 72.8174 174.154 72.4088 173.872 72.093C173.59 71.7771 173.202 71.576 172.781 71.528C172.36 71.48 171.937 71.5885 171.591 71.8328C171.245 72.077 171.001 72.44 170.906 72.8525L161.766 72.8525L149.389 85.2224Z" fill="#E5223A" fill-opacity="0.2"/>
<path d="M210.764 60.1259L186.117 60.1259L181.411 64.8394C181.135 64.6566 180.811 64.5594 180.48 64.5598C180.137 64.5598 179.802 64.6614 179.518 64.8517C179.233 65.0419 179.011 65.3124 178.88 65.6288C178.749 65.9452 178.715 66.2934 178.781 66.6293C178.848 66.9652 179.013 67.2737 179.255 67.5159C179.497 67.7581 179.806 67.923 180.142 67.9898C180.478 68.0566 180.826 68.0224 181.142 67.8913C181.459 67.7602 181.729 67.5383 181.919 67.2535C182.11 66.9687 182.211 66.634 182.211 66.2915C182.209 65.9712 182.12 65.6575 181.955 65.3829L186.443 60.8947L210.453 60.8947L217.224 67.6659L245.358 67.6659C245.453 68.0805 245.698 68.4455 246.045 68.6912C246.392 68.9369 246.818 69.0462 247.24 68.9982C247.663 68.9502 248.053 68.7483 248.337 68.4309C248.62 68.1136 248.777 67.7031 248.777 67.2776C248.777 66.8522 248.62 66.4417 248.337 66.1243C248.053 65.807 247.663 65.6051 247.24 65.5571C246.818 65.5091 246.392 65.6184 246.045 65.8641C245.698 66.1098 245.453 66.4748 245.358 66.8894L217.535 66.8894L210.764 60.1259Z" fill="#E5223A" fill-opacity="0.2"/>
<path d="M161.385 46.289L143.525 64.1488C143.251 63.9756 142.933 63.884 142.609 63.8848C142.268 63.8848 141.934 63.9859 141.651 64.1753C141.367 64.3647 141.146 64.634 141.016 64.949C140.886 65.264 140.851 65.6106 140.918 65.945C140.984 66.2794 141.149 66.5865 141.39 66.8276C141.631 67.0687 141.938 67.2329 142.272 67.2994C142.607 67.3659 142.953 67.3318 143.268 67.2013C143.583 67.0708 143.853 66.8499 144.042 66.5664C144.231 66.2829 144.332 65.9496 144.332 65.6087C144.331 65.2847 144.239 64.9676 144.068 64.6924L161.688 47.0655L180.627 47.0655L190.325 37.3668C190.622 37.5929 190.985 37.7157 191.358 37.7162C191.701 37.7178 192.037 37.6175 192.322 37.4282C192.608 37.2388 192.831 36.9689 192.964 36.6527C193.096 36.3364 193.131 35.988 193.065 35.6515C192.999 35.3151 192.835 35.0059 192.593 34.7629C192.351 34.52 192.043 34.3543 191.707 34.2868C191.371 34.2194 191.022 34.2532 190.705 34.384C190.388 34.5149 190.117 34.7368 189.927 35.0217C189.736 35.3067 189.634 35.6418 189.634 35.9846C189.636 36.2553 189.702 36.5216 189.829 36.7611L180.324 46.289L161.385 46.289Z" fill="#E5223A" fill-opacity="0.2"/>
<path d="M183.556 21.9827L189.031 16.5005C189.39 16.7258 189.819 16.811 190.237 16.7399C190.654 16.6687 191.031 16.4463 191.295 16.1149C191.559 15.7836 191.692 15.3666 191.669 14.9436C191.645 14.5206 191.466 14.1211 191.166 13.8215C190.867 13.5219 190.467 13.3431 190.044 13.3193C189.621 13.2955 189.204 13.4283 188.873 13.6924C188.542 13.9565 188.319 14.3334 188.248 14.7511C188.177 15.1688 188.262 15.5981 188.487 15.9569L183.277 21.2062L163.934 21.2062L159.578 25.5702C159.304 25.3958 158.986 25.3041 158.661 25.3062C158.32 25.3062 157.987 25.4073 157.704 25.5967C157.42 25.7861 157.199 26.0554 157.069 26.3704C156.938 26.6854 156.904 27.032 156.971 27.3664C157.037 27.7008 157.201 28.0079 157.442 28.249C157.683 28.4901 157.991 28.6543 158.325 28.7208C158.659 28.7873 159.006 28.7532 159.321 28.6227C159.636 28.4922 159.905 28.2713 160.095 27.9878C160.284 27.7043 160.385 27.371 160.385 27.03C160.387 26.7056 160.296 26.3874 160.121 26.1138L164.252 21.9827L183.556 21.9827Z" fill="#E5223A" fill-opacity="0.2"/>
<path d="M247.023 15.8647C246.633 15.8656 246.254 15.999 245.949 16.2431C245.645 16.4871 245.432 16.8273 245.346 17.2081L217.438 17.2081L205.06 29.5469L167.896 29.5469L130.841 66.5867L99.5859 66.6566L99.5859 67.4331L131.159 67.3555L168.214 30.3001L205.378 30.3001L217.717 17.9613L245.346 17.9613C245.419 18.2774 245.579 18.5664 245.809 18.7952C246.039 19.024 246.329 19.1832 246.646 19.2546C246.962 19.326 247.292 19.3067 247.598 19.1989C247.904 19.0911 248.173 18.8991 248.375 18.6451C248.577 18.3911 248.703 18.0853 248.739 17.7628C248.774 17.4404 248.718 17.1145 248.577 16.8225C248.436 16.5304 248.215 16.2842 247.94 16.112C247.665 15.9398 247.347 15.8488 247.023 15.8492L247.023 15.8647Z" fill="#E5223A" fill-opacity="0.2"/>
<path d="M247.024 28.7543C246.634 28.7552 246.256 28.8886 245.951 29.1326C245.646 29.3767 245.433 29.7169 245.347 30.0977L235.004 30.0977L217.439 47.678L192.855 47.678C192.759 47.2634 192.515 46.8984 192.167 46.6527C191.82 46.4069 191.395 46.2976 190.972 46.3456C190.549 46.3936 190.159 46.5956 189.876 46.9129C189.592 47.2303 189.436 47.6408 189.436 48.0662C189.436 48.4916 189.592 48.9022 189.876 49.2195C190.159 49.5369 190.549 49.7388 190.972 49.7868C191.395 49.8348 191.82 49.7255 192.167 49.4798C192.515 49.234 192.759 48.8691 192.855 48.4545L217.75 48.4545L235.299 30.8664L245.316 30.8664C245.389 31.1825 245.55 31.4715 245.78 31.7003C246.01 31.9291 246.3 32.0883 246.616 32.1597C246.933 32.2311 247.263 32.2118 247.569 32.104C247.875 31.9962 248.144 31.8042 248.346 31.5502C248.547 31.2962 248.673 30.9904 248.709 30.6679C248.745 30.3455 248.689 30.0196 248.548 29.7276C248.406 29.4355 248.186 29.1893 247.911 29.0171C247.636 28.8449 247.318 28.7539 246.993 28.7543L247.024 28.7543Z" fill="#E5223A" fill-opacity="0.2"/>
<path d="M247.027 51.8327C246.638 51.8332 246.26 51.9655 245.955 52.208C245.651 52.4505 245.437 52.789 245.35 53.1683L167.209 53.1683L147.912 72.4647L98.6348 72.4647L98.6348 73.2412L148.27 73.2412L167.566 53.9526L245.35 53.9525C245.424 54.2679 245.586 54.5558 245.816 54.7834C246.047 55.011 246.337 55.169 246.653 55.2393C246.969 55.3096 247.299 55.2894 247.604 55.181C247.91 55.0725 248.178 54.8802 248.379 54.6262C248.58 54.3721 248.706 54.0665 248.741 53.7445C248.776 53.4224 248.72 53.097 248.579 52.8054C248.438 52.5138 248.217 52.2679 247.943 52.0958C247.668 51.9238 247.351 51.8326 247.027 51.8327Z" fill="#E5223A" fill-opacity="0.2"/>
<path d="M225.447 61.2751L237.428 61.2751C237.518 61.6918 237.759 62.0604 238.105 62.3097C238.451 62.559 238.877 62.6714 239.301 62.625C239.724 62.5787 240.116 62.377 240.4 62.0588C240.683 61.7407 240.839 61.3287 240.837 60.9023C240.845 60.4739 240.694 60.0576 240.412 59.7348C240.13 59.412 239.738 59.2057 239.312 59.1563C238.887 59.1068 238.458 59.2177 238.109 59.4673C237.761 59.7169 237.518 60.0873 237.428 60.5063L225.447 60.5063C225.351 60.0917 225.106 59.7268 224.759 59.481C224.412 59.2353 223.986 59.126 223.564 59.174C223.141 59.222 222.751 59.4239 222.467 59.7413C222.184 60.0586 222.027 60.4692 222.027 60.8946C222.027 61.32 222.184 61.7305 222.467 62.0479C222.751 62.3652 223.141 62.5672 223.564 62.6152C223.986 62.6632 224.412 62.5539 224.759 62.3081C225.106 62.0624 225.351 61.6974 225.447 61.2828L225.447 61.2751Z" fill="#E5223A" fill-opacity="0.2"/>
<path d="M247.026 82.4123C246.634 82.4133 246.253 82.5475 245.947 82.793C245.641 83.0385 245.427 83.3807 245.341 83.7635L167.954 83.7635L156.259 95.4112C155.935 95.2099 155.552 95.1221 155.172 95.1616C154.792 95.2012 154.436 95.3658 154.16 95.6297C153.884 95.8936 153.703 96.2418 153.646 96.6195C153.589 96.9973 153.659 97.3833 153.846 97.7168C154.032 98.0503 154.324 98.3126 154.675 98.4622C155.027 98.6119 155.418 98.6406 155.788 98.5438C156.157 98.447 156.484 98.2302 156.717 97.9274C156.95 97.6247 157.076 97.2531 157.075 96.8711C157.072 96.5473 156.98 96.2305 156.811 95.9548L168.272 84.4934L245.349 84.4934C245.423 84.8087 245.585 85.0966 245.816 85.3242C246.046 85.5518 246.336 85.7098 246.653 85.7801C246.969 85.8505 247.298 85.8302 247.604 85.7218C247.909 85.6133 248.178 85.4211 248.379 85.167C248.58 84.9129 248.705 84.6074 248.74 84.2853C248.776 83.9633 248.719 83.6378 248.578 83.3462C248.437 83.0546 248.217 82.8087 247.942 82.6367C247.668 82.4646 247.35 82.3734 247.026 82.3735L247.026 82.4123Z" fill="#E5223A" fill-opacity="0.2"/>
<path d="M247.026 108.176C246.618 108.178 246.223 108.323 245.912 108.588C245.601 108.852 245.393 109.218 245.326 109.62L222.488 109.62L205.063 127.045L174.453 127.045L131.248 83.8632L131.139 83.7545L97.2363 83.7545L97.2363 84.5311L130.844 84.5311L174.018 127.713L174.135 127.822L205.382 127.822L222.807 110.397L245.395 110.397C245.486 110.703 245.66 110.979 245.899 111.192C246.137 111.405 246.43 111.548 246.745 111.604C247.06 111.661 247.384 111.628 247.681 111.511C247.979 111.394 248.238 111.196 248.429 110.94C248.621 110.683 248.737 110.379 248.766 110.06C248.794 109.742 248.733 109.422 248.59 109.136C248.447 108.85 248.227 108.609 247.955 108.441C247.683 108.273 247.369 108.184 247.049 108.184L247.026 108.176Z" fill="#E5223A" fill-opacity="0.2"/>
<path d="M168.359 59.17C168.123 59.1541 167.885 59.187 167.662 59.2667C167.438 59.3463 167.234 59.471 167.061 59.633C166.887 59.795 166.749 59.9908 166.655 60.2084C166.56 60.426 166.512 60.6606 166.512 60.8978C166.512 61.1349 166.56 61.3696 166.655 61.5871C166.749 61.8047 166.887 62.0005 167.061 62.1625C167.234 62.3245 167.438 62.4492 167.662 62.5288C167.885 62.6085 168.123 62.6414 168.359 62.6255C168.629 62.6289 168.895 62.5677 169.136 62.4469L180.17 73.4579L237.469 73.4579C237.564 73.8725 237.809 74.2375 238.156 74.4832C238.504 74.7289 238.929 74.8382 239.352 74.7902C239.775 74.7422 240.165 74.5403 240.448 74.2229C240.732 73.9056 240.888 73.4951 240.888 73.0696C240.888 72.6442 240.732 72.2337 240.448 71.9163C240.165 71.599 239.775 71.3971 239.352 71.3491C238.929 71.3011 238.504 71.4103 238.156 71.6561C237.809 71.9018 237.564 72.2668 237.469 72.6814L180.45 72.6814L169.718 61.9266C169.957 61.6267 170.086 61.254 170.083 60.8706C170.077 60.4174 169.893 59.9849 169.57 59.6667C169.247 59.3484 168.812 59.17 168.359 59.17Z" fill="#E5223A" fill-opacity="0.2"/>
<path d="M124.826 37.7075C125.053 37.7075 125.278 37.6627 125.488 37.5756C125.698 37.4885 125.888 37.3608 126.048 37.1999C126.208 37.039 126.335 36.848 126.421 36.638C126.507 36.4279 126.551 36.2029 126.55 35.9759C126.546 35.7046 126.477 35.4382 126.348 35.1994L150.358 11.1973C150.633 11.3682 150.951 11.4596 151.275 11.4613C151.618 11.4628 151.954 11.3624 152.239 11.1727C152.525 10.983 152.749 10.7127 152.881 10.3959C153.013 10.0792 153.048 9.73039 152.981 9.39376C152.914 9.05714 152.749 8.74789 152.507 8.50525C152.264 8.26261 151.955 8.09752 151.618 8.03095C151.282 7.96438 150.933 7.99933 150.616 8.13135C150.299 8.26338 150.029 8.48653 149.839 8.77249C149.65 9.05844 149.549 9.3943 149.551 9.73744C149.55 10.0617 149.641 10.3795 149.815 10.6537L125.813 34.5859C125.593 34.4225 125.338 34.3136 125.069 34.2682C124.799 34.2228 124.522 34.2423 124.262 34.3249C124.001 34.4075 123.764 34.551 123.569 34.7434C123.375 34.9359 123.229 35.1718 123.144 35.4316C123.059 35.6915 123.037 35.9679 123.08 36.238C123.123 36.5081 123.229 36.7642 123.39 36.985C123.552 37.2058 123.763 37.3851 124.008 37.5081C124.252 37.631 124.522 37.694 124.795 37.692L124.826 37.7075Z" fill="#E5223A" fill-opacity="0.2"/>
<path d="M205.305 35.5258L200.033 40.7983C199.79 40.6827 199.525 40.6243 199.256 40.6275C198.866 40.6294 198.489 40.7635 198.185 41.0079C197.881 41.2523 197.669 41.5925 197.583 41.973C197.497 42.3535 197.543 42.7517 197.713 43.1027C197.883 43.4537 198.167 43.7367 198.519 43.9054C198.87 44.0742 199.269 44.1188 199.649 44.0318C200.029 43.9449 200.369 43.7317 200.612 43.4269C200.855 43.1221 200.988 42.7439 200.989 42.3539C200.989 41.9639 200.858 41.5852 200.615 41.2798L205.6 36.2945L217.753 36.2945L228.244 25.796C228.517 25.9704 228.835 26.0621 229.16 26.0601C229.501 26.0601 229.834 25.9589 230.118 25.7695C230.401 25.5801 230.622 25.3109 230.753 24.9959C230.883 24.6809 230.917 24.3343 230.851 23.9999C230.784 23.6655 230.62 23.3583 230.379 23.1172C230.138 22.8762 229.831 22.712 229.496 22.6455C229.162 22.5789 228.815 22.6131 228.5 22.7436C228.185 22.874 227.916 23.095 227.727 23.3785C227.537 23.6619 227.436 23.9952 227.436 24.3362C227.434 24.6607 227.526 24.9788 227.7 25.2525L217.442 35.5258L205.305 35.5258Z" fill="#E5223A" fill-opacity="0.2"/>
<path d="M71.4568 118.69L3.71357 118.69C3.62291 118.294 3.38948 117.945 3.05785 117.71C2.72622 117.475 2.3196 117.37 1.91564 117.415C1.51169 117.461 1.13868 117.654 0.867829 117.957C0.596979 118.26 0.447266 118.652 0.447266 119.059C0.447266 119.465 0.596979 119.858 0.867829 120.161C1.13868 120.464 1.51169 120.657 1.91564 120.702C2.3196 120.748 2.72622 120.643 3.05785 120.408C3.38948 120.173 3.62291 119.824 3.71357 119.428L71.7829 119.428L113.156 78.055L146.227 78.055L146.227 77.2785L112.837 77.2785L71.4568 118.69Z" fill="#E5223A" fill-opacity="0.2"/>
<path d="M72.0953 35.2696C72.186 35.668 72.4203 36.019 72.7534 36.2556C73.0865 36.4922 73.4951 36.5977 73.9012 36.5521C74.3072 36.5065 74.6822 36.3128 74.9545 36.0082C75.2268 35.7036 75.3773 35.3093 75.3773 34.9007C75.3773 34.4922 75.2268 34.0979 74.9545 33.7933C74.6822 33.4887 74.3072 33.295 73.9012 33.2494C73.4951 33.2038 73.0865 33.3093 72.7534 33.5459C72.4203 33.7825 72.186 34.1335 72.0953 34.5319L67.2809 34.5319L55.4623 22.7133L51.2691 22.7133C51.1794 22.3165 50.9465 21.9667 50.615 21.7308C50.2835 21.4948 49.8767 21.3894 49.4723 21.4346C49.068 21.4797 48.6944 21.6723 48.4232 21.9756C48.1519 22.2788 48.002 22.6714 48.002 23.0783C48.002 23.4852 48.1519 23.8778 48.4232 24.181C48.6944 24.4843 49.068 24.6769 49.4723 24.722C49.8767 24.7672 50.2835 24.6618 50.615 24.4259C50.9465 24.1899 51.1794 23.8401 51.2691 23.4433L55.1517 23.4433L66.978 35.2696L72.0953 35.2696Z" fill="#E5223A" fill-opacity="0.2"/>
<path d="M83.461 26.3706C83.7136 26.3729 83.9634 26.3173 84.1912 26.2081C84.419 26.0989 84.6188 25.9389 84.7752 25.7405C84.9316 25.5421 85.0405 25.3105 85.0934 25.0635C85.1464 24.8165 85.1421 24.5606 85.0808 24.3155C85.0196 24.0704 84.903 23.8426 84.74 23.6496C84.577 23.4565 84.3719 23.3034 84.1406 23.202C83.9092 23.1005 83.6577 23.0534 83.4053 23.0642C83.1529 23.075 82.9063 23.1436 82.6845 23.2645L71.0367 11.6168L53.7437 11.6168L30.4483 34.9122L11.2839 34.9122C11.1932 34.5159 10.9598 34.1669 10.6282 33.9318C10.2965 33.6967 9.88992 33.5919 9.48596 33.6375C9.082 33.6832 8.709 33.8759 8.43815 34.1791C8.1673 34.4823 8.01758 34.8746 8.01758 35.2811C8.01758 35.6876 8.1673 36.0799 8.43815 36.3831C8.709 36.6862 9.082 36.879 9.48596 36.9246C9.88992 36.9702 10.2965 36.8655 10.6282 36.6304C10.9598 36.3952 11.1932 36.0462 11.2839 35.6499L30.7511 35.6499L54.0466 12.3545L70.7727 12.3545L82.1487 23.7304C81.9286 24.0211 81.8087 24.3753 81.807 24.7399C81.8131 25.1745 81.9901 25.5892 82.2996 25.8944C82.6091 26.1995 83.0263 26.3706 83.461 26.3706Z" fill="#E5223A" fill-opacity="0.2"/>
<path d="M79.2206 30.6416C79.4468 30.6572 79.6738 30.626 79.8874 30.5501C80.1011 30.4742 80.2969 30.3552 80.4626 30.2005C80.6283 30.0457 80.7605 29.8585 80.8508 29.6506C80.9412 29.4426 80.9878 29.2183 80.9878 28.9915C80.9878 28.7648 80.9412 28.5405 80.8508 28.3325C80.7605 28.1245 80.6283 27.9374 80.4626 27.7826C80.2969 27.6279 80.1011 27.5088 79.8874 27.433C79.6738 27.3571 79.4468 27.3259 79.2206 27.3414C78.8466 27.3395 78.4833 27.4656 78.1909 27.6986C77.8986 27.9317 77.6947 28.2578 77.6132 28.6227L73.2259 28.6227L63.2399 18.6367C63.4799 18.3465 63.6092 17.9805 63.6048 17.6039C63.6048 17.2768 63.5078 16.957 63.3261 16.685C63.1443 16.413 62.886 16.2011 62.5838 16.0759C62.2816 15.9507 61.949 15.9179 61.6282 15.9817C61.3073 16.0456 61.0126 16.2031 60.7813 16.4344C60.55 16.6657 60.3925 16.9604 60.3287 17.2813C60.2648 17.6021 60.2976 17.9347 60.4228 18.2369C60.548 18.5391 60.76 18.7974 61.0319 18.9792C61.3039 19.1609 61.6237 19.2579 61.9508 19.2579C62.198 19.2564 62.4419 19.2007 62.6652 19.0948L72.892 29.3138L77.551 29.3138C77.6264 29.6973 77.8358 30.0414 78.1416 30.2847C78.4475 30.528 78.8299 30.6545 79.2206 30.6416Z" fill="#E5223A" fill-opacity="0.2"/>
<path d="M43.0759 27.978C42.6578 28.0067 42.2662 28.193 41.9802 28.4993C41.6942 28.8056 41.5352 29.209 41.5352 29.6281C41.5352 30.0471 41.6942 30.4505 41.9802 30.7568C42.2662 31.0631 42.6578 31.2495 43.0759 31.2782C43.3869 31.279 43.6916 31.19 43.9533 31.0219L48.5581 35.6266L57.5424 35.6266C57.7155 35.9452 57.9886 36.1981 58.3195 36.3463C58.6505 36.4945 59.0209 36.5298 59.3739 36.4469C59.7269 36.3639 60.0428 36.1673 60.2731 35.8872C60.5034 35.6071 60.6353 35.2591 60.6484 34.8967C60.6639 34.6705 60.6328 34.4435 60.5569 34.2299C60.481 34.0162 60.362 33.8204 60.2072 33.6547C60.0525 33.4889 59.8653 33.3568 59.6574 33.2665C59.4494 33.1761 59.2251 33.1295 58.9983 33.1295C58.7716 33.1295 58.5472 33.1761 58.3393 33.2665C58.1313 33.3568 57.9441 33.4889 57.7894 33.6547C57.6346 33.8204 57.5156 34.0162 57.4397 34.2299C57.3638 34.4435 57.3327 34.6705 57.3482 34.8967L48.8066 34.8967L44.4192 30.5094C44.5893 30.2515 44.6785 29.9487 44.6755 29.6397C44.6777 29.209 44.5119 28.7943 44.2131 28.484C43.9144 28.1737 43.5064 27.9921 43.0759 27.978Z" fill="#E5223A" fill-opacity="0.2"/>
<path d="M95.4359 41.17L99.5747 41.17C99.6698 41.5635 99.9058 41.9085 100.238 42.1396C100.57 42.3708 100.976 42.472 101.378 42.4242C101.78 42.3763 102.15 42.1827 102.419 41.88C102.688 41.5773 102.836 41.1866 102.836 40.7818C102.836 40.377 102.688 39.9862 102.419 39.6835C102.15 39.3808 101.78 39.1872 101.378 39.1394C100.976 39.0915 100.57 39.1928 100.238 39.4239C99.9058 39.655 99.6698 40 99.5747 40.3935L95.1253 40.3935L83.299 52.2198L74.8815 52.2198C74.7909 51.8236 74.5575 51.4745 74.2258 51.2394C73.8942 51.0043 73.4876 50.8995 73.0836 50.9452C72.6797 50.9908 72.3066 51.1836 72.0358 51.4867C71.7649 51.7899 71.6152 52.1822 71.6152 52.5887C71.6152 52.9952 71.7649 53.3875 72.0358 53.6907C72.3066 53.9938 72.6797 54.1866 73.0836 54.2322C73.4876 54.2778 73.8942 54.1731 74.2258 53.938C74.5575 53.7028 74.7909 53.3538 74.8815 52.9575L83.6096 52.9575L95.4359 41.17Z" fill="#E5223A" fill-opacity="0.2"/>
<path d="M36.7692 65.1885L60.3286 65.1885L64.8247 60.6847C65.1346 60.8775 65.4999 60.9619 65.863 60.9245C66.2261 60.8871 66.5665 60.7301 66.8306 60.4781C67.0948 60.2261 67.2677 59.8935 67.3221 59.5325C67.3766 59.1716 67.3095 58.8028 67.1315 58.4841C66.9534 58.1654 66.6745 57.9149 66.3386 57.7721C66.0027 57.6292 65.6288 57.602 65.2758 57.6948C64.9227 57.7877 64.6105 57.9952 64.3883 58.2848C64.1661 58.5744 64.0464 58.9297 64.0481 59.2947C64.0483 59.5997 64.1345 59.8984 64.2966 60.1567L60.0025 64.4508L37.072 64.4508L30.6036 57.9824L3.71291 57.9824C3.61789 57.5889 3.38185 57.2439 3.04952 57.0128C2.71718 56.7817 2.31162 56.6804 1.90965 56.7283C1.50768 56.7761 1.13722 56.9697 0.868423 57.2724C0.599629 57.5751 0.451172 57.9659 0.451172 58.3707C0.451172 58.7755 0.599629 59.1662 0.868423 59.4689C1.13722 59.7716 1.50768 59.9652 1.90965 60.0131C2.31162 60.0609 2.71718 59.9597 3.04952 59.7285C3.38185 59.4974 3.61789 59.1524 3.71291 58.7589L30.3008 58.7589L36.7692 65.1885Z" fill="#E5223A" fill-opacity="0.2"/>
<path d="M83.9649 78.4122L101.048 61.3288C101.31 61.497 101.615 61.586 101.926 61.5851C102.253 61.5851 102.573 61.4881 102.845 61.3064C103.117 61.1246 103.329 60.8663 103.454 60.5641C103.579 60.2618 103.612 59.9293 103.548 59.6084C103.484 59.2876 103.327 58.9929 103.095 58.7616C102.864 58.5303 102.569 58.3727 102.248 58.3089C101.928 58.2451 101.595 58.2779 101.293 58.403C100.991 58.5282 100.732 58.7402 100.55 59.0122C100.369 59.2842 100.272 59.604 100.272 59.9311C100.271 60.2422 100.36 60.5469 100.528 60.8086L83.6854 77.6512L65.5615 77.6512L56.2899 86.9228C56.0042 86.712 55.6588 86.5977 55.3037 86.5967C54.947 86.5985 54.6006 86.7168 54.3172 86.9334C54.0338 87.15 53.8289 87.4532 53.7335 87.797C53.6381 88.1407 53.6575 88.5061 53.7887 88.8379C53.92 89.1696 54.1559 89.4494 54.4606 89.6348C54.7654 89.8202 55.1223 89.9011 55.4772 89.8652C55.8321 89.8293 56.1656 89.6786 56.427 89.4359C56.6884 89.1932 56.8635 88.8718 56.9257 88.5205C56.9878 88.1693 56.9336 87.8073 56.7713 87.4896L65.8643 78.3889L83.9649 78.4122Z" fill="#E5223A" fill-opacity="0.2"/>
<path d="M62.7749 101.646L57.5412 106.879C57.2779 106.715 56.9743 106.626 56.6637 106.623C56.3366 106.623 56.0168 106.72 55.7448 106.902C55.4728 107.084 55.2608 107.342 55.1357 107.644C55.0105 107.946 54.9777 108.279 55.0415 108.6C55.1054 108.921 55.2629 109.215 55.4942 109.447C55.7255 109.678 56.0202 109.836 56.3411 109.899C56.6619 109.963 56.9945 109.93 57.2967 109.805C57.5989 109.68 57.8572 109.468 58.039 109.196C58.2207 108.924 58.3177 108.604 58.3177 108.277C58.3177 107.966 58.2288 107.662 58.0615 107.4L63.0778 102.383L81.5511 102.383L85.7209 98.2135C85.9827 98.3817 86.2873 98.4706 86.5984 98.4698C86.9259 98.4698 87.246 98.3726 87.5181 98.1905C87.7903 98.0084 88.0023 97.7496 88.1272 97.4469C88.2522 97.1443 88.2845 96.8113 88.22 96.4903C88.1556 96.1692 87.9973 95.8745 87.7652 95.6435C87.5331 95.4125 87.2376 95.2556 86.9163 95.1927C86.5949 95.1297 86.2621 95.1636 85.9601 95.29C85.658 95.4164 85.4002 95.6296 85.2194 95.9026C85.0386 96.1756 84.9429 96.4961 84.9444 96.8236C84.9414 97.1325 85.0307 97.4353 85.2007 97.6933L81.2482 101.646L62.7749 101.646Z" fill="#E5223A" fill-opacity="0.2"/>
<path d="M2.10542 107.493C2.47896 107.494 2.84156 107.367 3.13366 107.134C3.42576 106.901 3.62999 106.576 3.7128 106.212L30.4249 106.212L42.2202 94.4166L77.738 94.4166L113.163 58.9998L143.027 58.9299L143.027 58.1922L112.852 58.2621L77.4352 93.679L41.9484 93.679L30.1531 105.474L3.75163 105.474C3.68157 105.173 3.52798 104.897 3.30849 104.679C3.08899 104.461 2.81246 104.309 2.51063 104.241C2.20879 104.173 1.89387 104.191 1.60197 104.294C1.31007 104.397 1.05301 104.58 0.860281 104.822C0.667551 105.064 0.546946 105.355 0.512303 105.663C0.477661 105.97 0.530381 106.281 0.664417 106.56C0.798453 106.839 1.00838 107.074 1.27012 107.239C1.53186 107.405 1.83481 107.492 2.14424 107.493L2.10542 107.493Z" fill="#E5223A" fill-opacity="0.2"/>
<path d="M2.10713 95.1694C2.48067 95.1699 2.84327 95.0433 3.13537 94.8105C3.42747 94.5777 3.6317 94.2524 3.71452 93.8882L13.5996 93.8882L30.4034 77.0844L53.8852 77.0844C53.9802 77.4779 54.2162 77.8229 54.5486 78.054C54.8809 78.2851 55.2865 78.3864 55.6884 78.3385C56.0904 78.2907 56.4609 78.0971 56.7297 77.7944C56.9985 77.4917 57.1469 77.1009 57.1469 76.6961C57.1469 76.2913 56.9985 75.9006 56.7297 75.5979C56.4609 75.2952 56.0904 75.1016 55.6884 75.0538C55.2865 75.0059 54.8809 75.1071 54.5486 75.3383C54.2162 75.5694 53.9802 75.9144 53.8852 76.3079L30.0927 76.3079L13.2889 93.1117L3.71452 93.1117C3.64446 92.8103 3.49087 92.5347 3.27137 92.3166C3.05187 92.0985 2.77535 91.9467 2.47352 91.8786C2.17168 91.8105 1.85675 91.8288 1.56485 91.9314C1.27295 92.0341 1.0159 92.217 0.823166 92.459C0.630436 92.7011 0.509836 92.9926 0.475194 93.3001C0.440552 93.6076 0.493271 93.9186 0.627307 94.1975C0.761344 94.4764 0.971267 94.7119 1.23301 94.8769C1.49475 95.0419 1.7977 95.1299 2.10713 95.1306L2.10713 95.1694Z" fill="#E5223A" fill-opacity="0.2"/>
<path d="M2.10713 73.0859C2.48104 73.0878 2.84435 72.9618 3.13674 72.7287C3.42913 72.4956 3.63301 72.1696 3.71452 71.8047L78.4464 71.8047L96.842 53.3857L143.984 53.3857L143.984 52.6092L96.5392 52.6092L78.0969 71.0437L3.71452 71.0437C3.64446 70.7423 3.49087 70.4668 3.27137 70.2487C3.05187 70.0306 2.77535 69.8787 2.47352 69.8106C2.17168 69.7425 1.85675 69.7608 1.56485 69.8635C1.27295 69.9661 1.0159 70.149 0.823166 70.3911C0.630436 70.6331 0.509836 70.9246 0.475194 71.2321C0.440552 71.5396 0.493271 71.8506 0.627307 72.1295C0.761344 72.4084 0.971267 72.6439 1.23301 72.8089C1.49475 72.974 1.7977 73.0619 2.10713 73.0626L2.10713 73.0859Z" fill="#E5223A" fill-opacity="0.2"/>
<path d="M22.7393 64.0865L11.2857 64.0865C11.1951 63.6924 10.9625 63.3453 10.6324 63.1117C10.3023 62.878 9.89765 62.7741 9.49577 62.8197C9.09388 62.8653 8.72284 63.0572 8.45345 63.3589C8.18406 63.6606 8.03516 64.0509 8.03516 64.4554C8.03516 64.8599 8.18406 65.2502 8.45345 65.5519C8.72284 65.8536 9.09388 66.0455 9.49577 66.0911C9.89765 66.1367 10.3023 66.0328 10.6324 65.7991C10.9625 65.5654 11.1951 65.2184 11.2857 64.8242L22.7393 64.8242C22.83 65.2205 23.0634 65.5695 23.395 65.8047C23.7267 66.0398 24.1333 66.1445 24.5372 66.0989C24.9412 66.0533 25.3142 65.8605 25.5851 65.5574C25.8559 65.2542 26.0056 64.8619 26.0056 64.4554C26.0056 64.0489 25.8559 63.6566 25.5851 63.3534C25.3142 63.0503 24.9412 62.8575 24.5372 62.8119C24.1333 62.7662 23.7267 62.871 23.395 63.1061C23.0634 63.3412 22.83 63.6903 22.7393 64.0865Z" fill="#E5223A" fill-opacity="0.2"/>
<path d="M2.10531 43.8887C2.48088 43.8891 2.84542 43.7617 3.13896 43.5274C3.43251 43.2932 3.63758 42.966 3.72045 42.5997L77.668 42.5996L88.8421 31.4256C89.153 31.6202 89.5198 31.7059 89.8848 31.6692C90.2497 31.6326 90.5922 31.4757 90.8582 31.2232C91.1242 30.9706 91.2988 30.6368 91.3544 30.2743C91.41 29.9117 91.3435 29.541 91.1654 29.2203C90.9872 28.8997 90.7076 28.6473 90.3703 28.503C90.0331 28.3587 89.6575 28.3305 89.3026 28.423C88.9476 28.5155 88.6334 28.7233 88.4095 29.0138C88.1856 29.3044 88.0646 29.6611 88.0656 30.0279C88.0656 30.3388 88.1545 30.6432 88.3218 30.9053L77.3652 41.862L3.71269 41.862C3.64127 41.5613 3.48667 41.2868 3.26657 41.0699C3.04648 40.853 2.76978 40.7025 2.46812 40.6354C2.16646 40.5684 1.85203 40.5876 1.56079 40.6909C1.26956 40.7942 1.01327 40.9774 0.821253 41.2195C0.629235 41.4616 0.509238 41.7529 0.474987 42.06C0.440737 42.3671 0.493619 42.6777 0.627581 42.9561C0.761542 43.2346 0.971177 43.4697 1.2325 43.6346C1.49383 43.7996 1.7963 43.8876 2.10531 43.8887Z" fill="#E5223A" fill-opacity="0.2"/>
<path d="M2.10581 19.2189C2.49609 19.219 2.87384 19.0811 3.17225 18.8296C3.47067 18.5781 3.67053 18.2291 3.73649 17.8445L25.5643 17.8445L42.2206 1.18819L71.4564 1.18819L112.744 42.5143L112.852 42.623L145.28 42.623L145.28 41.8465L113.155 41.8465L71.8912 0.582509L71.7825 0.473785L41.9488 0.473787L25.2926 17.13L3.6899 17.13C3.6031 16.836 3.43589 16.5721 3.20715 16.3679C2.9784 16.1638 2.69719 16.0276 2.3952 15.9747C2.09322 15.9217 1.78245 15.9542 1.49792 16.0684C1.21339 16.1826 0.966404 16.374 0.784784 16.621C0.603164 16.868 0.494128 17.1608 0.469964 17.4664C0.445801 17.772 0.507465 18.0784 0.648015 18.3508C0.788564 18.6233 1.00241 18.8511 1.26546 19.0086C1.52851 19.1661 1.83032 19.247 2.13687 19.2422L2.10581 19.2189Z" fill="#E5223A" fill-opacity="0.2"/>
<path d="M77.3041 66.0962C77.5303 66.1117 77.7573 66.0806 77.971 66.0047C78.1846 65.9288 78.3804 65.8098 78.5461 65.655C78.7119 65.5003 78.844 65.3131 78.9344 65.1052C79.0247 64.8972 79.0713 64.6729 79.0713 64.4461C79.0713 64.2194 79.0247 63.995 78.9344 63.7871C78.844 63.5791 78.7119 63.3919 78.5461 63.2372C78.3804 63.0824 78.1846 62.9634 77.971 62.8875C77.7573 62.8116 77.5303 62.7805 77.3041 62.796C77.0534 62.7964 76.8062 62.8549 76.5819 62.9669L66.0213 52.4451L11.2848 52.4451C11.195 52.0482 10.9621 51.6984 10.6306 51.4625C10.2991 51.2266 9.89229 51.1211 9.48794 51.1663C9.08359 51.2115 8.71006 51.4041 8.4388 51.7073C8.16754 52.0106 8.01758 52.4032 8.01758 52.81C8.01758 53.2169 8.16754 53.6095 8.4388 53.9128C8.71006 54.216 9.08359 54.4086 9.48794 54.4538C9.89229 54.499 10.2991 54.3935 10.6306 54.1576C10.9621 53.9217 11.195 53.5718 11.2848 53.175L65.7495 53.175L76.0073 63.4328C75.7747 63.7206 75.6485 64.0799 75.6501 64.45C75.6522 64.8873 75.8273 65.306 76.1373 65.6145C76.4473 65.923 76.8668 66.0962 77.3041 66.0962Z" fill="#E5223A" fill-opacity="0.2"/>
<path d="M118.912 86.6206C118.475 86.6206 118.057 86.7941 117.748 87.1028C117.439 87.4115 117.266 87.8302 117.266 88.2668C117.264 88.5369 117.328 88.8033 117.452 89.0433L94.506 111.997C94.2481 111.827 93.9453 111.738 93.6363 111.741C93.3086 111.739 92.9877 111.835 92.7145 112.016C92.4413 112.198 92.2281 112.456 92.102 112.758C91.9759 113.061 91.9424 113.394 92.006 113.716C92.0696 114.037 92.2273 114.333 92.459 114.564C92.6908 114.796 92.9863 114.954 93.3078 115.017C93.6294 115.081 93.9626 115.048 94.2651 114.921C94.5677 114.795 94.8259 114.582 95.007 114.309C95.1882 114.036 95.2841 113.715 95.2825 113.387C95.2811 113.077 95.1952 112.774 95.0341 112.51L117.941 89.6024C118.221 89.813 118.562 89.9274 118.912 89.9286C119.138 89.9441 119.365 89.9129 119.579 89.837C119.792 89.7612 119.988 89.6421 120.154 89.4874C120.32 89.3326 120.452 89.1455 120.542 88.9375C120.633 88.7295 120.679 88.5052 120.679 88.2785C120.679 88.0517 120.633 87.8274 120.542 87.6194C120.452 87.4115 120.32 87.2243 120.154 87.0696C119.988 86.9148 119.792 86.7958 119.579 86.7199C119.365 86.644 119.138 86.6129 118.912 86.6284L118.912 86.6206Z" fill="#E5223A" fill-opacity="0.2"/>
<path d="M41.9895 88.7091L47.0369 83.6696C47.2602 83.7754 47.5041 83.8311 47.7513 83.8326C48.0784 83.8326 48.3982 83.7356 48.6702 83.5539C48.9422 83.3721 49.1541 83.1138 49.2793 82.8116C49.4045 82.5094 49.4373 82.1768 49.3734 81.856C49.3096 81.5351 49.1521 81.2404 48.9208 81.0091C48.6895 80.7778 48.3948 80.6203 48.0739 80.5564C47.7531 80.4926 47.4205 80.5254 47.1183 80.6506C46.8161 80.7758 46.5578 80.9877 46.376 81.2597C46.1943 81.5317 46.0973 81.8515 46.0973 82.1786C46.0958 82.5511 46.2219 82.9128 46.4545 83.2036L41.6867 87.9714L30.0933 87.9714L20.0685 98.004C19.8041 97.8429 19.5007 97.7569 19.191 97.7555C18.8632 97.754 18.5424 97.8499 18.2692 98.031C17.996 98.2122 17.7828 98.4704 17.6567 98.773C17.5305 99.0755 17.4971 99.4087 17.5607 99.7303C17.6243 100.052 17.782 100.347 18.0137 100.579C18.2455 100.811 18.5409 100.968 18.8625 101.032C19.1841 101.096 19.5173 101.062 19.8198 100.936C20.1223 100.81 20.3806 100.597 20.5617 100.324C20.7429 100.05 20.8388 99.7295 20.8372 99.4017C20.8358 99.0921 20.7499 98.7887 20.5888 98.5243L30.4039 88.7091L41.9895 88.7091Z" fill="#E5223A" fill-opacity="0.2"/>
</g>
</svg>
