<svg width="20" height="26" viewBox="0 0 20 26" fill="none" xmlns="http://www.w3.org/2000/svg">
<g id="Profile">
<g id="Group 3">
<mask id="mask0_668_2910" style="mask-type:luminance" maskUnits="userSpaceOnUse" x="0" y="16" width="20" height="10">
<path id="Clip 2" fill-rule="evenodd" clip-rule="evenodd" d="M0.558105 16.105H19.7594V25.0438H0.558105V16.105Z" fill="white"/>
</mask>
<g mask="url(#mask0_668_2910)">
<path id="Fill 1" fill-rule="evenodd" clip-rule="evenodd" d="M10.1595 17.9233C4.9943 17.9233 2.37593 18.8106 2.37593 20.5623C2.37593 22.3297 4.9943 23.2255 10.1595 23.2255C15.3235 23.2255 17.9407 22.3382 17.9407 20.5865C17.9407 18.8191 15.3235 17.9233 10.1595 17.9233ZM10.1595 25.0438C7.78481 25.0438 0.557617 25.0438 0.557617 20.5623C0.557617 16.5668 6.03801 16.105 10.1595 16.105C12.5342 16.105 19.759 16.105 19.759 20.5865C19.759 24.582 14.2798 25.0438 10.1595 25.0438Z" fill="#7E7F91"/>
</g>
</g>
<g id="Group 6">
<mask id="mask1_668_2910" style="mask-type:luminance" maskUnits="userSpaceOnUse" x="3" y="0" width="14" height="14">
<path id="Clip 5" fill-rule="evenodd" clip-rule="evenodd" d="M3.72119 0.957031H16.5949V13.829H3.72119V0.957031Z" fill="white"/>
</mask>
<g mask="url(#mask1_668_2910)">
<path id="Fill 4" fill-rule="evenodd" clip-rule="evenodd" d="M10.1592 2.68677C7.5639 2.68677 5.45223 4.79722 5.45223 7.39256C5.44375 9.97942 7.53966 12.0887 10.1241 12.0984L10.1592 12.9639V12.0984C12.7534 12.0984 14.8638 9.98669 14.8638 7.39256C14.8638 4.79722 12.7534 2.68677 10.1592 2.68677ZM10.1588 13.8285H10.12C6.57792 13.8176 3.70862 10.9289 3.72074 7.38925C3.72074 3.84354 6.60822 0.956055 10.1588 0.956055C13.7081 0.956055 16.5944 3.84354 16.5944 7.39289C16.5944 10.9422 13.7081 13.8285 10.1588 13.8285Z" fill="#7E7F91"/>
</g>
</g>
</g>
</svg>
