<svg width="139" height="139" viewBox="0 0 139 139" fill="none" xmlns="http://www.w3.org/2000/svg">
<rect x="11.8809" y="10.2305" width="115.495" height="115.495" rx="57.7476" fill="#FBEBEA"/>
<circle cx="70.255" cy="67.9776" r="40.7999" fill="#E5223A"/>
<path d="M83.3912 87.2189H83.3914C84.6187 87.2182 85.8246 86.8971 86.8898 86.2873C87.955 85.6776 88.8426 84.8003 89.4648 83.7424C90.0869 82.6844 90.4222 81.4823 90.4373 80.255C90.4523 79.0277 90.1468 77.8178 89.5508 76.7448L89.5508 76.7448L75.8084 52.0085C75.8083 52.0082 75.8081 52.0078 75.8079 52.0075C75.204 50.9033 74.3123 49.9834 73.2275 49.3454C72.143 48.7075 70.906 48.3753 69.6478 48.384C68.3891 48.3754 67.1516 48.7078 66.0666 49.3461C64.9814 49.9845 64.0894 50.9051 63.4854 52.0099C63.4853 52.0102 63.4851 52.0105 63.4849 52.0108L49.7449 76.7447C49.1482 77.8175 48.8421 79.0277 48.8568 80.2552C48.8716 81.4828 49.2067 82.6852 49.829 83.7434C50.4513 84.8017 51.3392 85.679 52.4048 86.2886C53.4704 86.8982 54.6768 87.2189 55.9044 87.2189H83.3912ZM83.3912 89.9466H55.9045C54.2022 89.9465 52.5294 89.502 51.0516 88.6569C49.5739 87.8118 48.3425 86.5955 47.4792 85.1283C46.6159 83.6612 46.1506 81.994 46.1295 80.2918C46.1084 78.5897 46.5321 76.9115 47.3587 75.4233L61.1021 50.6853C61.9488 49.1613 63.1876 47.8915 64.6902 47.0074C66.1928 46.1233 67.9044 45.6571 69.6478 45.6571C71.3912 45.6571 73.1029 46.1233 74.6055 47.0074C76.108 47.8915 77.3469 49.1613 78.1936 50.6853L91.9369 75.4234C92.7635 76.9115 93.1873 78.5897 93.1661 80.2918C93.145 81.994 92.6798 83.6612 91.8165 85.1283C90.9532 86.5955 89.7217 87.8118 88.244 88.6569C86.7663 89.502 85.0935 89.9465 83.3912 89.9466Z" fill="white" stroke="#E5223A" stroke-width="0.597347"/>
<path d="M69.6469 71.3813C69.2852 71.3813 68.9383 71.2376 68.6825 70.9818C68.4267 70.7261 68.283 70.3792 68.283 70.0175V61.1508C68.283 60.7891 68.4267 60.4422 68.6825 60.1864C68.9383 59.9306 69.2852 59.787 69.6469 59.787C70.0086 59.787 70.3555 59.9306 70.6113 60.1864C70.867 60.4422 71.0107 60.7891 71.0107 61.1508V70.0175C71.0107 70.3792 70.867 70.7261 70.6113 70.9818C70.3555 71.2376 70.0086 71.3813 69.6469 71.3813Z" fill="white" stroke="#E5223A" stroke-width="0.597347"/>
<path d="M71.5644 76.6678C71.5644 77.7271 70.7056 78.5858 69.6464 78.5858C68.5871 78.5858 67.7284 77.7271 67.7284 76.6678C67.7284 75.6086 68.5871 74.7498 69.6464 74.7498C70.7056 74.7498 71.5644 75.6086 71.5644 76.6678Z" fill="white" stroke="#E5223A" stroke-width="0.597347"/>
<circle cx="69.628" cy="69.2335" r="68.4183" stroke="#E5223A" stroke-width="1.25538"/>
<circle cx="120.471" cy="23.4114" r="6.41142" fill="#FBEBEA" stroke="white" stroke-width="0.986372"/>
<circle cx="27.5726" cy="125.098" r="6.41142" fill="#FBEBEA" stroke="white" stroke-width="0.986372"/>
</svg>
