<svg width="14" height="14" viewBox="0 0 14 14" fill="none" xmlns="http://www.w3.org/2000/svg">
<path id="Arrow 1" d="M0.370705 11.8424C-0.00489103 12.218 -0.00489103 12.8269 0.370705 13.2025C0.746301 13.5781 1.35526 13.5781 1.73086 13.2025L0.370705 11.8424ZM13.4824 1.05264C13.4824 0.52147 13.0518 0.0908692 12.5206 0.0908686L3.86464 0.0908689C3.33347 0.0908692 2.90287 0.52147 2.90287 1.05264C2.90287 1.58381 3.33347 2.01442 3.86464 2.01442L11.5588 2.01442L11.5588 9.7086C11.5588 10.2398 11.9894 10.6704 12.5206 10.6704C13.0518 10.6704 13.4824 10.2398 13.4824 9.7086L13.4824 1.05264ZM1.73086 13.2025L13.2007 1.73272L11.8405 0.372566L0.370705 11.8424L1.73086 13.2025Z" fill="white"/>
</svg>
