<svg width="26" height="15" viewBox="0 0 26 15" fill="none" xmlns="http://www.w3.org/2000/svg">
<path id="Vector" fill-rule="evenodd" clip-rule="evenodd" d="M14.1057 13.9201C13.7592 14.2665 13.2894 14.461 12.7995 14.461C12.3097 14.461 11.8399 14.2665 11.4934 13.9201L1.04251 3.46923C0.866066 3.29881 0.725324 3.09496 0.628503 2.86956C0.531681 2.64417 0.480717 2.40175 0.478585 2.15645C0.476454 1.91115 0.523197 1.66788 0.616088 1.44084C0.708978 1.2138 0.846155 1.00753 1.01962 0.834068C1.19308 0.660608 1.39934 0.52343 1.62639 0.43054C1.85343 0.33765 2.0967 0.290907 2.342 0.293039C2.5873 0.29517 2.82972 0.346134 3.05511 0.442956C3.2805 0.539777 3.48436 0.680518 3.65478 0.856966L12.7995 10.0017L21.9443 0.856966C22.2927 0.520442 22.7594 0.334232 23.2438 0.338441C23.7282 0.34265 24.1915 0.536942 24.5341 0.87947C24.8766 1.222 25.0709 1.68536 25.0751 2.16975C25.0793 2.65414 24.8931 3.1208 24.5566 3.46923L14.1057 13.9201Z" fill="#E5223A"/>
</svg>
