<svg width="18" height="18" viewBox="0 0 18 18" fill="none" xmlns="http://www.w3.org/2000/svg">
<path id="Vector" d="M10.454 12.5971C10.4187 12.5622 10.3711 12.5426 10.3215 12.5426C10.2719 12.5426 10.2244 12.5622 10.1891 12.5971L7.46577 15.3204C6.20488 16.5813 4.07682 16.7149 2.68468 15.3204C1.29019 13.9259 1.42378 11.8002 2.68468 10.5393L5.40803 7.81596C5.48068 7.7433 5.48068 7.62378 5.40803 7.55112L4.47524 6.61834C4.44001 6.58345 4.39242 6.56387 4.34283 6.56387C4.29324 6.56387 4.24565 6.58345 4.21041 6.61834L1.48706 9.34169C-0.495687 11.3244 -0.495687 14.5329 1.48706 16.5133C3.46981 18.4937 6.6783 18.4961 8.6587 16.5133L11.3821 13.79C11.4547 13.7173 11.4547 13.5978 11.3821 13.5251L10.454 12.5971ZM16.5147 1.48804C14.5319 -0.49471 11.3235 -0.49471 9.34306 1.48804L6.61736 4.21139C6.58247 4.24663 6.5629 4.29421 6.5629 4.3438C6.5629 4.3934 6.58247 4.44098 6.61736 4.47622L7.5478 5.40666C7.62046 5.47931 7.73998 5.47931 7.81264 5.40666L10.536 2.68331C11.7969 1.42241 13.9249 1.28883 15.3171 2.68331C16.7116 4.0778 16.578 6.20351 15.3171 7.46441L12.5937 10.1878C12.5588 10.223 12.5393 10.2706 12.5393 10.3202C12.5393 10.3698 12.5588 10.4174 12.5937 10.4526L13.5265 11.3854C13.5992 11.458 13.7187 11.458 13.7913 11.3854L16.5147 8.66202C18.4951 6.67928 18.4951 3.47079 16.5147 1.48804ZM11.3 5.72774C11.2648 5.69285 11.2172 5.67328 11.1676 5.67328C11.118 5.67328 11.0704 5.69285 11.0352 5.72774L5.72677 11.0338C5.69187 11.0691 5.6723 11.1166 5.6723 11.1662C5.6723 11.2158 5.69187 11.2634 5.72677 11.2987L6.65486 12.2268C6.72752 12.2994 6.84704 12.2994 6.9197 12.2268L12.2258 6.92067C12.2984 6.84802 12.2984 6.72849 12.2258 6.65584L11.3 5.72774Z" fill="#E5223A"/>
</svg>
