<svg width="14" height="14" viewBox="0 0 14 14" fill="none" xmlns="http://www.w3.org/2000/svg">
<path id="Arrow 1" d="M0.370613 12.109C-0.00498259 12.4846 -0.00498259 13.0935 0.370613 13.4691C0.746209 13.8447 1.35517 13.8447 1.73077 13.4691L0.370613 12.109ZM13.4823 1.31924C13.4823 0.788071 13.0517 0.357471 12.5205 0.35747L3.86455 0.35747C3.33338 0.357471 2.90278 0.788071 2.90278 1.31924C2.90278 1.85042 3.33338 2.28102 3.86455 2.28102L11.5587 2.28102L11.5587 9.9752C11.5587 10.5064 11.9893 10.937 12.5205 10.937C13.0517 10.937 13.4823 10.5064 13.4823 9.9752L13.4823 1.31924ZM1.73077 13.4691L13.2006 1.99932L11.8404 0.639167L0.370613 12.109L1.73077 13.4691Z" fill="white"/>
</svg>
