<svg width="12" height="12" viewBox="0 0 12 12" fill="none" xmlns="http://www.w3.org/2000/svg">
<path id="Arrow 1" d="M1.18401 9.86943C0.879444 10.174 0.879444 10.6678 1.18401 10.9724C1.48857 11.2769 1.98237 11.2769 2.28694 10.9724L1.18401 9.86943ZM11.8161 1.12019C11.8161 0.68947 11.4669 0.340302 11.0362 0.340302L4.01719 0.340302C3.58647 0.340302 3.2373 0.68947 3.2373 1.12019C3.2373 1.55091 3.58647 1.90008 4.01719 1.90008H10.2563V8.13918C10.2563 8.5699 10.6055 8.91907 11.0362 8.91907C11.4669 8.91907 11.8161 8.5699 11.8161 8.13918L11.8161 1.12019ZM2.28694 10.9724L11.5876 1.67165L10.4847 0.568726L1.18401 9.86943L2.28694 10.9724Z" fill="white"/>
</svg>
