<svg width="139" height="139" viewBox="0 0 139 139" fill="none" xmlns="http://www.w3.org/2000/svg">
<rect x="11.8809" y="10.2305" width="115.495" height="115.495" rx="57.7476" fill="#FBEBEA"/>
<circle cx="70.255" cy="67.9776" r="40.7999" fill="#E5223A"/>
<path d="M73.3052 52.9104L73.2731 52.8651L70.9126 49.5319C70.9126 49.5319 70.9126 49.5319 70.9126 49.5319C70.8163 49.3959 70.6887 49.285 70.5407 49.2084C70.3927 49.1318 70.2284 49.0919 70.0618 49.0919L73.3052 52.9104ZM73.3052 52.9104L73.3582 52.927M73.3052 52.9104L73.3582 52.927M73.3582 52.927L77.2586 54.1434C77.2586 54.1434 77.2586 54.1434 77.2587 54.1434C77.4177 54.1931 77.5625 54.2801 77.681 54.3972C77.7995 54.5144 77.8882 54.6582 77.9397 54.8167C77.9911 54.9752 78.0039 55.1437 77.9768 55.3081C77.9497 55.4725 77.8837 55.628 77.7841 55.7617L75.3439 59.037L75.3108 59.0815M73.3582 52.927L75.3108 59.0815M75.3108 59.0815L75.3114 59.137M75.3108 59.0815L75.3114 59.137M75.3114 59.137L75.3597 63.2209L75.3597 63.221M75.3114 59.137L75.3597 63.221M75.3597 63.221C75.3618 63.3877 75.3239 63.5524 75.2492 63.7014C75.1745 63.8504 75.0652 63.9793 74.9304 64.0774C74.7956 64.1754 74.6392 64.2397 74.4745 64.2649C74.3097 64.29 74.1413 64.2753 73.9834 64.222L70.1144 62.9114L70.0618 62.8935M75.3597 63.221L70.0618 62.8935M70.0618 62.8935L70.0091 62.9114M70.0618 62.8935L70.0091 62.9114M70.0091 62.9114L66.1402 64.222C65.9822 64.2753 65.8138 64.29 65.6491 64.2649C65.4843 64.2397 65.328 64.1754 65.1932 64.0774C65.0583 63.9793 64.949 63.8504 64.8743 63.7014C64.7996 63.5524 64.7617 63.3877 64.7638 63.221L64.7638 63.2209M70.0091 62.9114L64.7638 63.2209M64.7638 63.2209L64.8121 59.137L64.8128 59.0815M64.7638 63.2209L64.8128 59.0815M64.8128 59.0815L64.7796 59.037M64.8128 59.0815L64.7796 59.037M64.7796 59.037L62.3419 55.7617L62.3418 55.7616M64.7796 59.037L62.3418 55.7616M62.3418 55.7616C62.2422 55.6281 62.176 55.4727 62.1488 55.3084M62.3418 55.7616L62.1488 55.3084M62.1488 55.3084C62.1217 55.1441 62.1342 54.9757 62.1855 54.8172M62.1488 55.3084L62.1855 54.8172M62.1855 54.8172C62.2367 54.6588 62.3252 54.5149 62.4434 54.3977M62.1855 54.8172L62.4434 54.3977M62.4434 54.3977C62.5616 54.2805 62.7062 54.1933 62.865 54.1434M62.4434 54.3977L62.865 54.1434M62.865 54.1434C62.8651 54.1434 62.8651 54.1434 62.8652 54.1433L62.865 54.1434ZM70.1958 52.1276L70.0618 51.9381L69.9278 52.1276L68.3179 54.4036L68.3178 54.4037C68.1854 54.5912 67.9948 54.7297 67.7756 54.7979L67.7756 54.7979L65.1133 55.6257L64.892 55.6946L65.0304 55.8805L66.6958 58.1179L66.6962 58.1184C66.8337 58.3017 66.9069 58.5251 66.9047 58.7542C66.9047 58.7543 66.9047 58.7544 66.9047 58.7545L66.8685 61.5417L66.8655 61.7736L67.0852 61.6994L69.7281 60.8063C69.9445 60.7332 70.179 60.7332 70.3954 60.8063C70.3954 60.8063 70.3954 60.8063 70.3954 60.8063L73.0383 61.6994L73.2578 61.7735L73.255 61.5419L73.2212 58.7541L73.2212 58.754C73.2184 58.5251 73.2909 58.3016 73.4277 58.118L73.4277 58.1179L75.0931 55.8805L75.2315 55.6946L75.0102 55.6257L72.348 54.7979L72.3479 54.7979C72.1288 54.7297 71.9382 54.5912 71.8057 54.4037L71.8057 54.4036L70.1958 52.1276Z" fill="white" stroke="#E5223A" stroke-width="0.328294"/>
<path d="M70.0639 45.1431C66.8197 45.1431 63.7083 46.4318 61.4143 48.7258C59.1203 51.0198 57.8315 54.1312 57.8315 57.3754C57.8315 60.6196 59.1203 63.731 61.4143 66.025C63.7083 68.319 66.8197 69.6078 70.0639 69.6078C73.3081 69.6078 76.4195 68.319 78.7135 66.025C81.0075 63.731 82.2963 60.6196 82.2963 57.3754C82.2963 54.1312 81.0075 51.0198 78.7135 48.7258C76.4195 46.4318 73.3081 45.1431 70.0639 45.1431ZM55.7462 57.3754C55.7462 53.5781 57.2546 49.9364 59.9397 47.2513C62.6248 44.5662 66.2666 43.0577 70.0639 43.0577C73.8612 43.0577 77.503 44.5662 80.188 47.2513C82.8731 49.9364 84.3816 53.5781 84.3816 57.3754C84.3816 61.1727 82.8731 64.8145 80.188 67.4996C77.503 70.1847 73.8612 71.6931 70.0639 71.6931C66.2666 71.6931 62.6248 70.1847 59.9397 67.4996C57.2546 64.8145 55.7462 61.1727 55.7462 57.3754Z" fill="white" stroke="#E5223A" stroke-width="0.328294"/>
<path d="M60.8756 66.0978L60.8755 66.0977C60.7529 66.0361 60.6195 65.9992 60.4827 65.9892C60.3459 65.9792 60.2085 65.9963 60.0783 66.0395L60.0266 65.8837L60.0783 66.0395C59.9481 66.0827 59.8277 66.1511 59.7241 66.2409C59.6204 66.3307 59.5354 66.4401 59.4741 66.5628L49.8195 85.8719L49.8195 85.872C49.7333 86.0442 49.6964 86.2368 49.7129 86.4286C49.7295 86.6205 49.7988 86.8039 49.9133 86.9588C50.0277 87.1136 50.1828 87.2337 50.3613 87.3058C50.5399 87.3779 50.7349 87.3991 50.9247 87.3672L50.925 87.3672L57.1497 86.3293L57.2881 86.3062L57.3325 86.4393L59.4202 92.7026L60.8756 66.0978ZM60.8756 66.0978C61.1223 66.2217 61.3097 66.4383 61.3969 66.7003M60.8756 66.0978L61.3969 66.7003M52.604 84.9731L52.7481 84.6848L61.3406 67.495L52.604 84.9731ZM52.604 84.9731L52.9219 84.9201M52.604 84.9731L52.9219 84.9201M52.9219 84.9201L57.8216 84.1043L57.8218 84.1043M52.9219 84.9201L57.8218 84.1043M57.8218 84.1043C58.0669 84.0632 58.3186 84.111 58.5315 84.2391C58.7445 84.3672 58.9047 84.5671 58.9833 84.8029L58.9833 84.8029M57.8218 84.1043L58.9833 84.8029M58.9833 84.8029L60.4146 89.092L60.5485 89.4933M58.9833 84.8029L60.5485 89.4933M60.5485 89.4933L60.7203 89.1067M60.5485 89.4933L60.7203 89.1067M60.7203 89.1067L69.1101 70.2272L69.1102 70.2271M60.7203 89.1067L69.1102 70.2271M69.1102 70.2271C69.2224 69.9744 69.4305 69.7766 69.6886 69.6772M69.1102 70.2271L69.6886 69.6772M61.3969 66.7003C61.4841 66.9621 61.4638 67.2479 61.3407 67.4949L61.3969 66.7003ZM69.6886 69.6772C69.9467 69.5779 70.2338 69.5852 70.4865 69.6974M69.6886 69.6772L70.4865 69.6974M70.4865 69.6974C70.7393 69.8097 70.9371 70.0178 71.0364 70.2759M70.4865 69.6974L71.0364 70.2759M71.0364 70.2759C71.1357 70.534 71.1285 70.821 71.0162 71.0738M71.0364 70.2759L71.0162 71.0738M71.0162 71.0738C71.0162 71.0738 71.0162 71.0738 71.0162 71.0738M71.0162 71.0738L71.0162 71.0738M71.0162 71.0738L61.3617 92.7964L71.0162 71.0738ZM60.9558 93.2602C61.1347 93.1501 61.2761 92.9885 61.3616 92.7966L60.9558 93.2602ZM60.9558 93.2602C60.7768 93.3704 60.5687 93.4239 60.3589 93.4137M60.9558 93.2602L60.3589 93.4137M60.3589 93.4137C60.149 93.4036 59.947 93.3303 59.7795 93.2034M60.3589 93.4137L59.7795 93.2034M59.7795 93.2034C59.6121 93.0765 59.4868 92.902 59.4203 92.7027L59.7795 93.2034Z" fill="white" stroke="#E5223A" stroke-width="0.328294"/>
<path d="M79.2501 66.0977L79.25 66.0978C79.0034 66.2217 78.8159 66.4383 78.7287 66.7003C78.6415 66.9621 78.6618 67.2479 78.7849 67.4949L79.2501 66.0977ZM79.2501 66.0977C79.3727 66.0361 79.5061 65.9992 79.6429 65.9892C79.7797 65.9792 79.9171 65.9963 80.0473 66.0395C80.1775 66.0827 80.2979 66.1511 80.4015 66.2409L80.509 66.1168L80.4015 66.2409C80.5052 66.3307 80.5902 66.4401 80.6515 66.5628L90.3061 85.8719L90.3061 85.872C90.3924 86.0442 90.4292 86.2368 90.4127 86.4286C90.3961 86.6205 90.3268 86.8039 90.2123 86.9588C90.0979 87.1136 89.9428 87.2337 89.7643 87.3058C89.5858 87.3779 89.3908 87.3991 89.2009 87.3672L89.2007 87.3672L82.9759 86.3293L82.8375 86.3062M79.2501 66.0977L82.8375 86.3062M82.8375 86.3062L82.7931 86.4393M82.8375 86.3062L82.7931 86.4393M82.7931 86.4393L80.7054 92.7026L82.7931 86.4393ZM87.3775 84.6848L78.785 67.495L78.7639 92.7964L69.1094 71.0738C69.1094 71.0738 69.1094 71.0738 69.1094 71.0738C68.9971 70.821 68.9899 70.534 69.0892 70.2759C69.1885 70.0178 69.3863 69.8097 69.6391 69.6974C69.8919 69.5852 70.1789 69.5779 70.437 69.6772C70.6951 69.7766 70.9032 69.9744 71.0155 70.2271L71.0155 70.2272L79.4053 89.1067L79.5771 89.4933L79.711 89.092L81.1423 84.8029L81.1423 84.8029C81.2209 84.5671 81.3811 84.3672 81.5941 84.2391C81.807 84.111 82.0587 84.0632 82.3038 84.1043L82.304 84.1043L87.2037 84.9201L87.5216 84.9731L87.3775 84.6848ZM79.1698 93.2602C78.9909 93.1501 78.8495 92.9885 78.764 92.7966L80.7053 92.7027C80.6388 92.902 80.5135 93.0765 80.3461 93.2034C80.1786 93.3303 79.9766 93.4036 79.7668 93.4137C79.5569 93.4239 79.3488 93.3704 79.1698 93.2602Z" fill="white" stroke="#E5223A" stroke-width="0.328294"/>
<circle cx="69.628" cy="69.2335" r="68.4183" stroke="#E5223A" stroke-width="1.25538"/>
<circle cx="120.471" cy="23.4114" r="6.41142" fill="#FBEBEA" stroke="white" stroke-width="0.986372"/>
<circle cx="27.5726" cy="125.098" r="6.41142" fill="#FBEBEA" stroke="white" stroke-width="0.986372"/>
</svg>
