<svg width="23" height="23" viewBox="0 0 23 23" fill="none" xmlns="http://www.w3.org/2000/svg">
<g id="Group 1261157048">
<path id="Vector" d="M15.0031 1.77995C16.1875 2.79091 17.0161 4.14034 17.1651 5.71639C17.2762 7.47083 16.801 9.03622 15.6462 10.3729C14.6202 11.4706 13.1512 12.1662 11.6499 12.2179C9.95122 12.2512 8.44844 11.7407 7.19941 10.5733C6.02762 9.38556 5.45911 7.85775 5.46688 6.20592C5.49667 4.85553 5.98961 3.61738 6.83528 2.57254C6.86197 2.53877 6.88867 2.505 6.91617 2.47021C7.10022 2.24526 7.30907 2.05739 7.53391 1.87391C7.59595 1.82229 7.59595 1.82229 7.65925 1.76962C9.76348 0.099741 12.9096 0.0608761 15.0031 1.77995ZM10.9201 1.73824C9.70518 1.88004 8.58562 2.43853 7.78342 3.37098C7.00938 4.36543 6.56337 5.55644 6.70877 6.82789C6.8554 7.96733 7.31611 8.9015 8.13274 9.70858C8.1685 9.74486 8.20427 9.78114 8.24112 9.81852C8.86033 10.4098 9.73202 10.8284 10.578 10.9561C10.6128 10.9616 10.6477 10.9671 10.6836 10.9727C11.8938 11.1342 13.0694 10.8113 14.0579 10.1109C14.1833 10.0143 14.3023 9.91378 14.4204 9.80838C14.4613 9.77216 14.5023 9.73595 14.5444 9.69863C15.3827 8.91109 15.9142 7.76733 15.9674 6.61463C15.97 6.58015 15.9725 6.54567 15.9752 6.51015C16.0237 5.32929 15.5698 4.14376 14.776 3.27741C13.8402 2.29526 12.6749 1.74456 11.3109 1.70861C11.18 1.71403 11.0505 1.72657 10.9201 1.73824Z" fill="#7E7F91" stroke="#7E7F91" stroke-width="0.5"/>
<path id="Vector_2" d="M18.6681 15.9653C18.7492 16.0422 18.8303 16.1191 18.9114 16.1961C18.9787 16.2536 19.0463 16.3108 19.1141 16.3676C20.6401 17.7048 21.6199 19.7761 21.8057 21.7851C21.8288 22.274 21.8288 22.274 21.656 22.4838C21.5121 22.633 21.3638 22.6681 21.1584 22.6865C20.9932 22.6814 20.8917 22.6271 20.7578 22.5337C20.6384 22.3637 20.5864 22.227 20.5603 22.022C20.5499 21.9464 20.5499 21.9464 20.5392 21.8694C20.5321 21.8158 20.525 21.7623 20.5176 21.7071C20.3376 20.4949 19.9274 19.3916 19.2108 18.3918C19.1806 18.3495 19.1806 18.3495 19.1497 18.3063C18.4011 17.2762 17.4319 16.4557 16.3165 15.8467C16.2857 15.8299 16.255 15.813 16.2233 15.7956C14.7235 14.9834 13.0671 14.5882 11.3668 14.5867C11.3317 14.5867 11.2967 14.5866 11.2605 14.5866C9.56412 14.5892 7.92903 14.9857 6.43582 15.7968C6.37767 15.8275 6.31952 15.8581 6.2596 15.8896C5.59206 16.2535 4.98811 16.7184 4.43973 17.244C4.39644 17.2841 4.35314 17.3243 4.30854 17.3656C3.0624 18.5568 2.27048 20.2274 2.09992 21.9385C2.06984 22.209 2.01764 22.371 1.84481 22.5836C1.69569 22.7007 1.53446 22.7042 1.34734 22.6993C1.1784 22.6727 1.07423 22.5932 0.946566 22.4838C0.662911 22.0208 0.914728 21.1955 1.02732 20.7017C1.17573 20.1055 1.37448 19.5418 1.6452 18.9906C1.66159 18.9567 1.67797 18.9227 1.69486 18.8878C2.06795 18.123 2.53515 17.4364 3.12258 16.8204C3.22025 16.718 3.31154 16.6142 3.40114 16.5048C3.56373 16.3139 3.74781 16.1561 3.94071 15.9965C3.97822 15.9647 3.97822 15.9647 4.01648 15.9323C5.06604 15.0463 6.24085 14.4036 7.53367 13.9505C7.58563 13.9319 7.58563 13.9319 7.63864 13.9131C11.247 12.6429 15.8072 13.3687 18.6681 15.9653Z" fill="#7E7F91" stroke="#7E7F91" stroke-width="0.5"/>
</g>
</svg>
