<svg width="37" height="37" viewBox="0 0 37 37" fill="none" xmlns="http://www.w3.org/2000/svg">
<rect x="0.309814" y="0.310547" width="36.3803" height="36.3803" rx="6.92958" fill="#18B8EA"/>
<path d="M9.55473 15.2057C9.31132 14.848 9.33644 14.848 9.83885 14.4071C10.906 13.4698 11.9126 12.4442 13.075 11.6248C14.1275 10.8868 15.5229 10.4104 16.4766 11.5841C17.355 12.666 17.3758 14.3057 17.5984 15.612C17.821 16.9667 18.0341 18.3527 18.5088 19.6485C18.6404 20.0132 18.8925 20.7027 19.3473 20.7607C19.9345 20.8413 20.5322 19.8114 20.8051 19.4268C21.5128 18.4047 22.4725 17.0282 22.3513 15.7142C22.2317 14.3179 20.7245 14.5803 19.7821 14.9138C19.9337 13.3468 21.3915 11.585 22.7965 10.9899C24.2864 10.3714 26.5004 10.3818 27.2488 12.0614C28.0475 13.8822 27.3294 15.9966 26.4589 17.6467C25.5095 19.438 24.2855 21.096 22.9784 22.6448C21.8255 24.0203 20.4612 25.5292 18.7426 26.1867C16.7789 26.9351 15.6156 25.4764 14.9469 23.7873C14.2167 21.9483 13.8537 19.8841 13.3271 17.9698C13.1053 17.1599 12.842 16.2391 12.3162 15.5704C11.6302 14.7094 10.8506 15.5193 10.1732 15.9845C9.93933 15.7532 9.74789 15.4587 9.55473 15.2057Z" fill="white"/>
</svg>
