<svg width="37" height="37" viewBox="0 0 37 37" fill="none" xmlns="http://www.w3.org/2000/svg">
<rect y="0.310547" width="36.3803" height="36.3803" rx="6.92958" fill="#CF201F"/>
<path fill-rule="evenodd" clip-rule="evenodd" d="M18.1901 10.6182C19.0326 10.6182 19.8967 10.6398 20.7342 10.6753L21.7234 10.7226L22.6703 10.7788L23.5571 10.8389L24.367 10.9019C25.2461 10.9688 26.0733 11.3438 26.7031 11.9607C27.3329 12.5777 27.7247 13.3971 27.8096 14.2746L27.849 14.6934L27.9229 15.59C27.9919 16.5191 28.0432 17.532 28.0432 18.5006C28.0432 19.4691 27.9919 20.482 27.9229 21.4112L27.849 22.3078L27.8096 22.7265C27.7247 23.6042 27.3327 24.4237 26.7027 25.0407C26.0728 25.6577 25.2453 26.0325 24.366 26.0992L23.5581 26.1613L22.6713 26.2224L21.7234 26.2785L20.7342 26.3258C19.8867 26.3625 19.0385 26.3816 18.1901 26.383C17.3418 26.3816 16.4936 26.3625 15.6461 26.3258L14.6568 26.2785L13.71 26.2224L12.8232 26.1613L12.0133 26.0992C11.1342 26.0323 10.3069 25.6574 9.67718 25.0404C9.04742 24.4234 8.65557 23.604 8.57064 22.7265L8.53123 22.3078L8.45733 21.4112C8.38229 20.4427 8.34219 19.4719 8.33713 18.5006C8.33713 17.532 8.38836 16.5191 8.45733 15.59L8.53123 14.6934L8.57064 14.2746C8.65553 13.3973 9.04725 12.578 9.67681 11.961C10.3064 11.3441 11.1334 10.969 12.0123 10.9019L12.8212 10.8389L13.708 10.7788L14.6559 10.7226L15.6451 10.6753C16.493 10.6386 17.3415 10.6195 18.1901 10.6182ZM16.2195 16.1112V20.8899C16.2195 21.3451 16.7122 21.6289 17.1063 21.4023L21.2446 19.0129C21.3346 18.9611 21.4094 18.8864 21.4614 18.7965C21.5134 18.7065 21.5408 18.6045 21.5408 18.5006C21.5408 18.3967 21.5134 18.2946 21.4614 18.2047C21.4094 18.1147 21.3346 18.0401 21.2446 17.9882L17.1063 15.5998C17.0164 15.5479 16.9144 15.5206 16.8106 15.5206C16.7068 15.5207 16.6048 15.548 16.515 15.5999C16.4251 15.6519 16.3505 15.7266 16.2986 15.8165C16.2467 15.9064 16.2195 16.0084 16.2195 16.1122V16.1112Z" fill="white"/>
</svg>
